<svg xmlns="http://www.w3.org/2000/svg" xmlns:xlink="http://www.w3.org/1999/xlink" width="612" height="613.266" viewBox="1356.5 791.949 612 613.266"><symbol id="a" viewBox="-16 -28.444 32 56.889"><path fill="#826E77" d="M.593 21.926h.77v-1.185h-.77zM-1.363 21.926h.77v-1.185h-.77zM-1.363 17.186h.77V16h-.77zM.593 17.186h.77V16h-.77zM0-11.852h-.723a.595.595 0 0 1-.575-.449l-.48-1.921v-11.853H0v14.223zM1.778-14.222l-.48 1.921c-.003.012-.008.021-.011.032l.011-.032.48-1.921z"/><path fill="#695A69" d="M.593 20.741v2.371H-.593v-34.964H0v-14.223h-1.778l-1.778-1.185v-1.186h7.111v1.186l-1.778 1.185v11.853l-.48 1.921c-.003.012-.008.021-.011.032a.591.591 0 0 1-.563.417h-.13v32.593zM-1.363 20.741v1.185a6.349 6.349 0 0 1-6.341 6.341h-.593v-.829h.593a5.518 5.518 0 0 0 5.511-5.512v-7.111h.83v5.926z"/><path fill="#826E77" d="M-16 28.444h7.704V27.26H-16z"/><path fill="#F2D057" d="M-16 26.548c0-.262.212-.474.474-.474h6.755c.262 0 .474.212.474.474v.712H-16v-.712z"/><path fill="#695A69" d="M7.704 28.267a6.349 6.349 0 0 1-6.341-6.341v-7.112h.83v7.111a5.518 5.518 0 0 0 5.511 5.512h.593v.829h-.593z"/><path fill="#826E77" d="M8.296 28.444V27.26H16v1.184z"/><path fill="#F2D057" d="M8.296 26.548c0-.262.212-.474.474-.474h6.755c.262 0 .475.212.475.474v.712H8.296v-.712z"/></symbol><path fill="#A7D9FF" d="M1356.5 791.949v283h612v-283z"/><path fill="#BEE6FF" d="M1359.691 853.355c-1.067 0-2.127.012-3.191.016v217.672h258.113a315.113 315.113 0 0 0 12.695-5.752c46.552-22.313 74.392-50.573 74.392-81.32 0-72.137-153.122-130.616-342.009-130.616z"/><path fill="#D2EEFF" d="M1356.5 897.312v217.685h254.388a315.113 315.113 0 0 0 12.695-5.752c46.552-22.313 74.392-50.573 74.392-81.32 0-72.07-152.834-130.503-341.475-130.613z"/><path fill="#94B749" d="M1356.5 1074.949h612v97.878h-612z"/><path fill="#89A943" d="M1356.5 1050.122h612v59.836h-612z"/><path fill="#82984D" d="M1356.5 1074.525h612v8.292h-612z"/><path fill="#546C7D" d="M1791.794 1165.21s-31.004.175-31.386.23l-4.57 7.958 36.407.127-.451-8.315z"/><path fill="#D6E1E8" d="M1787.08 1166.625l2.205 2.696 11.921-.019-4.216-2.677zM1756.124 1166.625l-4.356 2.759 11.879-.02 2.24-2.739z"/><path opacity=".15" d="M1756.124 1166.625l-4.356 2.759-6.178 3.741 14.745.4 5.552-6.9zM1787.08 1166.625l2.205 2.696 11.921-.019-4.216-2.677z"/><path fill="#D6E1E8" d="M1772.564 1158.457h-3.578l-12.862 8.168h9.763zM1787.08 1166.625h9.91l-12.862-8.168h-3.725z"/><path fill="#B8C2C8" d="M1772.564 1158.457l-6.677 8.168h21.193l-6.677-8.168z"/><path fill="#CEAF51" d="M1776.255 1159.107l-.153 1.415h.91l-.137-1.415z"/><path fill="#B8C2C8" d="M1745.59 1173.125l14.745.4 4.009-4.983-12.576.842zM1807.766 1173.525h-15.521l-4.062-5.552h10.93z"/><path fill="#9FC54E" d="M1356.5 1172.827h612v232.388h-612z"/><path fill="#7CA188" d="M1789.658 896.06c20.244 0 39.224 39.771 70.854 39.976-21.719-.41-50.61-39.976-70.854-39.976z"/><path fill="#71997E" d="M1950.699 1030.575a454.216 454.216 0 0 0 17.801 15.821v-36.521c-5.512 6.819-11.437 13.772-17.801 20.7zM1789.463 976.011c-10.978.829-22.799 17.909-35.464 8.325-9.468-7.158-35.588-22.854-59.733-34.728a316.82 316.82 0 0 0-11.71 31.167 309.465 309.465 0 0 1 2.184 7.252c.271.938.526 1.881.788 2.822.405 1.449.804 2.9 1.187 4.358.324 1.229.638 2.463.946 3.698.275 1.098.542 2.198.804 3.3.356 1.488.708 2.979 1.042 4.475.131.585.252 1.174.379 1.76a315.517 315.517 0 0 1 4.498 25.817l.001.005.001.004.17 1.294c.191 1.493.378 2.988.547 4.488.081.701.156 1.403.233 2.106a250.833 250.833 0 0 1 .49 4.783c.049.54.1 1.08.146 1.621 21.56 1.083 47.263 24.787 74.492 18.684l-.532 8.706h195.027a820.432 820.432 0 0 0 3.541-3.828v-14.51c-54.165-25.758-165.199-82.648-179.037-81.599z"/><path fill="#71997E" d="M1790.27 978.922c-10.637.805-22.09 17.388-34.361 8.083-9.173-6.95-34.48-22.189-57.875-33.716a308.203 308.203 0 0 0-11.346 30.259 292.984 292.984 0 0 1 2.115 7.041c.264.91.511 1.826.764 2.739.393 1.407.779 2.816 1.15 4.231a309.304 309.304 0 0 1 1.695 6.795c.345 1.444.686 2.892 1.01 4.344.126.568.244 1.14.367 1.709a307.058 307.058 0 0 1 4.357 25.065l.001.005.001.003.165 1.257c.186 1.449.366 2.901.529 4.357.079.681.151 1.362.227 2.045.166 1.518.328 3.038.468 4.563l.007.08c.048.524.097 1.049.143 1.574 20.889 1.052 45.792 24.065 72.175 18.14l-.516 8.452h188.96a835.726 835.726 0 0 0 8.194-8.954v-6.592c-50.414-23.752-164.404-82.53-178.23-81.48z"/><path fill="#7CA188" d="M1950.699 1030.575c-45.471-42.55-78.669-89.323-88.753-94.124-.102-.048-.206-.101-.303-.141l-.087-.036c-.387-.15-.735-.233-1.044-.239-31.631-.205-50.61-39.976-70.854-39.976-17.902 0-67.42 39.019-92.646 48.057a325.342 325.342 0 0 0-2.452 5.492c24.12 11.873 50.213 27.569 59.671 34.728 12.652 9.584 24.461-7.496 35.428-8.325 13.822-1.049 124.729 55.834 178.842 81.596v-11.21a454.36 454.36 0 0 1-17.802-15.822zM1964.973 1075.949h3.527v-3.817a871.605 871.605 0 0 1-3.527 3.817zM1694.674 1034.239l.002.02.001.004-.001-.005a308.884 308.884 0 0 0-.002-.019zM1690.183 1008.44c-.127-.586-.248-1.175-.378-1.76-.333-1.497-.687-2.985-1.041-4.475a328.07 328.07 0 0 0-1.748-6.998 288.229 288.229 0 0 0-1.186-4.358c-.262-.941-.518-1.885-.787-2.822a309.427 309.427 0 0 0-2.182-7.252 315.176 315.176 0 0 0-11.024-29.672c-24.989 14.913-61.253 44.895-65.478 44.895-10.122 0-34.162-8.744-43.02-8.744s-74.498 46.534-87.305 39.976c-12.942-6.626-33.884 5.039-63.082 18.959-21.229-17.899-40.351-37.723-56.453-55.563v12.846c12.17 15.578 26.564 32.151 43.37 47.72l1.152.559c-.12.055-.244.108-.364.163 4.5 4.142 9.166 8.212 14.012 12.168 3.086 2.52 4.823 6.699 5.599 11.868h34.258v-9.994s111.344-49.969 121.466-49.969c6.326 0 16.448 1.249 16.448 1.249s-26.57 28.732-16.448 28.732c7.306 0 67.319-26.021 100.147-40.499 4.64-2.046 8.737-3.862 12.065-5.342.416 1.688.814 3.383 1.204 5.081.125.543.245 1.087.367 1.631.267 1.193.527 2.389.781 3.586.127.6.256 1.198.379 1.799.324 1.573.639 3.149.939 4.73.13.682.251 1.366.376 2.05.187 1.018.371 2.037.549 3.059a298.22 298.22 0 0 1 .835 5.079c.075.479.157.956.229 1.436a315.304 315.304 0 0 0-3.68-20.138z"/><path fill="none" d="M1694.678 1034.267l-.001-.004"/><path fill="#7CA188" d="M1695.627 1042.155zM1414.67 1064.081a312.605 312.605 0 0 1-14.012-12.168c-5.805 2.63-11.879 5.262-18.252 7.796l.238 16.24h37.624c-.775-5.169-2.512-9.348-5.598-11.868z"/><path fill="#71997E" d="M1669.692 1045.102c7.786-4.858 16.188-8.813 24.939-10.661a332.85 332.85 0 0 1 1.568 14.114l.055.004c-.048-.54-.088-1.081-.138-1.62a315.37 315.37 0 0 0-.49-4.783c-.076-.703-.151-1.405-.232-2.106a314.11 314.11 0 0 0-.547-4.488l-.17-1.294-.001-.004a316.714 316.714 0 0 0-.624-4.423c-.062-.42-.123-.842-.188-1.262-.072-.479-.154-.956-.229-1.436-.132-.838-.264-1.675-.402-2.511-.142-.857-.284-1.714-.433-2.568a342.938 342.938 0 0 0-.549-3.059c-.125-.684-.246-1.368-.376-2.05a318.837 318.837 0 0 0-.939-4.73c-.123-.601-.252-1.199-.379-1.799a331.268 331.268 0 0 0-.781-3.586c-.122-.544-.242-1.088-.367-1.631-.39-1.698-.788-3.393-1.204-5.081a4680.988 4680.988 0 0 1-12.065 5.342c-32.828 14.479-92.842 40.499-100.147 40.499-10.122 0 16.448-28.732 16.448-28.732s-10.122-1.249-16.448-1.249c-10.122 0-121.466 49.969-121.466 49.969v9.994h116.405v-1.278c1.896.452 3.86.879 5.868 1.278h48.684c6.23-1.829 11.83-4.644 16.304-8.745 7.648-7.016 17.191-15.418 27.904-22.104z"/><path fill="#5F8C6E" d="M1570.932 1075.949h5.868a158.973 158.973 0 0 1-5.868-1.278v1.278zM1701.815 1049.299c-.108-1.554-.214-3.106-.341-4.654l-.06-.005a405.026 405.026 0 0 0-1.684-16.131c-9.396 2.113-18.418 6.632-26.778 12.185-11.504 7.642-21.751 17.245-29.964 25.261-4.804 4.688-10.815 7.904-17.506 9.995h144.664l.532-8.706c-24.901 5.587-48.523-13.796-68.863-17.945z"/><path fill="#71997E" d="M1860.513 936.035c.309.006.657.089 1.044.239-.371-.15-.721-.237-1.044-.239z"/><path fill="none" d="M1861.644 936.311c.097.04.201.093.303.141"/><path fill="#7CA188" d="M1694.506 949.582l.054.026a325.342 325.342 0 0 1 2.452-5.492c-.836 1.825-1.7 3.631-2.506 5.466z"/><path fill="none" d="M1861.557 936.274l.087.036"/><path fill="#71997E" d="M1382.406 1059.709c6.373-2.534 12.447-5.166 18.252-7.796-.262-.241-.527-.48-.788-.722-12.954-6.278-27.882-13.623-43.37-21.214v45.972h26.145l-.239-16.24z"/><path fill="#7CA188" d="M1356.5 1003.472v26.506c15.488 7.591 30.416 14.936 43.37 21.214-16.806-15.569-31.2-32.142-43.37-47.72zM1696.264 1048.56c-.047-.541-.098-1.081-.146-1.621.05.539.09 1.08.138 1.62l.008.001z"/><path fill="none" d="M1696.117 1046.938a2.577 2.577 0 0 1-.008-.083M1697.079 1060.601c-.048-.985-.103-1.969-.16-2.951M1697.365 1068.673c-.013-.563-.023-1.127-.039-1.689"/><path fill="#5F8C6E" d="M1696.701 1054.276c-.129-1.91-.274-3.816-.438-5.717l-.009-.001c.167 1.902.315 3.807.447 5.718z"/><path fill="none" d="M1697.326 1066.983a328.89 328.89 0 0 0-.247-6.383"/><path fill="#5F8C6E" d="M1697.459 1075.949z"/><path fill="none" d="M1696.919 1057.649c-.064-1.127-.142-2.25-.218-3.373"/><path fill="#D6E1E8" d="M1750.222 1368.232a26.399 26.399 0 0 1-.227-3.327c0-28.601 115.796-44.646 115.796-78.126 0-9.525-10.94-17.106-27.574-23.343-41.343-19.859-136.448-26.921-155.058-37.088 4.129 3.865 26.124 9.005 52.656 14.998-33.635-5.42-60.591-9.88-60.591-15.684 0-10.029 54.447-13.512 54.447-31.298 0-12.646-46.251-11.28-57.458-21.538h-20.57c-17.768 6.947 20.131 15.195 20.131 18.399 0 10.372-124.234 8.337-124.234 37.665 0 32.082 124.234 28.944 124.234 50.915 0 3.695-2.465 6.727-6.855 9.373-15.291 6.816-43.672 11.348-73.849 19.963-52.642 12.848-114.397 34.891-130.156 95.072h314.004c-14.522-12.957-22.456-25.349-24.696-35.981z"/><path fill="#789BB4" d="M1748.94 1364.905c0-28.601 97.517-44.646 97.517-78.126 0-39.758-160.483-45.684-160.483-61.116 0-10.029 45.853-13.512 45.853-31.298 0-12.646-38.951-11.28-48.388-21.538h-17.323c-14.963 6.947 16.952 15.195 16.952 18.399 0 10.372-104.622 8.337-104.622 37.665 0 32.082 104.622 28.944 104.622 50.915 0 31.798-153.352 14.538-177.577 124.408h263.607c-13.816-14.504-20.158-28.175-20.158-39.309z"/><path fill="#E6C35A" d="M1651.982 1380.919c4.711-13.945 18.061-24.056 31.835-33.538 13.903-9.433 29.084-18.121 44.413-27.21 7.662-4.554 15.396-9.172 22.979-14.207 7.49-5.167 15.229-10.185 21.313-17.991 1.453-1.994 2.787-4.356 3.22-7.266.465-2.968-.789-6.171-2.667-8.109-3.733-3.98-8.408-5.484-12.609-7.062-8.527-3.049-17.104-5.682-25.646-8.158-17.092-4.921-34.038-9.113-50.345-13.43-8.146-2.166-16.154-4.332-23.828-6.841-3.825-1.268-7.599-2.608-11.063-4.301-1.702-.841-3.424-1.822-4.502-3-1.089-1.192-.681-1.814.825-2.991 2.937-1.863 6.813-2.894 10.286-4.209 3.557-1.201 7.058-2.396 10.506-3.556 6.926-2.265 13.623-4.456 20.048-6.556 6.429-2.126 12.589-4.218 18.265-6.857 2.812-1.365 5.579-2.747 7.854-5.053 1.094-1.087 2.135-2.926 1.654-4.83-.473-1.823-1.719-2.943-2.848-3.842-2.348-1.79-4.847-2.885-7.25-3.883-1.189-.555-17.127-5.329-20.78-6.768-3.593-1.504-6.726-3.14-8.948-5.026-1.17-.998-1.946-2.33-2.343-3.345h-1.738c.208.81.604 1.807 1.117 2.601 1.851 3.058 5.155 5.018 8.76 6.834 3.641 1.765 7.879 3.424 12.449 4.846.576.204 12.032 4.097 14.367 5.42 2.219 1.259 4.826 3.352 3.505 5.395-1.338 2.116-4.193 3.621-6.882 4.945-5.575 2.616-11.819 4.643-18.324 6.71-13.058 4.088-27.417 7.717-42.325 13.07-1.883.761-3.821 1.521-5.564 3.27-.849.81-1.626 2.543-1.085 4.021.473 1.407 1.357 2.272 2.187 3.016 3.461 2.813 7.307 4.325 11.155 5.951 7.743 3.091 15.802 5.608 23.984 8.15 16.383 5.035 33.374 9.915 50.404 15.521 8.52 2.804 17.044 5.779 25.471 9.081 4.094 1.578 8.283 3.507 10.799 6.303 2.552 2.64.97 5.951-2.123 9.081-6.148 6-14.339 10.446-22.158 14.868-7.946 4.356-16.025 8.485-24.017 12.662-15.985 8.353-31.734 16.813-46.063 26.811-7.133 5.027-13.954 10.396-19.931 16.617-6.092 6.22-10.851 13.732-13.698 21.742-2.915 8.171-3.758 16.461-3.33 24.408h7.159c-.541-7.277.088-14.776 2.592-22.078 4.578-14.395 17.039-25.666 30.713-35.557 13.767-9.907 29.224-18.515 45.046-27.063 7.918-4.284 15.953-8.525 23.94-13.055 7.918-4.668 16.054-9.08 23.066-16.054 1.687-1.814 3.377-3.874 4.234-6.775.985-2.959-.173-6.605-2.083-8.583-3.793-4.014-8.344-5.713-12.657-7.389-8.567-3.214-17.199-6.082-25.799-8.78-3.349-1.045-6.649-1.969-9.981-2.967 6.052 1.701 12.112 3.394 18.204 5.24 8.46 2.575 16.943 5.313 25.291 8.428 4.113 1.536 8.275 3.204 10.763 6.024 2.599 2.647 1.622 6.163-.958 9.546-5.23 6.59-12.961 11.666-20.331 16.529-7.502 4.83-15.245 9.301-22.943 13.731-15.417 8.844-30.786 17.337-45.105 26.762-7.138 4.716-14.083 9.718-20.299 15.358-6.369 5.878-11.568 12.955-14.561 20.958-3.228 8.662-3.611 17.456-2.441 25.724h7.253c-1.335-7.608-1.202-15.583 1.568-23.293zm-11.495-149.91c-1.466-1.325-2.003-2.223-.941-3.294 1.073-1.145 2.876-2.011 4.603-2.706.027-.007.052-.016.075-.023-.793.587-1.626 1.283-2.099 2.566-.528 1.568.284 3.147 1.042 3.973 1.602 1.757 3.429 2.723 5.251 3.687.809.417 1.65.735 2.471 1.103-3.721-1.481-7.546-3.034-10.402-5.306z"/><path fill="#D6E1E8" d="M1683.228 1157.271h-3.16l-.868.552h3.576zM1694.34 1157.823l-.868-.552h-3.307l.451.552z"/><path fill="#B8C2C8" d="M1690.616 1157.823l-.451-.552h-6.937l-.452.552z"/><g opacity=".18"><path d="M1683.292 1157.271h-3.158l-.87.552h3.578zM1694.405 1157.823l-.868-.552h-3.307l.451.552z"/><path d="M1690.681 1157.823l-.451-.552h-6.938l-.45.552z"/></g><path fill="#789BB4" d="M1651.177 1138.614h251.654v20.693h-251.654z"/><path fill="#826E77" d="M1645.684 1103.949h257.25V962.936h-257.25v141.013zm83.844-20.962v15.246h-36.207v-20.962h36.207v5.716zm41.922 0v15.246h-36.207v-20.962h36.207v5.716zm0-26.675v15.245h-36.207v-20.961h36.207v5.716zm0-26.677v15.246h-36.207v-20.962h36.207v5.716zm41.924 53.352v15.246h-36.208v-20.962h36.208v5.716zm41.922 0v15.246h-36.207v-20.962h36.207v5.716zm0-53.352v15.246h-36.207v-20.962h36.207v5.716zm5.716-53.362v-5.715h36.207v20.961h-36.207v-15.246zm0 26.685v-5.724h36.207v20.962h-36.207v-15.238zm0 26.677v-5.716h36.207v20.962h-36.207v-15.246zm0 26.677v-5.716h36.207v20.961h-36.207v-15.245zm0 26.675v-5.716h36.207v20.962h-36.207v-15.246zm-41.923-106.714v-5.715h36.207v20.961h-36.207v-15.246zm0 26.685v-5.724h36.207v20.962h-36.207v-15.238zm0 53.354v-5.716h36.207v20.961h-36.207v-15.245zm-41.923-80.039v-5.715h36.208v20.961h-36.208v-15.246zm0 26.685v-5.724h36.208v20.962h-36.208v-15.238zm0 26.677v-5.716h36.208v20.962h-36.208v-15.246zm0 26.677v-5.716h36.208v20.961h-36.208v-15.245zm-5.716-53.354v15.238h-36.207v-20.962h36.207v5.724zm-36.207-26.685v-5.715h36.207v20.961h-36.207v-15.246zm-41.922 0v-5.715h36.207v20.961h-36.207v-15.246zm0 26.685v-5.724h36.207v20.962h-36.207v-15.238zm0 26.677v-5.716h36.207v20.962h-36.207v-15.246zm0 26.677v-5.716h36.207v20.961h-36.207v-15.245zm-41.924-80.039v-5.715h36.208v20.961h-36.208v-15.246zm0 26.685v-5.724h36.208v20.962h-36.208v-15.238zm0 26.677v-5.716h36.208v20.962h-36.208v-15.246zm0 26.677v-5.716h36.208v20.961h-36.208v-15.245zm0 26.675v-5.716h36.208v20.962h-36.208v-15.246z"/><path fill="#695A69" d="M1645.684 1140.156h5.713v-30.492h78.131v30.492h5.715v-30.492h78.131v30.492h5.715v-30.492h78.13v30.492h5.715v-36.207h-257.25z"/><path fill="#6EB1E2" d="M1651.397 1115.379l24.775 24.777h53.356v-24.777z"/><path fill="#80D7F0" d="M1735.243 1115.379l24.773 24.777h53.358v-24.777z"/><path fill="#695A69" d="M1645.684 957.22h257.25v5.716h-257.25z"/><path fill="#95FFFF" d="M1651.397 976.273v15.247h15.248z"/><path fill="#6EB1E2" d="M1651.397 970.559h36.208v5.715h-36.208z"/><path fill="#80D7F0" d="M1687.605 991.52v-15.247h-36.208l15.248 15.247z"/><path fill="#95FFFF" d="M1651.397 1002.958v15.238h15.248z"/><path fill="#6EB1E2" d="M1651.397 997.234h36.208v5.724h-36.208z"/><path fill="#80D7F0" d="M1687.605 1018.196v-15.238h-36.208l15.248 15.238z"/><path fill="#95FFFF" d="M1651.397 1029.635v15.246h15.248z"/><path fill="#6EB1E2" d="M1651.397 1023.919h36.208v5.716h-36.208z"/><path fill="#80D7F0" d="M1687.605 1044.881v-15.246h-36.208l15.248 15.246z"/><path fill="#95FFFF" d="M1651.397 1056.312v15.245h15.248z"/><path fill="#6EB1E2" d="M1651.397 1050.596h36.208v5.716h-36.208z"/><path fill="#80D7F0" d="M1687.605 1071.557v-15.245h-36.208l15.248 15.245z"/><path fill="#95FFFF" d="M1693.321 976.273v15.247h15.246z"/><path fill="#6EB1E2" d="M1693.321 970.559h36.207v5.715h-36.207z"/><path fill="#80D7F0" d="M1729.528 991.52v-15.247h-36.207l15.246 15.247zM1693.321 1002.958v15.238h15.246z"/><path fill="#4B82AF" d="M1693.321 997.234h36.207v5.724h-36.207z"/><path fill="#6EB1E2" d="M1729.528 1018.196v-15.238h-36.207l15.246 15.238z"/><path fill="#95FFFF" d="M1693.321 1029.635v15.246h15.246z"/><path fill="#6EB1E2" d="M1693.321 1023.919h36.207v5.716h-36.207z"/><path fill="#80D7F0" d="M1729.528 1044.881v-15.246h-36.207l15.246 15.246z"/><path fill="#95FFFF" d="M1693.321 1098.233h15.246l-15.246-15.246z"/><path fill="#6EB1E2" d="M1693.321 1077.271h36.207v5.716h-36.207z"/><path fill="#80D7F0" d="M1708.567 1098.233h20.961v-15.246h-36.207z"/><path fill="#95FFFF" d="M1735.243 1018.196h15.247l-15.247-15.238z"/><path fill="#6EB1E2" d="M1735.243 997.234h36.207v5.724h-36.207z"/><path fill="#80D7F0" d="M1750.49 1018.196h20.96v-15.238h-36.207z"/><path fill="#95FFFF" d="M1735.243 1044.881h15.247l-15.247-15.246z"/><path fill="#6EB1E2" d="M1735.243 1023.919h36.207v5.716h-36.207z"/><path fill="#80D7F0" d="M1750.49 1044.881h20.96v-15.246h-36.207z"/><path fill="#95FFFF" d="M1735.243 1071.557h15.247l-15.247-15.245z"/><path fill="#6EB1E2" d="M1735.243 1050.596h36.207v5.716h-36.207z"/><path fill="#80D7F0" d="M1750.49 1071.557h20.96v-15.245h-36.207z"/><path fill="#95FFFF" d="M1735.243 1098.233h15.247l-15.247-15.246z"/><path fill="#6EB1E2" d="M1735.243 1077.271h36.207v5.716h-36.207z"/><path fill="#80D7F0" d="M1750.49 1098.233h20.96v-15.246h-36.207z"/><path fill="#95FFFF" d="M1777.166 976.273v15.247h15.246z"/><path fill="#6EB1E2" d="M1777.166 970.559h36.208v5.715h-36.208z"/><path fill="#80D7F0" d="M1813.374 991.52v-15.247h-36.208l15.246 15.247z"/><path fill="#95FFFF" d="M1777.166 1002.958v15.238h15.246z"/><path fill="#6EB1E2" d="M1777.166 997.234h36.208v5.724h-36.208z"/><path fill="#80D7F0" d="M1813.374 1018.196v-15.238h-36.208l15.246 15.238z"/><path fill="#95FFFF" d="M1777.166 1029.635v15.246h15.246z"/><path fill="#6EB1E2" d="M1777.166 1023.919h36.208v5.716h-36.208z"/><path fill="#80D7F0" d="M1813.374 1044.881v-15.246h-36.208l15.246 15.246z"/><path fill="#95FFFF" d="M1777.166 1098.233h15.246l-15.246-15.246z"/><path fill="#6EB1E2" d="M1777.166 1077.271h36.208v5.716h-36.208z"/><path fill="#80D7F0" d="M1792.412 1098.233h20.962v-15.246h-36.208z"/><path fill="#95FFFF" d="M1819.089 976.273v15.247h15.245z"/><path fill="#6EB1E2" d="M1819.089 970.559h36.207v5.715h-36.207z"/><path fill="#80D7F0" d="M1855.296 991.52v-15.247h-36.207l15.245 15.247z"/><path fill="#95FFFF" d="M1819.089 1044.881h15.245l-15.245-15.246z"/><path fill="#6EB1E2" d="M1819.089 1023.919h36.207v5.716h-36.207z"/><path fill="#80D7F0" d="M1834.334 1044.881h20.962v-15.246h-36.207z"/><path fill="#95FFFF" d="M1819.089 1098.233h15.245l-15.245-15.246z"/><path fill="#6EB1E2" d="M1819.089 1077.271h36.207v5.716h-36.207z"/><path fill="#80D7F0" d="M1834.334 1098.233h20.962v-15.246h-36.207z"/><path fill="#95FFFF" d="M1861.012 976.273v15.247h15.245z"/><path fill="#6EB1E2" d="M1861.012 970.559h36.207v5.715h-36.207z"/><path fill="#80D7F0" d="M1897.219 991.52v-15.247h-36.207l15.245 15.247z"/><path fill="#95FFFF" d="M1861.012 1002.958v15.238h15.245z"/><path fill="#6EB1E2" d="M1861.012 997.234h36.207v5.724h-36.207z"/><path fill="#80D7F0" d="M1897.219 1018.196v-15.238h-36.207l15.245 15.238z"/><path fill="#95FFFF" d="M1861.012 1029.635v15.246h15.245z"/><path fill="#6EB1E2" d="M1861.012 1023.919h36.207v5.716h-36.207z"/><path fill="#80D7F0" d="M1897.219 1044.881v-15.246h-36.207l15.245 15.246z"/><path fill="#95FFFF" d="M1861.012 1056.312v15.245h15.245z"/><path fill="#6EB1E2" d="M1861.012 1050.596h36.207v5.716h-36.207z"/><path fill="#80D7F0" d="M1897.219 1071.557v-15.245h-36.207l15.245 15.245z"/><path fill="#95FFFF" d="M1861.012 1082.987v15.246h15.245z"/><path fill="#6EB1E2" d="M1861.012 1077.271h36.207v5.716h-36.207z"/><path fill="#80D7F0" d="M1897.219 1098.233v-15.246h-36.207l15.245 15.246z"/><path fill="#4B82AF" d="M1651.397 1109.664h78.131v5.723h-78.131z"/><path fill="#80D7F0" d="M1651.397 1140.156h24.775l-24.775-24.777z"/><path fill="#6EB1E2" d="M1735.243 1109.664h78.131v5.723h-78.131z"/><path fill="#95FFFF" d="M1735.243 1140.156h24.773l-24.773-24.777z"/><path fill="#80D7F0" d="M1735.243 976.273v15.247h15.247z"/><path fill="#4B82AF" d="M1735.243 970.559h36.207v5.715h-36.207z"/><path fill="#6EB1E2" d="M1771.45 991.52v-15.247h-36.207l15.247 15.247z"/><path fill="#80D7F0" d="M1777.166 1056.312v15.245h15.246z"/><path fill="#4B82AF" d="M1777.166 1050.596h36.208v5.716h-36.208z"/><path fill="#6EB1E2" d="M1813.374 1071.557v-15.245h-36.208l15.246 15.245z"/><path fill="#80D7F0" d="M1693.321 1056.312v15.245h15.246z"/><path fill="#4B82AF" d="M1693.321 1050.596h36.207v5.716h-36.207z"/><path fill="#6EB1E2" d="M1729.528 1071.557v-15.245h-36.207l15.246 15.245z"/><path fill="#80D7F0" d="M1651.397 1082.987v15.246h15.248z"/><path fill="#4B82AF" d="M1651.397 1077.271h36.208v5.716h-36.208z"/><path fill="#6EB1E2" d="M1687.605 1098.233v-15.246h-36.208l15.248 15.246z"/><path fill="#80D7F0" d="M1819.089 1002.958v15.238h15.245z"/><path fill="#4B82AF" d="M1819.089 997.234h36.207v5.724h-36.207z"/><path fill="#6EB1E2" d="M1855.296 1018.196v-15.238h-36.207l15.245 15.238z"/><path fill="#80D7F0" d="M1819.089 1056.312v15.245h15.245z"/><path fill="#4B82AF" d="M1819.089 1050.596h36.207v5.716h-36.207z"/><path fill="#6EB1E2" d="M1855.296 1071.557v-15.245h-36.207l15.245 15.245zM1819.089 1115.379l24.772 24.777h53.358v-24.777z"/><path fill="#4B82AF" d="M1819.089 1109.664h78.13v5.723h-78.13z"/><path fill="#80D7F0" d="M1819.089 1140.156h24.772l-24.772-24.777z"/><g><path fill="#695A69" d="M1436.15 1101.687h7.607v4.565h-7.607z"/><path fill="#A08A8A" d="M1436.15 1118.423h7.608v-4.565l-7.608-7.606z"/><path fill="#83727A" d="M1443.758 1113.858v-7.606h-7.608z"/><path fill="#695A69" d="M1436.15 1059.084h7.607v4.564h-7.607z"/><path fill="#A08A8A" d="M1436.15 1075.82h7.608v-4.565l-7.608-7.607z"/><path fill="#83727A" d="M1443.758 1071.255v-7.607h-7.608z"/><g><path fill="#695A69" d="M1436.15 1016.482h7.607v4.565h-7.607z"/><path fill="#A08A8A" d="M1436.15 1033.219h7.608v-4.565l-7.608-7.606z"/><path fill="#83727A" d="M1443.758 1028.654v-7.606h-7.608z"/></g><g><path fill="#695A69" d="M1436.15 974.064h7.607v4.564h-7.607z"/><path fill="#A08A8A" d="M1436.15 990.801h7.608v-4.566l-7.608-7.606z"/><path fill="#83727A" d="M1443.758 986.235v-7.606h-7.608z"/></g><g><path fill="#DFD0C6" d="M1466.373 1101.687v-1.521h30.43V949.539h-73.031v191.708h42.602V1101.687zm10.65-123.242v-4.564h7.607v16.736h-7.607v-12.172zm0 42.603v-4.565h7.607v16.735h-7.607v-12.17zm0 42.6v-4.563h7.607v16.735h-7.607v-12.172zm-10.65-85.203v-4.564h7.607v16.736h-7.607v-12.172zm0 42.603v-4.565h7.607v16.735h-7.607v-12.17zm0 42.6v-4.563h7.607v16.735h-7.607v-12.172zm-22.823 42.604v12.17h-7.608v-16.736h7.608v4.566zm0-42.604v12.172h-7.608v-16.736h7.608v4.564zm0-42.6v12.17h-7.608v-16.736h7.608v4.566zm0-42.603v12.172h-7.608V973.88h7.608v4.565zm10.65 127.807v12.17h-7.606v-16.736h7.606v4.566zm0-42.604v12.172h-7.606v-16.736h7.606v4.564zm0-42.6v12.17h-7.606v-16.736h7.606v4.566zm0-42.603v12.172h-7.606V973.88h7.606v4.565z"/><path fill="#695A69" d="M1466.566 1141.245h-.451v-41.08h.451v41.08z"/><path fill="#83727A" d="M1582.006 1016.482h10.65v124.763h-10.65zM1603.307 1016.482h10.65v124.763h-10.65zM1624.607 1016.482h10.65v124.763h-10.65z"/><path fill="#A08A8A" d="M1466.373 1104.729v36.516H1571.354v-36.516h-104.981zm12.172 13.694v10.651h-6.087v-16.737h6.087v6.086zm7.607 0v10.651h-6.086v-16.737h6.086v6.086zm12.172 0v10.651h-6.087v-16.737h6.087v6.086zm7.608 0v10.651h-6.087v-16.737h6.087v6.086zm12.172 0v10.651h-6.087v-16.737h6.087v6.086zm7.607 0v10.651h-6.086v-16.737h6.086v6.086zm12.172 0v10.651h-6.087v-16.737h6.087v6.086zm7.608 0v10.651h-6.087v-16.737h6.087v6.086zm12.17 0v10.651h-6.085v-16.737h6.085v6.086zm7.609 0v10.651h-6.086v-16.737h6.086v6.086z"/><path fill="#695A69" d="M1496.803 1016.482h10.649v83.683h10.652v-83.683h10.649v83.683h10.651v-83.683h10.65v83.683h10.651v-83.683h10.65v124.763h10.651v-124.763h10.65v124.763h10.651v-124.763h10.65v124.763h10.65v-124.763h10.651v124.763h10.65v-124.763h3.043v-7.606h-152.148z"/><path fill="#A08A8A" d="M1496.803 946.495v-4.564h-73.032v7.606h73.032zM1496.803 1001.269h152.148v7.607h-152.148z"/><path fill="#695A69" d="M1446.594 973.882h7.606v4.563h-7.606z"/><path fill="#A08A8A" d="M1446.594 990.618h7.606v-4.564l-7.606-7.609z"/><path fill="#83727A" d="M1454.2 986.054v-7.609h-7.606z"/><path fill="#695A69" d="M1466.373 973.882h7.607v4.563h-7.607z"/><path fill="#A08A8A" d="M1473.98 986.054l-7.607-7.609v12.173h7.607z"/><path fill="#83727A" d="M1473.98 978.445h-7.607l7.607 7.609z"/><path fill="#695A69" d="M1477.023 973.882h7.607v4.563h-7.607z"/><path fill="#A08A8A" d="M1484.631 986.054l-7.608-7.609v12.173h7.608z"/><path fill="#83727A" d="M1484.631 978.445h-7.608l7.608 7.609z"/><path fill="#695A69" d="M1446.594 1016.482h7.606v4.565h-7.606z"/><path fill="#A08A8A" d="M1446.594 1033.219h7.606v-4.564l-7.606-7.607z"/><path fill="#83727A" d="M1454.2 1028.655v-7.607h-7.606z"/><path fill="#695A69" d="M1466.373 1016.482h7.607v4.565h-7.607z"/><path fill="#A08A8A" d="M1473.98 1028.655l-7.607-7.607v12.171h7.607z"/><path fill="#83727A" d="M1473.98 1021.048h-7.607l7.607 7.607z"/><path fill="#695A69" d="M1477.023 1016.482h7.607v4.565h-7.607z"/><path fill="#A08A8A" d="M1484.631 1028.655l-7.608-7.607v12.171h7.608z"/><path fill="#83727A" d="M1484.631 1021.048h-7.608l7.608 7.607z"/><path fill="#695A69" d="M1446.594 1059.085h7.606v4.563h-7.606z"/><path fill="#A08A8A" d="M1446.594 1075.821h7.606v-4.565l-7.606-7.608z"/><path fill="#83727A" d="M1454.2 1071.256v-7.608h-7.606z"/><path fill="#695A69" d="M1466.373 1059.085h7.607v4.563h-7.607z"/><path fill="#A08A8A" d="M1473.98 1071.256l-7.607-7.608v12.173h7.607z"/><path fill="#83727A" d="M1473.98 1063.648h-7.607l7.607 7.608z"/><path fill="#695A69" d="M1477.023 1059.085h7.607v4.563h-7.607z"/><path fill="#A08A8A" d="M1484.631 1071.256l-7.608-7.608v12.173h7.608z"/><path fill="#83727A" d="M1484.631 1063.648h-7.608l7.608 7.608z"/><path fill="#695A69" d="M1446.594 1101.687h7.606v4.565h-7.606z"/><path fill="#A08A8A" d="M1446.594 1118.423h7.606v-4.565l-7.606-7.606z"/><path fill="#83727A" d="M1454.2 1113.858v-7.606h-7.606zM1472.458 1129.073h6.087v-10.65l-6.087-6.086z"/><path fill="#695A69" d="M1478.545 1118.423v-6.086h-6.087z"/><path fill="#83727A" d="M1480.066 1129.073h6.086v-10.65l-6.086-6.086z"/><path fill="#695A69" d="M1486.152 1118.423v-6.086h-6.086z"/><path fill="#83727A" d="M1492.237 1112.337v16.736h6.087v-10.65z"/><path fill="#695A69" d="M1492.237 1112.337l6.087 6.086v-6.086z"/><path fill="#83727A" d="M1499.845 1129.073h6.087v-10.65l-6.087-6.086z"/><path fill="#695A69" d="M1505.932 1118.423v-6.086h-6.087z"/><path fill="#83727A" d="M1512.017 1129.073h6.087v-10.65l-6.087-6.086z"/><path fill="#695A69" d="M1518.104 1118.423v-6.086h-6.087z"/><path fill="#83727A" d="M1519.625 1129.073h6.086v-10.65l-6.086-6.086z"/><path fill="#695A69" d="M1525.711 1118.423v-6.086h-6.086z"/><path fill="#83727A" d="M1531.796 1129.073h6.087v-10.65l-6.087-6.086z"/><path fill="#695A69" d="M1537.883 1118.423v-6.086h-6.087z"/><path fill="#83727A" d="M1539.404 1129.073h6.087v-10.65l-6.087-6.086z"/><path fill="#695A69" d="M1545.491 1118.423v-6.086h-6.087z"/><path fill="#A08A8A" d="M1550.675 1111.436h15.495v18.538h-15.495z"/><path fill="#83727A" d="M1466.373 1100.165v4.564h104.982V1016.482h-10.65v83.683h-10.651v-83.683h-10.65v83.683h-10.651v-83.683h-10.649v83.683h-10.652v-83.683h-10.649v83.683z"/><path fill="#695A69" d="M1566.17 1128.655V1112.337h-15.388v28.909h15.388V1128.655zm-13.988 11.191v-26.111h12.59v10.258h-1.009a.392.392 0 0 0-.391.391v3.883c0 .217.175.39.391.39h1.009v11.19h-12.59v-.001z"/><path fill="#826E77" d="M1563.763 1128.655a.39.39 0 0 1-.391-.39v-3.883c0-.215.175-.391.391-.391h1.009v-10.258h-12.59v26.111h12.59v-11.19h-1.009z"/><path fill="#695A69" d="M1466.373 1103.782h104.982v.901h-104.982zM1466.373 1100.165v41.08"/><g><path fill="#73868A" d="M1545.239 979.468h-.414a.413.413 0 0 0-.413.414v21.49c0 .229.186.413.413.413h.414a.413.413 0 0 0 .413-.413v-21.49a.413.413 0 0 0-.413-.414z"/><path fill="#7F8C8D" d="M1545.239 979.468h-.414a.413.413 0 0 0-.413.414v.412h1.24v-.412a.413.413 0 0 0-.413-.414z"/><g><path fill="#464655" d="M1565.322 984.446c-6.598-4.052-13.191 4.051-19.788 0v-3.979c.002-.188.153-.248.342-.143 6.369 3.514 12.737-3.912 19.104-.398.188.103.342.354.342.541v3.979z"/><path fill="#FFE15A" d="M1564.98 992.891c-6.368-3.514-12.735 3.912-19.104.398-.188-.105-.341-.352-.342-.541v-3.979c6.597 4.051 13.191-4.051 19.788 0v3.979c0 .19-.152.247-.342.143z"/><path fill="#FF4B55" d="M1545.534 984.446c6.597 4.051 13.191-4.052 19.788 0v4.321c-6.598-4.051-13.191 4.052-19.788 0v-4.321z"/></g><g><path fill="#F5F5F5" d="M1540.268 991.757c-6.373-1.805-12.745 2.01-19.118.205-.189-.055-.341-.238-.342-.407v-10.957c0-.167.153-.254.342-.2 6.373 1.805 12.745-2.01 19.118-.205.188.054.341.238.342.405v10.957c0 .17-.155.256-.342.202z"/><g fill="#FF4B55"><path d="M1540.609 981.184c-6.601-2.082-13.201 2.082-19.802 0v-.586c0-.167.153-.254.342-.2 6.373 1.805 12.745-2.01 19.118-.205.188.054.341.238.342.405v.586zM1520.808 983.853c6.601 2.082 13.201-2.082 19.802 0v.89c-6.601-2.082-13.201 2.082-19.802 0v-.89z"/><path d="M1520.808 982.073c6.601 2.082 13.201-2.082 19.802 0v.891c-6.601-2.082-13.201 2.082-19.802 0v-.891zM1540.609 986.521c-6.486-2.046-12.974 1.939-19.46.103-.189-.054-.341-.238-.342-.406v-.585c6.601 2.082 13.201-2.082 19.802 0v.888zM1520.808 989.191c6.601 2.082 13.201-2.082 19.802 0v.89c-6.601-2.082-13.201 2.082-19.802 0v-.89z"/><path d="M1540.268 991.757c-6.373-1.805-12.745 2.01-19.118.205-.189-.055-.341-.238-.342-.407v-.585c6.601 2.082 13.201-2.082 19.802 0v.586c0 .168-.155.255-.342.201zM1520.808 987.412c6.601 2.082 13.201-2.082 19.802 0v.889c-6.601-2.082-13.201 2.082-19.802 0v-.889z"/></g><path fill="#41479B" d="M1528.721 980.596c-2.536.352-5.072.518-7.608-.209-.17-.049-.304.044-.305.211v5.62a.44.44 0 0 0 .305.396c2.536.727 5.072.561 7.608.209a.361.361 0 0 0 .305-.347v-5.62a.259.259 0 0 0-.305-.26z"/><g fill="#F5F5F5"><path d="M1521.662 981.229l.067.217c.07.018.142.034.212.05.028.007.039.043.019.056l-.172.089.064.217c.009.029-.022.043-.045.023l-.174-.165-.173.082c-.021.009-.052-.02-.043-.045l.063-.186-.171-.172c-.022-.022-.01-.053.017-.047.071.019.143.036.214.053l.065-.185c.01-.025.048-.016.057.013zM1521.662 982.285l.067.218c.07.018.142.034.212.05.028.006.039.043.019.056l-.172.088.064.218c.009.027-.022.043-.045.021l-.174-.165a13.52 13.52 0 0 1-.173.082c-.021.011-.052-.019-.043-.043l.063-.187a13.785 13.785 0 0 1-.171-.171c-.022-.022-.01-.054.017-.047.071.019.143.036.214.053l.065-.186c.01-.023.048-.014.057.013zM1521.662 983.343l.067.217c.07.018.142.033.212.049.028.006.039.043.019.057l-.172.088.064.218c.009.026-.022.044-.045.023l-.174-.166-.173.083c-.021.009-.052-.021-.043-.045l.063-.187a13.785 13.785 0 0 1-.171-.171c-.022-.023-.01-.054.017-.048.071.019.143.036.214.054l.065-.185c.01-.025.048-.016.057.013zM1521.662 984.398l.067.219c.07.018.142.033.212.049.028.006.039.043.019.056l-.172.089.064.217c.009.028-.022.043-.045.022l-.174-.164c-.058.027-.115.055-.173.081-.021.01-.052-.019-.043-.044l.063-.186-.171-.172c-.022-.022-.01-.055.017-.047.071.019.143.036.214.054l.065-.187c.01-.023.048-.014.057.013zM1521.662 985.455l.067.218c.07.018.142.034.212.05.028.006.039.043.019.055-.058.03-.114.061-.172.09l.064.217c.009.028-.022.045-.045.023l-.174-.165a13.52 13.52 0 0 1-.173.082c-.021.011-.052-.02-.043-.045l.063-.186-.171-.173c-.022-.021-.01-.053.017-.046.071.019.143.036.214.053l.065-.186c.01-.024.048-.015.057.013zM1522.481 981.912l.068.214c.071.013.143.024.214.035.025.004.039.04.015.054l-.171.101.064.213c.01.028-.021.045-.043.026l-.174-.152c-.058.031-.115.063-.173.093-.024.012-.052-.017-.044-.041l.063-.19-.17-.159c-.024-.021-.013-.055.016-.049l.213.038.067-.19c.011-.025.047-.02.055.007zM1522.481 982.97l.068.214.214.035c.025.004.039.041.015.053l-.171.102.064.213c.01.026-.021.045-.043.024l-.174-.152c-.058.031-.115.063-.173.093-.024.013-.052-.016-.044-.039l.063-.19-.17-.16c-.024-.021-.013-.053.016-.048l.213.038.067-.19c.011-.028.047-.022.055.007zM1522.481 984.026l.068.213c.071.013.143.024.214.035.025.005.039.041.015.054l-.171.101.064.214c.01.026-.021.045-.043.026l-.174-.153-.173.094c-.024.011-.052-.018-.044-.041l.063-.191-.17-.159c-.024-.021-.013-.054.016-.049l.213.038.067-.189c.011-.027.047-.02.055.007zM1522.481 985.083l.068.215.214.034c.025.004.039.04.015.054l-.171.1.064.214c.01.028-.021.045-.043.025l-.174-.152c-.058.031-.115.063-.173.093-.024.012-.052-.015-.044-.04l.063-.191-.17-.158c-.024-.021-.013-.054.016-.049l.213.039.067-.191c.011-.028.047-.021.055.007zM1523.303 981.508l.066.208.213.022c.028.003.04.038.018.053l-.172.111.063.208c.01.028-.021.046-.043.029l-.172-.142-.174.104c-.022.013-.052-.013-.045-.038l.065-.194-.172-.148c-.023-.02-.011-.053.018-.05.07.009.142.017.212.024l.068-.193c.01-.026.046-.022.055.006zM1523.303 982.564l.066.209.213.021c.028.003.04.039.018.054l-.172.11.063.209c.01.027-.021.046-.043.027l-.172-.142-.174.104c-.022.015-.052-.011-.045-.036l.065-.195-.172-.147c-.023-.02-.011-.054.018-.05.07.009.142.017.212.024l.068-.194c.01-.025.046-.02.055.006zM1523.303 983.622l.066.208.213.021c.028.002.04.038.018.054l-.172.11.063.209c.01.026-.021.047-.043.029l-.172-.143-.174.104c-.022.014-.052-.014-.045-.038l.065-.195-.172-.147c-.023-.021-.011-.055.018-.051.07.009.142.018.212.025l.068-.193c.01-.025.046-.021.055.007zM1523.303 984.678l.066.21.213.021c.028.003.04.039.018.054l-.172.111.063.208c.01.028-.021.046-.043.028l-.172-.141-.174.103c-.022.014-.052-.011-.045-.037l.065-.194-.172-.148c-.023-.021-.011-.054.018-.05.07.009.142.018.212.025l.068-.195c.01-.027.046-.022.055.005zM1523.303 985.734l.066.209c.071.008.143.016.213.021.028.003.04.039.018.053l-.172.112.063.208c.01.028-.021.048-.043.029l-.172-.142-.174.104c-.022.015-.052-.012-.045-.038l.065-.194-.172-.149c-.023-.02-.011-.052.018-.049.07.009.142.017.212.024l.068-.194c.01-.025.046-.021.055.006zM1524.123 982.09l.067.205.213.011c.028.002.038.037.018.053l-.173.12.065.205c.009.026-.021.048-.044.031l-.174-.133a8.622 8.622 0 0 1-.174.114c-.021.015-.053-.011-.043-.036l.064-.198-.172-.139c-.022-.019-.012-.052.017-.051l.213.013.067-.198c.009-.025.047-.023.056.003zM1524.123 983.147l.067.205.213.011c.028.001.038.037.018.052a18.13 18.13 0 0 1-.173.121l.065.205c.009.025-.021.047-.044.029l-.174-.133a8.622 8.622 0 0 1-.174.114c-.021.016-.053-.01-.043-.034l.064-.198-.172-.14c-.022-.018-.012-.052.017-.05l.213.013.067-.198c.009-.026.047-.025.056.003zM1524.123 984.204l.067.204.213.011c.028.002.038.037.018.053l-.173.12.065.206c.009.025-.021.047-.044.031a20.292 20.292 0 0 1-.174-.134l-.174.115c-.021.014-.053-.012-.043-.036l.064-.199-.172-.139c-.022-.019-.012-.051.017-.051l.213.013.067-.197c.009-.026.047-.024.056.003zM1524.123 985.261l.067.206.213.01c.028.001.038.037.018.053l-.173.119.065.206c.009.027-.021.047-.044.03l-.174-.133a8.622 8.622 0 0 1-.174.114c-.021.015-.053-.009-.043-.035l.064-.199c-.058-.045-.114-.091-.172-.138-.022-.019-.012-.053.017-.051.071.006.142.01.213.014l.067-.199c.009-.028.047-.026.056.003zM1524.943 981.594l.066.201.214.001c.026 0 .037.034.018.052l-.171.128.063.202c.007.027-.02.048-.044.033a18.58 18.58 0 0 1-.173-.124l-.173.123c-.022.014-.053-.007-.046-.034l.065-.201-.172-.13c-.021-.018-.01-.051.019-.052l.212.002.067-.201c.008-.027.049-.027.055 0zM1524.943 982.65l.066.202.214.001c.026-.001.037.034.018.052l-.171.127.063.203c.007.026-.02.048-.044.031a18.58 18.58 0 0 1-.173-.124l-.173.123c-.022.016-.053-.006-.046-.032l.065-.202-.172-.129c-.021-.018-.01-.053.019-.052l.212.001.067-.201c.008-.025.049-.025.055 0zM1524.943 983.708l.066.201h.214c.026-.001.037.034.018.053l-.171.127.063.203c.007.025-.02.049-.044.033l-.173-.125a18.58 18.58 0 0 1-.173.124c-.022.016-.053-.009-.046-.034l.065-.202-.172-.129c-.021-.019-.01-.053.019-.053l.212.002.067-.2c.008-.027.049-.027.055 0zM1524.943 984.764l.066.203h.214c.026-.001.037.034.018.052l-.171.128.063.202c.007.027-.02.048-.044.032l-.173-.123-.173.122c-.022.015-.053-.006-.046-.033l.065-.201-.172-.13c-.021-.018-.01-.053.019-.052l.212.003.067-.203c.008-.026.049-.026.055 0zM1524.943 985.82l.066.202.214.001c.026 0 .037.035.018.051l-.171.129.063.202c.007.027-.02.05-.044.033a18.58 18.58 0 0 1-.173-.124l-.173.123c-.022.016-.053-.007-.046-.034l.065-.201-.172-.131a.029.029 0 0 1 .019-.051c.07.001.142.002.212.001l.067-.201c.008-.026.049-.026.055 0zM1525.764 982.096l.067.199.214-.008c.027-.001.037.033.016.051l-.17.136.063.199c.008.025-.021.05-.045.035l-.172-.117-.174.13c-.022.017-.053-.005-.045-.031l.063-.204-.171-.122a.03.03 0 0 1 .018-.053l.213-.008.067-.205c.011-.026.046-.027.056-.002zM1525.764 983.153l.067.199.214-.008c.027-.002.037.033.016.05l-.17.137.063.199c.008.024-.021.049-.045.033l-.172-.117-.174.13c-.022.018-.053-.004-.045-.029l.063-.204-.171-.123c-.021-.016-.01-.051.018-.052l.213-.008.067-.205c.011-.027.046-.029.056-.002zM1525.764 984.21l.067.198.214-.008c.027 0 .037.033.016.051l-.17.136.063.2c.008.024-.021.049-.045.035l-.172-.118-.174.131c-.022.016-.053-.006-.045-.031l.063-.205-.171-.122c-.021-.017-.01-.051.018-.053l.213-.008.067-.204c.011-.026.046-.028.056-.002zM1525.764 985.267l.067.2.214-.009c.027-.001.037.033.016.051l-.17.135.063.2c.008.026-.021.048-.045.034l-.172-.117-.174.13c-.022.017-.053-.003-.045-.03l.063-.205-.171-.122c-.021-.016-.01-.052.018-.052l.213-.007.067-.206c.011-.027.046-.03.056-.002zM1526.584 981.53l.068.196.212-.016c.027-.002.039.032.018.051l-.173.141.065.197c.007.026-.022.05-.045.037l-.173-.111-.173.137c-.024.017-.052-.002-.044-.03l.064-.206-.172-.116c-.023-.016-.01-.05.018-.053l.212-.016.067-.206c.01-.027.047-.03.056-.005zM1526.584 982.587l.068.197.212-.016c.027-.002.039.032.018.051l-.173.14.065.198c.007.026-.022.05-.045.035l-.173-.11-.173.136c-.024.019-.052-.001-.044-.028l.064-.207-.172-.115c-.023-.016-.01-.051.018-.053l.212-.016.067-.207c.01-.027.047-.029.056-.005zM1526.584 983.645l.068.196.212-.017c.027-.002.039.032.018.052l-.173.14.065.198c.007.024-.022.051-.045.037a16.866 16.866 0 0 1-.173-.112l-.173.138a.028.028 0 0 1-.044-.03l.064-.207-.172-.115c-.023-.017-.01-.053.018-.054l.212-.015.067-.206c.01-.029.047-.032.056-.005zM1526.584 984.7l.068.198.212-.017c.027-.003.039.032.018.051l-.173.141.065.197c.007.026-.022.05-.045.036a16.472 16.472 0 0 0-.173-.109l-.173.135c-.024.018-.052-.001-.044-.029l.064-.206-.172-.116c-.023-.016-.01-.051.018-.053l.212-.015.067-.208c.01-.026.047-.029.056-.005zM1526.584 985.757l.068.197.212-.016c.027-.002.039.032.018.05l-.173.142.065.197c.007.026-.022.052-.045.037l-.173-.11-.173.136c-.024.018-.052-.002-.044-.03l.064-.206-.172-.117c-.023-.015-.01-.05.018-.052l.212-.016.067-.207c.01-.028.047-.031.056-.005zM1527.404 981.974l.066.195.213-.021c.028-.003.04.03.018.05l-.171.146.064.195c.008.025-.021.051-.045.038l-.173-.105-.173.142c-.023.019-.052-.002-.044-.029l.064-.208-.172-.11c-.022-.015-.012-.051.018-.054l.213-.022.066-.209c.011-.029.048-.033.056-.008zM1527.404 983.031l.066.195.213-.021c.028-.003.04.03.018.049l-.171.146.064.195c.008.024-.021.05-.045.036l-.173-.105-.173.142c-.023.02-.052-.001-.044-.027l.064-.208-.172-.111c-.022-.014-.012-.05.018-.053l.213-.022.066-.209c.011-.029.048-.033.056-.007zM1527.404 984.088l.066.194.213-.021c.028-.002.04.03.018.05l-.171.146.064.196c.008.024-.021.051-.045.038l-.173-.106-.173.143c-.023.017-.052-.003-.044-.029l.064-.209-.172-.11c-.022-.015-.012-.05.018-.054l.213-.022.066-.208c.011-.03.048-.033.056-.008zM1527.404 985.145l.066.196.213-.022c.028-.004.04.03.018.05l-.171.145.064.196c.008.026-.021.05-.045.037l-.173-.105-.173.142c-.023.018-.052 0-.044-.028l.064-.209-.172-.109c-.022-.015-.012-.051.018-.054l.213-.021.066-.21c.011-.032.048-.035.056-.008zM1528.225 981.36l.067.192.213-.026c.027-.003.039.03.017.05l-.171.149.064.193c.009.026-.022.052-.045.04a15.726 15.726 0 0 1-.173-.103 22.45 22.45 0 0 1-.174.146c-.021.017-.051 0-.043-.028l.063-.21a9.8 9.8 0 0 1-.171-.106c-.021-.015-.01-.049.016-.054l.214-.027.068-.21c.009-.026.046-.031.055-.006zM1528.225 982.417l.067.193.213-.026c.027-.004.039.03.017.05l-.171.148.064.194c.009.025-.022.052-.045.037a7.804 7.804 0 0 1-.173-.102 22.45 22.45 0 0 1-.174.146c-.021.019-.051.001-.043-.026l.063-.211-.171-.105c-.021-.014-.01-.05.016-.054l.214-.027.068-.211c.009-.026.046-.03.055-.006zM1528.225 983.475l.067.192.213-.027c.027-.004.039.03.017.051l-.171.148.064.194c.009.024-.022.053-.045.039a5.242 5.242 0 0 1-.173-.103l-.174.147c-.021.019-.051-.002-.043-.028l.063-.211-.171-.105c-.021-.015-.01-.051.016-.055l.214-.026.068-.21c.009-.028.046-.032.055-.006zM1528.225 984.53l.067.194.213-.027c.027-.004.039.03.017.05l-.171.149.064.193c.009.026-.022.051-.045.039l-.173-.102-.174.146c-.021.018-.051.001-.043-.027l.063-.21a9.8 9.8 0 0 1-.171-.106c-.021-.014-.01-.051.016-.054l.214-.026.068-.212c.009-.026.046-.031.055-.007zM1528.225 985.587l.067.193.213-.026c.027-.004.039.03.017.049l-.171.15.064.193c.009.025-.022.054-.045.039a7.804 7.804 0 0 1-.173-.102 22.45 22.45 0 0 1-.174.146c-.021.019-.051 0-.043-.028l.063-.21c-.058-.035-.114-.071-.171-.107-.021-.013-.01-.049.016-.053l.214-.027.068-.211c.009-.027.046-.031.055-.006z"/></g><path fill="#73868A" d="M1520.399 979.468h-.413a.414.414 0 0 0-.414.414v21.49c0 .229.186.413.414.413h.413a.412.412 0 0 0 .413-.413v-21.49a.411.411 0 0 0-.413-.414z"/></g></g></g><g><path fill="#83727A" d="M1467.383 1136.152h82.477v5.095h-82.477z"/><path fill="#695A69" d="M1467.383 1136.152h82.477v.854h-82.477z"/></g></g><g fill="#D6E1E8"><path d="M1872.576 1154.882H1898v.75h-25.424zM1872.576 1148.861H1898v.75h-25.424zM1872.576 1142.842H1898v.75h-25.424z"/><g><path d="M1835.288 1154.882h25.424v.75h-25.424zM1835.288 1148.861h25.424v.75h-25.424zM1835.288 1142.842h25.424v.75h-25.424z"/></g><g><path d="M1798 1154.882h25.424v.75H1798zM1798 1148.861h25.424v.75H1798zM1798 1142.842h25.424v.75H1798z"/></g></g><g fill="#D6E1E8"><path d="M1726.576 1156.562H1752v.75h-25.424zM1726.576 1150.541H1752v.75h-25.424zM1726.576 1144.521H1752v.75h-25.424z"/></g><g fill="#D6E1E8"><path d="M1689.288 1156.562h25.424v.75h-25.424zM1689.288 1150.541h25.424v.75h-25.424zM1689.288 1144.521h25.424v.75h-25.424z"/></g><g fill="#D6E1E8"><path d="M1652 1156.562h25.424v.75H1652zM1652 1150.541h25.424v.75H1652zM1652 1144.521h25.424v.75H1652z"/></g><g><path fill="#FF9164" d="M1653.801 1141.352l.303-1.211a1.65 1.65 0 0 1 .436-.769l1.896-2.366c.314-.392.79-.62 1.292-.62h9.343c.376 0 .731.171.968.464l2.289 2.847-16.527 1.655z"/><path fill="#AFF078" d="M1667.07 1136.386h-9.344a1.66 1.66 0 0 0-1.292.62l-1.896 2.366a1.668 1.668 0 0 0-.436.769l-.303 1.211 6.207 3.31h17.379v-3.178c0-.607-.438-1.128-1.038-1.225-2.095-.338-6.022-.563-6.022-.563l-2.289-2.847a1.24 1.24 0 0 0-.966-.463z"/><g fill="#96E178"><path d="M1667.07 1136.386h-9.34c-.505 0-.981.23-1.296.625l-1.806 2.271 13.215.414h2.482l-2.289-2.847a1.24 1.24 0 0 0-.966-.463zM1677.387 1141.914a.826.826 0 0 0-.593-.794c-.825-.245-2.667-.597-6.441-.597h-16.138a.414.414 0 0 0-.414.414v2.482l7.862.828h15.724v-2.333z"/></g><path fill="#8CCD73" d="M1677.387 1143.834h-19.402l-3.68-.817a.416.416 0 0 0-.494.313.415.415 0 0 0 .314.494l3.724.827c.03.007.06.01.091.01h19.447a.413.413 0 1 0 0-.827z"/><circle fill="#EDEDEE" cx="1657.731" cy="1144.455" r="1.897"/><path fill="#504B5A" d="M1657.732 1146.73a2.278 2.278 0 0 1-2.276-2.276 2.278 2.278 0 0 1 2.276-2.275 2.277 2.277 0 0 1 2.275 2.275 2.277 2.277 0 0 1-2.275 2.276zm0-3.723a1.449 1.449 0 0 0 0 2.895 1.448 1.448 0 0 0 0-2.895z"/><circle fill="#DCDBDE" cx="1657.731" cy="1144.455" r=".828"/><g fill="#8CCD73"><path d="M1669.939 1143.007h-9.104a.414.414 0 0 1 0-.828h9.104a.413.413 0 1 1 0 .828zM1677.387 1143.007h-.827a.414.414 0 0 1 0-.828h.827a.415.415 0 0 1 0 .828z"/></g><path fill="#FF6464" d="M1654.104 1140.141l-.096.383h1.034a.413.413 0 1 0 0-.827h-.753a1.655 1.655 0 0 0-.185.444z"/><circle fill="#EDEDEE" cx="1673.042" cy="1144.455" r="1.897"/><path fill="#504B5A" d="M1673.042 1146.73a2.278 2.278 0 0 1-2.275-2.276c0-1.254 1.021-2.275 2.275-2.275s2.276 1.021 2.276 2.275a2.279 2.279 0 0 1-2.276 2.276zm0-3.723a1.45 1.45 0 0 0-1.448 1.447 1.45 1.45 0 0 0 2.897 0 1.45 1.45 0 0 0-1.449-1.447z"/><circle fill="#DCDBDE" cx="1673.042" cy="1144.455" r=".828"/><path fill="#625D6B" d="M1667.993 1139.378l-1.735-2.256a.828.828 0 0 0-.656-.322h-5.989a.826.826 0 0 0-.791.583l-.442 1.434a.414.414 0 0 0 .357.599l9.107.281h.001a.194.194 0 0 0 .148-.319z"/><path fill="#EDEDEE" d="M1677.387 1141.483c0-.196-.049-.38-.132-.546h-.695a.414.414 0 0 0 0 .827h.827v-.281z"/><path fill="#504B5A" d="M1662.49 1139.53l.828.027-.179-2.757h-.827z"/><g fill="#625D6B"><path d="M1668.004 1136.808l-.017-.008h-.663a.238.238 0 0 0-.188.385l1.792 2.309c.1.128.253.203.415.203h.983l-2.322-2.889zM1657.978 1137.2a.278.278 0 0 0-.251-.4h-1.081a1.682 1.682 0 0 0-.211.211l-1.806 2.271 1.762.055a.828.828 0 0 0 .77-.463l.817-1.674z"/></g></g><g><path fill="#D6E1E8" d="M1691.904 1143.584h18.999v.75h-18.999z"/><circle fill="#EDEDEE" cx="1694.633" cy="1147.269" r="1.897"/><circle fill="#EDEDEE" cx="1709.943" cy="1147.269" r="1.897"/><path fill="#C2E4FF" d="M1703.555 1138.816h-9.344a1.66 1.66 0 0 0-1.292.62l-1.896 2.366a1.668 1.668 0 0 0-.436.769l-.303 1.211 6.207 3.31h17.379v-3.178c0-.607-.438-1.128-1.038-1.225-2.095-.338-6.022-.563-6.022-.563l-2.289-2.847a1.242 1.242 0 0 0-.966-.463z"/><g fill="#649BD2"><path d="M1703.555 1138.816h-9.34c-.505 0-.981.23-1.296.625l-1.806 2.271 13.215.414h2.482l-2.289-2.847a1.242 1.242 0 0 0-.966-.463zM1713.871 1144.345a.826.826 0 0 0-.593-.794c-.825-.245-2.667-.597-6.441-.597h-16.138a.414.414 0 0 0-.414.414v2.482l7.862.828h15.724v-2.333z"/></g><path fill="#5591D2" d="M1713.871 1146.265h-19.402l-3.68-.817a.416.416 0 0 0-.494.313.415.415 0 0 0 .314.494l3.724.827c.03.007.06.01.091.01h19.447a.413.413 0 1 0 0-.827z"/><path fill="#504B5A" d="M1694.217 1149.161a2.278 2.278 0 0 1-2.276-2.276 2.278 2.278 0 0 1 2.276-2.275 2.277 2.277 0 0 1 2.275 2.275 2.278 2.278 0 0 1-2.275 2.276zm0-3.723a1.449 1.449 0 0 0 0 2.895 1.449 1.449 0 0 0 0-2.895z"/><circle fill="#DCDBDE" cx="1694.216" cy="1146.885" r=".828"/><g fill="#5591D2"><path d="M1706.424 1145.438h-9.104a.414.414 0 0 1 0-.828h9.104a.415.415 0 0 1 0 .828zM1713.871 1145.438h-.827a.414.414 0 0 1 0-.828h.827a.414.414 0 0 1 0 .828z"/></g><path fill="#FF6464" d="M1690.588 1142.571l-.096.383h1.034a.413.413 0 1 0 0-.827h-.753a1.682 1.682 0 0 0-.185.444z"/><path fill="#504B5A" d="M1709.526 1149.161a2.278 2.278 0 0 1-2.275-2.276c0-1.254 1.021-2.275 2.275-2.275s2.276 1.021 2.276 2.275a2.278 2.278 0 0 1-2.276 2.276zm0-3.723a1.45 1.45 0 0 0-1.448 1.447 1.45 1.45 0 0 0 2.897 0 1.449 1.449 0 0 0-1.449-1.447z"/><circle fill="#DCDBDE" cx="1709.526" cy="1146.885" r=".828"/><path fill="#625D6B" d="M1704.478 1141.809l-1.735-2.256a.828.828 0 0 0-.656-.322h-5.989a.826.826 0 0 0-.791.583l-.442 1.434a.414.414 0 0 0 .357.599l9.107.281h.001a.195.195 0 0 0 .148-.319z"/><path fill="#EDEDEE" d="M1713.871 1143.914c0-.196-.049-.38-.132-.546h-.695a.414.414 0 0 0 0 .827h.827v-.281z"/><path fill="#504B5A" d="M1698.975 1141.961l.828.026-.18-2.757h-.827z"/><g fill="#6EA0E1"><path d="M1704.488 1139.238l-.017-.008h-.663a.238.238 0 0 0-.188.385l1.792 2.309c.1.128.253.203.415.203h.983l-2.322-2.889zM1694.462 1139.631a.278.278 0 0 0-.251-.4h-1.081a1.682 1.682 0 0 0-.211.211l-1.806 2.271 1.762.055a.828.828 0 0 0 .77-.463l.817-1.674z"/></g></g><g><path fill="#BEE1F9" d="M1741.215 1146.306h-9.344a1.66 1.66 0 0 0-1.292.62l-1.896 2.366a1.668 1.668 0 0 0-.436.769l-.303 1.211 6.207 3.31h17.379v-3.178c0-.607-.438-1.128-1.038-1.225-2.095-.338-6.022-.563-6.022-.563l-2.289-2.847a1.242 1.242 0 0 0-.966-.463z"/><path fill="#A7D9FF" d="M1741.215 1146.306h-9.34c-.505 0-.981.23-1.296.625l-1.806 2.271 13.215.414h2.482l-2.289-2.847a1.242 1.242 0 0 0-.966-.463zM1751.531 1151.834a.826.826 0 0 0-.593-.794c-.825-.245-2.667-.597-6.441-.597h-16.138a.414.414 0 0 0-.414.414v2.482l7.862.828h15.724v-2.333z"/><path fill="#7DB9E6" d="M1751.531 1153.754h-19.402l-3.68-.817a.416.416 0 0 0-.494.313.415.415 0 0 0 .314.494l3.724.827c.03.007.06.01.091.01h19.447a.413.413 0 1 0 0-.827zM1744.084 1152.927h-9.104a.414.414 0 0 1 0-.828h9.104a.414.414 0 1 1 0 .828zM1751.531 1152.927h-.827a.414.414 0 0 1 0-.828h.827a.414.414 0 0 1 0 .828z"/><g><path fill="#FF6464" d="M1728.248 1150.061l-.096.383h1.034a.413.413 0 1 0 0-.827h-.753a1.688 1.688 0 0 0-.185.444z"/><circle fill="#EDEDEE" cx="1747.187" cy="1154.375" r="1.897"/><path fill="#504B5A" d="M1747.187 1156.65a2.278 2.278 0 0 1-2.275-2.276c0-1.254 1.021-2.275 2.275-2.275s2.276 1.021 2.276 2.275a2.28 2.28 0 0 1-2.276 2.276zm0-3.723a1.45 1.45 0 0 0-1.448 1.447 1.45 1.45 0 0 0 2.897 0 1.45 1.45 0 0 0-1.449-1.447z"/><circle fill="#DCDBDE" cx="1747.187" cy="1154.375" r=".828"/><path fill="#625D6B" d="M1742.138 1149.298l-1.735-2.256a.828.828 0 0 0-.656-.322h-5.989a.826.826 0 0 0-.791.583l-.442 1.434a.414.414 0 0 0 .357.599l9.107.281h.001a.195.195 0 0 0 .148-.319z"/><path fill="#EDEDEE" d="M1751.531 1151.403c0-.196-.049-.38-.132-.546h-.695a.414.414 0 0 0 0 .827h.827v-.281z"/><path fill="#504B5A" d="M1736.635 1149.45l.828.027-.18-2.757h-.827z"/><path fill="#625D6B" d="M1742.148 1146.728l-.017-.008h-.663a.238.238 0 0 0-.188.385l1.792 2.309c.1.128.253.203.415.203h.983l-2.322-2.889zM1732.122 1147.12a.278.278 0 0 0-.251-.4h-1.081a1.682 1.682 0 0 0-.211.211l-1.806 2.271 1.762.055a.828.828 0 0 0 .77-.463l.817-1.674z"/><g><circle fill="#EDEDEE" cx="1731.876" cy="1154.375" r="1.897"/><circle fill="#DCDBDE" cx="1731.876" cy="1154.375" r=".828"/></g><g><path fill="#504B5A" d="M1731.877 1156.65a2.278 2.278 0 0 1-2.276-2.276 2.278 2.278 0 0 1 2.276-2.275 2.277 2.277 0 0 1 2.275 2.275 2.278 2.278 0 0 1-2.275 2.276zm0-3.723a1.449 1.449 0 0 0 0 2.895 1.449 1.449 0 0 0 0-2.895z"/></g></g></g><g><path fill="#8CA9B7" d="M1881.241 1139.725h9.344c.502 0 .978.229 1.292.62l1.896 2.366c.212.212.362.478.436.769l.303 1.211-6.207 3.31h-17.379v-3.178c0-.607.438-1.128 1.038-1.225 2.095-.338 6.022-.563 6.022-.563l2.289-2.847c.235-.292.591-.463.966-.463z"/><path fill="#C3E1F2" d="M1881.241 1139.725h9.34c.505 0 .981.23 1.296.625l1.806 2.271-13.215.414h-2.482l2.289-2.847c.235-.292.591-.463.966-.463zM1870.925 1145.253c0-.368.24-.689.593-.794.825-.245 2.667-.597 6.441-.597h16.138c.229 0 .414.186.414.414v2.482l-7.862.828h-15.724v-2.333z"/><path fill="#78A0B4" d="M1870.925 1147.173h19.402l3.68-.817a.416.416 0 0 1 .494.313.415.415 0 0 1-.314.494l-3.724.827a.397.397 0 0 1-.091.01h-19.447a.413.413 0 1 1 0-.827zM1878.372 1146.346h9.104a.414.414 0 0 0 0-.828h-9.104a.415.415 0 0 0 0 .828zM1870.925 1146.346h.827a.414.414 0 0 0 0-.828h-.827a.414.414 0 0 0 0 .828z"/><g><path fill="#FF6464" d="M1894.208 1143.479l.096.383h-1.034a.413.413 0 1 1 0-.827h.753c.081.138.145.287.185.444z"/><circle fill="#EDEDEE" cx="1875.27" cy="1147.793" r="1.897"/><path fill="#504B5A" d="M1872.993 1147.793c0-1.254 1.021-2.275 2.276-2.275s2.275 1.021 2.275 2.275c0 1.255-1.021 2.276-2.275 2.276s-2.276-1.021-2.276-2.276zm.827 0a1.45 1.45 0 0 0 2.897 0 1.45 1.45 0 0 0-2.897 0z"/><circle fill="#DCDBDE" cx="1875.27" cy="1147.793" r=".828"/><path fill="#625D6B" d="M1880.318 1142.717l1.735-2.256a.828.828 0 0 1 .656-.322h5.989c.363 0 .685.236.791.583l.442 1.434a.414.414 0 0 1-.357.599l-9.107.281h-.001a.195.195 0 0 1-.148-.319z"/><path fill="#EDEDEE" d="M1870.925 1144.822c0-.196.049-.38.132-.546h.695a.414.414 0 0 1 0 .827h-.827v-.281z"/><path fill="#504B5A" d="M1885.821 1142.869l-.828.027.18-2.757h.827z"/><path fill="#625D6B" d="M1880.308 1140.146l.017-.008h.663c.199 0 .311.228.188.385l-1.792 2.309a.527.527 0 0 1-.415.203h-.983l2.322-2.889zM1890.334 1140.539a.278.278 0 0 1 .251-.4h1.081c.074.064.147.132.211.211l1.806 2.271-1.762.055a.828.828 0 0 1-.77-.463l-.817-1.674z"/><g><circle fill="#EDEDEE" cx="1890.58" cy="1147.793" r="1.897"/><circle fill="#DCDBDE" cx="1890.58" cy="1147.793" r=".828"/></g><g><path fill="#504B5A" d="M1888.304 1147.793a2.278 2.278 0 0 1 2.275-2.275 2.278 2.278 0 0 1 2.276 2.275 2.279 2.279 0 0 1-2.276 2.276 2.278 2.278 0 0 1-2.275-2.276zm.827 0a1.449 1.449 0 0 0 2.896 0 1.449 1.449 0 0 0-2.896 0z"/></g></g></g><g><path fill="#FFB764" d="M1887.27 1144.064h-9.344a1.66 1.66 0 0 0-1.292.62l-1.896 2.366a1.668 1.668 0 0 0-.436.769l-.303 1.211 6.207 3.31h17.379v-3.178c0-.607-.438-1.128-1.038-1.225-2.095-.338-6.022-.563-6.022-.563l-2.289-2.847a1.242 1.242 0 0 0-.966-.463z"/><path fill="#F5C350" d="M1887.27 1144.064h-9.34c-.505 0-.981.23-1.296.625l-1.806 2.271 13.215.414h2.482l-2.289-2.847a1.242 1.242 0 0 0-.966-.463zM1897.586 1149.593a.826.826 0 0 0-.593-.794c-.825-.245-2.667-.597-6.441-.597h-16.138a.414.414 0 0 0-.414.414v2.482l7.862.828h15.724v-2.333z"/><path fill="#FFD77D" d="M1897.586 1151.513h-19.402l-3.68-.817a.416.416 0 0 0-.494.313.415.415 0 0 0 .314.494l3.724.827c.03.007.06.01.091.01h19.447a.413.413 0 1 0 0-.827zM1890.139 1150.686h-9.104a.414.414 0 0 1 0-.828h9.104a.415.415 0 0 1 0 .828zM1897.586 1150.686h-.827a.414.414 0 0 1 0-.828h.827a.415.415 0 0 1 0 .828z"/><g><path fill="#FF6464" d="M1874.303 1147.819l-.096.383h1.034a.413.413 0 1 0 0-.827h-.753a1.682 1.682 0 0 0-.185.444z"/><circle fill="#EDEDEE" cx="1893.241" cy="1152.133" r="1.897"/><path fill="#504B5A" d="M1893.241 1154.409a2.278 2.278 0 0 1-2.275-2.276c0-1.254 1.021-2.275 2.275-2.275s2.276 1.021 2.276 2.275a2.278 2.278 0 0 1-2.276 2.276zm0-3.723a1.45 1.45 0 0 0-1.448 1.447 1.45 1.45 0 0 0 2.897 0 1.45 1.45 0 0 0-1.449-1.447z"/><circle fill="#DCDBDE" cx="1893.241" cy="1152.133" r=".828"/><path fill="#625D6B" d="M1888.192 1147.057l-1.735-2.256a.828.828 0 0 0-.656-.322h-5.989a.826.826 0 0 0-.791.583l-.442 1.434a.414.414 0 0 0 .357.599l9.107.281h.001a.194.194 0 0 0 .148-.319z"/><path fill="#EDEDEE" d="M1897.586 1149.162c0-.196-.049-.38-.132-.546h-.695a.414.414 0 0 0 0 .827h.827v-.281z"/><path fill="#504B5A" d="M1882.689 1147.209l.829.026-.18-2.756h-.827z"/><path fill="#625D6B" d="M1888.203 1144.486l-.017-.008h-.663a.238.238 0 0 0-.188.385l1.792 2.309c.1.128.253.203.415.203h.983l-2.322-2.889zM1878.177 1144.879a.278.278 0 0 0-.251-.4h-1.081a1.682 1.682 0 0 0-.211.211l-1.806 2.271 1.762.055a.828.828 0 0 0 .77-.463l.817-1.674z"/><g><circle fill="#EDEDEE" cx="1877.931" cy="1152.133" r="1.897"/><circle fill="#DCDBDE" cx="1877.931" cy="1152.133" r=".828"/></g><g><path fill="#504B5A" d="M1877.932 1154.409a2.278 2.278 0 0 1-2.276-2.276 2.278 2.278 0 0 1 2.276-2.275 2.277 2.277 0 0 1 2.275 2.275 2.278 2.278 0 0 1-2.275 2.276zm0-3.723a1.449 1.449 0 0 0 0 2.895c.799 0 1.448-.649 1.448-1.448a1.45 1.45 0 0 0-1.448-1.447z"/></g></g></g><g><path fill="#648296" d="M1811.908 1144.005h-9.344a1.66 1.66 0 0 0-1.292.62l-1.896 2.366a1.668 1.668 0 0 0-.436.769l-.303 1.211 6.207 3.31h17.379v-3.178c0-.607-.438-1.128-1.038-1.225-2.095-.338-6.022-.563-6.022-.563l-2.289-2.847a1.24 1.24 0 0 0-.966-.463z"/><path fill="#5C85A4" d="M1811.908 1144.005h-9.34c-.505 0-.981.23-1.296.625l-1.806 2.271 13.215.414h2.482l-2.289-2.847a1.24 1.24 0 0 0-.966-.463zM1822.225 1149.533a.826.826 0 0 0-.593-.794c-.825-.245-2.667-.597-6.441-.597h-16.138a.414.414 0 0 0-.414.414v2.482l7.862.828h15.724v-2.333z"/><path fill="#789BB4" d="M1822.225 1151.453h-19.402l-3.68-.817a.416.416 0 0 0-.494.313.415.415 0 0 0 .314.494l3.724.827c.03.007.06.01.091.01h19.447a.413.413 0 1 0 0-.827zM1814.777 1150.626h-9.104a.414.414 0 0 1 0-.828h9.104a.414.414 0 1 1 0 .828zM1822.225 1150.626h-.827a.414.414 0 0 1 0-.828h.827a.415.415 0 0 1 0 .828z"/><g><path fill="#FF6464" d="M1798.941 1147.76l-.096.383h1.034a.413.413 0 1 0 0-.827h-.753a1.702 1.702 0 0 0-.185.444z"/><circle fill="#EDEDEE" cx="1817.88" cy="1152.074" r="1.897"/><path fill="#504B5A" d="M1817.88 1154.35a2.278 2.278 0 0 1-2.275-2.276c0-1.254 1.021-2.275 2.275-2.275s2.276 1.021 2.276 2.275a2.28 2.28 0 0 1-2.276 2.276zm0-3.724a1.45 1.45 0 0 0-1.448 1.447 1.45 1.45 0 0 0 2.897 0 1.45 1.45 0 0 0-1.449-1.447z"/><circle fill="#DCDBDE" cx="1817.88" cy="1152.074" r=".828"/><path fill="#625D6B" d="M1812.831 1146.997l-1.735-2.256a.828.828 0 0 0-.656-.322h-5.989a.826.826 0 0 0-.791.583l-.442 1.434a.414.414 0 0 0 .357.599l9.107.281h.001a.194.194 0 0 0 .148-.319z"/><path fill="#EDEDEE" d="M1822.225 1149.103c0-.196-.049-.38-.132-.546h-.695a.414.414 0 0 0 0 .827h.827v-.281z"/><path fill="#504B5A" d="M1807.328 1147.149l.828.027-.179-2.757h-.828z"/><path fill="#625D6B" d="M1812.842 1144.427l-.017-.008h-.663a.238.238 0 0 0-.188.385l1.792 2.309c.1.128.253.203.415.203h.983l-2.322-2.889zM1802.815 1144.819a.278.278 0 0 0-.251-.4h-1.081a1.682 1.682 0 0 0-.211.211l-1.806 2.271 1.762.055a.828.828 0 0 0 .77-.463l.817-1.674z"/><g><circle fill="#EDEDEE" cx="1802.569" cy="1152.074" r="1.897"/><circle fill="#DCDBDE" cx="1802.569" cy="1152.074" r=".828"/></g><g><path fill="#504B5A" d="M1802.57 1154.35a2.278 2.278 0 0 1-2.276-2.276 2.278 2.278 0 0 1 2.276-2.275 2.277 2.277 0 0 1 2.275 2.275 2.278 2.278 0 0 1-2.275 2.276zm0-3.724a1.449 1.449 0 0 0 0 2.895 1.448 1.448 0 0 0 0-2.895z"/></g></g></g><use xlink:href="#a" width="32" height="56.889" x="-16" y="-28.444" transform="matrix(.425 0 0 -.425 1865.791 1131.364)" overflow="visible"/><use xlink:href="#a" width="32" height="56.889" x="-16" y="-28.444" transform="matrix(.425 0 0 -.425 1683.292 1131.364)" overflow="visible"/><g fill="#89A943"><path d="M1381.048 1058.326v8.237c0 .75 1.358.833 1.358.833v-8.982c-.46 0-.913-.032-1.358-.088zM1382.406 1067.396s1.358-.083 1.358-.833v-8.237c-.445.056-.898.088-1.358.088v8.982z"/><path d="M1382.406 1048.905v-44.023a1.33 1.33 0 0 0-1.306.985c-2.888 10.093-9.561 34.229-9.561 41.681 0 5.54 4.147 10.109 9.508 10.778.445.056.898.088 1.358.088v-9.509zM1393.229 1046.393c-.551-8.182-6.271-29.105-9.165-39.288-.122-.432-.241-.847-.353-1.237a1.337 1.337 0 0 0-.039-.117l-.001-.003a1.304 1.304 0 0 0-.852-.805 1.459 1.459 0 0 0-.413-.061V1058.414c.46 0 .913-.032 1.358-.089.099-.012.198-.021.296-.037a10.801 10.801 0 0 0 4.42-1.73 10.907 10.907 0 0 0 4.303-5.779c.317-1.021.488-2.105.488-3.231a16.18 16.18 0 0 0-.042-1.155z"/></g><path fill="#89A943" d="M1356.5 1063.175v35.805h53.648c-5.529-17.951-26.726-32.086-53.648-35.805z"/><g><path fill="#C8C8AA" d="M1676.96 1150.669c-.779-.48-3.293-1.094-6.821-1.094l-1.864-2.175a2.071 2.071 0 0 0-1.57-.723h-5.578c-.593 0-1.166.212-1.615.598l-2.2 1.886-2.346.335a.829.829 0 0 0-.686.618l-.278 1.115 6.207 2.896h17.379v-2.339a1.314 1.314 0 0 0-.628-1.117z"/><path fill="#96BEB4" d="M1677.587 1152.058c0-.828-1.242-1.655-7.035-1.655h-16.138a.413.413 0 0 0-.414.413v2.483l7.863 1.241h15.724v-2.482z"/><path fill="#DCD7B9" d="M1677.587 1153.713h-19.403l-3.68-.817a.415.415 0 0 0-.494.314.414.414 0 0 0 .314.493l3.725.827c.029.007.06.01.09.01h19.448a.413.413 0 0 0 0-.827z"/><circle fill="#EDEDEE" cx="1673.862" cy="1153.713" r="2.069"/><path fill="#504B5A" d="M1673.862 1156.195a2.485 2.485 0 0 1-2.482-2.482c0-1.369 1.113-2.483 2.482-2.483s2.482 1.114 2.482 2.483a2.484 2.484 0 0 1-2.482 2.482zm0-4.137c-.913 0-1.655.742-1.655 1.655s.742 1.655 1.655 1.655 1.655-.742 1.655-1.655-.742-1.655-1.655-1.655z"/><circle fill="#DCDBDE" cx="1673.862" cy="1153.712" r=".828"/><circle fill="#EDEDEE" cx="1658.139" cy="1153.713" r="2.069"/><path fill="#504B5A" d="M1658.139 1156.195a2.485 2.485 0 0 1-2.482-2.482c0-1.369 1.113-2.483 2.482-2.483s2.482 1.114 2.482 2.483a2.485 2.485 0 0 1-2.482 2.482zm0-4.137c-.913 0-1.655.742-1.655 1.655s.742 1.655 1.655 1.655 1.655-.742 1.655-1.655-.742-1.655-1.655-1.655z"/><circle fill="#DCDBDE" cx="1658.139" cy="1153.712" r=".828"/><g fill="#DCD7B9"><path d="M1670.552 1152.886h-8.688a.414.414 0 0 1 0-.828h8.688a.415.415 0 0 1 0 .828zM1677.587 1152.886h-.414a.414.414 0 0 1 0-.828h.414a.414.414 0 1 1 0 .828z"/></g><path fill="#96BEB4" d="M1657.311 1149.161l2.2-1.886a2.477 2.477 0 0 1 1.615-.598h5.578c.604 0 1.178.265 1.57.723l1.864 2.175h-9.797c-.365 0-.729-.031-1.089-.09l-1.941-.324z"/><path fill="#625D6B" d="M1666.248 1147.39a.83.83 0 0 0-.636-.298h-3.821a.824.824 0 0 0-.584.242l-1.242 1.242a.585.585 0 0 0 .414.999h7.249a.207.207 0 0 0 .158-.34l-1.538-1.845z"/><path fill="#504B5A" d="M1662.69 1149.575h-1.241l.827-2.483h.828z"/><path fill="#EDEDEE" d="M1677.143 1150.815h-.384a.414.414 0 0 0 0 .828h.81a1.307 1.307 0 0 0-.426-.828z"/><path fill="#625D6B" d="M1668.274 1147.4a2.096 2.096 0 0 0-.33-.309h-.675a.208.208 0 0 0-.159.34l1.538 1.846a.831.831 0 0 0 .636.298h.854l-1.864-2.175z"/><path fill="#B49B91" d="M1654 1150.815v.414h.828a.414.414 0 0 0 0-.827h-.414a.414.414 0 0 0-.414.413z"/></g><path fill="#CEAF51" d="M1775.654 1166.625l-.597 6.267h3l-.537-6.267zM1775.621 1165.198l.404-3.743h1.104l.363 3.743z"/><g><path fill="#8CA9B7" d="M1845.188 1142.229h9.344c.502 0 .978.229 1.292.62l1.896 2.366c.212.212.362.478.436.769l.303 1.211-6.207 3.31h-17.379v-3.178c0-.607.438-1.128 1.038-1.225 2.095-.338 6.022-.563 6.022-.563l2.289-2.847a1.24 1.24 0 0 1 .966-.463z"/><path fill="#C3E1F2" d="M1845.188 1142.229h9.34c.505 0 .981.23 1.296.625l1.806 2.271-13.215.414h-2.482l2.289-2.847a1.24 1.24 0 0 1 .966-.463zM1834.871 1147.758c0-.368.24-.689.593-.794.825-.245 2.667-.597 6.441-.597h16.138c.229 0 .414.186.414.414v2.482l-7.862.828h-15.724v-2.333z"/><path fill="#78A0B4" d="M1834.871 1149.678h19.402l3.68-.817a.416.416 0 0 1 .494.313.415.415 0 0 1-.314.494l-3.724.827a.397.397 0 0 1-.091.01h-19.447a.413.413 0 1 1 0-.827zM1842.318 1148.851h9.104a.414.414 0 0 0 0-.828h-9.104a.415.415 0 0 0 0 .828zM1834.871 1148.851h.827a.414.414 0 0 0 0-.828h-.827a.415.415 0 0 0 0 .828z"/><g><path fill="#FF6464" d="M1858.154 1145.984l.096.383h-1.034a.413.413 0 1 1 0-.827h.753c.082.138.145.287.185.444z"/><circle fill="#EDEDEE" cx="1839.216" cy="1150.298" r="1.897"/><path fill="#504B5A" d="M1836.939 1150.298c0-1.254 1.021-2.275 2.276-2.275s2.275 1.021 2.275 2.275c0 1.255-1.021 2.276-2.275 2.276s-2.276-1.021-2.276-2.276zm.828 0a1.45 1.45 0 0 0 2.897 0 1.45 1.45 0 0 0-2.897 0z"/><circle fill="#DCDBDE" cx="1839.216" cy="1150.298" r=".828"/><path fill="#625D6B" d="M1844.265 1145.222l1.735-2.256a.828.828 0 0 1 .656-.322h5.989c.363 0 .685.236.791.583l.442 1.434a.414.414 0 0 1-.357.599l-9.107.281h-.001a.194.194 0 0 1-.148-.319z"/><path fill="#EDEDEE" d="M1834.871 1147.327c0-.196.049-.38.132-.546h.695a.414.414 0 0 1 0 .827h-.827v-.281z"/><path fill="#504B5A" d="M1849.768 1145.374l-.829.026.18-2.756h.827z"/><path fill="#625D6B" d="M1844.254 1142.651l.017-.008h.663c.199 0 .311.228.188.385l-1.792 2.309a.527.527 0 0 1-.415.203h-.983l2.322-2.889zM1854.28 1143.044a.278.278 0 0 1 .251-.4h1.081c.074.064.147.132.211.211l1.806 2.271-1.762.055a.828.828 0 0 1-.77-.463l-.817-1.674z"/><g><circle fill="#EDEDEE" cx="1854.526" cy="1150.298" r="1.897"/><circle fill="#DCDBDE" cx="1854.526" cy="1150.298" r=".828"/></g><g><path fill="#504B5A" d="M1852.25 1150.298a2.278 2.278 0 0 1 2.275-2.275 2.278 2.278 0 0 1 2.276 2.275 2.279 2.279 0 0 1-2.276 2.276 2.278 2.278 0 0 1-2.275-2.276zm.827 0a1.449 1.449 0 0 0 2.896 0 1.449 1.449 0 0 0-2.896 0z"/></g></g></g></svg>