<svg xmlns="http://www.w3.org/2000/svg" width="640" height="360" viewBox="0 0 640 360"><path fill="#B5DAE2" d="M-2-2.334h644v138H-2z"/><path fill="#324A5E" d="M-2 297h644v64H-2z"/><path fill="#DBE8B1" d="M-2 130.666h644v164H-2z"/><path fill="#C8B2A8" d="M-2 164h644v135H-2z"/><g><path fill="#B5DAE2" d="M0 0h640v136H0z"/><path fill="#C8E2E8" d="M298.878 52.085v-7.463h-7.89l-.135-8.698-.117-8.148-.426-.343-.254 8.483-.27 8.706h-7.093v7.463h-5.396V136h26.976V52.085zM1.355 50.606h-.004V136h21.045V63.022zM90.373 57.905c-1.947-2.299-5.345-3.821-9.213-3.847l-.023-.688-.596-18.002-.196 18.002-.009.709c-3.737.182-6.95 1.75-8.76 4.022l-2.175.024L70.859 136h23.15l-1.465-78.119-2.171.024zM117.637 29.593h-8.13l-.192-10.662-.133-8.2h-.575l-.28 8.195-.381 10.667H99.66v4.228h-4.163V136h26.307V33.82h-4.167v-4.227zM125.308 47.445h43.672V136h-43.672zM41.126 71.608l.017-2.407-10.6-.029-.012 2.409-2.902-.011-.324 64.43h37.75l.323-64.321zM204.989 52.085a5.37 5.37 0 0 0 .037-.572c0-3.661-3.896-6.631-8.744-6.713l-.14-8.876-.256-18.007-.535 17.999-.276 8.919c-4.467.375-7.941 3.223-7.941 6.678 0 .195.017.384.038.572h-4.584V136h26.98V52.085h-4.579zM328.992 59.608v-6.82H321.1l-.044-2.567-1.113 1.38-.039 1.188h-.896c-.604.776-1.178 1.564-1.763 2.355-.356-.48-.698-.965-1.062-1.439h-1.604v5.904h-5.264V136h25.076V59.608h-5.399zM631.003 52.085v-7.463h-7.89l-.134-8.698-.118-8.148-.427-.343-.254 8.483-.268 8.706h-7.094v7.463h-5.395V136h26.974V52.085zM337.479 50.606h-.004V136h21.046V63.022zM422.497 57.905c-1.948-2.299-5.345-3.821-9.212-3.847l-.025-.688-.597-18.002-.194 18.002-.009.709c-3.737.182-6.95 1.75-8.759 4.022l-2.177.024L402.982 136h23.152l-1.466-78.119-2.171.024zM449.76 29.593h-8.128l-.191-10.662-.221-13.538-.305-.001-.465 13.534-.38 10.667h-8.287v4.228h-4.16V136h26.307V33.82h-4.17v-4.227zM457.434 47.445h43.671V136h-43.671zM374.252 71.608l.014-2.407-10.599-.029-.012 2.409-2.9-.011-.325 64.43h37.75l.323-64.321zM537.112 52.085c.021-.188.038-.377.038-.572 0-3.661-3.896-6.631-8.742-6.713l-.14-8.876-.258-18.007-.537 17.999-.274 8.919c-4.465.375-7.942 3.223-7.942 6.678 0 .195.018.384.041.572h-4.585V136h26.979V52.085h-4.58z"/><path fill="#A4D3DD" d="M245.281 69.172h22.174V136h-22.174zM35.113 106.282v-17.31H.792V136h66.293v-29.718zM179.205 88.972v17.31h-31.972V136h66.292V88.972zM120.188 85.277v-6.25h-7.643v6.25h-3.018V136h35.778V85.277zM289.302 85.277v-6.25h-2.442l-.3-28.652-.599 28.652h-2.948v6.25h-2.488V136h29.461V85.277zM76.902 85.277l-.272-26.571-.556 26.571H72.17V136h35.777V85.277zM232.38 84.538v-2.822h-13.106v2.822h-.986V136h22.175V84.538zM571.374 38.999h25.898V136h-25.898zM367.237 106.282v-17.31h-34.321V136h66.292v-29.718zM511.328 88.972v17.31h-31.971V136h66.293V88.972zM452.313 85.277v-6.25h-7.643v6.25h-3.018V136h35.777V85.277zM409.026 85.277l-.125-11.481-.147-15.09-.311 15.085-.244 11.486h-3.904V136h35.776V85.277zM317.126 49.455v23.944h-4.677V136h16.584V49.455zM562.852 75.533v-6.011h-13.061V136h19.22V75.533zM621.428 85.277v-6.25h-2.445l-.297-28.652-.311 15.078-.289 13.574h-2.949v6.25h-2.489V136h23.749V85.277z"/><path fill="#99C8D1" d="M633.772 107.684v25.898h-5.012v-25.461h-32.533v25.461h-7.176v-16.308h-42.439v-14.036h-21.049v30.344h-2.034v-19.3h-32.528v19.3h-2.188v-13.784h-19.898v6.421H457.68v7.363h-2.447v-30.344h-7.89v-3.504h-19.29v3.504h-7.895v30.344h-1.929v-30.344h-21.046v30.344h-1.981v-18.445h-8.953v-4.884h-25.486v4.884h-8.949v18.445h-2.686v-16.308h-27.887l-.481 16.308h-2.622v-25.898h-16.49v25.898h-5.012v-25.461h-32.533v25.461h-7.176v-16.308h-42.439v-14.036h-21.05v30.344h-2.034v-19.3h-32.527v19.3h-2.187v-13.784h-19.9v6.421h-11.234v7.363h-2.447v-30.344h-7.891v-3.504h-19.29v3.504h-7.896v30.344h-1.928v-30.344H65.059v30.344h-1.982v-18.445h-8.952v-4.884H28.638v4.884h-8.949v18.445h-2.685v-16.308H0V136h640v-28.316z"/><path fill="#DBE8B1" d="M0 136h640v162H0z"/><g><path fill="#95A5A6" d="M583.266 137.299h-.498a.498.498 0 0 0-.497.498v25.836c0 .274.223.496.497.496h.498a.496.496 0 0 0 .495-.496v-25.836a.496.496 0 0 0-.495-.498z"/><path fill="#7F8C8D" d="M583.266 137.299h-.498a.498.498 0 0 0-.497.498v.495h1.49v-.495a.496.496 0 0 0-.495-.498z"/><g><path fill="#464655" d="M607.408 143.284c-7.93-4.87-15.859 4.87-23.789 0V138.5c.001-.226.184-.298.411-.171 7.657 4.223 15.312-4.703 22.968-.479.227.124.41.423.41.649v4.785z"/><path fill="#FFE15A" d="M606.998 153.436c-7.656-4.225-15.311 4.702-22.968.479-.228-.126-.411-.423-.411-.649v-4.785c7.93 4.87 15.859-4.87 23.789 0v4.785c0 .226-.183.295-.41.17z"/><path fill="#FF4B55" d="M583.619 143.284c7.93 4.87 15.859-4.87 23.789 0v5.195c-7.93-4.87-15.859 4.87-23.789 0v-5.195z"/></g><g><path fill="#F5F5F5" d="M577.288 152.074c-7.661-2.17-15.322 2.416-22.983.246-.229-.064-.412-.287-.412-.489v-13.173c0-.201.184-.307.412-.242 7.661 2.17 15.322-2.416 22.983-.246.227.064.411.287.411.488v13.173c0 .202-.184.308-.411.243z"/><g fill="#FF4B55"><path d="M577.699 139.362c-7.936-2.503-15.871 2.503-23.807 0v-.704c0-.201.184-.307.412-.242 7.661 2.17 15.322-2.416 22.983-.246.227.064.411.287.411.488l.001.704zM553.893 142.571c7.936 2.503 15.871-2.503 23.807 0v1.069c-7.936-2.503-15.871 2.503-23.807 0v-1.069z"/><path d="M553.893 140.432c7.936 2.503 15.871-2.503 23.807 0v1.07c-7.936-2.503-15.871 2.503-23.807 0v-1.07zM577.699 145.779c-7.798-2.459-15.596 2.332-23.395.123-.229-.064-.412-.286-.412-.488v-.703c7.936 2.503 15.871-2.503 23.807 0v1.068zM553.893 148.988c7.936 2.503 15.871-2.503 23.807 0v1.07c-7.936-2.503-15.871 2.503-23.807 0v-1.07z"/><path d="M577.288 152.074c-7.661-2.17-15.322 2.416-22.983.246-.229-.064-.412-.287-.412-.489v-.704c7.936 2.503 15.871-2.503 23.807 0v.705c-.001.201-.185.307-.412.242zM553.893 146.85c7.936 2.503 15.871-2.503 23.807 0v1.068c-7.936-2.503-15.871 2.503-23.807 0v-1.068z"/></g><path fill="#41479B" d="M563.406 138.654c-3.049.423-6.098.623-9.146-.251-.203-.058-.367.054-.367.255v6.756c0 .2.165.418.367.476 3.049.874 6.098.674 9.146.251a.435.435 0 0 0 .366-.417v-6.756a.312.312 0 0 0-.366-.314z"/><g fill="#F5F5F5"><path d="M554.92 139.416l.082.262c.085.021.17.04.255.059.033.008.047.053.021.066l-.207.107.078.262c.01.034-.027.052-.054.027l-.209-.198-.208.098c-.027.012-.063-.023-.052-.052l.076-.225-.205-.206c-.026-.027-.013-.065.02-.058.085.022.171.044.257.064l.08-.223c.011-.028.056-.016.066.017zM554.92 140.687l.082.263.255.059c.033.008.047.053.021.066l-.207.106.078.262c.01.034-.027.051-.054.026l-.209-.197-.208.097c-.027.013-.063-.021-.052-.051l.076-.225-.205-.205c-.026-.026-.013-.066.02-.058.085.022.171.044.257.064l.08-.224c.011-.027.056-.018.066.017zM554.92 141.957l.082.263.255.058c.033.007.047.053.021.067l-.207.106.078.262c.01.033-.027.053-.054.027l-.209-.198-.208.098c-.027.013-.063-.023-.052-.052l.076-.225-.205-.205c-.026-.027-.013-.065.02-.059.085.022.171.045.257.065l.08-.224c.011-.027.056-.016.066.017zM554.92 143.228l.082.263c.085.021.17.04.255.059.033.007.047.052.021.066l-.207.107.078.261c.01.034-.027.052-.054.026l-.209-.197-.208.097c-.027.013-.063-.021-.052-.051l.076-.224-.205-.206c-.026-.027-.013-.065.02-.058.085.022.171.044.257.064l.08-.224c.011-.027.056-.017.066.017zM554.92 144.498l.082.263.255.058c.033.008.047.053.021.066-.069.037-.138.072-.207.107l.078.262c.01.034-.027.053-.054.027l-.209-.198-.208.098c-.027.013-.063-.022-.052-.052l.076-.225-.205-.206c-.026-.026-.013-.065.02-.058.085.022.171.045.257.065l.08-.224c.011-.027.056-.016.066.017zM555.906 140.239l.081.255c.085.015.171.029.257.042.032.006.047.05.019.065l-.205.121.077.256c.011.033-.025.055-.053.031l-.209-.184-.207.112c-.028.015-.063-.02-.053-.049l.076-.229-.205-.191c-.027-.025-.013-.065.02-.059.085.016.17.031.256.045l.081-.228c.011-.028.055-.02.065.013zM555.906 141.51l.081.256c.085.015.171.029.257.042.032.005.047.049.019.064l-.205.122.077.255c.011.034-.025.054-.053.03l-.209-.183-.207.111c-.028.015-.063-.018-.053-.048l.076-.229-.205-.192c-.027-.025-.013-.064.02-.058.085.016.17.031.256.045l.081-.229c.011-.028.055-.02.065.014zM555.906 142.78l.081.255c.085.015.171.029.257.042.032.006.047.05.019.065l-.205.121.077.256c.011.033-.025.054-.053.031l-.209-.184-.207.112c-.028.014-.063-.02-.053-.049l.076-.229-.205-.191c-.027-.025-.013-.064.02-.059.085.016.17.031.256.045l.081-.228c.011-.028.055-.021.065.013zM555.906 144.051l.081.256c.085.015.171.029.257.042.032.005.047.05.019.065l-.205.121.077.255c.011.034-.025.054-.053.03l-.209-.183-.207.111c-.028.015-.063-.018-.053-.048l.076-.229-.205-.191c-.027-.026-.013-.065.02-.059.085.016.17.031.256.045l.081-.229c.011-.028.055-.021.065.014zM556.893 139.751l.081.251c.085.01.17.019.256.026.033.004.048.047.02.064l-.206.133.077.252c.011.032-.024.055-.052.034l-.208-.171-.209.125c-.026.015-.063-.016-.053-.046l.078-.234a32.652 32.652 0 0 1-.206-.178c-.028-.023-.014-.063.02-.061.085.011.17.021.256.03l.082-.233c.009-.028.054-.024.064.008zM556.893 141.021l.081.252c.085.01.17.019.256.026.033.003.048.047.02.064l-.206.132.077.252c.011.033-.024.055-.052.033l-.208-.17-.209.124c-.026.017-.063-.013-.053-.044l.078-.235-.206-.177c-.028-.023-.014-.064.02-.061.085.011.17.021.256.03l.082-.234c.009-.029.054-.024.064.008zM556.893 142.292l.081.252c.085.009.17.018.256.025.033.003.048.046.02.065l-.206.132.077.252c.011.032-.024.056-.052.034l-.208-.171-.209.125c-.026.017-.063-.016-.053-.046l.078-.234-.206-.177c-.028-.024-.014-.065.02-.062l.256.031.082-.234c.009-.029.054-.024.064.008zM556.893 143.563l.081.252c.085.01.17.019.256.026.033.003.048.046.02.064l-.206.133.077.251c.011.033-.024.056-.052.033l-.208-.17-.209.124c-.026.017-.063-.014-.053-.044l.078-.234a32.652 32.652 0 0 1-.206-.178c-.028-.024-.014-.064.02-.061.085.011.17.021.256.03l.082-.234c.009-.03.054-.025.064.008zM556.893 144.833l.081.252c.085.009.17.018.256.025.033.004.048.047.02.064l-.206.133.077.252c.011.033-.024.056-.052.034l-.208-.171-.209.125c-.026.016-.063-.015-.053-.046l.078-.234a32.652 32.652 0 0 1-.206-.178c-.028-.023-.014-.063.02-.061l.256.031.082-.234c.009-.028.054-.024.064.008zM557.879 140.452l.081.246.256.013c.033.001.047.044.021.063l-.206.145.077.248c.009.031-.026.058-.053.036l-.208-.159-.209.138c-.026.018-.063-.013-.053-.043l.078-.239-.207-.166c-.026-.022-.014-.063.021-.062l.256.016.081-.238c.01-.032.055-.03.065.002zM557.879 141.723l.081.247.256.013c.033.001.047.043.021.062l-.206.146.077.247c.009.032-.026.057-.053.035-.069-.052-.139-.104-.208-.158l-.209.137c-.026.018-.063-.011-.053-.042l.078-.238a30.296 30.296 0 0 1-.207-.167c-.026-.021-.014-.063.021-.061l.256.016.081-.239c.01-.033.055-.032.065.002zM557.879 142.993l.081.246.256.013c.033.002.047.044.021.063l-.206.145.077.248c.009.031-.026.057-.053.036l-.208-.159-.209.138c-.026.017-.063-.013-.053-.043l.078-.239-.207-.166c-.026-.022-.014-.063.021-.062l.256.016.081-.238c.01-.032.055-.03.065.002zM557.879 144.264l.081.247.256.013c.033.001.047.045.021.063l-.206.145.077.247c.009.032-.026.057-.053.035-.069-.052-.139-.104-.208-.158l-.209.137c-.026.018-.063-.011-.053-.042l.078-.238-.207-.166c-.026-.022-.014-.063.021-.062l.256.016.081-.239c.01-.033.055-.032.065.002zM558.865 139.855l.08.242h.258c.031.001.045.043.02.063l-.205.154.076.243c.009.031-.025.058-.053.04l-.209-.149-.208.147c-.026.017-.063-.009-.054-.04l.078-.243-.207-.156c-.025-.021-.012-.062.021-.062l.256.002.081-.242c.012-.031.056-.031.066.001zM558.865 141.126l.08.243h.258c.031 0 .045.042.02.063l-.205.153.076.243a.035.035 0 0 1-.053.039l-.209-.148a26.3 26.3 0 0 1-.208.146c-.026.019-.063-.007-.054-.039l.078-.243-.207-.155c-.025-.02-.012-.063.021-.062l.256.002.081-.243c.012-.03.056-.031.066.001zM558.865 142.396l.08.243.258-.001c.031 0 .045.042.02.063l-.205.153.076.243c.009.031-.025.06-.053.04l-.209-.149-.208.147c-.026.019-.063-.009-.054-.04l.078-.243-.207-.155c-.025-.021-.012-.063.021-.063l.256.003.081-.243c.012-.029.056-.029.066.002zM558.865 143.667l.08.243h.258c.031 0 .045.041.02.063l-.205.154.076.242c.009.032-.025.059-.053.039l-.209-.148a26.3 26.3 0 0 1-.208.146c-.026.019-.063-.007-.054-.039l.078-.242-.207-.156c-.025-.021-.012-.063.021-.062l.256.002.081-.243c.012-.031.056-.031.066.001zM558.865 144.938l.08.243.258-.001c.031.001.045.042.02.063l-.205.154.076.243c.009.032-.025.06-.053.04l-.209-.149-.208.147c-.026.019-.063-.008-.054-.04l.078-.243-.207-.156c-.025-.02-.012-.062.021-.062l.256.003.081-.243c.012-.031.056-.031.066.001zM559.852 140.459l.081.239.257-.011c.032-.002.045.041.019.063l-.205.162.077.24c.01.031-.025.061-.054.042l-.207-.141-.208.156c-.027.02-.064-.006-.055-.037l.077-.247-.206-.146c-.025-.02-.012-.063.021-.063l.256-.01.081-.245c.011-.03.055-.032.066-.002zM559.852 141.73l.081.239.257-.011c.032-.001.045.04.019.061-.068.056-.137.109-.205.164l.077.239c.01.032-.025.06-.054.041l-.207-.14-.208.155c-.027.021-.064-.004-.055-.036l.077-.246-.206-.147c-.025-.02-.012-.062.021-.062l.256-.01.081-.246c.011-.031.055-.033.066-.001zM559.852 143l.081.239.257-.011c.032 0 .045.041.019.063l-.205.162.077.24c.01.03-.025.06-.054.042l-.207-.141-.208.156c-.027.02-.064-.006-.055-.037l.077-.247-.206-.146c-.025-.02-.012-.061.021-.063l.256-.01.081-.245c.011-.031.055-.032.066-.002zM559.852 144.271l.081.239.257-.011c.032-.001.045.041.019.063l-.205.162.077.239c.01.032-.025.06-.054.041l-.207-.14-.208.155c-.027.021-.064-.004-.055-.036l.077-.246-.206-.146c-.025-.021-.012-.063.021-.063l.256-.01.081-.246c.011-.031.055-.034.066-.001zM560.838 139.779l.081.235.255-.019c.034-.002.048.038.021.061l-.207.17.078.237c.01.03-.027.061-.054.044l-.208-.134c-.069.056-.139.11-.208.164-.028.02-.063-.003-.053-.035l.077-.249-.206-.14c-.027-.018-.013-.06.021-.063l.256-.019.08-.248c.011-.031.056-.035.067-.004zM560.838 141.05l.081.236.255-.019c.034-.003.048.039.021.061l-.207.169.078.237c.01.031-.027.061-.054.043l-.208-.133-.208.163c-.028.022-.063-.001-.053-.034l.077-.249a24.834 24.834 0 0 1-.206-.139c-.027-.018-.013-.062.021-.063l.256-.019.08-.249c.011-.032.056-.034.067-.004zM560.838 142.32l.081.236.255-.02c.034-.003.048.038.021.062l-.207.169.078.237c.01.03-.027.061-.054.044l-.208-.134c-.069.056-.139.11-.208.164-.028.021-.063-.003-.053-.035l.077-.249a24.834 24.834 0 0 1-.206-.139c-.027-.019-.013-.063.021-.064l.256-.018.08-.249c.011-.031.056-.035.067-.004zM560.838 143.591l.081.236.255-.019c.034-.003.048.037.021.061l-.207.17.078.236c.01.031-.027.061-.054.043l-.208-.133-.208.163c-.028.022-.063-.001-.053-.034l.077-.248-.206-.14c-.027-.019-.013-.062.021-.063l.256-.019.08-.249c.011-.032.056-.035.067-.004zM560.838 144.861l.081.236.255-.02c.034-.002.048.039.021.061l-.207.17.078.237c.01.031-.027.061-.054.044l-.208-.134c-.069.056-.139.11-.208.164-.028.021-.063-.003-.053-.035l.077-.249-.206-.14c-.027-.018-.013-.061.021-.063l.256-.018.08-.249c.011-.031.056-.035.067-.004zM561.824 140.313l.08.233.256-.026c.033-.004.048.037.021.061l-.206.176.078.235c.01.03-.026.062-.054.045l-.208-.128-.208.171c-.028.022-.063-.002-.053-.034l.077-.251-.206-.133c-.027-.018-.014-.062.02-.064l.257-.027.081-.25c.011-.034.054-.039.065-.008zM561.824 141.583l.08.234.256-.026c.033-.003.048.036.021.06l-.206.177.078.234c.01.031-.026.061-.054.044l-.208-.126-.208.169c-.028.022-.063.001-.053-.033l.077-.25-.206-.134c-.027-.018-.014-.06.02-.063l.257-.027.081-.251c.011-.034.054-.039.065-.008zM561.824 142.854l.08.233.256-.026c.033-.003.048.038.021.061l-.206.176.078.235c.01.029-.026.061-.054.045l-.208-.128-.208.171c-.028.021-.063-.002-.053-.034l.077-.251-.206-.133c-.027-.017-.014-.061.02-.064l.257-.027.081-.25c.011-.034.054-.039.065-.008zM561.824 144.124l.08.234.256-.026c.033-.004.048.038.021.061l-.206.176.078.234c.01.03-.026.061-.054.044l-.208-.126-.208.169c-.028.022-.063 0-.053-.033l.077-.25-.206-.133c-.027-.019-.014-.062.02-.064l.257-.027.081-.251c.011-.034.054-.039.065-.008zM562.811 139.574l.08.231.256-.031c.033-.003.047.036.021.06l-.205.18.076.233c.011.03-.025.061-.054.047l-.207-.123-.209.176c-.026.021-.063-.001-.053-.033l.077-.253-.205-.128c-.026-.016-.014-.06.019-.064l.257-.033.082-.253c.009-.033.054-.038.065-.009zM562.811 140.845l.08.232.256-.031c.033-.005.047.036.021.06l-.205.179.076.233c.011.031-.025.062-.054.046l-.207-.122-.209.175c-.026.022-.063.002-.053-.032l.077-.253-.205-.127c-.026-.016-.014-.061.019-.064l.257-.033.082-.254c.009-.034.054-.04.065-.009zM562.811 142.115l.08.232.256-.032c.033-.005.047.036.021.061l-.205.179.076.233c.011.03-.025.063-.054.047l-.207-.123-.209.176c-.026.022-.063 0-.053-.033l.077-.253-.205-.127c-.026-.018-.014-.062.019-.065l.257-.032.082-.254c.009-.033.054-.039.065-.009zM562.811 143.386l.08.232.256-.031c.033-.005.047.035.021.06l-.205.18.076.232c.011.031-.025.062-.054.046l-.207-.122-.209.175c-.026.022-.063.002-.053-.032l.077-.252-.205-.128c-.026-.017-.014-.061.019-.064l.257-.033.082-.254c.009-.034.054-.04.065-.009zM562.811 144.656l.08.232.256-.032c.033-.004.047.036.021.06l-.205.18.076.233c.011.031-.025.063-.054.047l-.207-.123-.209.176c-.026.022-.063.001-.053-.033l.077-.253-.205-.128c-.026-.017-.014-.06.019-.064l.257-.032.082-.254c.009-.033.054-.039.065-.009z"/></g><path fill="#95A5A6" d="M553.402 137.299h-.497a.498.498 0 0 0-.497.498v25.836c0 .274.223.496.497.496h.497a.496.496 0 0 0 .496-.496v-25.836a.496.496 0 0 0-.496-.498z"/></g></g><g><path fill="#DFD0C6" d="M34.031 266.397v-1.213h24.306v-120.32H0V298h34.031v-31.603zm8.506-98.444v-3.646h6.076v13.372h-6.076v-9.726zm0 34.033v-3.645h6.076V211.708h-6.076v-9.722zm0 34.029v-3.646h6.076V245.737h-6.076v-9.722zm-8.506-68.062v-3.646h6.077v13.372h-6.077v-9.726zm0 34.033v-3.645h6.077V211.708h-6.077v-9.722zm0 34.029v-3.646h6.077V245.737h-6.077v-9.722zm-18.23 34.033V279.771H9.722V266.398h6.079v3.65zm0-34.033v9.722H9.722V232.369h6.079v3.646zm0-34.029v9.722H9.722V198.341h6.079v3.645zm0-34.033V177.679H9.722V164.306h6.079v3.647zm8.506 102.095V279.771H18.23V266.398h6.077v3.65zm0-34.033v9.722H18.23V232.369h6.077v3.646zm0-34.029v9.722H18.23V198.341h6.077v3.645zm0-34.033V177.679H18.23V164.306h6.077v3.647z"/><path fill="#83727A" d="M126.397 198.342h8.508V298h-8.508zM143.414 198.342h8.505V298h-8.505zM160.428 198.342h8.508V298h-8.508z"/><path fill="#A08A8A" d="M34.031 268.83V298h83.859v-29.17H34.031zm9.722 10.941v8.508h-4.861v-13.372h4.861v4.864zm6.076 0v8.508h-4.86v-13.372h4.86v4.864zm9.725 0v8.508H54.69v-13.372h4.864v4.864zm6.076 0v8.508h-4.86v-13.372h4.861v4.864zm9.722 0v8.508h-4.86v-13.372h4.86v4.864zm6.077 0v8.508h-4.861v-13.372h4.861v4.864zm9.724 0v8.508h-4.861v-13.372h4.861v4.864zm6.076 0v8.508h-4.861v-13.372h4.861v4.864zm9.722 0v8.508h-4.861v-13.372h4.861v4.864zm6.077 0v8.508h-4.861v-13.372h4.861v4.864z"/><path fill="#695A69" d="M58.337 198.342h8.509v66.843h8.506v-66.843h8.508v66.843h8.509v-66.843h8.505v66.843h8.509v-66.843h8.508V298h8.506v-99.658h8.508V298h8.509v-99.658h8.505V298h8.509v-99.658h8.509V298h8.505v-99.658h2.432v-6.077H58.337z"/><path fill="#C8B2A8" d="M58.337 142.433v-3.645H0V144.864h58.337z"/><path fill="#A08A8A" d="M58.337 186.188h121.537v6.076H58.337z"/><path fill="#695A69" d="M9.722 164.308h6.079v3.646H9.722z"/><path fill="#A08A8A" d="M9.722 177.68h6.079v-3.651l-6.079-6.076z"/><path fill="#83727A" d="M15.801 174.029v-6.076H9.722z"/><path fill="#695A69" d="M18.23 164.308h6.077v3.646H18.23z"/><path fill="#A08A8A" d="M18.23 177.68h6.077v-3.651l-6.077-6.076z"/><path fill="#83727A" d="M24.307 174.029v-6.076H18.23z"/><path fill="#695A69" d="M34.031 164.308h6.077v3.646h-6.077z"/><path fill="#A08A8A" d="M40.108 174.029l-6.077-6.076v9.727h6.077z"/><path fill="#83727A" d="M40.108 167.953h-6.077l6.077 6.076z"/><path fill="#695A69" d="M42.537 164.308h6.076v3.646h-6.076z"/><path fill="#A08A8A" d="M48.613 174.029l-6.076-6.076v9.727h6.076z"/><path fill="#83727A" d="M48.613 167.953h-6.076l6.076 6.076z"/><path fill="#695A69" d="M9.722 198.342h6.079v3.645H9.722z"/><path fill="#A08A8A" d="M9.722 211.708h6.079v-3.645l-6.079-6.077z"/><path fill="#83727A" d="M15.801 208.063v-6.077H9.722z"/><path fill="#695A69" d="M18.23 198.342h6.077v3.645H18.23z"/><path fill="#A08A8A" d="M18.23 211.708h6.077v-3.645l-6.077-6.077z"/><path fill="#83727A" d="M24.307 208.063v-6.077H18.23z"/><path fill="#695A69" d="M34.031 198.342h6.077v3.645h-6.077z"/><path fill="#A08A8A" d="M40.108 208.063l-6.077-6.077v9.722h6.077z"/><path fill="#83727A" d="M40.108 201.986h-6.077l6.077 6.077z"/><path fill="#695A69" d="M42.537 198.342h6.076v3.645h-6.076z"/><path fill="#A08A8A" d="M48.613 208.063l-6.076-6.077v9.722h6.076z"/><path fill="#83727A" d="M48.613 201.986h-6.076l6.076 6.077z"/><path fill="#695A69" d="M9.722 232.369h6.079v3.646H9.722z"/><path fill="#A08A8A" d="M9.722 245.736h6.079v-3.644l-6.079-6.077z"/><path fill="#83727A" d="M15.801 242.092v-6.077H9.722z"/><path fill="#695A69" d="M18.23 232.369h6.077v3.646H18.23z"/><path fill="#A08A8A" d="M18.23 245.736h6.077v-3.644l-6.077-6.077z"/><path fill="#83727A" d="M24.307 242.092v-6.077H18.23z"/><path fill="#695A69" d="M34.031 232.369h6.077v3.646h-6.077z"/><path fill="#A08A8A" d="M40.108 242.092l-6.077-6.077v9.721h6.077z"/><path fill="#83727A" d="M40.108 236.015h-6.077l6.077 6.077z"/><path fill="#695A69" d="M42.537 232.369h6.076v3.646h-6.076z"/><path fill="#A08A8A" d="M48.613 242.092l-6.076-6.077v9.721h6.076z"/><path fill="#83727A" d="M48.613 236.015h-6.076l6.076 6.077z"/><path fill="#695A69" d="M9.722 266.397h6.079v3.65H9.722z"/><path fill="#A08A8A" d="M9.722 279.771h6.079v-3.646l-6.079-6.077z"/><path fill="#83727A" d="M15.801 276.125v-6.077H9.722z"/><path fill="#695A69" d="M18.23 266.397h6.077v3.65H18.23z"/><path fill="#A08A8A" d="M18.23 279.771h6.077v-3.646l-6.077-6.077z"/><path fill="#83727A" d="M24.307 276.125v-6.077H18.23zM38.892 288.278h4.861v-8.507l-4.861-4.865z"/><path fill="#695A69" d="M43.753 279.771v-4.865h-4.861z"/><path fill="#83727A" d="M44.969 288.278h4.86v-8.507l-4.86-4.865z"/><path fill="#695A69" d="M49.829 279.771v-4.865h-4.86z"/><path fill="#83727A" d="M54.69 274.906v13.372h4.864v-8.507z"/><path fill="#695A69" d="M54.69 274.906l4.864 4.865v-4.865z"/><path fill="#83727A" d="M60.77 288.278h4.86v-8.507l-4.86-4.865z"/><path fill="#695A69" d="M65.63 279.771v-4.865h-4.86z"/><path fill="#83727A" d="M70.491 288.278h4.861v-8.507l-4.861-4.865z"/><path fill="#695A69" d="M75.352 279.771v-4.865h-4.861z"/><path fill="#83727A" d="M76.568 288.278h4.861v-8.507l-4.861-4.865z"/><path fill="#695A69" d="M81.429 279.771v-4.865h-4.861z"/><path fill="#83727A" d="M86.292 288.278h4.861v-8.507l-4.861-4.865z"/><path fill="#695A69" d="M91.153 279.771v-4.865h-4.861z"/><path fill="#83727A" d="M92.369 288.278h4.86v-8.507l-4.86-4.865z"/><path fill="#695A69" d="M97.229 279.771v-4.865h-4.86z"/><path fill="#83727A" d="M102.09 288.278h4.861v-8.507l-4.861-4.865z"/><path fill="#695A69" d="M106.951 279.771v-4.865h-4.861z"/><path fill="#83727A" d="M108.167 274.906v13.372h4.861v-8.507z"/><path fill="#695A69" d="M108.167 274.906l4.861 4.865v-4.865z"/><path fill="#83727A" d="M34.031 265.185V268.83h83.86v-70.488h-8.508v66.843h-8.509v-66.843h-8.505v66.843H83.86v-66.843h-8.508v66.843h-8.506v-66.843h-8.509v66.843z"/></g><g><path fill="#C8B2A8" d="M375 163.706h265V298H375z"/><path fill="#83727A" d="M631.05 204.896v-14.334h-14.324zM631.05 222.802v-14.325h-14.324zM631.05 186.988V172.66h-14.324zM631.05 258.606v-14.317h-14.324zM631.05 240.7v-14.317h-14.324z"/><path fill="#A08A8A" d="M616.726 186.988h14.324l-14.324-14.328zM616.726 204.896h14.324l-14.324-14.334zM616.726 222.802h14.324l-14.324-14.325zM616.726 240.7h14.324l-14.324-14.317z"/><path fill="#695A69" d="M616.726 186.988h14.324v3.573h-14.324zM616.726 208.468v.009h14.324v-3.581h-14.324zM616.726 226.375v.008h14.324v-3.581h-14.324z"/><path fill="#A08A8A" d="M616.726 258.606h14.324l-14.324-14.317z"/><path fill="#695A69" d="M616.726 240.7h14.324v3.589h-14.324z"/><path fill="#83727A" d="M613.144 204.896v-14.334h-14.326zM613.144 186.988V172.66h-14.326zM613.144 258.606v-14.317h-14.326zM613.144 240.7v-14.317h-14.326zM613.144 222.802v-14.325h-14.326z"/><path fill="#A08A8A" d="M598.818 186.988h14.326l-14.326-14.328zM598.818 204.896h14.326l-14.326-14.334zM598.818 222.802h14.326l-14.326-14.325zM598.818 240.7h14.326l-14.326-14.317z"/><path fill="#695A69" d="M598.818 186.988h14.325v3.573h-14.325zM598.818 208.468v.009h14.326v-3.581h-14.326zM598.818 226.375v.008h14.326v-3.581h-14.326z"/><path fill="#A08A8A" d="M598.818 258.606h14.326l-14.326-14.317z"/><path fill="#695A69" d="M598.818 240.7h14.325v3.589h-14.325z"/><path fill="#83727A" d="M595.237 240.7v-14.317h-14.325zM595.237 204.896v-14.334h-14.325zM595.237 222.802v-14.325h-14.325zM595.237 258.606v-14.317h-14.325zM595.237 186.988V172.66h-14.325z"/><path fill="#A08A8A" d="M580.912 186.988h14.325l-14.325-14.328zM580.912 204.896h14.325l-14.325-14.334zM580.912 222.802h14.325l-14.325-14.325zM580.912 240.7h14.325l-14.325-14.317z"/><path fill="#695A69" d="M580.912 186.988h14.325v3.573h-14.325zM580.912 208.468v.009h14.325v-3.581h-14.325zM580.912 226.375v.008h14.325v-3.581h-14.325z"/><path fill="#A08A8A" d="M580.912 258.606h14.325l-14.325-14.317z"/><path fill="#695A69" d="M580.912 240.7h14.325v3.589h-14.325z"/><path fill="#83727A" d="M577.331 258.606v-14.317h-14.317zM577.331 222.802v-14.325h-14.317zM577.331 240.7v-14.317h-14.317zM577.331 186.988V172.66h-14.317zM577.331 204.896v-14.334h-14.317z"/><path fill="#A08A8A" d="M563.014 186.988h14.317l-14.317-14.328zM563.014 204.896h14.317l-14.317-14.334zM563.014 222.802h14.317l-14.317-14.325zM563.014 240.7h14.317l-14.317-14.317z"/><path fill="#695A69" d="M563.014 186.988h14.317v3.573h-14.317zM563.014 208.468v.009h14.317v-3.581h-14.317zM563.014 226.375v.008h14.317v-3.581h-14.317z"/><path fill="#A08A8A" d="M563.014 258.606h14.317l-14.317-14.317z"/><path fill="#695A69" d="M563.014 240.7h14.317v3.589h-14.317z"/><path fill="#83727A" d="M559.416 172.66h-14.308l14.308 14.328zM559.416 240.7v-14.317h-14.308zM559.416 204.896v-14.334h-14.308zM559.416 222.802v-14.325h-14.308zM559.416 258.606v-14.317h-14.308z"/><path fill="#A08A8A" d="M545.108 172.66v14.328h14.308zM545.108 204.896h14.308l-14.308-14.334zM545.108 222.802h14.308l-14.308-14.325zM545.108 240.7h14.308l-14.308-14.317z"/><path fill="#695A69" d="M545.108 186.988h14.308v3.573h-14.308zM559.416 186.988h.008v3.573h-.008zM545.108 208.468v.009h14.308v-3.581h-14.308zM559.416 208.477h.008v-3.581h-.008v3.572zM545.108 226.375v.008h14.308v-3.581h-14.308zM559.416 226.383h.008v-3.581h-.008v3.573z"/><path fill="#A08A8A" d="M545.108 258.606h14.308l-14.308-14.317z"/><path fill="#695A69" d="M545.108 240.7h14.308v3.589h-14.308zM559.416 240.7h.008v3.589h-.008z"/><path fill="#83727A" d="M541.519 258.606v-14.317h-14.318zM541.519 222.802v-14.325h-14.318zM541.519 204.896v-14.334h-14.318zM541.519 240.7v-14.317h-14.318zM541.519 186.988V172.66h-14.318z"/><path fill="#A08A8A" d="M527.201 186.988h14.318l-14.318-14.328zM527.201 204.896h14.318l-14.318-14.334zM527.201 222.802h14.318l-14.318-14.325zM527.201 240.7h14.318l-14.318-14.317z"/><path fill="#695A69" d="M527.201 186.988h14.317v3.573h-14.317zM527.201 208.468v.009h14.318v-3.581h-14.318zM527.201 226.375v.008h14.318v-3.581h-14.318z"/><path fill="#A08A8A" d="M527.201 258.606h14.318l-14.318-14.317z"/><path fill="#695A69" d="M527.201 240.7h14.317v3.589h-14.317z"/><path fill="#83727A" d="M523.612 222.802v-14.325h-14.317zM523.612 204.896v-14.334h-14.317zM523.612 240.7v-14.317h-14.317zM523.612 258.606v-14.317h-14.317zM523.612 186.988V172.66h-14.317z"/><path fill="#A08A8A" d="M509.295 186.988h14.317l-14.317-14.328zM509.295 204.896h14.317l-14.317-14.334zM509.295 222.802h14.317l-14.317-14.325zM509.295 240.7h14.317l-14.317-14.317z"/><path fill="#695A69" d="M509.295 186.988h14.317v3.573h-14.317zM509.295 208.468v.009h14.317v-3.581h-14.317zM509.295 226.375v.008h14.317v-3.581h-14.317z"/><path fill="#A08A8A" d="M509.295 258.606h14.317l-14.317-14.317z"/><path fill="#695A69" d="M509.295 240.7h14.317v3.589h-14.317z"/><path fill="#83727A" d="M505.705 204.896v-14.334h-14.317zM505.705 222.802v-14.325h-14.317zM505.705 186.988V172.66h-14.317zM505.705 240.7v-14.317h-14.317zM505.705 258.606v-14.317h-14.317z"/><path fill="#A08A8A" d="M491.388 186.988h14.317l-14.317-14.328zM491.388 204.896h14.317l-14.317-14.334zM491.388 222.802h14.317l-14.317-14.325zM491.388 240.7h14.317l-14.317-14.317z"/><path fill="#695A69" d="M491.388 186.988h14.317v3.573h-14.317zM491.388 208.468v.009h14.317v-3.581h-14.317zM491.388 226.375v.008h14.317v-3.581h-14.317z"/><path fill="#A08A8A" d="M491.388 258.606h14.317l-14.317-14.317z"/><path fill="#695A69" d="M491.388 240.7h14.317v3.589h-14.317z"/><path fill="#83727A" d="M487.799 186.988V172.66h-14.317zM487.799 222.802v-14.325h-14.317zM487.799 258.606v-14.317h-14.317zM487.799 240.7v-14.317h-14.317zM487.799 204.896v-14.334h-14.317z"/><path fill="#A08A8A" d="M473.482 186.988h14.317l-14.317-14.328zM473.482 204.896h14.317l-14.317-14.334zM473.482 222.802h14.317l-14.317-14.325zM473.482 240.7h14.317l-14.317-14.317z"/><path fill="#695A69" d="M473.482 186.988h14.316v3.573h-14.316zM473.482 208.468v.009h14.317v-3.581h-14.317zM473.482 226.375v.008h14.317v-3.581h-14.317z"/><path fill="#A08A8A" d="M473.482 258.606h14.317l-14.317-14.317z"/><path fill="#695A69" d="M473.482 240.7h14.316v3.589h-14.316z"/><path fill="#83727A" d="M469.892 204.896v-14.334h-14.317zM469.892 258.606v-14.317h-14.317zM469.892 186.988V172.66h-14.317zM469.892 222.802v-14.325h-14.317zM469.892 240.7v-14.317h-14.317z"/><path fill="#A08A8A" d="M455.575 186.988h14.317l-14.317-14.328zM455.575 204.896h14.317l-14.317-14.334zM455.575 222.802h14.317l-14.317-14.325zM455.575 240.7h14.317l-14.317-14.317z"/><path fill="#695A69" d="M455.575 186.988h14.316v3.573h-14.316zM455.575 208.468v.009h14.317v-3.581h-14.317zM455.575 226.375v.008h14.317v-3.581h-14.317z"/><path fill="#A08A8A" d="M455.575 258.606h14.317l-14.317-14.317z"/><path fill="#695A69" d="M455.575 240.7h14.316v3.589h-14.316z"/><path fill="#83727A" d="M451.988 204.896v-14.334h-14.319zM451.988 240.7v-14.317h-14.319zM451.988 186.988V172.66h-14.319zM451.988 258.606v-14.317h-14.319zM451.988 222.802v-14.325h-14.319z"/><path fill="#A08A8A" d="M437.669 186.988h14.319l-14.319-14.328zM437.669 204.896h14.319l-14.319-14.334zM437.669 222.802h14.319l-14.319-14.325zM437.669 240.7h14.319l-14.319-14.317z"/><path fill="#695A69" d="M437.669 186.988h14.319v3.573h-14.319zM437.669 208.468v.009h14.319v-3.581h-14.319zM437.669 226.375v.008h14.319v-3.581h-14.319z"/><path fill="#A08A8A" d="M437.669 258.606h14.319l-14.319-14.317z"/><path fill="#695A69" d="M437.669 240.7h14.319v3.589h-14.319z"/><path fill="#83727A" d="M434.088 204.896v-14.334h-14.325zM434.088 258.606v-14.317h-14.325zM434.088 240.7v-14.317h-14.325zM434.088 186.988V172.66h-14.325zM434.088 222.802v-14.325h-14.325z"/><path fill="#A08A8A" d="M419.763 186.988h14.325l-14.325-14.328zM419.763 204.896h14.325l-14.325-14.334zM419.763 222.802h14.325l-14.325-14.325zM419.763 240.7h14.325l-14.325-14.317z"/><path fill="#695A69" d="M419.763 186.988h14.325v3.573h-14.325zM419.763 208.468v.009h14.325v-3.581h-14.325zM419.763 226.375v.008h14.325v-3.581h-14.325z"/><path fill="#A08A8A" d="M419.763 258.606h14.325l-14.325-14.317z"/><path fill="#695A69" d="M419.763 240.7h14.325v3.589h-14.325z"/><path fill="#83727A" d="M416.182 240.7v-14.317h-14.326zM416.182 222.802v-14.325h-14.326zM416.182 204.896v-14.334h-14.326zM416.182 258.606v-14.317h-14.326zM416.182 186.988V172.66h-14.326z"/><path fill="#A08A8A" d="M401.856 186.988h14.326l-14.326-14.328zM401.856 204.896h14.326l-14.326-14.334zM401.856 222.802h14.326l-14.326-14.325zM401.856 240.7h14.326l-14.326-14.317z"/><path fill="#695A69" d="M401.856 186.988h14.325v3.573h-14.325zM401.856 208.468v.009h14.326v-3.581h-14.326zM401.856 226.375v.008h14.326v-3.581h-14.326z"/><path fill="#A08A8A" d="M401.856 258.606h14.326l-14.326-14.317z"/><path fill="#695A69" d="M401.856 240.7h14.325v3.589h-14.325z"/><path fill="#83727A" d="M398.273 240.7v-14.317H383.95zM398.273 204.896v-14.334H383.95zM398.273 222.802v-14.325H383.95zM398.273 258.606v-14.317H383.95zM398.273 186.988V172.66H383.95z"/><path fill="#A08A8A" d="M383.95 186.988h14.323L383.95 172.66zM383.95 204.896h14.323l-14.323-14.334zM383.95 222.802h14.323l-14.323-14.325zM383.95 240.7h14.323l-14.323-14.317z"/><path fill="#695A69" d="M383.95 186.988h14.323v3.573H383.95zM383.95 208.468v.009h14.323v-3.581H383.95zM383.95 226.375v.008h14.323v-3.581H383.95z"/><path fill="#A08A8A" d="M383.95 258.606h14.323l-14.323-14.317z"/><path fill="#695A69" d="M383.95 240.7h14.323v3.589H383.95z"/><g><path fill="#A08A8A" d="M383.95 289.051V298h30.445l-30.445-30.437zM466.319 289.051V298h30.445l-30.445-30.437zM555.844 289.051V298h30.445l-30.445-30.437z"/><path fill="#695A69" d="M383.95 263.981h75.206v3.582H383.95zM466.319 263.981h82.361v3.582h-82.361zM555.844 263.981h75.206v3.582h-75.206z"/><path fill="#83727A" d="M459.156 267.563H383.95L414.395 298h44.761v-8.949zM548.681 267.563h-82.362L496.764 298h51.917v-8.949zM631.05 267.563h-75.206L586.289 298h44.761v-8.949z"/><path fill="#695A69" d="M375 289.051h8.95V298H375zM631.05 289.051H640V298h-8.95zM459.156 289.051h7.163V298h-7.163zM548.681 289.051h7.163V298h-7.163z"/></g></g><g><path fill="#83727A" d="M326.994 290.237h7.762V270.05h34.166V290.237h7.764v-32.611h-49.692z"/><path fill="#A08A8A" d="M250.899 260.729v-23.29h-23.295zM254.005 237.439l23.293 23.29v-23.29zM250.899 287.128v-23.29h-23.295zM198.099 263.838h-23.293l23.293 23.29zM254.005 263.838l23.293 23.29v-23.29zM250.899 211.04h-23.295l23.295 23.29zM224.498 237.439h-23.293l23.293 23.29zM224.498 211.04h-23.293l23.293 23.29zM198.099 211.04h-23.293l23.293 23.29zM254.005 211.04l23.293 23.29v-23.29zM224.498 263.838h-23.293l23.293 23.29zM198.099 237.439h-23.293l23.293 23.29z"/><path fill="#C8B2A8" d="M277.298 211.04v79.196h49.696V148.921h-49.696v62.119zM313.015 166v-4.654h4.661v17.078h-4.661V166zm0 26.404v-4.66h4.661V204.822h-4.661v-12.418zm0 26.4v-4.661h4.661v17.085h-4.661v-12.424zm0 26.398v-4.66h4.661v17.084h-4.661v-12.424zm0 26.4v-4.66h4.661v17.083h-4.661v-12.423zM306.803 166v-4.654h4.661v17.078h-4.661V166zm0 26.404v-4.66h4.661V204.822h-4.661v-12.418zm0 26.4v-4.661h4.661v17.085h-4.661v-12.424zm0 26.398v-4.66h4.661v17.084h-4.661v-12.424zm0 26.4v-4.66h4.661v17.083h-4.661v-12.423zM292.828 166v-4.654h4.657v17.078h-4.657V166zm0 26.404v-4.66h4.657V204.822h-4.657v-12.418zm0 26.4v-4.661h4.657v17.085h-4.657v-12.424zm0 26.398v-4.66h4.657v17.084h-4.657v-12.424zm0 26.4v-4.66h4.657v17.083h-4.657v-12.423zM286.616 166v-4.654h4.657v17.078h-4.657V166zm0 26.404v-4.66h4.657V204.822h-4.657v-12.418zm0 26.4v-4.661h4.657v17.085h-4.657v-12.424zm0 26.398v-4.66h4.657v17.084h-4.657v-12.424zm0 26.4v-4.66h4.657v17.083h-4.657v-12.423z"/><path fill="#83727A" d="M291.273 271.602h-4.657l4.657 4.66z"/><path fill="#A08A8A" d="M291.273 276.262l-4.657-4.66v12.422h4.657z"/><path fill="#695A69" d="M286.616 266.941h4.657v4.66h-4.657z"/><path fill="#83727A" d="M297.485 271.602h-4.657l4.657 4.66z"/><path fill="#A08A8A" d="M297.485 276.262l-4.657-4.66v12.422h4.657z"/><path fill="#695A69" d="M292.828 266.941h4.657v4.66h-4.657z"/><path fill="#83727A" d="M311.463 271.602h-4.66l4.66 4.66z"/><path fill="#A08A8A" d="M311.463 276.262l-4.66-4.66v12.422h4.66z"/><path fill="#695A69" d="M306.803 266.941h4.661v4.66h-4.661z"/><path fill="#83727A" d="M317.676 271.602h-4.661l4.661 4.66z"/><path fill="#A08A8A" d="M317.676 276.262l-4.661-4.66v12.422h4.661z"/><path fill="#695A69" d="M313.015 266.941h4.661v4.66h-4.661z"/><path fill="#83727A" d="M291.273 245.202h-4.657l4.657 4.661z"/><path fill="#A08A8A" d="M291.273 249.863l-4.657-4.661v12.424h4.657z"/><path fill="#695A69" d="M286.616 240.542h4.657v4.66h-4.657z"/><path fill="#83727A" d="M297.485 245.202h-4.657l4.657 4.661z"/><path fill="#A08A8A" d="M297.485 249.863l-4.657-4.661v12.424h4.657z"/><path fill="#695A69" d="M292.828 240.542h4.657v4.66h-4.657z"/><path fill="#83727A" d="M311.463 245.202h-4.66l4.66 4.661z"/><path fill="#A08A8A" d="M311.463 249.863l-4.66-4.661v12.424h4.66z"/><path fill="#695A69" d="M306.803 240.542h4.661v4.66h-4.661z"/><path fill="#83727A" d="M317.676 245.202h-4.661l4.661 4.661z"/><path fill="#A08A8A" d="M317.676 249.863l-4.661-4.661v12.424h4.661z"/><path fill="#695A69" d="M313.015 240.542h4.661v4.66h-4.661z"/><path fill="#83727A" d="M291.273 218.804h-4.657l4.657 4.654z"/><path fill="#A08A8A" d="M291.273 223.458l-4.657-4.654v12.424h4.657z"/><path fill="#695A69" d="M286.616 214.143h4.657v4.661h-4.657z"/><path fill="#83727A" d="M297.485 218.804h-4.657l4.657 4.654z"/><path fill="#A08A8A" d="M297.485 223.458l-4.657-4.654v12.424h4.657z"/><path fill="#695A69" d="M292.828 214.143h4.657v4.661h-4.657z"/><path fill="#83727A" d="M311.463 218.804h-4.66l4.66 4.654z"/><path fill="#A08A8A" d="M311.463 223.458l-4.66-4.654v12.424h4.66z"/><path fill="#695A69" d="M306.803 214.143h4.661v4.661h-4.661z"/><path fill="#83727A" d="M317.676 218.804h-4.661l4.661 4.654z"/><path fill="#A08A8A" d="M317.676 223.458l-4.661-4.654v12.424h4.661z"/><path fill="#695A69" d="M313.015 214.143h4.661v4.661h-4.661z"/><path fill="#83727A" d="M291.273 192.404h-4.657l4.657 4.656z"/><path fill="#A08A8A" d="M291.273 197.06l-4.657-4.656v12.424h4.657z"/><path fill="#695A69" d="M286.616 187.744h4.657v4.66h-4.657z"/><path fill="#83727A" d="M297.485 192.404h-4.657l4.657 4.656z"/><path fill="#A08A8A" d="M297.485 197.06l-4.657-4.656v12.424h4.657z"/><path fill="#695A69" d="M292.828 187.744h4.657v4.66h-4.657z"/><path fill="#83727A" d="M311.463 192.404h-4.66l4.66 4.656z"/><path fill="#A08A8A" d="M311.463 197.06l-4.66-4.656v12.424h4.66z"/><path fill="#695A69" d="M306.803 187.744h4.661v4.66h-4.661z"/><path fill="#83727A" d="M317.676 192.404h-4.661l4.661 4.656z"/><path fill="#A08A8A" d="M317.676 197.06l-4.661-4.656v12.424h4.661z"/><path fill="#695A69" d="M313.015 187.744h4.661v4.66h-4.661z"/><path fill="#83727A" d="M291.273 166h-4.657l4.657 4.66z"/><path fill="#A08A8A" d="M291.273 170.66l-4.657-4.66v12.424h4.657z"/><path fill="#695A69" d="M286.616 161.346h4.657V166h-4.657z"/><path fill="#83727A" d="M297.485 166h-4.657l4.657 4.66z"/><path fill="#A08A8A" d="M297.485 170.66l-4.657-4.66v12.424h4.657z"/><path fill="#695A69" d="M292.828 161.346h4.657V166h-4.657z"/><path fill="#83727A" d="M311.463 166h-4.66l4.66 4.66z"/><path fill="#A08A8A" d="M311.463 170.66l-4.66-4.66v12.424h4.66z"/><path fill="#695A69" d="M306.803 161.346h4.661V166h-4.661z"/><path fill="#83727A" d="M317.676 166h-4.661l4.661 4.66z"/><path fill="#A08A8A" d="M317.676 170.66l-4.661-4.66v12.424h4.661z"/><path fill="#695A69" d="M313.015 161.346h4.661V166h-4.661zM201.205 207.932h76.093v-4.661H174.806v4.661h23.293z"/><path fill="#C8B2A8" d="M174.806 211.04v23.29h23.293zM201.205 211.04v23.29h23.293zM250.899 234.33l-23.295-23.29v23.29zM254.005 234.33h23.293l-23.293-23.29zM174.806 237.439v23.29h23.293zM201.205 237.439v23.29h23.293zM227.604 260.729h23.295l-23.295-23.29zM254.005 260.729h23.293l-23.293-23.29zM174.806 263.838v23.29h23.293zM201.205 263.838v23.29h23.293zM227.604 287.128h23.295l-23.295-23.29zM254.005 287.128h23.293l-23.293-23.29z"/><path fill="#83727A" d="M201.205 290.237h76.094v-3.109h-23.293v-23.29h23.293v-3.109h-23.293V237.44h23.293v-3.109h-23.293v-23.29h23.293v-3.108H174.806v3.108h23.293v23.29h-23.293v3.109h23.293v23.289h-23.293v3.109h23.293v23.29h-23.293v3.109h26.399zm49.694-3.109h-23.293v-23.29h23.293v23.29zm0-26.399h-23.293V237.44h23.293v23.289zm0-49.689v23.29h-23.293v-23.29h23.293zm-49.694 0h23.293v23.29h-23.293v-23.29zm0 26.399h23.293v23.289h-23.293v-23.289zm0 26.399h23.293v23.29h-23.293v-23.29z"/><path fill="#695A69" d="M334.756 276.262h34.166v1.552h-34.166zM334.756 270.05h34.166v1.552h-34.166zM334.756 273.152h34.166v1.552h-34.166zM334.756 285.576h34.166v1.552h-34.166zM334.756 288.686h34.166v1.552h-34.166zM334.756 282.474h34.166v1.551h-34.166zM334.756 279.364h34.166v1.552h-34.166z"/><path fill="#826E77" d="M334.756 271.602h34.166v1.551h-34.166zM334.756 274.704h34.166v1.558h-34.166zM334.756 277.813h34.166v1.551h-34.166zM334.756 280.916h34.166v1.558h-34.166zM334.756 284.024h34.166v1.552h-34.166zM334.756 290.237h34.166v1.551h-34.166zM334.756 293.34h34.166v1.558h-34.166zM334.756 287.128h34.166v1.558h-34.166z"/><path fill="#695A69" d="M227.604 290.237h-52.798V298h102.492v-7.763zM368.922 291.788h-34.166v-1.551h-7.762V298h7.762v-1.551h34.166V298h7.764v-7.763h-7.764v1.551zm0 3.109h-34.166v-1.558h34.166v1.558z"/><path fill="#A08A8A" d="M277.298 290.237h49.696V298h-49.696zM277.298 145.813h49.696v3.109h-49.696z"/><path fill="#695A69" d="M372.027 240.542h-45.033v17.084h52.797z"/><path fill="#DFD0C6" d="M246.239 150.473h-8.67l.119-2.821-.767 18.348h9.318zM246.239 187.744h-10.221l.125-2.984-.773 18.511h10.869zM246.239 128.735v-15.533h-7.116l.128-3.102.776-18.636-1.855 44.533.304-7.262z"/><path fill="#C8B2A8" d="M253.358 113.202h-7.119v15.533h7.766l-1.554-37.271.776 18.636zM246.239 150.473V166h9.318l.388 9.32-1.164-27.95.129 3.103zM246.239 187.744v15.527h10.872l-.775-18.624.128 3.097z"/><path fill="#DE582A" d="M246.239 110.1V91.464h-6.212l-.776 18.636zM246.239 147.37v-18.635h-7.763l-.304 7.262-.472 11.373zM246.239 184.636V166h-9.318l-.775 18.636z"/><path fill="#C8B2A8" d="M239.251 110.1l-.128 3.102h7.116V110.1zM246.239 150.473v-3.103H237.7l-.012.282-.119 2.821zM246.239 187.744v-3.108h-10.093l-.003.124-.125 2.984z"/><path fill="#A08A8A" d="M253.227 110.1h-6.988v3.102h7.119zM246.239 150.473h8.671l-.129-3.103h-8.542zM246.239 184.636v3.108h10.225l-.128-3.097-.003-.011z"/><path fill="#B2441D" d="M246.239 166v18.636h10.094l-.388-9.316-.388-9.32zM246.239 147.37h8.542l-.776-18.635h-7.766zM253.227 110.1l-.776-18.636h-6.212V110.1z"/><path fill="#DFD0C6" d="M207.417 187.744h-10.222l.128-3.108.776-18.636h9.318v-15.527h-8.671l.129-3.103.778-18.635h7.764v-15.533h-7.116l.128-3.102.776-18.636-4.658 111.807h10.87z"/><path fill="#C8B2A8" d="M214.536 113.202h-7.119v15.533h7.766l.775 18.635.129 3.103h-8.67V166h9.317l.776 18.636.131 3.108h-10.224v15.527h10.872l-4.661-111.807.776 18.636z"/><path fill="#DE582A" d="M207.417 110.1V91.464h-6.212l-.776 18.636zM207.417 128.735h-7.764l-.778 18.635h8.542zM207.417 166h-9.318l-.776 18.636h10.094z"/><path fill="#C8B2A8" d="M200.429 110.1l-.128 3.102h7.116V110.1zM198.875 147.37l-.129 3.103h8.671v-3.103zM197.323 184.636l-.128 3.108h10.222v-3.108z"/><path fill="#A08A8A" d="M214.404 110.1h-6.987v3.102h7.119zM215.958 147.37h-8.541v3.103h8.67zM217.51 184.636h-10.093v3.108h10.224z"/><path fill="#B2441D" d="M217.51 184.636L216.734 166h-9.317v18.636zM215.958 147.37l-.775-18.635h-7.766v18.635zM214.404 110.1l-.776-18.636h-6.211V110.1z"/><path fill="#826E77" d="M334.756 296.449h34.166V298h-34.166z"/></g><path fill="#324A5E" d="M0 298h640v62H0z"/><g fill="#90DFAA"><path d="M248.381 344.026l4.535-29.905 10.51 23.909 10.754-23.909 4.249 29.905h-3.131l-2.562-19.688-9.336 20.871-9.207-20.871-2.687 19.688h-3.125zM294.396 326.39h2.931v17.637h-2.931v-2.44c-1.591 1.972-3.553 2.953-5.879 2.953-2.541 0-4.608-.999-6.198-2.994-1.353-1.713-2.026-3.824-2.026-6.37 0-2.957.906-5.299 2.714-7.028 1.536-1.449 3.349-2.17 5.455-2.17 2.338 0 4.316.976 5.935 2.925v-2.513zm-5.497 2.319c-1.656 0-3.037.658-4.128 1.975-.993 1.18-1.485 2.658-1.485 4.409 0 2.109.596 3.798 1.779 5.06 1.05 1.096 2.315 1.654 3.811 1.654 1.84 0 3.31-.728 4.416-2.198.871-1.14 1.306-2.615 1.306-4.413 0-2.114-.592-3.734-1.788-4.868-1.095-1.048-2.396-1.594-3.911-1.619zM313.703 327.678v3.976c-.93-1.084-1.799-1.836-2.595-2.264-.795-.445-1.718-.658-2.779-.658-1.821 0-3.303.701-4.455 2.086-1.038 1.252-1.563 2.732-1.563 4.462 0 1.813.562 3.351 1.686 4.617 1.121 1.267 2.554 1.891 4.294 1.891 1.085 0 2.041-.235 2.865-.691.832-.472 1.714-1.267 2.649-2.4v4.003c-1.817 1.229-3.629 1.841-5.416 1.841-2.917 0-5.25-1.097-7.005-3.298-1.374-1.721-2.063-3.692-2.063-5.915 0-2.659.916-4.919 2.748-6.781 1.671-1.692 3.784-2.549 6.344-2.549 1.87-.002 3.634.553 5.29 1.68zM316.093 313.066h2.93v15.397c.731-.886 1.474-1.516 2.225-1.9.746-.378 1.633-.567 2.668-.567a6.28 6.28 0 0 1 2.842.655c.875.431 1.551 1.018 2.031 1.748.671 1.002 1.007 2.569 1.007 4.71v10.917h-2.932V333.31c0-1.4-.185-2.453-.565-3.129-.545-.967-1.533-1.45-2.964-1.45-1.767 0-2.978.701-3.632 2.086-.455.97-.68 2.44-.68 4.395v8.814h-2.93v-30.96zM334.177 317.604c.578 0 1.068.212 1.476.626.408.422.612.938.612 1.529 0 .604-.204 1.115-.612 1.544-.407.416-.904.63-1.493.63-.572 0-1.064-.217-1.472-.645a2.161 2.161 0 0 1-.616-1.553c0-.579.208-1.078.616-1.497a2.062 2.062 0 0 1 1.489-.634zm1.451 8.786v17.637h-2.933V326.39h2.933zM338.647 326.39h2.931v2.13c.734-.938 1.47-1.6 2.204-1.979.737-.375 1.635-.564 2.688-.564 1.027 0 1.983.221 2.859.655.877.428 1.552 1.024 2.019 1.768.638 1.002.961 2.569.961 4.682v10.945h-2.93v-10.43c0-1.641-.188-2.779-.561-3.415-.575-.981-1.579-1.473-3.01-1.473-1.487 0-2.558.516-3.225 1.546-.67 1.034-1.007 2.689-1.007 4.957v8.814h-2.931V326.39zM370.698 335.839h-13.299c.056 1.197.294 2.217.723 3.046.48.931 1.136 1.643 1.969 2.151a5.038 5.038 0 0 0 2.729.771c1.133 0 2.088-.268 2.867-.817.771-.549 1.568-1.515 2.391-2.894l2.467 1.438c-.684 1.229-1.388 2.17-2.114 2.836-1.574 1.445-3.479 2.17-5.712 2.17-2.729 0-4.895-1.013-6.502-3.064-1.271-1.625-1.903-3.684-1.903-6.148 0-2.863.807-5.158 2.428-6.884 1.523-1.627 3.466-2.446 5.836-2.446 2.446 0 4.412.856 5.899 2.549 1.483 1.704 2.223 3.952 2.223 6.759-.002.088-.002.271-.002.533zm-3.086-2.543c-.189-.981-.52-1.804-.986-2.479-1.002-1.385-2.34-2.086-4.014-2.086-1.248 0-2.331.425-3.278 1.285-.942.859-1.525 1.95-1.753 3.279h10.031zM388.777 318.674v25.353h-3.074v-25.353h-6.616v-2.928h16.354v2.928h-6.664zM402.213 325.996c2.691 0 4.925 1.015 6.702 3.026 1.54 1.736 2.304 3.822 2.304 6.231 0 2.827-.997 5.149-2.984 6.972-1.687 1.546-3.712 2.313-6.082 2.313a8.619 8.619 0 0 1-4.573-1.286 8.71 8.71 0 0 1-3.326-3.621c-.699-1.353-1.043-2.853-1.043-4.514 0-2.574.935-4.779 2.807-6.611 1.671-1.625 3.737-2.467 6.195-2.51zm-.019 2.735c-1.952 0-3.507.767-4.654 2.278-.897 1.186-1.34 2.574-1.34 4.165 0 2.027.596 3.66 1.786 4.887 1.134 1.164 2.514 1.745 4.144 1.745 1.995 0 3.587-.762 4.775-2.273.89-1.14 1.329-2.553 1.329-4.254 0-1.983-.604-3.586-1.808-4.807-1.105-1.135-2.52-1.717-4.232-1.741zM421.134 325.996c2.69 0 4.922 1.015 6.701 3.026 1.534 1.736 2.308 3.822 2.308 6.231 0 2.827-.997 5.149-2.989 6.972-1.689 1.546-3.711 2.313-6.081 2.313a8.617 8.617 0 0 1-4.571-1.286 8.767 8.767 0 0 1-3.331-3.621c-.696-1.353-1.041-2.853-1.041-4.514 0-2.574.933-4.779 2.807-6.611 1.67-1.625 3.738-2.467 6.197-2.51zm-.017 2.735c-1.955 0-3.508.767-4.657 2.278-.891 1.186-1.348 2.574-1.348 4.165 0 2.027.598 3.66 1.79 4.887 1.132 1.164 2.52 1.745 4.147 1.745 1.998 0 3.589-.762 4.782-2.273.879-1.14 1.321-2.553 1.321-4.254 0-1.983-.605-3.586-1.806-4.807-1.11-1.135-2.523-1.717-4.229-1.741zM435.099 313.066v30.96h-2.93v-30.96h2.93zM447.431 329.188l-2.429 1.303c-.602-1.171-1.391-1.76-2.365-1.76-.563 0-1.045.189-1.448.577a1.824 1.824 0 0 0-.601 1.392c0 .505.192.938.564 1.279.371.353 1.099.763 2.184 1.223 1.54.671 2.625 1.232 3.248 1.705 1.244.935 1.868 2.229 1.868 3.882 0 1.722-.605 3.135-1.822 4.244-1.11 1.012-2.447 1.506-4.013 1.506-1.407 0-2.613-.373-3.614-1.127-1.001-.758-1.782-1.867-2.344-3.37l2.562-1.113c.51 1.087 1.015 1.847 1.511 2.264.49.414 1.132.614 1.921.614.817 0 1.49-.255 2.02-.786.527-.524.797-1.191.797-1.996 0-.665-.192-1.211-.568-1.624-.371-.404-1.107-.848-2.206-1.335-1.562-.689-2.698-1.302-3.404-1.823-1.01-.757-1.513-1.863-1.513-3.313 0-1.528.538-2.745 1.608-3.667.975-.842 2.099-1.267 3.37-1.267 2.056 0 3.612 1.064 4.674 3.192z"/><g><path d="M209.643 345.209l.261-1.15c.702-.061 1.254-.265 1.654-.613.396-.343.68-.818.844-1.431.166-.61.25-1.418.25-2.42 0-.604-.028-1.271-.074-1.99l-.165-3.031h-10.324l-1.297 2.301c-.605 1.085-1.055 2.008-1.337 2.78-.28.778-.42 1.461-.42 2.057 0 1.313.787 2.097 2.371 2.348l-.258 1.15h-9.6l.258-1.15c.484-.061.942-.256 1.374-.576.43-.323.885-.81 1.37-1.459.487-.646 1.165-1.72 2.044-3.223l15.043-26.01h3.546l1.691 26.171c.081 1.238.217 2.2.421 2.902.206.694.482 1.214.834 1.546.354.339.863.555 1.536.648l-.261 1.15h-9.761zm-6.501-12.676h9.179l-.396-7.557c-.05-1.037-.091-2.323-.12-3.874-.036-1.547-.05-2.666-.05-3.354h-.257l-8.356 14.785z"/><path d="M240.796 317.165l-1.417 6.312h-1.972c-.043-.991-.118-1.757-.226-2.314-.111-.556-.233-.968-.373-1.233-.136-.265-.294-.465-.471-.59a1.613 1.613 0 0 0-.667-.28c-.267-.056-.646-.081-1.14-.081h-6.696l-2.345 10.761h3.927c.597 0 1.102-.081 1.509-.24.4-.169.778-.451 1.119-.857.34-.405.723-1.027 1.149-1.858h1.869l-1.848 7.887h-1.747c0-.756-.028-1.306-.083-1.666-.055-.352-.126-.619-.218-.786a1.009 1.009 0 0 0-.336-.401c-.137-.097-.314-.159-.536-.208-.216-.045-.58-.063-1.087-.063H225.1l-2.631 11.854h6.081c.603 0 1.113-.048 1.53-.135.419-.084.798-.24 1.141-.457s.67-.508.983-.856c.32-.349.644-.794.976-1.347.342-.549.795-1.38 1.369-2.509h1.992l-1.806 7.113H216.51l.228-1.013c.521-.076.913-.213 1.175-.394a2.23 2.23 0 0 0 .656-.772c.175-.329.34-.73.488-1.202.153-.474.378-1.383.68-2.741l3.493-15.82c.3-1.368.451-2.471.451-3.304 0-.647-.163-1.097-.493-1.347-.33-.251-.837-.402-1.52-.443l.228-1.008h18.9z"/></g></g></g></svg>