<svg xmlns="http://www.w3.org/2000/svg" width="360" height="360" viewBox="0 0 360 360"><path fill="#B5DAE2" d="M-1-1h362v138H-1z"/><path fill="#324A5E" d="M-1 298.334h362v64H-1z"/><path fill="#DBE8B1" d="M-1 132h362v164H-1z"/><path fill="#C8B2A8" d="M-1 167.04h362v133.294H-1z"/><path fill="#B5DAE2" d="M-1 1.334h360v136H-1z"/><g fill="#C8E2E8"><path d="M23.273 53.419h-5.395v-7.463h-7.89l-.135-8.698-.117-8.148-.426-.343-.254 8.483-.27 8.706H1.693v7.463H-1v83.915h24.273zM47.992 60.942v-6.82H40.1l-.044-2.567-1.113 1.38-.039 1.188h-.896c-.604.776-1.178 1.564-1.763 2.355-.356-.48-.698-.965-1.062-1.439H33.58v5.904h-5.264v76.392h25.076V60.942h-5.4zM350.003 53.419v-7.463h-7.89l-.134-8.698-.118-8.148-.427-.343-.254 8.483-.268 8.706h-7.094v7.463h-5.395v83.915h26.974V53.419zM56.479 51.94h-.004v85.394h21.046V64.356zM141.497 59.239c-1.948-2.299-5.345-3.821-9.212-3.847l-.025-.688-.597-18.002-.194 18.002-.009.709c-3.737.182-6.95 1.75-8.759 4.022l-2.177.024 1.458 77.874h23.152l-1.466-78.119-2.171.025zM168.76 30.927h-8.128l-.191-10.662-.221-13.538-.305-.001-.465 13.534-.38 10.667h-8.287v4.228h-4.16v102.18h26.307V35.154h-4.17v-4.227zM176.434 48.779h43.671v88.555h-43.671zM93.252 72.942l.014-2.407-10.599-.029-.012 2.409-2.9-.011-.325 64.43h37.75l.323-64.321zM256.112 53.419c.021-.188.038-.377.038-.572 0-3.661-3.896-6.631-8.742-6.713l-.14-8.876-.258-18.007-.537 17.999-.274 8.919c-4.465.375-7.942 3.223-7.942 6.678 0 .195.018.384.041.572h-4.585v83.915h26.979V53.419h-4.58z"/></g><g fill="#A4D3DD"><path d="M290.374 40.333h25.898v97.001h-25.898zM86.237 107.616v-17.31H51.916v47.028h66.292v-29.718zM230.328 90.306v17.31h-31.971v29.718h66.293V90.306zM171.313 86.611v-6.25h-7.643v6.25h-3.018v50.723h35.777V86.611zM128.026 86.611l-.125-11.481-.147-15.09-.311 15.085-.244 11.486h-3.904v50.723h35.776V86.611zM36.126 50.789v23.944h-4.677v62.601h16.584V50.789zM281.852 76.867v-6.011h-13.061V137.334h19.22V76.867zM340.428 86.611v-6.25h-2.445l-.297-28.652-.311 15.078-.289 13.574h-2.949v6.25h-2.489v50.723h23.749V86.611zM8.302 86.611v-6.25H5.86l-.3-28.652-.599 28.652H2.013v6.25H-.475v50.723h29.461V86.611z"/></g><path fill="#99C8D1" d="M356.772 109.018v25.898h-5.012v-25.461h-32.533v25.461h-7.176v-16.308h-42.439v-14.036h-21.049v30.344h-2.034v-19.3h-32.528v19.3h-2.188v-13.784h-19.898v6.421H180.68v7.363h-2.447v-30.344h-7.89v-3.504h-19.29v3.504h-7.895v30.344h-1.929v-30.344h-21.046v30.344h-1.981v-18.445h-8.953v-4.884H83.763v4.884h-8.949v18.445h-2.686v-16.308H44.241l-.481 16.308h-2.622v-25.898h-16.49v25.898h-5.012v-25.461H.297v27.879H359v-28.316z"/><path fill="#DBE8B1" d="M-1 137.334h360v162H-1z"/><path fill="#324A5E" d="M-1 299.334h360v62H-1z"/><g fill="#90DFAA"><path d="M107.381 345.36l4.535-29.905 10.51 23.909 10.754-23.909 4.249 29.905h-3.131l-2.562-19.688-9.336 20.871-9.207-20.871-2.687 19.688h-3.125zM153.396 327.724h2.931v17.637h-2.931v-2.44c-1.591 1.972-3.553 2.953-5.879 2.953-2.541 0-4.608-.999-6.198-2.994-1.353-1.713-2.026-3.824-2.026-6.37 0-2.957.906-5.299 2.714-7.028 1.536-1.449 3.349-2.17 5.455-2.17 2.338 0 4.316.976 5.935 2.925v-2.513zm-5.497 2.319c-1.656 0-3.037.658-4.128 1.975-.993 1.18-1.485 2.658-1.485 4.409 0 2.109.596 3.798 1.779 5.06 1.05 1.096 2.315 1.654 3.811 1.654 1.84 0 3.31-.728 4.416-2.198.871-1.14 1.306-2.615 1.306-4.413 0-2.114-.592-3.734-1.788-4.868-1.095-1.048-2.396-1.594-3.911-1.619zM172.703 329.012v3.976c-.93-1.084-1.799-1.836-2.595-2.264-.795-.445-1.718-.658-2.779-.658-1.821 0-3.303.701-4.455 2.086-1.038 1.252-1.563 2.732-1.563 4.462 0 1.813.562 3.351 1.686 4.617 1.121 1.267 2.554 1.891 4.294 1.891 1.085 0 2.041-.235 2.865-.691.832-.472 1.714-1.267 2.649-2.4v4.003c-1.817 1.229-3.629 1.841-5.416 1.841-2.917 0-5.25-1.097-7.005-3.298-1.374-1.721-2.063-3.692-2.063-5.915 0-2.659.916-4.919 2.748-6.781 1.671-1.692 3.784-2.549 6.344-2.549 1.87-.002 3.634.553 5.29 1.68zM175.093 314.4h2.93v15.397c.731-.886 1.474-1.516 2.225-1.9.746-.378 1.633-.567 2.668-.567a6.28 6.28 0 0 1 2.842.655c.875.431 1.551 1.018 2.031 1.748.671 1.002 1.007 2.569 1.007 4.71v10.917h-2.932v-10.716c0-1.4-.185-2.453-.565-3.129-.545-.967-1.533-1.45-2.964-1.45-1.767 0-2.978.701-3.632 2.086-.455.97-.68 2.44-.68 4.395v8.814h-2.93V314.4zM193.177 318.938c.578 0 1.068.212 1.476.626.408.422.612.938.612 1.529 0 .604-.204 1.115-.612 1.544-.407.416-.904.63-1.493.63-.572 0-1.064-.217-1.472-.645a2.161 2.161 0 0 1-.616-1.553c0-.579.208-1.078.616-1.497a2.062 2.062 0 0 1 1.489-.634zm1.451 8.786v17.637h-2.933v-17.637h2.933zM197.647 327.724h2.931v2.13c.734-.938 1.47-1.6 2.204-1.979.737-.375 1.635-.564 2.688-.564 1.027 0 1.983.221 2.859.655.877.428 1.552 1.024 2.019 1.768.638 1.002.961 2.569.961 4.682v10.945h-2.93v-10.43c0-1.641-.188-2.779-.561-3.415-.575-.981-1.579-1.473-3.01-1.473-1.487 0-2.558.516-3.225 1.546-.67 1.034-1.007 2.689-1.007 4.957v8.814h-2.931v-17.636zM229.698 337.173h-13.299c.056 1.197.294 2.217.723 3.046.48.931 1.136 1.643 1.969 2.151a5.038 5.038 0 0 0 2.729.771c1.133 0 2.088-.268 2.867-.817.771-.549 1.568-1.515 2.391-2.894l2.467 1.438c-.684 1.229-1.388 2.17-2.114 2.836-1.574 1.445-3.479 2.17-5.712 2.17-2.729 0-4.895-1.013-6.502-3.064-1.271-1.625-1.903-3.684-1.903-6.148 0-2.863.807-5.158 2.428-6.884 1.523-1.627 3.466-2.446 5.836-2.446 2.446 0 4.412.856 5.899 2.549 1.483 1.704 2.223 3.952 2.223 6.759-.002.088-.002.271-.002.533zm-3.086-2.543c-.189-.981-.52-1.804-.986-2.479-1.002-1.385-2.34-2.086-4.014-2.086-1.248 0-2.331.425-3.278 1.285-.942.859-1.525 1.95-1.753 3.279h10.031zM247.777 320.008v25.353h-3.074v-25.353h-6.616v-2.928h16.354v2.928h-6.664zM261.213 327.33c2.691 0 4.925 1.015 6.702 3.026 1.54 1.736 2.304 3.822 2.304 6.231 0 2.827-.997 5.149-2.984 6.972-1.687 1.546-3.712 2.313-6.082 2.313a8.619 8.619 0 0 1-4.573-1.286 8.71 8.71 0 0 1-3.326-3.621c-.699-1.353-1.043-2.853-1.043-4.514 0-2.574.935-4.779 2.807-6.611 1.671-1.625 3.737-2.467 6.195-2.51zm-.019 2.735c-1.952 0-3.507.767-4.654 2.278-.897 1.186-1.34 2.574-1.34 4.165 0 2.027.596 3.66 1.786 4.887 1.134 1.164 2.514 1.745 4.144 1.745 1.995 0 3.587-.762 4.775-2.273.89-1.14 1.329-2.553 1.329-4.254 0-1.983-.604-3.586-1.808-4.807-1.105-1.135-2.52-1.717-4.232-1.741zM280.134 327.33c2.69 0 4.922 1.015 6.701 3.026 1.534 1.736 2.308 3.822 2.308 6.231 0 2.827-.997 5.149-2.989 6.972-1.689 1.546-3.711 2.313-6.081 2.313a8.617 8.617 0 0 1-4.571-1.286 8.767 8.767 0 0 1-3.331-3.621c-.696-1.353-1.041-2.853-1.041-4.514 0-2.574.933-4.779 2.807-6.611 1.67-1.625 3.738-2.467 6.197-2.51zm-.017 2.735c-1.955 0-3.508.767-4.657 2.278-.891 1.186-1.348 2.574-1.348 4.165 0 2.027.598 3.66 1.79 4.887 1.132 1.164 2.52 1.745 4.147 1.745 1.998 0 3.589-.762 4.782-2.273.879-1.14 1.321-2.553 1.321-4.254 0-1.983-.605-3.586-1.806-4.807-1.11-1.135-2.523-1.717-4.229-1.741zM294.099 314.4v30.96h-2.93V314.4h2.93zM306.431 330.522l-2.429 1.303c-.602-1.171-1.391-1.76-2.365-1.76-.563 0-1.045.189-1.448.577a1.824 1.824 0 0 0-.601 1.392c0 .505.192.938.564 1.279.371.353 1.099.763 2.184 1.223 1.54.671 2.625 1.232 3.248 1.705 1.244.935 1.868 2.229 1.868 3.882 0 1.722-.605 3.135-1.822 4.244-1.11 1.012-2.447 1.506-4.013 1.506-1.407 0-2.613-.373-3.614-1.127-1.001-.758-1.782-1.867-2.344-3.37l2.562-1.113c.51 1.087 1.015 1.847 1.511 2.264.49.414 1.132.614 1.921.614.817 0 1.49-.255 2.02-.786.527-.524.797-1.191.797-1.996 0-.665-.192-1.211-.568-1.624-.371-.404-1.107-.848-2.206-1.335-1.562-.689-2.698-1.302-3.404-1.823-1.01-.757-1.513-1.863-1.513-3.313 0-1.528.538-2.745 1.608-3.667.975-.842 2.099-1.267 3.37-1.267 2.056 0 3.612 1.064 4.674 3.192z"/><g><path d="M68.643 346.543l.261-1.15c.702-.061 1.254-.265 1.654-.613.396-.343.68-.818.844-1.431.166-.61.25-1.418.25-2.42 0-.604-.028-1.271-.074-1.99l-.165-3.031H61.088l-1.297 2.301c-.605 1.085-1.055 2.008-1.337 2.78-.28.778-.42 1.461-.42 2.057 0 1.313.787 2.097 2.371 2.348l-.258 1.15h-9.6l.258-1.15c.484-.061.942-.256 1.374-.576.43-.323.885-.81 1.37-1.459.487-.646 1.165-1.72 2.044-3.223l15.043-26.01h3.546l1.691 26.171c.081 1.238.217 2.2.421 2.902.206.694.482 1.214.834 1.546.354.339.863.555 1.536.648l-.261 1.15h-9.76zm-6.501-12.676h9.179l-.396-7.557c-.05-1.037-.091-2.323-.12-3.874-.036-1.547-.05-2.666-.05-3.354h-.257l-8.356 14.785z"/><path d="M99.796 318.499l-1.417 6.312h-1.972c-.043-.991-.118-1.757-.226-2.314-.111-.556-.233-.968-.373-1.233-.136-.265-.294-.465-.471-.59a1.613 1.613 0 0 0-.667-.28c-.267-.056-.646-.081-1.14-.081h-6.696l-2.345 10.761h3.927c.597 0 1.102-.081 1.509-.24.4-.169.778-.451 1.119-.857.34-.405.723-1.027 1.149-1.858h1.869l-1.848 7.887h-1.747c0-.756-.028-1.306-.083-1.666-.055-.352-.126-.619-.218-.786a1.009 1.009 0 0 0-.336-.401c-.137-.097-.314-.159-.536-.208-.216-.045-.58-.063-1.087-.063H84.1l-2.631 11.854h6.081c.603 0 1.113-.048 1.53-.135.419-.084.798-.24 1.141-.457s.67-.508.983-.856c.32-.349.644-.794.976-1.347.342-.549.795-1.38 1.369-2.509h1.992l-1.806 7.113H75.513l.228-1.013c.521-.076.913-.213 1.175-.394a2.23 2.23 0 0 0 .656-.772c.175-.329.34-.73.488-1.202.153-.474.378-1.383.68-2.741l3.493-15.82c.3-1.368.451-2.471.451-3.304 0-.647-.163-1.097-.493-1.347-.33-.251-.837-.402-1.52-.443l.228-1.008h18.897z"/></g></g><path fill="#83727A" d="M151.121 292.571h7.757v-20.187h34.151V292.571h7.761V259.96h-49.669z"/><path fill="#A08A8A" d="M75.06 263.063v-23.29H51.774zM78.164 239.773l23.283 23.29v-23.29zM75.06 289.462v-23.29H51.774zM22.283 266.172H-1l23.283 23.29zM78.164 266.172l23.283 23.29v-23.29zM75.06 213.374H51.774l23.286 23.29zM48.669 239.773H25.387l23.282 23.29zM48.669 213.374H25.387l23.282 23.29zM22.283 213.374H-1l23.283 23.29zM78.164 213.374l23.283 23.29v-23.29zM48.669 266.172H25.387l23.282 23.29zM22.283 239.773H-1l23.283 23.29z"/><path fill="#C8B2A8" d="M101.447 213.374v79.196h49.674V151.256h-49.674V213.374zm35.7-45.04v-4.654h4.659v17.078h-4.659v-12.424zm0 26.404v-4.66h4.659V207.156h-4.659v-12.418zm0 26.4v-4.661h4.659v17.085h-4.659v-12.424zm0 26.398v-4.66h4.659v17.084h-4.659v-12.424zm0 26.4v-4.66h4.659v17.083h-4.659v-12.423zm-6.209-105.602v-4.654h4.659v17.078h-4.659v-12.424zm0 26.404v-4.66h4.659V207.156h-4.659v-12.418zm0 26.4v-4.661h4.659v17.085h-4.659v-12.424zm0 26.398v-4.66h4.659v17.084h-4.659v-12.424zm0 26.4v-4.66h4.659v17.083h-4.659v-12.423zM116.97 168.334v-4.654h4.655v17.078h-4.655v-12.424zm0 26.404v-4.66h4.655V207.156h-4.655v-12.418zm0 26.4v-4.661h4.655v17.085h-4.655v-12.424zm0 26.398v-4.66h4.655v17.084h-4.655v-12.424zm0 26.4v-4.66h4.655v17.083h-4.655v-12.423zm-6.209-105.602v-4.654h4.655v17.078h-4.655v-12.424zm0 26.404v-4.66h4.655V207.156h-4.655v-12.418zm0 26.4v-4.661h4.655v17.085h-4.655v-12.424zm0 26.398v-4.66h4.655v17.084h-4.655v-12.424zm0 26.4v-4.66h4.655v17.083h-4.655v-12.423z"/><path fill="#83727A" d="M115.416 273.936h-4.655l4.655 4.66z"/><path fill="#A08A8A" d="M115.416 278.596l-4.655-4.66v12.422h4.655z"/><path fill="#695A69" d="M110.761 269.275h4.655v4.66h-4.655z"/><path fill="#83727A" d="M121.625 273.936h-4.655l4.655 4.66z"/><path fill="#A08A8A" d="M121.625 278.596l-4.655-4.66v12.422h4.655z"/><path fill="#695A69" d="M116.97 269.275h4.655v4.66h-4.655z"/><path fill="#83727A" d="M135.597 273.936h-4.659l4.659 4.66z"/><path fill="#A08A8A" d="M135.597 278.596l-4.659-4.66v12.422h4.659z"/><path fill="#695A69" d="M130.938 269.275h4.659v4.66h-4.659z"/><path fill="#83727A" d="M141.806 273.936h-4.659l4.659 4.66z"/><path fill="#A08A8A" d="M141.806 278.596l-4.659-4.66v12.422h4.659z"/><path fill="#695A69" d="M137.147 269.275h4.659v4.66h-4.659z"/><path fill="#83727A" d="M115.416 247.536h-4.655l4.655 4.661z"/><path fill="#A08A8A" d="M115.416 252.197l-4.655-4.661v12.424h4.655z"/><path fill="#695A69" d="M110.761 242.876h4.655v4.66h-4.655z"/><path fill="#83727A" d="M121.625 247.536h-4.655l4.655 4.661z"/><path fill="#A08A8A" d="M121.625 252.197l-4.655-4.661v12.424h4.655z"/><path fill="#695A69" d="M116.97 242.876h4.655v4.66h-4.655z"/><path fill="#83727A" d="M135.597 247.536h-4.659l4.659 4.661z"/><path fill="#A08A8A" d="M135.597 252.197l-4.659-4.661v12.424h4.659z"/><path fill="#695A69" d="M130.938 242.876h4.659v4.66h-4.659z"/><path fill="#83727A" d="M141.806 247.536h-4.659l4.659 4.661z"/><path fill="#A08A8A" d="M141.806 252.197l-4.659-4.661v12.424h4.659z"/><path fill="#695A69" d="M137.147 242.876h4.659v4.66h-4.659z"/><path fill="#83727A" d="M115.416 221.138h-4.655l4.655 4.654z"/><path fill="#A08A8A" d="M115.416 225.792l-4.655-4.654v12.424h4.655z"/><path fill="#695A69" d="M110.761 216.477h4.655v4.661h-4.655z"/><path fill="#83727A" d="M121.625 221.138h-4.655l4.655 4.654z"/><path fill="#A08A8A" d="M121.625 225.792l-4.655-4.654v12.424h4.655z"/><path fill="#695A69" d="M116.97 216.477h4.655v4.661h-4.655z"/><path fill="#83727A" d="M135.597 221.138h-4.659l4.659 4.654z"/><path fill="#A08A8A" d="M135.597 225.792l-4.659-4.654v12.424h4.659z"/><path fill="#695A69" d="M130.938 216.477h4.659v4.661h-4.659z"/><path fill="#83727A" d="M141.806 221.138h-4.659l4.659 4.654z"/><path fill="#A08A8A" d="M141.806 225.792l-4.659-4.654v12.424h4.659z"/><path fill="#695A69" d="M137.147 216.477h4.659v4.661h-4.659z"/><path fill="#83727A" d="M115.416 194.738h-4.655l4.655 4.656z"/><path fill="#A08A8A" d="M115.416 199.394l-4.655-4.656v12.424h4.655z"/><path fill="#695A69" d="M110.761 190.078h4.655v4.66h-4.655z"/><path fill="#83727A" d="M121.625 194.738h-4.655l4.655 4.656z"/><path fill="#A08A8A" d="M121.625 199.394l-4.655-4.656v12.424h4.655z"/><path fill="#695A69" d="M116.97 190.078h4.655v4.66h-4.655z"/><path fill="#83727A" d="M135.597 194.738h-4.659l4.659 4.656z"/><path fill="#A08A8A" d="M135.597 199.394l-4.659-4.656v12.424h4.659z"/><path fill="#695A69" d="M130.938 190.078h4.659v4.66h-4.659z"/><path fill="#83727A" d="M141.806 194.738h-4.659l4.659 4.656z"/><path fill="#A08A8A" d="M141.806 199.394l-4.659-4.656v12.424h4.659z"/><path fill="#695A69" d="M137.147 190.078h4.659v4.66h-4.659z"/><path fill="#83727A" d="M115.416 168.334h-4.655l4.655 4.66z"/><path fill="#A08A8A" d="M115.416 172.994l-4.655-4.66v12.424h4.655z"/><path fill="#695A69" d="M110.761 163.68h4.655v4.654h-4.655z"/><path fill="#83727A" d="M121.625 168.334h-4.655l4.655 4.66z"/><path fill="#A08A8A" d="M121.625 172.994l-4.655-4.66v12.424h4.655z"/><path fill="#695A69" d="M116.97 163.68h4.655v4.654h-4.655z"/><path fill="#83727A" d="M135.597 168.334h-4.659l4.659 4.66z"/><path fill="#A08A8A" d="M135.597 172.994l-4.659-4.66v12.424h4.659z"/><path fill="#695A69" d="M130.938 163.68h4.659v4.654h-4.659z"/><path fill="#83727A" d="M141.806 168.334h-4.659l4.659 4.66z"/><path fill="#A08A8A" d="M141.806 172.994l-4.659-4.66v12.424h4.659z"/><path fill="#695A69" d="M137.147 163.68h4.659v4.654h-4.659zM25.387 210.266h76.06v-4.662H-1v4.662h23.283z"/><path fill="#C8B2A8" d="M-1 213.374v23.29h23.283zM25.387 213.374v23.29h23.282zM75.06 236.664l-23.286-23.29v23.29zM78.164 236.664h23.283l-23.283-23.29zM-1 239.773v23.29h23.283zM25.387 239.773v23.29h23.282zM51.774 263.063H75.06l-23.286-23.29zM78.164 263.063h23.283l-23.283-23.29zM-1 266.172v23.29h23.283zM25.387 266.172v23.29h23.282zM51.774 289.462H75.06l-23.286-23.29zM78.164 289.462h23.283l-23.283-23.29z"/><path fill="#83727A" d="M25.387 292.571h76.059v-3.109H78.164v-23.29h23.283v-3.109H78.164v-23.289h23.283v-3.109H78.164v-23.29h23.283v-3.108H-1v3.108h23.283v23.29H-1v3.109h23.283v23.289H-1v3.109h23.283v23.29H-1v3.109h26.387zm49.673-3.109H51.777v-23.29H75.06v23.29zm0-26.399H51.777v-23.289H75.06v23.289zm0-49.689v23.29H51.777v-23.29H75.06zm-49.673 0h23.282v23.29H25.387v-23.29zm0 26.399h23.282v23.289H25.387v-23.289zm0 26.399h23.282v23.29H25.387v-23.29z"/><path fill="#695A69" d="M158.878 278.596h34.151v1.552h-34.151zM158.878 272.384h34.151v1.552h-34.151zM158.878 275.486h34.151v1.552h-34.151zM158.878 287.91h34.151v1.552h-34.151zM158.878 291.02h34.151v1.552h-34.151zM158.878 284.808h34.151v1.551h-34.151zM158.878 281.698h34.151v1.552h-34.151z"/><path fill="#826E77" d="M158.878 273.936h34.151v1.551h-34.151zM158.878 277.038h34.151v1.558h-34.151zM158.878 280.147h34.151v1.551h-34.151zM158.878 283.25h34.151v1.558h-34.151zM158.878 286.358h34.151v1.552h-34.151zM158.878 292.571h34.151v1.551h-34.151zM158.878 295.674h34.151v1.558h-34.151zM158.878 289.462h34.151v1.558h-34.151z"/><path fill="#695A69" d="M51.774 292.571H-1v7.763h102.447v-7.763zM193.029 294.122h-34.151v-1.551h-7.758v7.763h7.758v-1.551h34.151v1.551h7.76v-7.763h-7.76v1.551zm0 3.109h-34.151v-1.558h34.151v1.558z"/><path fill="#A08A8A" d="M101.447 292.571h49.674v7.763h-49.674zM101.447 148.146h49.674v3.109h-49.674z"/><path fill="#695A69" d="M196.133 242.876h-45.012v17.084H203.894z"/><path fill="#DFD0C6" d="M70.402 152.807h-8.667l.119-2.821-.766 18.348h9.314zM70.402 190.078H60.185l.125-2.984-.772 18.51h10.864zM70.402 131.069v-15.533h-7.113l.128-3.102.775-18.636-1.854 44.533.304-7.262z"/><path fill="#C8B2A8" d="M77.517 115.536h-7.115v15.533h7.762L76.61 93.798l.776 18.636zM70.402 152.807v15.527h9.313l.388 9.32-1.163-27.95.128 3.103zM70.402 190.078v15.526h10.867l-.775-18.623.128 3.097z"/><path fill="#DE582A" d="M70.402 112.434V93.798h-6.21l-.775 18.636zM70.402 149.704v-18.635h-7.76l-.304 7.262-.472 11.373zM70.402 186.97v-18.636h-9.314l-.775 18.636z"/><path fill="#C8B2A8" d="M63.417 112.434l-.128 3.102h7.113v-3.102zM70.402 152.807v-3.103h-8.536l-.012.282-.119 2.821zM70.402 190.078v-3.108H60.313l-.003.124-.125 2.984z"/><path fill="#A08A8A" d="M77.386 112.434h-6.984v3.102h7.115zM70.402 152.807h8.666l-.128-3.103h-8.538zM70.402 186.97v3.108h10.22l-.128-3.097-.004-.011z"/><path fill="#B2441D" d="M70.402 168.334v18.636H80.49l-.387-9.316-.388-9.32zM70.402 149.704h8.538l-.776-18.635h-7.762zM77.386 112.434l-.776-18.636h-6.208v18.636z"/><path fill="#DFD0C6" d="M31.596 190.078H21.379l.128-3.108.776-18.636h9.313v-15.527H22.93l.128-3.103.778-18.635h7.76v-15.533h-7.112l.128-3.102.775-18.636-4.655 111.806h10.864z"/><path fill="#C8B2A8" d="M38.712 115.536h-7.116v15.533h7.763l.775 18.635.129 3.103h-8.667v15.527h9.314l.775 18.636.131 3.108h-10.22v15.526h10.867L37.805 93.798l.776 18.636z"/><path fill="#DE582A" d="M31.596 112.434V93.798h-6.209l-.775 18.636zM31.596 131.069h-7.76l-.778 18.635h8.538zM31.596 168.334h-9.313l-.776 18.636h10.089z"/><path fill="#C8B2A8" d="M24.612 112.434l-.128 3.102h7.112v-3.102zM23.058 149.704l-.128 3.103h8.666v-3.103zM21.507 186.97l-.128 3.108h10.217v-3.108z"/><path fill="#A08A8A" d="M38.581 112.434h-6.985v3.102h7.116zM40.134 149.704h-8.538v3.103h8.667zM41.685 186.97H31.596v3.108h10.22z"/><path fill="#B2441D" d="M41.685 186.97l-.775-18.636h-9.314v18.636zM40.134 149.704l-.775-18.635h-7.763v18.635zM38.581 112.434l-.776-18.636h-6.209v18.636z"/><path fill="#826E77" d="M158.878 298.783h34.151v1.551h-34.151z"/><path fill="none" d="M198 134.334h162v166H198z"/><g><path fill="none" d="M199 292.385V167.04h22.015c-.004-.024-.015-.047-.015-.073v-25.836c0-.275.223-.498.497-.498h.497c.274 0 .496.223.496.498v.832a.363.363 0 0 1 .361-.336h23.029c.227 0 .411.164.411.365v13.17c0 .15-.104.281-.251.336a.421.421 0 0 1-.16.029h-22.983c-.218 0-.391-.15-.406-.34v11.775c0 .026-.011.049-.015.073h28.401c-.004-.024-.015-.047-.015-.073V141.126c0-.275.223-.498.497-.498h.498c.273 0 .495.223.495.498v.447a.338.338 0 0 1 .27-.017c7.657 2.433 15.312-2.709 22.968-.275.227.071.41.321.41.548v9.979c-7.882-2.789-15.765 2.731-23.647.041v.001c7.882 2.689 15.765-2.83 23.647-.041v4.785c0 .227-.184.344-.41.271-7.656-2.434-15.311 2.709-22.968.276a.594.594 0 0 1-.27-.195v10.015c0 .026-.011.049-.015.073H360v-28.706H0v162h199v-7.943z"/><path fill="#95A5A6" d="M252.353 166.967v-10.015a.575.575 0 0 1-.142-.353v-4.785c.047.017.094.025.142.041v-.001c-.047-.016-.094-.024-.142-.041v-5.195-4.784a.29.29 0 0 1 .085-.208h-1.434v25.341c0 .026.011.049.015.073h1.461c.004-.024.015-.047.015-.073z"/><path fill="#7F8C8D" d="M252.353 141.578v-.447a.497.497 0 0 0-.495-.498h-.498a.498.498 0 0 0-.497.498v.495h1.434a.219.219 0 0 1 .056-.048z"/><path fill="#464655" d="M252.296 141.626a.295.295 0 0 0-.085.208v4.784c7.93 2.806 15.859-2.806 23.789 0v-4.784a.62.62 0 0 0-.41-.548c-7.656-2.434-15.311 2.708-22.968.275a.339.339 0 0 0-.27.017.259.259 0 0 0-.056.048z"/><path fill="#FFE15A" d="M252.211 156.6c0 .123.056.249.142.353a.583.583 0 0 0 .27.195c7.657 2.433 15.312-2.71 22.968-.276.227.072.41-.045.41-.271v-4.785c-7.882-2.789-15.765 2.73-23.647.041-.047-.016-.094-.024-.142-.041l-.001 4.784z"/><path fill="#FF4B55" d="M252.211 146.618v5.195c.047.017.094.025.142.041 7.882 2.69 15.765-2.83 23.647-.041v-5.195c-7.93-2.805-15.859 2.806-23.789 0z"/><path fill="#F5F5F5" d="M222.896 149.113h-.045a.362.362 0 0 1-.361-.336v1.406h23.801v-1.07h-23.395zM232.364 144.836h13.927v1.069h-13.927zM222.49 153.393h23.801v1.068H222.49zM232.364 142.696h13.927v1.069h-13.927zM222.49 151.252h23.801v1.07H222.49zM232.364 146.975h13.927v1.07h-13.927z"/><path fill="#FF4B55" d="M232.364 141.992v.704h13.927v-.704c0-.201-.185-.365-.411-.365h-13.882c.201 0 .365.164.366.365zM232.364 145.905h13.927v1.069h-13.927zM232.364 143.766h13.927v1.07h-13.927zM232.364 148.748a.366.366 0 0 1-.366.365h14.293v-1.068h-13.927v.703zM222.49 152.322h23.801v1.07H222.49zM222.49 155.191c.016.189.188.34.406.34h22.983c.057 0 .111-.01.16-.029a.368.368 0 0 0 .251-.336v-.705h-23.8v.73zM222.49 150.184h23.801v1.068H222.49z"/><path fill="#41479B" d="M222.49 148.777a.363.363 0 0 0 .361.336h9.147a.366.366 0 0 0 .366-.365v-6.754a.367.367 0 0 0-.366-.365h-9.147a.362.362 0 0 0-.361.336v6.812zm1.586-5.381c-.027-.02-.013-.063.02-.063l.256-.002.081-.242c.011-.031.055-.031.065 0l.081.242.257.002c.032 0 .047.043.019.063l-.205.152.077.244c.011.031-.025.059-.053.039l-.209-.149-.207.149c-.028.02-.063-.008-.053-.039l.076-.244-.205-.152zm1.972 0c-.026-.02-.014-.063.021-.063l.256-.002.081-.242c.011-.031.056-.031.065 0l.081.242.256.002c.033 0 .047.043.021.063l-.206.152.077.244c.01.031-.026.059-.053.039l-.208-.149-.209.149c-.026.02-.063-.008-.053-.039l.078-.244-.207-.152zm1.972 0c-.025-.02-.012-.063.021-.063l.256-.002.081-.242c.011-.031.055-.031.065 0l.081.242.257.002c.032 0 .045.043.019.063l-.205.152.077.244a.035.035 0 0 1-.054.039l-.207-.149-.208.149c-.027.02-.064-.008-.055-.039l.077-.244-.205-.152zm1.973 0c-.027-.02-.014-.063.02-.063l.257-.002.081-.242a.034.034 0 0 1 .065 0l.08.242.256.002c.033 0 .048.043.021.063l-.206.152.078.244c.01.031-.026.059-.054.039l-.208-.149-.208.149c-.028.02-.063-.008-.053-.039l.077-.244-.206-.152zm-.482.584l.255.002c.034 0 .048.043.021.063l-.207.151.078.244c.01.032-.027.058-.054.038l-.208-.148-.208.148a.034.034 0 0 1-.053-.038l.077-.244-.206-.151a.035.035 0 0 1 .021-.063l.256-.002.08-.243c.011-.031.056-.031.066 0l.082.243zm.985 3.165l.256.002c.033 0 .048.043.021.063l-.206.152.078.243c.01.032-.026.058-.054.038l-.208-.148-.208.148a.034.034 0 0 1-.053-.038l.077-.243-.206-.152c-.027-.021-.014-.063.02-.063l.257-.002.081-.243a.034.034 0 0 1 .065 0l.08.243zm-.709-.559l-.207.152.078.243c.01.032-.027.058-.054.038l-.208-.148-.208.148a.034.034 0 0 1-.053-.038l.077-.243-.206-.152a.035.035 0 0 1 .021-.063l.256-.002.08-.243c.011-.031.056-.031.066 0l.081.243.255.002c.035 0 .048.042.022.063zm-1.263.559l.257.002c.032 0 .045.043.019.063l-.205.152.077.243c.01.032-.025.058-.054.038l-.207-.148-.208.148c-.027.02-.064-.006-.055-.038l.077-.243-.206-.152c-.025-.021-.012-.063.021-.063l.256-.002.081-.243c.011-.032.055-.032.065 0l.082.243zm-.838-.164a.034.034 0 0 1-.053.038l-.209-.148-.208.148c-.026.02-.063-.006-.054-.038l.078-.243-.207-.152c-.025-.021-.012-.063.021-.063l.256-.002.081-.243c.011-.031.056-.031.065 0l.08.243.258.002c.031 0 .045.042.02.063l-.205.152.077.243zm-1.134.164l.256.002c.033 0 .047.043.021.063l-.206.152.077.243a.034.034 0 0 1-.053.038l-.208-.148-.209.148c-.026.02-.063-.006-.053-.038l.078-.243-.207-.152c-.026-.021-.014-.063.021-.063l.256-.002.081-.243c.011-.032.056-.032.065 0l.081.243zm-.84-.164a.033.033 0 0 1-.052.038l-.208-.148-.209.148c-.026.02-.063-.006-.053-.038l.078-.243-.206-.152a.035.035 0 0 1 .02-.063l.256-.002.082-.243c.01-.031.055-.031.064 0l.081.243.256.002c.033 0 .048.042.02.063l-.206.152.077.243zm-1.133.164l.257.002c.032 0 .047.043.019.063l-.205.152.077.243c.011.032-.025.058-.053.038l-.209-.148-.207.148a.034.034 0 0 1-.053-.038l.076-.243-.205-.152c-.027-.021-.013-.063.02-.063l.256-.002.081-.243c.011-.032.055-.032.065 0l.081.243zm1.469-2.478a.034.034 0 0 1 .021-.062l.256-.002.081-.243c.011-.032.056-.032.065 0l.081.243.256.002c.033 0 .047.042.021.062l-.206.153.077.243a.034.034 0 0 1-.053.038l-.208-.148-.209.148c-.026.02-.063-.006-.053-.038l.078-.243-.207-.153zm1.766.648l-.205.151.076.244c.01.031-.025.059-.053.039l-.209-.149-.208.149c-.026.02-.063-.008-.054-.039l.078-.244-.207-.151c-.025-.021-.012-.063.021-.063l.256-.001.081-.243c.011-.031.056-.031.065 0l.08.243.258.001c.033 0 .047.043.021.063zm-2.732-.063l.256-.001.082-.243c.01-.031.055-.031.064 0l.081.243.256.001c.033 0 .048.043.02.063l-.206.151.077.244c.011.031-.024.059-.052.039l-.208-.149-.209.149c-.026.02-.063-.008-.053-.039l.078-.244-.206-.151c-.028-.02-.013-.063.02-.063zm.986.623l.256-.002.081-.242c.011-.031.056-.031.065 0l.081.242.256.002c.033.001.047.043.021.063l-.206.152.077.244c.01.031-.026.058-.053.039l-.208-.149-.209.149c-.026.019-.063-.008-.053-.039l.078-.244-.207-.152a.035.035 0 0 1 .021-.063zm2.732.063l-.205.152.077.244c.01.031-.025.058-.054.039l-.207-.149-.208.149c-.027.019-.064-.008-.055-.039l.077-.244-.206-.152c-.025-.02-.012-.062.021-.063l.256-.002.081-.242c.011-.031.055-.031.065 0l.081.242.257.002c.033.001.046.043.02.063zm.987-.623l-.207.151.078.244c.01.031-.027.059-.054.039l-.208-.149-.208.149c-.027.02-.063-.008-.053-.039l.077-.244-.206-.151a.035.035 0 0 1 .021-.063l.256-.001.08-.243c.011-.031.056-.031.066 0l.081.243.255.001c.035 0 .048.043.022.063zm-1.115-.252c.01.032-.025.058-.054.038l-.207-.148-.208.148c-.027.02-.064-.006-.055-.038l.077-.243-.206-.153c-.025-.02-.012-.062.021-.062l.256-.002.081-.243c.011-.032.055-.032.065 0l.081.243.257.002c.032 0 .045.042.019.062l-.205.153.078.243zm-1.135-1.083l.258.002c.031 0 .045.043.02.063l-.205.151.076.244a.034.034 0 0 1-.053.038l-.209-.148-.208.148c-.026.02-.063-.006-.054-.038l.078-.244-.207-.151c-.025-.02-.012-.063.021-.063l.256-.002.081-.243c.011-.031.056-.031.065 0l.081.243zm-1.972 0l.256.002c.033 0 .048.043.02.063l-.206.151.077.244a.033.033 0 0 1-.052.038l-.208-.148-.209.148c-.026.02-.063-.006-.053-.038l.078-.244-.206-.151a.035.035 0 0 1 .02-.063l.256-.002.082-.243c.01-.031.055-.031.064 0l.081.243zm-1.971 0l.255.002c.033 0 .047.043.021.063l-.207.151.078.244c.01.032-.027.058-.054.038l-.209-.148-.208.148a.034.034 0 0 1-.052-.038l.076-.244-.205-.151c-.026-.02-.013-.063.02-.063l.257-.002.08-.243c.011-.031.056-.031.065 0l.083.243zm.482.687a.034.034 0 0 1 .02-.062l.256-.002.081-.243c.011-.032.055-.032.065 0l.081.243.257.002c.032 0 .047.042.019.062l-.205.153.077.243c.011.032-.025.058-.053.038l-.209-.148-.207.148a.034.034 0 0 1-.053-.038l.076-.243-.205-.153zm-.335 1.044c.01.031-.027.059-.054.039l-.209-.149-.208.149c-.027.02-.063-.008-.052-.039l.076-.244-.205-.151c-.026-.021-.013-.063.02-.063l.257-.001.08-.243c.011-.031.056-.031.065 0l.082.243.255.001c.033 0 .047.043.021.063l-.207.151.079.244zm.355.164l.256-.002.081-.242c.011-.031.055-.031.065 0l.081.242.257.002c.032.001.047.043.019.063l-.205.152.077.244c.011.031-.025.058-.053.039l-.209-.149-.207.149a.035.035 0 0 1-.053-.039l.076-.244-.205-.152c-.027-.02-.013-.062.02-.063zm-1.006.711c-.026-.021-.013-.063.02-.063l.257-.002.08-.243c.011-.031.056-.031.065 0l.082.243.255.002c.033 0 .047.042.021.063l-.207.152.078.243c.01.032-.027.058-.054.038l-.209-.148-.208.148a.034.034 0 0 1-.052-.038l.076-.243-.204-.152zm.598 1.705l-.209-.149-.208.149c-.027.02-.063-.007-.052-.039l.076-.244-.205-.152c-.026-.02-.013-.062.02-.063l.257-.001.08-.243c.011-.031.056-.031.065 0l.082.243.255.001c.033.001.047.043.021.063l-.207.152.078.244c.01.032-.027.059-.053.039zm1.972 0l-.208-.149-.209.149c-.026.02-.063-.007-.053-.039l.078-.244-.206-.152c-.028-.02-.014-.062.02-.063l.256-.001.082-.243c.01-.031.055-.031.064 0l.081.243.256.001c.033.001.048.043.02.063l-.206.152.077.244a.034.034 0 0 1-.052.039zm1.973 0l-.209-.149-.208.149c-.026.02-.063-.007-.054-.039l.078-.244-.207-.152c-.025-.02-.012-.062.021-.063l.256-.001.081-.243c.011-.031.056-.031.065 0l.08.243.258.001c.031.001.045.043.02.063l-.205.152.076.244c.01.032-.025.059-.052.039zm1.971 0l-.208-.149-.208.149c-.027.02-.063-.007-.053-.039l.077-.244-.206-.152c-.027-.02-.013-.062.021-.063l.256-.001.08-.243c.011-.031.056-.031.066 0l.081.243.255.001c.034.001.048.043.021.063l-.207.152.078.244c.011.032-.026.059-.053.039zm2.026-.039c.011.032-.025.059-.054.039l-.207-.149-.209.149c-.026.02-.063-.007-.053-.039l.077-.244-.205-.152c-.026-.02-.014-.062.019-.063l.257-.001.082-.243c.01-.031.055-.031.065 0l.08.243.256.001c.033.001.047.043.021.063l-.205.152.076.244zm0-1.271c.011.032-.025.058-.054.038l-.207-.148-.209.148c-.026.02-.063-.006-.053-.038l.077-.243-.205-.152c-.026-.021-.014-.063.019-.063l.257-.002.082-.243c.01-.031.055-.031.065 0l.08.243.256.002c.033 0 .047.042.021.063l-.205.152.076.243zm-.858-1.043l-.206.152.078.244c.01.031-.026.058-.054.039l-.208-.149-.208.149a.035.035 0 0 1-.053-.039l.077-.244-.206-.152a.035.035 0 0 1 .02-.063l.257-.002.081-.242a.034.034 0 0 1 .065 0l.08.242.256.002c.034.001.049.043.021.063zm.858-.227c.011.031-.025.059-.054.039l-.207-.149-.209.149c-.026.02-.063-.008-.053-.039l.077-.244-.205-.151c-.026-.021-.014-.063.019-.063l.257-.001.082-.243c.01-.031.055-.031.065 0l.08.243.256.001c.033 0 .047.043.021.063l-.205.151.076.244zm-.985-.648c.01.032-.026.058-.054.038l-.208-.148-.208.148a.034.034 0 0 1-.053-.038l.077-.243-.206-.153a.034.034 0 0 1 .02-.062l.257-.002.081-.243a.034.034 0 0 1 .065 0l.08.243.256.002c.033 0 .048.042.021.062l-.206.153.078.243zm.837-1.083l.256.002c.033 0 .047.043.021.063l-.205.151.076.244c.011.032-.025.058-.054.038l-.207-.148-.209.148c-.026.02-.063-.006-.053-.038l.077-.244-.205-.151c-.026-.02-.014-.063.019-.063l.257-.002.082-.243c.01-.031.055-.031.065 0l.08.243zm-.08-1.513l.08.242.256.002c.033.001.047.043.021.063l-.205.152.076.244c.011.031-.025.058-.054.039l-.207-.149-.209.149c-.026.018-.063-.008-.053-.039l.077-.244-.205-.152c-.026-.02-.014-.062.019-.063l.257-.002.082-.242c.01-.031.055-.031.065 0zm-1.972 0l.081.242.255.002c.034.001.048.043.021.063l-.207.152.078.244c.01.031-.027.058-.054.039l-.208-.149-.208.149c-.027.018-.063-.008-.053-.039l.077-.244-.206-.152c-.027-.02-.013-.062.021-.063l.256-.002.08-.242c.011-.031.056-.031.067 0zm-1.973 0l.08.242.258.002c.031.001.045.043.02.063l-.205.152.076.244a.035.035 0 0 1-.053.039l-.209-.149-.208.149c-.026.018-.063-.008-.054-.039l.078-.244-.207-.152c-.025-.02-.012-.062.021-.063l.256-.002.081-.242c.011-.031.056-.031.066 0zm-1.973 0l.081.242.256.002c.033.001.048.043.02.063l-.206.152.077.244c.011.031-.024.058-.052.039l-.208-.149-.209.149c-.026.018-.063-.008-.053-.039l.078-.244-.206-.152c-.028-.02-.014-.062.02-.063l.256-.002.082-.242c.01-.031.055-.031.064 0zm-1.972 0l.082.242.255.002c.033.001.047.043.021.063l-.207.152.078.244c.01.031-.027.058-.054.039l-.209-.149-.208.149c-.027.019-.063-.008-.052-.039l.076-.244-.205-.152c-.026-.02-.013-.062.02-.063l.257-.002.08-.242c.011-.031.056-.031.066 0z"/><path fill="#F5F5F5" d="M223.366 142.709l-.257.002c-.032.001-.046.043-.02.063l.205.152-.076.244c-.011.031.024.058.052.039l.208-.149.209.149c.026.019.063-.008.054-.039l-.078-.244.207-.152c.025-.02.012-.062-.021-.063l-.255-.002-.082-.242c-.01-.031-.055-.031-.065 0l-.081.242zM223.446 143.737l-.08.243-.257.002c-.032 0-.046.043-.02.063l.205.151-.076.244a.033.033 0 0 0 .052.038l.208-.148.209.148c.026.02.063-.006.054-.038l-.078-.244.207-.151c.025-.02.012-.063-.021-.063l-.255-.002-.082-.243c-.01-.031-.055-.031-.066 0zM223.849 145.252l-.255-.001-.082-.243c-.01-.031-.055-.031-.065 0l-.08.243-.257.001c-.032.001-.046.043-.02.063l.205.151-.076.244c-.011.031.024.059.052.039l.208-.149.209.149c.026.02.063-.008.054-.039l-.078-.244.207-.151c.025-.02.011-.063-.022-.063zM223.219 146.981a.033.033 0 0 0 .052.038l.208-.148.209.148c.026.02.063-.006.054-.038l-.078-.243.207-.152c.025-.021.012-.063-.021-.063l-.255-.002-.082-.243c-.01-.031-.055-.031-.065 0l-.08.243-.257.002c-.032 0-.046.042-.02.063l.205.152-.077.243zM223.663 148.008l.207-.152c.025-.02.012-.062-.021-.063l-.255-.001-.082-.243c-.01-.031-.055-.031-.065 0l-.08.243-.257.001c-.032.001-.046.043-.02.063l.205.152-.076.244a.034.034 0 0 0 .052.039l.208-.149.209.149c.026.02.063-.007.054-.039l-.079-.244zM224.205 143.793c-.011.031.024.059.053.039l.207-.149.209.149c.027.02.063-.008.053-.039l-.077-.244.205-.152c.028-.02.014-.063-.019-.063l-.257-.002-.081-.242c-.011-.031-.055-.031-.065 0l-.081.242-.256.002c-.032 0-.047.043-.02.063l.205.152-.076.244zM224.205 145.063c-.011.032.024.058.053.038l.207-.148.209.148a.034.034 0 0 0 .053-.038l-.077-.243.205-.153a.034.034 0 0 0-.019-.062l-.257-.002-.081-.243c-.011-.032-.055-.032-.065 0l-.081.243-.256.002c-.032 0-.047.042-.02.062l.205.153-.076.243zM224.281 146.09l-.076.244c-.011.031.024.058.053.039l.207-.149.209.149c.027.019.063-.008.053-.039l-.077-.244.205-.152a.035.035 0 0 0-.019-.063l-.257-.002-.081-.242c-.011-.031-.055-.031-.065 0l-.081.242-.256.002c-.032.001-.047.043-.02.063l.205.152zM224.433 146.901l-.081.243-.256.002c-.032 0-.047.042-.02.063l.205.152-.076.243c-.011.032.024.058.053.038l.207-.148.209.148a.034.034 0 0 0 .053-.038l-.077-.243.205-.152c.028-.02.014-.063-.019-.063l-.257-.002-.081-.243c-.011-.032-.055-.032-.065 0zM225.338 142.709l-.256.002c-.033.001-.048.043-.02.063l.206.152-.078.244c-.01.031.026.057.053.039l.209-.149.208.149c.027.019.063-.008.052-.039l-.077-.244.206-.152c.028-.02.014-.062-.02-.063l-.256-.002-.081-.242c-.01-.031-.055-.031-.064 0l-.082.242zM225.42 143.737l-.082.243-.256.002c-.033 0-.048.043-.02.063l.206.151-.078.244a.034.034 0 0 0 .053.038l.209-.148.208.148a.034.034 0 0 0 .052-.038l-.077-.244.206-.151a.035.035 0 0 0-.02-.063l-.256-.002-.081-.243c-.009-.031-.054-.031-.064 0zM225.269 145.467l-.078.244c-.01.031.026.059.053.039l.209-.149.208.149c.027.02.063-.008.052-.039l-.077-.244.206-.151a.035.035 0 0 0-.02-.063l-.256-.001-.081-.243c-.01-.031-.055-.031-.064 0l-.082.243-.256.001c-.033 0-.048.043-.02.063l.206.151zM225.841 146.586a.035.035 0 0 0-.02-.063l-.256-.002-.081-.243c-.01-.031-.055-.031-.064 0l-.082.243-.256.002a.035.035 0 0 0-.02.063l.206.152-.078.243a.034.034 0 0 0 .053.038l.209-.148.208.148a.034.034 0 0 0 .052-.038l-.077-.243.206-.152zM225.635 148.008l.206-.152c.028-.02.014-.062-.02-.063l-.256-.001-.081-.243c-.01-.031-.055-.031-.064 0l-.082.243-.256.001c-.033.001-.048.043-.02.063l.206.152-.078.244c-.01.032.026.059.053.039l.209-.149.208.149c.027.02.063-.007.052-.039l-.077-.244zM226.177 143.793c-.011.031.026.059.053.039l.209-.149.208.149c.026.02.063-.008.053-.039l-.077-.244.206-.152c.026-.02.013-.063-.021-.063l-.256-.002-.081-.242c-.01-.031-.055-.031-.065 0l-.081.242-.256.002c-.034 0-.047.043-.021.063l.207.152-.078.244zM226.177 145.063c-.011.032.026.058.053.038l.209-.148.208.148c.026.02.063-.006.053-.038l-.077-.243.206-.153c.026-.02.013-.062-.021-.062l-.256-.002-.081-.243a.034.034 0 0 0-.065 0l-.081.243-.256.002c-.034 0-.047.042-.021.062l.207.153-.078.243zM226.255 146.09l-.078.244c-.011.031.026.058.053.039l.209-.149.208.149c.026.019.063-.008.053-.039l-.077-.244.206-.152a.035.035 0 0 0-.021-.063l-.256-.002-.081-.242c-.01-.031-.055-.031-.065 0l-.081.242-.256.002a.035.035 0 0 0-.021.063l.207.152zM226.405 146.901l-.081.243-.256.002c-.034 0-.047.042-.021.063l.207.152-.078.243c-.011.032.026.058.053.038l.209-.148.208.148c.026.02.063-.006.053-.038l-.077-.243.206-.152c.026-.02.013-.063-.021-.063l-.256-.002-.081-.243c-.009-.032-.054-.032-.065 0zM227.311 142.709l-.256.002c-.033.001-.047.043-.021.063l.207.152-.078.244c-.009.031.027.057.054.039l.208-.149.209.149c.027.019.063-.008.053-.039l-.076-.244.205-.152c.025-.02.012-.062-.02-.063l-.258-.002-.08-.242c-.01-.031-.055-.031-.065 0l-.082.242zM227.392 143.737l-.081.243-.256.002c-.033 0-.047.043-.021.063l.207.151-.078.244c-.009.032.027.058.054.038l.208-.148.209.148a.034.034 0 0 0 .053-.038l-.076-.244.205-.151c.025-.02.012-.063-.02-.063l-.258-.002-.08-.243c-.011-.031-.056-.031-.066 0zM227.537 145.251l-.08-.243c-.01-.031-.055-.031-.065 0l-.081.243-.256.001c-.033 0-.047.043-.021.063l.207.151-.078.244c-.009.031.027.059.054.039l.208-.149.209.149c.027.02.063-.008.053-.039l-.076-.244.205-.151c.025-.021.012-.063-.02-.063l-.259-.001zM227.814 146.586c.025-.021.012-.063-.02-.063l-.258-.002-.08-.243c-.01-.031-.055-.031-.065 0l-.081.243-.256.002c-.033 0-.047.042-.021.063l.207.152-.078.243c-.009.032.027.058.054.038l.208-.148.209.148a.034.034 0 0 0 .053-.038l-.076-.243.204-.152zM227.609 148.008l.205-.152c.025-.02.012-.062-.02-.063l-.258-.001-.08-.243c-.01-.031-.055-.031-.065 0l-.081.243-.256.001c-.033.001-.047.043-.021.063l.207.152-.078.244c-.009.032.027.059.054.039l.208-.149.209.149c.027.02.063-.007.053-.039l-.077-.244zM228.148 143.793c-.01.031.027.059.055.039l.208-.149.207.149c.028.02.063-.008.054-.039l-.077-.244.205-.152c.026-.02.014-.063-.019-.063l-.257-.002-.081-.242c-.011-.031-.055-.031-.065 0l-.081.242-.256.002c-.033 0-.047.043-.021.063l.206.152-.078.244zM228.8 144.667c.026-.02.014-.062-.019-.062l-.257-.002-.081-.243c-.011-.032-.055-.032-.065 0l-.081.243-.256.002c-.033 0-.047.042-.021.062l.206.153-.077.243c-.01.032.027.058.055.038l.208-.148.207.148a.035.035 0 0 0 .054-.038l-.077-.243.204-.153zM228.781 145.875l-.257-.002-.081-.242c-.011-.031-.055-.031-.065 0l-.081.242-.256.002c-.033.001-.047.043-.021.063l.206.152-.077.244c-.01.031.027.058.055.039l.208-.149.207.149c.028.019.063-.008.054-.039l-.077-.244.205-.152c.025-.02.012-.062-.02-.063zM228.378 146.901l-.081.243-.256.002c-.033 0-.047.042-.021.063l.206.152-.077.243c-.01.032.027.058.055.038l.208-.148.207.148a.035.035 0 0 0 .054-.038l-.077-.243.205-.152c.026-.02.014-.063-.019-.063l-.257-.002-.081-.243a.035.035 0 0 0-.066 0zM229.283 142.709l-.256.002c-.033.001-.048.043-.021.063l.206.152-.077.244c-.011.031.025.057.053.039l.208-.149.208.149c.026.019.063-.008.054-.039l-.078-.244.207-.152a.035.035 0 0 0-.021-.063l-.255-.002-.081-.242c-.011-.031-.056-.031-.066 0l-.081.242zM229.363 143.737l-.08.243-.256.002c-.033 0-.048.043-.021.063l.206.151-.077.244c-.011.032.025.058.053.038l.208-.148.208.148c.026.02.063-.006.054-.038l-.078-.244.207-.151c.026-.02.013-.063-.021-.063l-.255-.002-.081-.243c-.011-.031-.056-.031-.067 0zM229.511 145.251l-.081-.243c-.011-.031-.056-.031-.066 0l-.08.243-.256.001c-.033 0-.048.043-.021.063l.206.151-.077.244c-.011.031.025.059.053.039l.208-.149.208.149c.026.02.063-.008.054-.039l-.078-.244.207-.151c.026-.021.013-.063-.021-.063l-.256-.001zM229.511 146.521l-.081-.243c-.011-.031-.056-.031-.066 0l-.08.243-.256.002a.035.035 0 0 0-.021.063l.206.152-.077.243c-.011.032.025.058.053.038l.208-.148.208.148c.026.02.063-.006.054-.038l-.078-.243.207-.152c.026-.021.013-.063-.021-.063l-.256-.002zM229.58 148.008l.207-.152a.035.035 0 0 0-.021-.063l-.255-.001-.081-.243c-.011-.031-.056-.031-.066 0l-.08.243-.256.001c-.033.001-.048.043-.021.063l.206.152-.077.244a.034.034 0 0 0 .053.039l.208-.149.208.149c.026.02.063-.007.054-.039l-.079-.244zM230.122 143.793a.035.035 0 0 0 .053.039l.208-.149.208.149c.027.02.063-.008.054-.039l-.078-.244.206-.152a.035.035 0 0 0-.021-.063l-.256-.002-.08-.242c-.012-.031-.055-.031-.065 0l-.081.242-.257.002c-.033 0-.047.043-.02.063l.206.152-.077.244zM230.772 144.667a.034.034 0 0 0-.021-.062l-.256-.002-.08-.243c-.012-.032-.055-.032-.065 0l-.081.243-.257.002a.034.034 0 0 0-.02.062l.206.153-.077.243a.034.034 0 0 0 .053.038l.208-.148.208.148c.027.02.063-.006.054-.038l-.078-.243.206-.153zM230.752 145.875l-.256-.002-.08-.242c-.012-.031-.055-.031-.065 0l-.081.242-.257.002c-.033.001-.047.043-.02.063l.206.152-.077.244a.035.035 0 0 0 .053.039l.208-.149.208.149c.027.019.063-.008.054-.039l-.078-.244.206-.152c.027-.02.012-.062-.021-.063zM230.351 146.901l-.081.243-.257.002c-.033 0-.047.042-.02.063l.206.152-.077.243a.034.034 0 0 0 .053.038l.208-.148.208.148c.027.02.063-.006.054-.038l-.078-.243.206-.152a.035.035 0 0 0-.021-.063l-.256-.002-.08-.243c-.012-.032-.055-.032-.065 0zM231.255 142.709l-.257.002c-.032.001-.045.043-.019.063l.205.152-.077.244c-.01.031.026.057.053.039l.209-.149.207.149c.028.019.064-.008.054-.039l-.076-.244.205-.152a.035.035 0 0 0-.021-.063l-.256-.002-.08-.242c-.011-.031-.056-.031-.065 0l-.082.242zM231.337 143.737l-.082.243-.257.002c-.032 0-.045.043-.019.063l.205.151-.077.244a.034.034 0 0 0 .053.038l.209-.148.207.148c.028.02.064-.006.054-.038l-.076-.244.205-.151c.026-.02.013-.063-.021-.063l-.256-.002-.08-.243c-.01-.031-.055-.031-.065 0zM231.738 145.252l-.256-.001-.08-.243c-.011-.031-.056-.031-.065 0l-.082.243-.257.001c-.032 0-.045.043-.019.063l.205.151-.077.244c-.01.031.026.059.053.039l.209-.149.207.149c.028.02.064-.008.054-.039l-.076-.244.205-.151c.026-.02.012-.063-.021-.063zM231.759 146.586c.026-.021.013-.063-.021-.063l-.256-.002-.08-.243c-.011-.031-.056-.031-.065 0l-.082.243-.257.002c-.032 0-.045.042-.019.063l.205.152-.077.243a.034.034 0 0 0 .053.038l.209-.148.207.148c.028.02.064-.006.054-.038l-.076-.243.205-.152zM231.759 147.855a.035.035 0 0 0-.021-.063l-.256-.001-.08-.243c-.011-.031-.056-.031-.065 0l-.082.243-.257.001c-.032.001-.045.043-.019.063l.205.152-.077.244c-.01.032.026.059.053.039l.209-.149.207.149a.035.035 0 0 0 .054-.039l-.076-.244.205-.152z"/><path fill="#95A5A6" d="M222.49 166.967V141.134a.497.497 0 0 0-.496-.498h-.497a.498.498 0 0 0-.497.498v25.836c0 .026.011.049.015.073h1.461c.003-.027.014-.05.014-.076z"/><path fill="#C8B2A8" d="M250.877 167.04H199v125.345h8.906v-25.069h74.835v25.069h7.127v-25.069H360v-5.375h-9.55V175.996H360v-8.954H250.877zm-28.719 23.282v71.617h-14.252V175.994h14.252v14.328zm17.821 0v71.617h-14.255V175.994h14.255v14.328zm92.653 57.301v-71.628h14.247V261.94h-14.247v-14.317zm-17.819 0v-71.628h14.247V261.94h-14.247v-14.317zm-17.816 0v-71.628h14.246V261.94h-14.246v-14.317zm-17.82 0v-71.628h14.246V261.94h-14.246v-14.317zm-17.818 0v-71.628h14.249V261.94h-14.249v-14.317zm-3.563-57.301v71.617h-14.254V175.994h14.254v14.328z"/><path fill="#83727A" d="M360 257.22v-9.597h-9.55zM360 221.413v-9.602h-9.55zM360 203.504v-9.608h-9.55zM360 239.313v-9.596h-9.55zM360 185.599v-9.605h-9.55z"/><path fill="#A08A8A" d="M350.45 190.322H360v-4.723l-9.55-9.605zM350.45 208.229H360v-4.725l-9.55-9.608zM350.45 226.136H360v-4.723l-9.55-9.602zM350.45 244.034H360v-4.721l-9.55-9.596z"/><path fill="#695A69" d="M350.45 190.322H360v3.573h-9.55zM350.45 211.802v.009H360v-3.582h-9.55zM350.45 229.709v.008H360v-3.581h-9.55z"/><path fill="#A08A8A" d="M350.45 261.94H360v-4.72l-9.55-9.597z"/><path fill="#695A69" d="M350.45 244.034H360v3.589h-9.55z"/><path fill="#83727A" d="M346.879 211.811h-14.247l14.247 14.325zM346.879 193.896h-14.247l14.247 14.333zM346.879 229.717h-14.247l14.247 14.317zM346.879 247.623h-14.247l14.247 14.317zM346.879 175.994h-14.247l14.247 14.328z"/><path fill="#A08A8A" d="M332.632 175.994v14.328h14.247zM332.632 193.896v14.333h14.247zM332.632 211.811v14.325h14.247zM332.632 229.717v14.317h14.247z"/><path fill="#695A69" d="M332.632 190.322h14.247v3.573h-14.247zM346.879 211.802v-3.573h-14.247v3.582h14.247zM346.879 229.709v-3.573h-14.247v3.581h14.247z"/><path fill="#A08A8A" d="M332.632 247.623v14.317h14.247z"/><path fill="#695A69" d="M332.632 244.034h14.247v3.589h-14.247z"/><path fill="#83727A" d="M329.06 193.896h-14.247l14.247 14.333zM329.06 211.811h-14.247l14.247 14.325zM329.06 175.994h-14.247l14.247 14.328zM329.06 229.717h-14.247l14.247 14.317zM329.06 247.623h-14.247l14.247 14.317z"/><path fill="#A08A8A" d="M314.813 175.994v14.328h14.247zM314.813 193.896v14.333h14.247zM314.813 211.811v14.325h14.247zM314.813 229.717v14.317h14.247z"/><path fill="#695A69" d="M314.813 190.322h14.247v3.573h-14.247zM329.06 211.802v-3.573h-14.247v3.582h14.247zM329.06 229.709v-3.573h-14.247v3.581h14.247z"/><path fill="#A08A8A" d="M314.813 247.623v14.317h14.247z"/><path fill="#695A69" d="M314.813 244.034h14.247v3.589h-14.247z"/><path fill="#83727A" d="M311.242 175.994h-14.245l14.245 14.328zM311.242 211.811h-14.245l14.245 14.325zM311.242 247.623h-14.245l14.245 14.317zM311.242 229.717h-14.245l14.245 14.317zM311.242 193.896h-14.245l14.245 14.333z"/><path fill="#A08A8A" d="M296.997 175.994v14.328h14.245zM296.997 193.896v14.333h14.245zM296.997 211.811v14.325h14.245zM296.997 229.717v14.317h14.245z"/><path fill="#695A69" d="M296.997 190.322h14.246v3.573h-14.246zM311.242 211.802v-3.573h-14.245v3.582h14.245zM311.242 229.709v-3.573h-14.245v3.581h14.245z"/><path fill="#A08A8A" d="M296.997 247.623v14.317h14.245z"/><path fill="#695A69" d="M296.997 244.034h14.246v3.589h-14.246z"/><path fill="#83727A" d="M293.423 193.896h-14.246l14.246 14.333zM293.423 247.623h-14.246l14.246 14.317zM293.423 175.994h-14.246l14.246 14.328zM293.423 211.811h-14.246l14.246 14.325zM293.423 229.717h-14.246l14.246 14.317z"/><path fill="#A08A8A" d="M279.177 175.994v14.328h14.246zM279.177 193.896v14.333h14.246zM279.177 211.811v14.325h14.246zM279.177 229.717v14.317h14.246z"/><path fill="#695A69" d="M279.177 190.322h14.246v3.573h-14.246zM293.423 211.802v-3.573h-14.246v3.582h14.246zM293.423 229.709v-3.573h-14.246v3.581h14.246z"/><path fill="#A08A8A" d="M279.177 247.623v14.317h14.246z"/><path fill="#695A69" d="M279.177 244.034h14.246v3.589h-14.246z"/><path fill="#83727A" d="M275.608 193.896h-14.249l14.249 14.333zM275.608 229.717h-14.249l14.249 14.317zM275.608 175.994h-14.249l14.249 14.328zM275.608 247.623h-14.249l14.249 14.317zM275.608 211.811h-14.249l14.249 14.325z"/><path fill="#A08A8A" d="M261.359 175.994v14.328h14.249zM261.359 193.896v14.333h14.249zM261.359 211.811v14.325h14.249zM261.359 229.717v14.317h14.249z"/><path fill="#695A69" d="M261.359 190.322h14.249v3.573h-14.249zM275.608 211.802v-3.573h-14.249v3.582h14.249zM275.608 229.709v-3.573h-14.249v3.581h14.249z"/><path fill="#A08A8A" d="M261.359 247.623v14.317h14.249z"/><path fill="#695A69" d="M261.359 244.034h14.249v3.589h-14.249z"/><path fill="#83727A" d="M257.796 208.229v-14.333h-14.254zM257.796 261.94v-14.317h-14.254zM257.796 244.034v-14.317h-14.254zM257.796 190.322v-14.328h-14.254zM257.796 226.136v-14.325h-14.254z"/><path fill="#A08A8A" d="M243.542 190.322h14.254l-14.254-14.328zM243.542 208.229h14.254l-14.254-14.333zM243.542 226.136h14.254l-14.254-14.325zM243.542 244.034h14.254l-14.254-14.317z"/><path fill="#695A69" d="M243.542 190.322h14.254v3.573h-14.254zM243.542 211.802v.009h14.254v-3.582h-14.254zM243.542 229.709v.008h14.254v-3.581h-14.254z"/><path fill="#A08A8A" d="M243.542 261.94h14.254l-14.254-14.317z"/><path fill="#695A69" d="M243.542 244.034h14.254v3.589h-14.254z"/><path fill="#83727A" d="M239.979 244.034v-14.317h-14.255zM239.979 226.136v-14.325h-14.255zM239.979 208.229v-14.333h-14.255zM239.979 261.94v-14.317h-14.255zM239.979 190.322v-14.328h-14.255z"/><path fill="#A08A8A" d="M225.724 190.322h14.255l-14.255-14.328zM225.724 208.229h14.255l-14.255-14.333zM225.724 226.136h14.255l-14.255-14.325zM225.724 244.034h14.255l-14.255-14.317z"/><path fill="#695A69" d="M225.724 190.322h14.255v3.573h-14.255zM225.724 211.802v.009h14.255v-3.582h-14.255zM225.724 229.709v.008h14.255v-3.581h-14.255z"/><path fill="#A08A8A" d="M225.724 261.94h14.255l-14.255-14.317z"/><path fill="#695A69" d="M225.724 244.034h14.255v3.589h-14.255z"/><path fill="#83727A" d="M222.158 244.034v-14.317h-14.252zM222.158 208.229v-14.333h-14.252zM222.158 226.136v-14.325h-14.252zM222.158 261.94v-14.317h-14.252zM222.158 190.322v-14.328h-14.252z"/><path fill="#A08A8A" d="M207.906 190.322h14.252l-14.252-14.328zM207.906 208.229h14.252l-14.252-14.333zM207.906 226.136h14.252l-14.252-14.325zM207.906 244.034h14.252l-14.252-14.317z"/><path fill="#695A69" d="M207.906 190.322h14.252v3.573h-14.252zM207.906 211.802v.009h14.252v-3.582h-14.252zM207.906 229.709v.008h14.252v-3.581h-14.252z"/><path fill="#A08A8A" d="M207.906 261.94h14.252l-14.252-14.317z"/><path fill="#695A69" d="M207.906 244.034h14.252v3.589h-14.252z"/><path fill="#A08A8A" d="M207.906 292.385v7.949h29.299l-29.299-29.437zM289.869 292.385v7.949h29.299l-29.299-29.437z"/><path fill="#695A69" d="M207.906 267.315h74.835v3.582h-74.835zM289.869 267.315H360v3.582h-70.131z"/><path fill="#83727A" d="M282.741 270.897h-74.835l29.299 29.437h45.536v-7.949zM319.168 300.334H360v-29.437h-70.131z"/><path fill="#695A69" d="M199 292.385h8.906v7.949H199zM282.741 292.385h7.127v7.949h-7.127z"/></g></svg>