<svg xmlns="http://www.w3.org/2000/svg" width="256" height="256" viewBox="0 0 256 256"><circle fill="#5D5D6E" stroke="#464653" stroke-width="18.551" cx="128" cy="128" r="118.725"/><g fill="#5BBECD"><path d="M162.426 78.625c-9.862-10.993 34.427 38.463 39.688 44.333.331.367.563.627.563.627l-72.71-53.706-21.841 67.575c-5.738 17.76-3.038 33.734 8.105 47.928 6.164 7.848 14.524 14.727 24.925 20.707l-5.328 16.5c-16.087-8.453-28.75-18.779-37.871-31.049-13.974-18.844-17.465-39.086-10.462-60.754l32.262-99.821 42.669 47.66z"/><path d="M93.574 177.375c9.862 10.992-34.426-38.463-39.689-44.332l-.562-.629 72.709 53.707 21.841-67.576c5.74-17.76 3.038-33.733-8.104-47.926-6.163-7.849-14.522-14.728-24.923-20.71l5.327-16.497c16.086 8.452 28.75 18.777 37.871 31.047 13.974 18.845 17.465 39.086 10.461 60.753l-32.262 99.822-42.669-47.659z"/></g></svg>