<svg xmlns="http://www.w3.org/2000/svg" width="256" height="256" viewBox="0 0 256 256"><path fill="#34344A" d="M248.56 71.209H118.184c-9.874 0-17.768 2.991-23.671 8.979-1.791 1.813-3.275 3.836-4.522 6.021V35.527c0-10.031-2.957-18.041-8.864-24.033-5.187-5.255-11.898-8.2-20.142-8.844v6.933c6.359.615 11.472 2.802 15.164 6.769 4.374 4.695 6.557 11.166 6.557 19.422v18.934h-.24l.24.242v25.596h-.24l.177.373-.177-.175h-.73c-.389-.719-.849-1.367-1.297-2.03-2.675-3.958-8.016-7.606-12.533-8.993-4.482-1.376-13.776-1.6-13.776-1.6H38.036c-9.875 0-17.766 2.992-23.671 8.984C8.453 83.091 5.5 91.106 5.5 101.141v50.501c0 10.025 2.953 18.045 8.864 24.033 5.905 5.988 13.796 8.979 23.671 8.979h50.014c1.293 0 1.942-.725 1.942-2.182v-9.732c1.247 2.184 2.731 4.207 4.522 6.02 5.903 5.994 13.797 8.98 23.671 8.98h17.962c7.706 0 13.874-1.584 18.566-4.717 2.339-1.559 4.285-3.533 5.875-5.873l2.028-2.029.18-.176-.18.375h.24v25.596l-.24.242h.24V220.092c0 8.256-2.184 14.727-6.558 19.422-4.37 4.691-10.599 7.039-18.693 7.039h-30.793l12.464-26.871-.184.228c-1.721 2.136-16.22 20.12-13 16.116L92.118 253.35h45.487c9.875 0 17.761-2.992 23.672-8.979 5.907-5.994 8.86-14.002 8.86-24.033V172.399a28.764 28.764 0 0 0 4.734 6.361c5.907 5.994 13.8 8.98 23.675 8.98h19.417c9.875 0 17.765-2.986 23.672-8.98 4.882-4.945 7.712-11.297 8.56-19.006l.305-.656V73.391c0-1.457-.65-2.182-1.94-2.182zM82.706 175.918c0 1.297-.728 1.941-2.183 1.941H38.035c-8.098 0-14.324-2.35-18.693-7.037-4.372-4.699-6.557-11.17-6.557-19.426v-50.015c0-8.255 2.185-14.729 6.557-19.421 4.369-4.695 10.596-7.039 18.693-7.039h17.481c8.087 0 14.641 2.184 19.664 6.556 5.014 4.364 7.525 10.599 7.525 18.692v75.749zm80.15-20.223c0 8.094-2.512 14.328-7.529 18.691-5.017 4.373-11.574 6.557-19.661 6.557h-17.481c-8.098 0-14.326-2.344-18.692-7.039-4.374-4.691-6.558-11.166-6.558-19.422v-50.015c0-8.255 2.184-14.727 6.558-19.426 4.366-4.687 10.595-7.034 18.692-7.034h42.488c1.452 0 2.184.643 2.184 1.939v75.749zm80.362 0c0 4.922-1.049 9.076-2.903 12.623-1.194 2.279-2.661 4.361-4.625 6.068-5.021 4.373-11.574 6.557-19.668 6.557h-15.535c-8.094 0-14.645-2.184-19.668-6.557-1.961-1.707-3.428-3.789-4.621-6.068-1.858-3.547-2.904-7.701-2.904-12.623V81.969c.509-.605 1.021-1.212 1.579-1.78a29.84 29.84 0 0 1 2.417-2.182H239.22a28.846 28.846 0 0 1 2.417 2.182c.558.568 1.073 1.175 1.582 1.78v73.726z"/></svg>