<svg xmlns="http://www.w3.org/2000/svg" width="256" height="256" viewBox="0 0 256 256"><path fill="#34344A" d="M256 246c0 5.5-4.5 10-10 10H10c-5.5 0-10-4.5-10-10V10C0 4.5 4.5 0 10 0h236c5.5 0 10 4.5 10 10v236z"/><path fill="#5BBECD" d="M226.416 81.641H119.987c-8.061 0-14.504 2.441-19.323 7.33-1.462 1.48-2.674 3.132-3.691 4.916V52.513c0-8.189-2.414-14.728-7.236-19.619-4.234-4.29-9.713-6.694-16.442-7.22v5.659c5.191.502 9.365 2.287 12.379 5.525 3.571 3.833 5.353 9.115 5.353 15.854v15.456h-.196l.196.198v20.895h-.196l.145.305-.145-.143h-.596c-.317-.587-.693-1.116-1.059-1.657-2.184-3.23-6.544-6.209-10.231-7.342-3.659-1.123-11.246-1.306-11.246-1.306H54.561c-8.061 0-14.502 2.442-19.323 7.334C30.411 91.34 28 97.883 28 106.074V147.3c0 8.185 2.411 14.73 7.236 19.619 4.82 4.889 11.262 7.329 19.323 7.329h40.828c1.056 0 1.586-.591 1.586-1.78v-7.945c1.018 1.782 2.229 3.435 3.691 4.914 4.819 4.894 11.263 7.331 19.323 7.331h14.663c6.291 0 11.326-1.293 15.156-3.851 1.909-1.272 3.498-2.884 4.796-4.794l1.655-1.657.147-.144-.147.307h.196v20.895l-.196.197h.196v15.456c0 6.739-1.782 12.021-5.353 15.854-3.568 3.83-8.652 5.746-15.26 5.746h-25.138l10.175-21.936-.15.187a12311.184 12311.184 0 0 1-10.612 13.155l-11.408 14.143h37.133c8.061 0 14.498-2.442 19.323-7.329 4.822-4.894 7.233-11.431 7.233-19.619v-39.135a23.447 23.447 0 0 0 3.864 5.193c4.822 4.894 11.266 7.331 19.326 7.331h15.852c8.062 0 14.502-2.438 19.324-7.331 3.985-4.037 6.296-9.222 6.987-15.515l.249-.536V83.422c.002-1.19-.529-1.781-1.582-1.781zM91.025 167.116c0 1.06-.594 1.585-1.782 1.585H54.559c-6.61 0-11.693-1.918-15.26-5.744-3.569-3.836-5.352-9.118-5.352-15.857v-40.829c0-6.738 1.783-12.023 5.352-15.854 3.567-3.833 8.65-5.746 15.26-5.746H68.83c6.602 0 11.951 1.782 16.052 5.352 4.093 3.563 6.143 8.651 6.143 15.259v61.834zm65.429-16.508c0 6.607-2.05 11.696-6.146 15.258-4.096 3.57-9.449 5.353-16.051 5.353h-14.271c-6.61 0-11.695-1.913-15.259-5.746-3.571-3.829-5.354-9.115-5.354-15.854V108.79c0-6.739 1.783-12.021 5.354-15.858 3.564-3.825 8.648-5.742 15.259-5.742h34.685c1.186 0 1.782.525 1.782 1.584v61.834zm65.602 0c0 4.018-.856 7.409-2.37 10.305-.976 1.86-2.173 3.561-3.775 4.953-4.099 3.57-9.449 5.353-16.056 5.353h-12.682c-6.607 0-11.955-1.782-16.056-5.353-1.601-1.393-2.798-3.093-3.772-4.953-1.517-2.896-2.371-6.287-2.371-10.305V90.424c.416-.494.833-.989 1.289-1.453a24.276 24.276 0 0 1 1.974-1.781h50.556a23.807 23.807 0 0 1 1.973 1.781c.455.464.876.959 1.292 1.453v60.184z"/></svg>