<svg xmlns="http://www.w3.org/2000/svg" width="640" height="360" viewBox="0 0 640 360"><path fill="#d0fff0" d="M-5-5h650v186.908H-5z"/><path d="M420.053 104.962c0-42.245-15.884-80.774-41.994-109.962H132.046c-26.11 29.188-41.994 67.717-41.994 109.962 0 27.022 6.497 52.526 18.012 75.038H402.04c11.516-22.512 18.013-48.016 18.013-75.038z" fill="#d9fee6"/><path d="M395.247 104.962c0-44.573-20.805-84.284-53.229-109.962h-173.93c-32.425 25.678-53.229 65.389-53.229 109.962 0 27.604 7.983 53.341 21.759 75.038h236.871c13.775-21.697 21.758-47.435 21.758-75.038z" fill="#e3fddb"/><path d="M357.398 104.962c0-56.524-45.822-102.346-102.346-102.346S152.706 48.437 152.706 104.962c0 29.648 12.612 56.347 32.757 75.038h139.176c20.148-18.691 32.759-45.39 32.759-75.038z" fill="#f8fbc6"/><circle cx="255.052" cy="104.961" r="38.68" fill="#fffff5"/><path d="M532.206 61.285c0-8.004 6.49-14.491 14.49-14.491 1.209 0 2.365.188 3.485.466 3.78-4.084 9.141-6.675 15.145-6.675 11.433 0 20.7 9.265 20.7 20.7h-53.82z" fill="#dffff2"/><path d="M597.624 58.706c-1.216 0-2.368.242-3.468.59-3.494-5.021-9.281-8.321-15.86-8.321-6.573 0-12.367 3.3-15.855 8.321-1.104-.348-2.257-.59-3.473-.59-6.404 0-11.597 5.195-11.597 11.597h61.85c0-6.403-5.194-11.597-11.597-11.597z" fill="#fff" opacity=".6"/><path d="M61.052 70.893c-1.216 0-2.368.242-3.468.59-3.494-5.021-9.281-8.321-15.86-8.321-6.573 0-12.367 3.3-15.855 8.321-1.104-.348-2.257-.59-3.473-.59-6.404 0-11.597 5.195-11.597 11.597h61.85c-.001-6.403-5.194-11.597-11.597-11.597z" fill="#f3fff4"/><path d="M453.163 72.826c0-16.698-13.539-30.24-30.238-30.24-4.968 0-9.635 1.22-13.753 3.362a163.624 163.624 0 0 1 7.741 26.878h36.25z" fill="#dffff2"/><g fill="#e3feea"><path d="M416.913 72.826a163.665 163.665 0 0 0-7.741-26.878 30.762 30.762 0 0 0-8.37 6.397c-1.642-.401-3.328-.684-5.092-.684-3.604 0-6.993.905-9.962 2.492a139.077 139.077 0 0 1 5.794 18.673h25.371z"/><path d="M374.545 72.826h16.998a139.077 139.077 0 0 0-5.794-18.673c-6.667 3.563-11.204 10.584-11.204 18.673z"/></g><path d="M466.526 80.547c0-9.45-7.663-17.119-17.119-17.119-1.797 0-3.496.357-5.123.865-5.151-7.399-13.698-12.278-23.409-12.278-3.157 0-6.188.523-9.023 1.474a163.87 163.87 0 0 1 6.397 27.058h48.277z" fill="#f3fff4"/><g fill="#eafee2"><path d="M418.249 80.547a163.996 163.996 0 0 0-6.397-27.058 28.692 28.692 0 0 0-14.392 10.804c-1.621-.508-3.32-.865-5.117-.865-1.118 0-2.207.115-3.265.32a139.212 139.212 0 0 1 4.049 16.799h25.122z"/><path d="M375.224 80.547h17.903a139.167 139.167 0 0 0-4.049-16.799c-7.893 1.526-13.854 8.466-13.854 16.799z"/></g><g><path d="M320.792-183.514l5.564-2.866v.828l-4.689 2.351v.024l4.689 2.351v.826l-5.564-2.866v-.648zM328.063-187.988a12.096 12.096 0 0 1 2.003-.156c1.032 0 1.787.24 2.268.672.443.384.707.971.707 1.691 0 .731-.216 1.307-.624 1.727-.551.587-1.451.888-2.47.888-.313 0-.601-.012-.84-.072V-180h-1.044v-7.988zm1.044 3.898c.228.06.516.084.863.084 1.26 0 2.027-.612 2.027-1.727 0-1.067-.756-1.583-1.907-1.583-.456 0-.804.036-.983.084v3.142zM337.313-180l-.084-.731h-.036c-.324.456-.947.863-1.775.863-1.175 0-1.774-.828-1.774-1.667 0-1.403 1.247-2.171 3.49-2.159v-.12c0-.479-.132-1.343-1.319-1.343-.54 0-1.104.168-1.512.432l-.239-.695c.479-.312 1.175-.516 1.906-.516 1.775 0 2.207 1.211 2.207 2.375v2.171c0 .503.024.995.096 1.391h-.96zm-.156-2.962c-1.151-.024-2.458.18-2.458 1.307 0 .684.455 1.008.995 1.008.756 0 1.235-.48 1.403-.972.036-.108.06-.228.06-.336v-1.007zM341.106-187.472v1.667h1.512v.803h-1.512v3.13c0 .72.204 1.127.792 1.127.275 0 .479-.036.611-.072l.048.792c-.203.084-.527.144-.936.144-.491 0-.887-.156-1.139-.444-.3-.312-.408-.828-.408-1.511v-3.167h-.899v-.803h.899v-1.392l1.032-.274zM343.808-188.515h1.055v3.622h.024c.168-.3.432-.563.756-.743.312-.18.684-.3 1.079-.3.779 0 2.026.479 2.026 2.482V-180h-1.055v-3.334c0-.936-.348-1.727-1.344-1.727-.684 0-1.224.479-1.415 1.055-.06.144-.072.3-.072.504V-180h-1.055v-8.515zM355.948-182.854L350.384-180v-.828l4.725-2.351v-.024l-4.725-2.351v-.828l5.564 2.854v.674z"/></g><g><path d="M576.096 146.222c-19.207 18.171-23.88-33.122-49.363 1.704-6.11-3.391-13.48-2.176-24.621 14.692-.346.523-.707 1.017-1.067 1.515-2.117-1.726-3.837-3.104-4.813-3.843-5.291-16.613-11.691-26.923-19.678-29.125-21.039-5.799-45.354 1.804-66.396 12.486-17.812-8.191-35.135-10.716-46.483.02-19.207 18.171-23.88-33.122-49.363 1.704-6.11-3.391-13.48-2.176-24.621 14.692-.346.522-.707 1.016-1.067 1.515-2.117-1.726-3.837-3.104-4.813-3.843-5.291-16.612-11.691-26.923-19.678-29.126-23.133-6.375-50.228 3.45-72.576 15.758-1.645-1.181-3.327-2.048-5.067-2.469-22.403-5.421-57.018 5.554-61.615 8.978-1.02.76-2.041 1.487-3.063 2.201-9.732 4.621-39.411 12.502-39.411 12.502-21.75-9.313-31.517-29.107-43.491-31.518-8.83-1.779-18.077 3.223-26.255 7.587C6.74 144.805.899 148.296-5 151.528v65.993h650V159.041c-24.529-16.547-52.762-28.092-68.904-12.819z" fill="#82a5a0"/><path d="M610.039 168.984c-10.455 3.642-19.29 14.513-27.933 21.111a83.689 83.689 0 0 1-13.446 8.356h-7.535c-.986-14.705-17.011-15.412-28.834-18.396-8.264-2.086-10.609-4.631-17.73 1.118-6.009 4.854-14.739 3.035-21.835 1.125-9.526-2.564-17.942-8.367-27.488-11.094-9.344-2.667-14.777 3.827-21.462 9.409-7.244 6.048-13.574 9.194-22.431 12.164-6.083 2.04-11.348 4.824-16.933 5.674h-6.46a21.604 21.604 0 0 1-4.986-1.463c-9.469-4.018-18.85-10.991-26.845-17.444-9.824-7.931-26.113-4.215-25.292-3.416l-37.188-.829c-4.604-.103-8.209-4.859-12.733-1.707-1.99 1.387-15.979 12.08-17.209 12.978-1.293-.404-2.587-.809-3.899-1.208-5.567 3.952-11.419 8.42-17.503 13.09h-3.027v-17.099h-53.927a24.31 24.31 0 0 1-.207-2.989c0-1.114.073-2.21.2-3.289-2.772-2.12-5.461-4.153-8.029-5.974-6.357 1.934-12.815 3.905-18.908 6.577-6.008 2.636-11.827 6.717-18.504 7.417-4.62.484-9.779-.429-14.403-.704-13.647-.811-36.713-5.28-47.151 6.434-2.397 2.689-3.341 6.139-3.885 9.627H75.87c-19.18-9.926-32.125-35.244-56.692-28.895-8.171 2.111-16.173 4.966-24.149 7.73 0 0-.017 15.416-.025 30.521H-5V236h.019c.003.345.006.537.01.537V237H645v-61.865c-11.101-4.354-24.613-9.755-34.961-6.151z" fill="#96beb4"/><path fill="none" d="M135-5h370v370H135z"/></g><g><path fill="#00a07d" d="M-5 236h650v16H-5z"/><path fill="#11aa79" d="M-5 251h650v55H-5z"/><path fill="#23b475" d="M-5 303h650v37H-5z"/><path fill="#34be71" d="M-5 338v27h650v-27z"/><path fill="none" d="M135-5h370v370H135z"/></g><g><path d="M235.317 242.883l-3.473 2.942-3.068-10.417c-.94.138-1.886.227-2.848.227a20.36 20.36 0 0 1-4.704-.561v64.364c4.258-4.02 9.006-6.996 14.092-8.702v-47.853z" fill="#937772"/><path d="M231.641 250.713c1.293-1.144 2.234-2.865 3.875-3.845 5.245-3.13 11.997-5.032 17.602-7.663 6.945-3.26 21.993-6.789 22.031-15.356.018-3.963-.278-8.031-.626-11.984-.931.845-1.863 1.723-2.789 2.585l-6.298-5.878c3.376-3.149 6.677-6.495 10.198-9.458-1.804-2.054-4.954-3.874-7.335-5.372-.671-.422-3.451-1.503-3.745-2.098-.684-1.382.991-5.377.991-7.156 0-12.245-10.634-22.171-23.751-22.171-1.9 0-3.723.261-5.494.654-5.378-7.083-14.187-11.741-24.196-11.741-2.668 0-5.208.435-7.669 1.052a30.608 30.608 0 0 1 17.052-7.155c-10.479.936-19.365 6.955-23.799 15.385a26.177 26.177 0 0 0-2.815 8.929 26.314 26.314 0 0 0-.212 3.268c0 3.218.702 6.258 1.782 9.13-11.614 5.479-19.595 16.692-19.595 29.669 0 .49.017.977.04 1.461a31.25 31.25 0 0 0 .985 6.462c1.566 5.976 4.854 11.319 9.357 15.538 4.298 4.027 9.679 6.988 15.514 8.535 3.028.803 6.411.463 9.326 1.237 2.78.739 4.238 2.886 6.694 4.172 2.493 1.306 8.421 3.721 11.321 2.739.593-.199 1.097-.533 1.556-.939z" fill="#71be63"/><path d="M210.622 151.23c10.153 0 19.088 4.658 24.543 11.741 1.796-.394 3.646-.654 5.573-.654 13.306 0 24.092 9.926 24.092 22.171 0 2.59-.573 5.039-1.461 7.348.089.067.16.15.248.218 4.508 1.313 8.452 3.778 11.429 7.015l9.607-8.842a25.472 25.472 0 0 0-8.614-4.408c-.087-.067-.159-.15-.248-.219.87-2.271 1.435-4.675 1.455-7.216 0-.044.007-.087.007-.132 0-12.245-10.786-22.173-24.092-22.173-1.928 0-3.777.263-5.573.656-5.455-7.084-14.391-11.74-24.544-11.74a31.71 31.71 0 0 0-2.656.114c-.083.006-.167.01-.248.017a31.278 31.278 0 0 0-17.297 7.155c2.496-.615 5.072-1.051 7.779-1.051z" fill="#94d75b"/><path d="M136.977 220.419c-8.375 0-39.379 14.604-39.379 21.845h78.762c0-7.24-6.613-13.106-14.77-13.106-1.55-.001-16.239-8.739-24.613-8.739zM523.432 227.773c-8.375 0-39.38 9.854-39.38 14.74h78.762c0-4.886-6.613-8.844-14.77-8.844-1.55.001-16.239-5.896-24.612-5.896z" fill="#00a07d"/><path d="M126.044 196.27c-2.148 0-5.133 6.62-6.863 12.109-.846 2.684-1.394 5.099-1.394 6.335 0 3.361 2.958 5.216 6.837 5.576v4.615c0 .469.637.846 1.42.846.786 0 1.421-.377 1.421-.846v-4.615c3.88-.36 6.836-2.215 6.836-5.576 0-1.236-.547-3.651-1.393-6.335-1.729-5.489-4.715-12.109-6.864-12.109zM145.398 184.523c-4.015 0-10.366 20.267-10.366 25.463 0 .283.015.558.042.826.417 4.121 3.967 6.409 8.542 6.878v6.372c0 .64.797 1.163 1.782 1.163.983 0 1.781-.523 1.781-1.163v-6.372c4.573-.469 8.123-2.757 8.54-6.878.027-.268.042-.543.042-.826 0-5.196-6.349-25.463-10.363-25.463zM508.648 198.412c-1.146 0-2.739 8.753-3.663 16.011-.451 3.549-.743 6.742-.743 8.377 0 4.444 1.578 6.896 3.648 7.373v6.103c0 .62.34 1.118.758 1.118.42 0 .759-.498.759-1.118v-6.103c2.071-.477 3.648-2.929 3.648-7.373 0-1.635-.292-4.828-.743-8.377-.923-7.258-2.516-16.011-3.664-16.011zM519.624 182.462c-2.32 0-5.991 24.089-5.991 30.265 0 .336.009.664.025.982.24 4.898 2.292 7.617 4.936 8.174v7.574c0 .762.462 1.383 1.03 1.383s1.03-.621 1.03-1.383v-7.574c2.643-.557 4.694-3.276 4.936-8.174.015-.319.023-.646.023-.982 0-6.176-3.67-30.265-5.989-30.265zM537.408 183.619c-2.32 0-5.991 24.089-5.991 30.265 0 .336.009.664.025.982.24 4.898 2.292 7.617 4.936 8.174v7.574c0 .762.462 1.383 1.03 1.383s1.03-.621 1.03-1.383v-7.574c2.643-.557 4.694-3.276 4.936-8.174.015-.319.023-.646.023-.982 0-6.176-3.669-30.265-5.989-30.265z" fill="#00a07d"/><path fill="none" d="M135-5h370v370H135z"/></g><g><g fill="#556483"><path d="M286.085 216.145h13.755v2.751h-13.755zM330.101 210.644h-19.257v24.758h19.257v-24.758zm-16.505 5.501v-2.752h13.755v2.752h1.375v2.751h-1.375v13.754h-13.755v-13.754h-1.376v-2.751h1.376z"/><path d="M313.596 218.896h15.13v-2.751H312.22v2.751zM338.354 235.402h19.256v-24.758h-19.256v24.758zm16.505-16.506v13.754h-13.754v-13.754h-1.376v-2.751h1.376v-2.752h13.754v2.752h1.376v2.751h-1.376z"/><path d="M354.859 216.145H339.729v2.751h16.506v-2.751zM341.105 254.658h-19.256v24.76h19.256v-24.76zm-17.882 5.502h1.375v-2.75h13.756v2.75h1.375v2.752h-1.375v13.754h-13.756v-13.754h-1.375v-2.752z"/><path d="M338.354 262.912h1.375v-2.752h-16.506v2.752h1.376zM368.614 254.658h-19.257v24.76h19.257v-24.76zm-17.881 5.502h1.376v-2.75h13.755v2.75h1.375v2.752h-1.375v13.754h-13.755v-13.754h-1.376v-2.752z"/><path d="M365.864 262.912h1.375v-2.752h-16.506v2.752h1.376zM376.868 279.418h19.258v-24.76h-19.258v24.76zm1.375-19.258h1.375v-2.75h13.755v2.75h1.375v2.752h-1.375v13.754h-13.755v-13.754h-1.375v-2.752z"/><path d="M393.373 262.912h1.375v-2.752H378.243v2.752h1.375zM264.077 254.658H244.82v21.16c.929.051 1.844.143 2.751.256v-13.162h-1.375v-2.752h1.375v-2.75h13.755v2.75h1.375v2.752h-1.375v13.754h-10.253a36.755 36.755 0 0 1 7.964 2.752h5.04v-24.76z"/><path d="M262.701 262.912v-2.752H246.196v2.752h15.131zM272.331 279.418h19.256v-24.76h-19.256v24.76zm1.376-19.258h1.375v-2.75h13.755v2.75h1.376v2.752h-1.376v13.754h-13.755v-13.754h-1.375v-2.752z"/><path d="M288.836 262.912h1.376v-2.752h-16.505v2.752h1.374zM302.591 210.644h-19.257v24.758h19.257v-24.758zm-2.751 2.749V232.65h-13.755V213.393h13.755z"/></g><g fill="#b1d5ec"><path d="M286.085 213.393h13.755v2.752h-13.755zM286.085 218.896h13.755v13.754h-13.755zM313.596 213.393h13.755v2.752h-13.755zM313.596 218.896h13.755v13.754h-13.755zM341.105 218.896h13.754v13.754h-13.754zM341.105 213.393h13.754v2.752h-13.754zM324.599 257.41h13.756v2.75h-13.756zM324.599 262.912h13.756v13.754h-13.756zM352.109 257.41h13.755v2.75h-13.755zM352.109 262.912h13.755v13.754h-13.755zM379.618 257.41h13.755v2.75h-13.755zM379.618 262.912h13.755v13.754h-13.755zM261.327 262.912h-13.755v13.162c1.188.148 2.358.34 3.502.592h10.253v-13.754zM247.571 257.41h13.755v2.75h-13.755zM275.081 257.41h13.755v2.75h-13.755zM275.081 262.912h13.755v13.754h-13.755z"/></g><path d="M317.722 162.833l-49.518 49.519v17.062l39.325 19.66-3.687 7.383-2.627-1.313v35.252c.419-.027.837-.059 1.265-.059 3.399 0 6.558.879 9.205 2.377H413.01a17.73 17.73 0 0 1 3.747-2.604v-28.242l-99.035-99.035zm39.888 72.569h-19.256v-24.758h19.256v24.758zm-46.766-24.758h19.257v24.758h-19.257v-24.758zm-27.51 24.758v-24.758h19.257v24.758h-19.257zm38.515 44.016v-24.76h19.256v24.76h-19.256zm27.508 0v-24.76h19.257v24.76h-19.257zm46.769 0h-19.258v-24.76h19.258v24.76z" fill="#cdbea0"/><path d="M268.204 238.639l-33.011 16.506v21.363a38.7 38.7 0 0 1 9.628-.689v-21.16h19.257v24.76h-5.04c4.547 2.186 8.458 5.248 11.417 8.928 1.926-.527 3.938-.889 6.065-.889 6.173 0 11.692 2.395 15.411 6.158.13-.092.262-.182.396-.268.27-.18.545-.35.827-.514.055-.033.11-.063.166-.094 2.303-1.314 4.987-2.152 7.896-2.344v-35.252l-33.012-16.505zm23.382 40.779H272.33v-24.76h19.256v24.76z" fill="#e6e1dc"/><path fill="#674447" d="M311.686 292.715H413.01v5.557H311.686zM301.173 167.713l-23.18 23.181-8.777 8.776-9.432 9.432 5.836 5.834 2.584-2.584 49.518-49.519 99.035 99.036 2.583 2.582 5.836-5.834-23.311-23.31-66.4-66.4-17.743-17.742z"/><path fill="#745154" d="M228.879 249.074l1.365 2.735 2.321 4.648 2.627-1.312 33.012-16.506 33.011 16.506 2.627 1.312 3.687-7.383-39.325-19.66z"/><path fill="none" d="M135-5h370v370H135z"/></g><g><path d="M223.476 300.101h-56.774c0-5.61 4.764-10.154 10.643-10.154 1.12 0 2.172.209 3.185.514 3.206-4.396 8.521-7.283 14.558-7.283 6.036 0 11.352 2.888 14.558 7.283 1.013-.305 2.067-.514 3.184-.514 5.878-.001 10.646 4.544 10.646 10.154zM299.532 285.798a18.54 18.54 0 0 0-6.213 2.13l-.166.094c-.283.162-.557.336-.827.514-.134.087-.265.177-.396.268-.061.042-.118.088-.177.13-.174.126-.35.249-.519.381-.375.292-.739.596-1.083.917-.914-.196-1.853-.333-2.836-.333-2.291 0-4.422.574-6.232 1.553-1.728.934-3.163 2.234-4.138 3.787-.908 1.446-1.423 3.103-1.423 4.863h37.718c.001-7.121-5.907-13.028-13.708-14.304z" fill="#71be63"/><path d="M236.288 271.563c8.743 1.496 16.317 5.772 21.23 11.882 1.927-.526 3.938-.889 6.065-.889 7.518 0 14.065 3.549 17.567 8.807a13.086 13.086 0 0 1 6.232-1.553c.983 0 1.923.134 2.836.333.344-.321.708-.625 1.083-.917.168-.132.345-.255.519-.381.06-.042.117-.088.177-.13-3.719-3.764-9.238-6.158-15.411-6.158-2.127 0-4.139.362-6.065.889-2.959-3.68-6.87-6.741-11.417-8.927a36.648 36.648 0 0 0-7.964-2.752 38.288 38.288 0 0 0-3.502-.593 39.3 39.3 0 0 0-2.751-.255 38.7 38.7 0 0 0-9.628.689c-3.847.762-7.439 2.091-10.66 3.885a33.395 33.395 0 0 0-6.49 4.7c4.758-4.37 11.083-7.416 18.179-8.63z" fill="#34be71"/><path d="M275.589 300.014c0-1.761.516-3.417 1.423-4.863.976-1.553 2.411-2.854 4.138-3.787-3.502-5.258-10.049-8.807-17.567-8.807-2.128 0-4.138.362-6.065.889-4.913-6.109-12.487-10.386-21.23-11.882-7.095 1.214-13.421 4.26-18.179 8.631l-.032.029c-.305.281-.6.569-.891.86-.186.186-.366.376-.546.565-.169.179-.34.356-.505.538-.371.411-.732.829-1.077 1.258-1.928-.526-3.939-.889-6.066-.889-11.199 0-20.278 7.855-20.278 17.544H283.862c0-.029-.005-.058-.005-.087h-8.268z" fill="#0e8e65"/><path d="M299.599 285.711c7.801 1.276 13.708 7.184 13.708 14.303h6.088c0-2.395-.68-4.648-1.863-6.642-1.341-2.259-3.337-4.174-5.78-5.557-2.647-1.498-5.806-2.376-9.205-2.376-.428 0-.846.031-1.265.059-2.909.191-5.593 1.028-7.896 2.343a18.524 18.524 0 0 1 6.213-2.13zM398.45 290.185c-1.013-.306-2.065-.515-3.186-.515-3.17 0-6.008 1.329-7.958 3.427-1.666 1.792-2.685 4.144-2.685 6.729h56.774c0-5.609-4.768-10.155-10.646-10.155-1.117 0-2.172.209-3.185.515-3.205-4.396-8.521-7.284-14.558-7.284-3.051 0-5.915.739-8.418 2.036a17.767 17.767 0 0 0-3.747 2.604c-.885.8-1.691 1.683-2.391 2.643z" fill="#71be63"/><path fill="none" d="M135-5h370v370H135z"/></g><g><circle cx="389.443" cy="323.118" r="1.5" fill="#5acd8c"/><circle cx="188.7" cy="317.362" r="1.75" fill="#5acd8c"/><circle cx="352.109" cy="311.044" r="1.75" fill="#5acd8c"/><circle cx="260.495" cy="345.842" r="1.75" fill="#23b475"/><circle cx="431.095" cy="318.873" r="2.211" fill="#5acd8c"/><circle cx="441.976" cy="324.619" r="1.5" fill="#5acd8c"/><circle cx="368.614" cy="344.692" r="1.5" fill="#5acd8c"/><circle cx="221.226" cy="306.305" r="1.75" fill="#5acd8c"/><circle cx="338.354" cy="351.777" r="2.21" fill="#5acd8c"/><circle cx="299.84" cy="348.601" r="1.5" fill="#5acd8c"/><circle cx="273.295" cy="349.62" r="1.27" fill="#23b475"/><circle cx="311.686" cy="360" r="2" fill="#5acd8c"/><circle cx="199.628" cy="311.923" r="1.692" fill="#34be71"/><circle cx="432.859" cy="348.601" r="1.692" fill="#5acd8c"/><circle cx="294.254" cy="322.264" r="1.692" fill="#34be71"/><circle cx="255.392" cy="308.478" r="1" fill="#34be71"/><circle cx="348.488" cy="322.762" r="2" fill="#34be71"/><circle cx="294.382" cy="308.044" r="2" fill="#5acd8c"/><circle cx="261.741" cy="311.654" r=".994" fill="#34be71"/><circle cx="327.351" cy="344.092" r="1.5" fill="#23b475"/><circle cx="331.716" cy="314.212" r="1.576" fill="#34be71"/><circle cx="318.068" cy="351.576" r="1.75" fill="#34be71"/><circle cx="480.245" cy="309.544" r="1.5" fill="#34be71"/><circle cx="159.532" cy="343.001" r="1.692" fill="#23b475"/><circle cx="288.77" cy="314.439" r="2" fill="#34be71"/><circle cx="274.777" cy="314.961" r="1.577" fill="#34be71"/><circle cx="288.192" cy="311.157" r="1.576" fill="#34be71"/><circle cx="318.067" cy="323.761" r="2.358" fill="#23b475"/><circle cx="496.866" cy="312.718" r="1" fill="#34be71"/><circle cx="400.626" cy="344.977" r="2.211" fill="#23b475"/><circle cx="555.679" cy="324.165" r="1" fill="#34be71"/><circle cx="216.487" cy="351.778" r="2.158" fill="#23b475"/><circle cx="345.099" cy="343.15" r="1.27" fill="#23b475"/><circle cx="306.449" cy="343.556" r="2.359" fill="#23b475"/><ellipse cx="363.039" cy="343.065" rx="1.684" ry="2.142" fill="#23b475"/><circle cx="279.073" cy="341.194" r="2.158" fill="#23b475"/><path fill="none" d="M135-5h370v370H135z"/></g><g><path d="M538.574 127.311c5.287-2.364 11.491.009 13.855 5.3-2.364-5.291.009-11.495 5.295-13.859 5.287-2.361 13.686.119 10.41 1.064l-9.076 2.612c-4.578 1.316-7.231 5.695-6.625 10.19-2.941-3.446-7.977-4.396-12.01-1.865l-8.003 5.023c-2.889 1.811.863-6.105 6.154-8.465z" fill="#6d92a4"/><path d="M394.725 143.67a2.337 2.337 0 0 1 1.932 2.679 2.335 2.335 0 0 1 2.678-1.932c1.273.207 2.533 1.694 1.808 1.47l-2.009-.624a2.058 2.058 0 0 0-2.477 1.088 2.058 2.058 0 0 0-2.008-1.814l-2.102-.043c-.759-.016.905-1.03 2.178-.824zM569.768 134.886l2.137-1.341a2.469 2.469 0 0 1 3.206.498 2.468 2.468 0 0 1 1.769-2.721l2.424-.698c.875-.252-1.368-.915-2.779-.284a2.802 2.802 0 0 0-1.414 3.701 2.8 2.8 0 0 0-3.699-1.415c-1.414.63-2.416 2.743-1.644 2.26zM395.439 91.17a6.49 6.49 0 0 1 5.365 7.44 6.487 6.487 0 0 1 7.44-5.365c3.535.575 7.033 4.707 5.02 4.082l-5.579-1.73c-2.813-.871-5.671.493-6.883 3.022-.35-2.782-2.632-4.98-5.577-5.041l-5.839-.121c-2.109-.044 2.515-2.859 6.053-2.287z" fill="#48606c"/><path d="M389.385 93.457l5.839.121c2.945.061 5.227 2.258 5.577 5.041 1.212-2.529 4.07-3.893 6.884-3.022l5.579 1.73c2.013.625-1.485-3.506-5.021-4.082a6.489 6.489 0 0 0-7.44 5.365 6.49 6.49 0 0 0-5.364-7.44c-3.538-.572-8.162 2.243-6.054 2.287z" fill="#48606c"/><path d="M85.373 56.531l4.905.101c2.474.054 4.391 1.897 4.687 4.234 1.016-2.122 3.417-3.269 5.78-2.539l4.687 1.456c1.694.523-1.248-2.948-4.217-3.43a5.448 5.448 0 0 0-6.25 4.509 5.452 5.452 0 0 0-4.508-6.252c-2.97-.48-6.855 1.885-5.084 1.921zM115.303 111.129c5.717.929 9.604 6.314 8.676 12.031.929-5.717 6.315-9.604 12.031-8.676 5.721.929 11.379 7.61 8.118 6.599l-9.022-2.794c-4.548-1.412-9.171.793-11.127 4.883-.569-4.499-4.255-8.053-9.019-8.147l-9.442-.198c-3.414-.07 4.069-4.621 9.785-3.698z" fill="#6d92a4"/><path d="M105.518 114.827l9.442.198c4.764.095 8.449 3.648 9.019 8.147 1.956-4.091 6.579-6.295 11.127-4.883l9.022 2.794c3.261 1.012-2.397-5.671-8.118-6.6-5.716-.929-11.103 2.96-12.031 8.676.929-5.716-2.959-11.102-8.676-12.031-5.716-.923-13.199 3.629-9.785 3.699z" fill="#6d92a4"/><path fill="none" d="M135-5h370v370H135z"/></g></svg>