<svg xmlns="http://www.w3.org/2000/svg" width="370" height="370" viewBox="0 0 370 370"><path fill="none" d="M0 186.908h370V370H0z"/><path fill="#d0fff0" d="M0 0h370v186.908H0z"/><path d="M243.059 0c26.11 29.188 41.994 67.717 41.994 109.962 0 27.022-6.497 52.526-18.013 75.038H0v185h370V0H243.059z" fill="none"/><path d="M285.053 109.962c0-42.245-15.884-80.774-41.994-109.962H0v185h267.04c11.516-22.512 18.013-48.016 18.013-75.038z" fill="#d9fee6"/><path d="M207.018 0c32.425 25.678 53.229 65.389 53.229 109.962 0 27.604-7.983 53.341-21.759 75.038H1.617c-.554-.872-1.083-1.762-1.617-2.646V370h370V0H207.018zM33.087 0H0v37.53A140.946 140.946 0 0 1 33.087 0z" fill="none"/><path d="M238.488 185c13.776-21.697 21.759-47.435 21.759-75.038 0-44.573-20.805-84.284-53.229-109.962H33.087A140.946 140.946 0 0 0 0 37.53v144.823c.535.885 1.063 1.774 1.617 2.646h236.871z" fill="#e3fddb"/><path d="M222.398 109.962c0-56.524-45.822-102.346-102.346-102.346S17.706 53.437 17.706 109.962c0 29.648 12.612 56.347 32.757 75.038h139.176c20.148-18.691 32.759-45.39 32.759-75.038z" fill="#f8fbc6"/><circle cx="120.052" cy="109.961" r="38.68" fill="#fffff5"/><g><path d="M0 370h370V0H0v370zM250.748 59.153a21.066 21.066 0 0 1 9.962-2.492c1.764 0 3.45.282 5.092.684a30.777 30.777 0 0 1 8.37-6.397 29.692 29.692 0 0 1 13.753-3.362c13.482 0 24.9 8.829 28.801 21.018 8.356 1.134 14.801 8.282 14.801 16.944H240.225c0-2.781.676-5.4 1.854-7.722h-2.533c-.001-8.089 4.536-15.11 11.202-18.673z" fill="none"/><path d="M276.852 58.49a28.311 28.311 0 0 1 9.023-1.474c9.711 0 18.258 4.878 23.409 12.278 1.627-.508 3.326-.865 5.123-.865.788 0 1.559.072 2.318.175-3.9-12.189-15.318-21.018-28.801-21.018-4.968 0-9.635 1.22-13.753 3.362.953 2.485 1.84 5.003 2.674 7.545l.007-.003z" fill="#dffff2"/><path d="M257.343 68.428c1.797 0 3.496.357 5.117.865a28.686 28.686 0 0 1 14.386-10.801 162.816 162.816 0 0 0-2.674-7.545 30.762 30.762 0 0 0-8.37 6.397c-1.642-.401-3.328-.684-5.092-.684-3.604 0-6.993.905-9.962 2.492a139.794 139.794 0 0 1 3.33 9.595 17.213 17.213 0 0 1 3.265-.319z" fill="#e3feea"/><path d="M254.078 68.748a139.075 139.075 0 0 0-3.33-9.595c-6.666 3.563-11.203 10.584-11.203 18.673h2.533c2.352-4.634 6.741-8.061 12-9.078z" fill="#e3feea"/><path d="M309.284 69.293c-5.151-7.399-13.698-12.278-23.409-12.278-3.157 0-6.188.523-9.023 1.474a163.87 163.87 0 0 1 6.397 27.058h48.277c0-8.662-6.444-15.81-14.801-16.944-.76-.104-1.53-.175-2.318-.175-1.797 0-3.496.358-5.123.865z" fill="#f3fff4"/><path d="M276.852 58.49l-.006.002a28.697 28.697 0 0 0-14.386 10.801c-1.621-.508-3.32-.865-5.117-.865-1.118 0-2.207.115-3.265.32a139.212 139.212 0 0 1 4.049 16.799h25.122a163.96 163.96 0 0 0-6.397-27.057z" fill="#eafee2"/><path d="M254.078 68.748c-5.258 1.017-9.647 4.444-12 9.078a17.007 17.007 0 0 0-1.854 7.722h17.903a139.183 139.183 0 0 0-4.049-16.8z" fill="#eafee2"/></g><g><path d="M51.487 146.9c1.74.421 3.422 1.288 5.067 2.469 22.348-12.309 49.443-22.134 72.576-15.758 7.986 2.203 14.387 12.515 19.678 29.126.977.739 2.696 2.118 4.813 3.843.36-.499.722-.992 1.067-1.515 11.141-16.868 18.511-18.083 24.621-14.692 25.483-34.826 30.156 16.467 49.363-1.704 11.348-10.736 28.672-8.211 46.483-.02 21.042-10.682 45.357-18.285 66.396-12.486 7.986 2.203 14.387 12.513 19.678 29.125.977.74 2.696 2.118 4.813 3.843.36-.498.722-.992 1.067-1.515a93.618 93.618 0 0 1 2.889-4.139V0H0v151.71c13.048-4.147 35.411-8.7 51.487-4.81zM0 222.521h370V370H0z" fill="none"/><path d="M370 163.479a93.873 93.873 0 0 0-2.889 4.139c-.346.523-.707 1.017-1.067 1.515-2.117-1.726-3.837-3.104-4.813-3.843-5.291-16.613-11.691-26.923-19.678-29.125-21.039-5.799-45.354 1.804-66.396 12.486-17.812-8.191-35.135-10.716-46.483.02-19.207 18.171-23.88-33.122-49.363 1.704-6.11-3.391-13.48-2.176-24.621 14.692-.346.522-.707 1.016-1.067 1.515-2.117-1.726-3.837-3.104-4.813-3.843-5.291-16.612-11.691-26.923-19.678-29.126-23.133-6.375-50.228 3.45-72.576 15.758-1.645-1.181-3.327-2.048-5.067-2.469-16.076-3.89-38.438.663-51.487 4.81v70.811h370v-59.044z" fill="#82a5a0"/><g><path d="M0 242v128h370V242H0zM14.893 188.095c6.677-.7 12.496-4.781 18.504-7.417 6.093-2.672 12.551-4.644 18.908-6.577 2.568 1.82 5.257 3.854 8.029 5.974a28.322 28.322 0 0 0-.2 3.289c0 1.017.086 2.009.207 2.989h53.927v17.099h3.027c6.084-4.67 11.936-9.138 17.503-13.09 1.313.399 2.606.804 3.899 1.208 1.23-.897 15.219-11.591 17.209-12.978 4.524-3.152 8.13 1.604 12.733 1.707l37.188.829c-.821-.799 15.468-4.515 25.292 3.416 7.995 6.453 17.375 13.427 26.845 17.444a21.59 21.59 0 0 0 4.986 1.463h6.46c5.585-.85 10.85-3.634 16.933-5.674 8.856-2.97 15.187-6.116 22.431-12.164 6.685-5.582 12.118-12.076 21.462-9.409 9.546 2.727 17.962 8.529 27.488 11.094 3.843 1.035 8.164 2.033 12.274 1.968V0H0v187.359c.163.01.33.023.49.032 4.624.276 9.783 1.189 14.403.704z" fill="none"/><path d="M370 189.267c-4.11.064-8.432-.934-12.274-1.968-9.526-2.564-17.942-8.367-27.488-11.094-9.344-2.667-14.777 3.827-21.462 9.409-7.244 6.048-13.574 9.194-22.431 12.164-6.083 2.04-11.348 4.824-16.933 5.674h-6.46a21.604 21.604 0 0 1-4.986-1.463c-9.469-4.018-18.85-10.991-26.845-17.444-9.824-7.931-26.113-4.215-25.292-3.416l-37.188-.829c-4.604-.103-8.209-4.859-12.733-1.707-1.99 1.387-15.979 12.08-17.209 12.978-1.293-.404-2.587-.809-3.899-1.208-5.567 3.952-11.419 8.42-17.503 13.09h-3.027v-17.099H60.342a24.31 24.31 0 0 1-.207-2.989c0-1.114.073-2.21.2-3.289-2.772-2.12-5.461-4.153-8.029-5.974-6.357 1.934-12.815 3.905-18.908 6.577-6.008 2.636-11.827 6.717-18.504 7.417-4.62.484-9.779-.429-14.403-.704-.16-.009-.327-.022-.49-.032V242h370v-52.733z" fill="#96beb4"/></g></g><g><path fill="none" d="M0 0h370v241H0zM0 257h370v113H0z"/><path fill="#00a07d" d="M0 241h370v16H0z"/><path fill="none" d="M0 0h370v256H0zM0 311h370v59H0z"/><path fill="#11aa79" d="M0 256h370v55H0z"/><g><path fill="none" d="M0 0h370v308H0zM0 345h370v25H0z"/><path fill="#23b475" d="M0 308h370v37H0z"/></g><g><path fill="none" d="M0 0h370v343H0z"/><path fill="#34be71" d="M0 343h370v27H0z"/></g></g><g><path d="M296.052 247.514c0-3.108 12.551-8.226 23.839-11.539v-.802c-2.07-.477-3.648-2.929-3.648-7.373 0-1.635.292-4.828.743-8.377.924-7.258 2.517-16.011 3.663-16.011 1.147 0 2.74 8.753 3.664 16.011.451 3.549.743 6.742.743 8.377 0 4.444-1.577 6.896-3.648 7.373v.364c3.363-.948 6.546-1.713 9.187-2.196v-6.458c-2.644-.557-4.695-3.276-4.936-8.174a18.457 18.457 0 0 1-.025-.982c0-6.176 3.671-30.265 5.991-30.265 2.319 0 5.989 24.089 5.989 30.265 0 .336-.009.664-.023.982-.241 4.898-2.293 7.617-4.936 8.174v6.122c1.081-.149 2.023-.231 2.777-.231 3.652 0 8.506 1.122 12.946 2.387v-7.12c-2.644-.557-4.695-3.276-4.936-8.174a18.457 18.457 0 0 1-.025-.982c0-6.176 3.671-30.265 5.991-30.265 2.319 0 5.989 24.089 5.989 30.265 0 .336-.009.664-.023.982-.241 4.898-2.293 7.617-4.936 8.174v7.574c0 .051-.007.098-.011.147 4.853 1.46 8.849 2.908 9.616 2.908 3.841 0 7.329.886 9.956 2.324V0H0v225.613c.748-.124 1.417-.194 1.977-.194 1.952 0 4.248.478 6.64 1.206v-3.935c-4.575-.469-8.125-2.757-8.542-6.878a8.227 8.227 0 0 1-.042-.826c0-5.196 6.351-25.463 10.366-25.463 4.014 0 10.362 20.267 10.362 25.463 0 .283-.015.558-.042.826-.417 4.121-3.966 6.409-8.54 6.878v5.162c6.794 2.585 13.399 6.305 14.411 6.305 8.156 0 14.77 5.866 14.77 13.106H0V370h370V247.514h-73.948zm-155.419-43.4c-3.521 2.963-6.822 6.309-10.198 9.458 2.1 1.958 4.2 3.919 6.298 5.878.925-.863 1.858-1.741 2.789-2.585.349 3.953.644 8.021.626 11.984-.038 8.567-15.086 12.097-22.031 15.356-5.605 2.631-12.357 4.533-17.602 7.663-.069.041-.131.091-.198.135v43.733c-5.086 1.706-9.834 4.683-14.092 8.702v-49.386a31.155 31.155 0 0 1-2.464-1.138c-2.457-1.286-3.914-3.433-6.694-4.172-2.915-.774-6.298-.435-9.326-1.237-5.835-1.547-11.216-4.508-15.514-8.535-4.502-4.219-7.791-9.562-9.357-15.538a31.193 31.193 0 0 1-.985-6.462c-.023-.485-.04-.972-.04-1.461 0-12.978 7.981-24.19 19.595-29.669-1.08-2.873-1.782-5.913-1.782-9.13 0-1.106.078-2.195.212-3.268a26.2 26.2 0 0 1 2.815-8.929c1.748-3.324 4.196-6.264 7.153-8.674-.671.133-1.337.28-1.997.443a31.278 31.278 0 0 1 17.297-7.155c.082-.007.166-.011.248-.017a30.378 30.378 0 0 1 2.656-.114c10.153 0 19.089 4.655 24.544 11.74 1.796-.393 3.645-.656 5.573-.656 13.306 0 24.092 9.928 24.092 22.173 0 .045-.007.087-.007.132-.02 2.541-.584 4.945-1.455 7.216.088.068.16.151.248.219a25.471 25.471 0 0 1 8.614 4.408l-9.32 8.577c.101.103.21.204.302.309z" fill="none"/><path d="M76.478 156.255c-.286-.007-.569-.024-.856-.024-1.921 0-3.774.226-5.582.574-.2.162-.411.312-.607.478 2.267-.569 4.606-.966 7.045-1.028zM106.358 167.332c-.207-.005-.412-.015-.62-.015-1.581 0-3.106.181-4.595.461.05.065.106.127.156.193 1.634-.363 3.316-.603 5.059-.639z" fill="none"/><path d="M96.641 255.713c-.459.406-.963.74-1.558.941-2.162.731-6.007-.425-8.857-1.602v49.386c4.258-4.02 9.006-6.996 14.092-8.702v-43.733c-1.517.996-2.439 2.614-3.677 3.71z" fill="#937772"/><path d="M128.617 197.055c-.088-.068-.159-.151-.248-.218.888-2.31 1.461-4.758 1.461-7.348 0-12.054-10.454-21.853-23.472-22.156-1.743.036-3.425.276-5.06.64-.05-.066-.105-.128-.156-.193-.327.062-.654.123-.978.193-5.3-6.882-13.891-11.462-23.687-11.717-2.439.062-4.778.459-7.045 1.027.196-.167.407-.316.607-.478-.066.013-.134.021-.201.035-2.957 2.41-5.405 5.35-7.153 8.674a26.177 26.177 0 0 0-2.815 8.929 26.314 26.314 0 0 0-.212 3.268c0 3.218.702 6.258 1.782 9.13-11.614 5.479-19.595 16.692-19.595 29.669 0 .49.017.977.04 1.461a31.25 31.25 0 0 0 .985 6.462c1.566 5.976 4.854 11.319 9.357 15.538 4.298 4.027 9.679 6.988 15.514 8.535 3.028.803 6.411.463 9.326 1.237 2.78.739 4.238 2.886 6.694 4.172a31.52 31.52 0 0 0 2.464 1.138c2.85 1.177 6.695 2.333 8.857 1.602.595-.201 1.099-.535 1.558-.941 1.238-1.096 2.16-2.714 3.677-3.71.067-.044.128-.094.198-.135 5.245-3.13 11.997-5.032 17.602-7.663 6.945-3.26 21.993-6.789 22.031-15.356.018-3.963-.278-8.031-.626-11.984-.931.845-1.863 1.723-2.789 2.585l-6.298-5.878c3.376-3.149 6.677-6.495 10.198-9.458-.092-.104-.201-.206-.299-.309l-.288.265c-2.977-3.238-6.921-5.703-11.429-7.016z" fill="#71be63"/><path d="M141.039 190.819c-.087-.067-.159-.15-.248-.219.87-2.271 1.435-4.675 1.455-7.216 0-.044.007-.087.007-.132 0-12.245-10.786-22.173-24.092-22.173-1.928 0-3.777.263-5.573.656-5.455-7.084-14.391-11.74-24.544-11.74a31.71 31.71 0 0 0-2.656.114c-.083.006-.167.01-.248.017a31.278 31.278 0 0 0-17.297 7.155 42.17 42.17 0 0 1 1.997-.443c.066-.013.134-.022.201-.035 1.808-.348 3.66-.574 5.582-.574.288 0 .571.017.856.024 9.796.255 18.387 4.834 23.687 11.717.323-.071.65-.132.978-.193 1.489-.28 3.015-.461 4.595-.461.208 0 .414.01.62.015 13.018.303 23.472 10.103 23.472 22.156 0 2.59-.573 5.039-1.461 7.348.089.067.16.15.248.218 4.508 1.313 8.452 3.778 11.429 7.015l.288-.265 9.32-8.577a25.515 25.515 0 0 0-8.616-4.407z" fill="#94d75b"/><path d="M26.59 234.157c-1.011 0-7.616-3.719-14.411-6.305v1.21c0 .64-.798 1.163-1.781 1.163-.985 0-1.782-.523-1.782-1.163v-2.438c-2.392-.728-4.688-1.206-6.64-1.206-.561 0-1.229.07-1.977.194v21.65h41.359c.001-7.239-6.612-13.105-14.768-13.105zM350.428 235.762c-.056.691-.488 1.235-1.02 1.235-.568 0-1.03-.621-1.03-1.383v-.454c-4.44-1.265-9.294-2.387-12.946-2.387-.754 0-1.696.082-2.777.231v1.452c0 .762-.462 1.383-1.03 1.383s-1.03-.621-1.03-1.383v-1.116c-2.641.483-5.823 1.248-9.187 2.196v5.738c0 .62-.339 1.118-.759 1.118-.418 0-.758-.498-.758-1.118v-5.301c-11.288 3.313-23.839 8.431-23.839 11.539H370v-6.52c-2.627-1.438-6.115-2.324-9.956-2.324-.768.002-4.764-1.446-9.616-2.906z" fill="#00a07d"/><path d="M10.398 230.226c.983 0 1.781-.523 1.781-1.163v-6.372c4.573-.469 8.123-2.757 8.54-6.878.027-.268.042-.543.042-.826 0-5.196-6.349-25.463-10.362-25.463-4.015 0-10.366 20.267-10.366 25.463 0 .283.015.558.042.826.417 4.121 3.967 6.409 8.542 6.878v6.373c0 .639.797 1.162 1.781 1.162zM320.648 242.394c.42 0 .759-.498.759-1.118v-6.102c2.071-.477 3.648-2.929 3.648-7.373 0-1.635-.292-4.828-.743-8.377-.924-7.258-2.517-16.011-3.664-16.011-1.146 0-2.739 8.753-3.663 16.011-.451 3.549-.743 6.742-.743 8.377 0 4.444 1.578 6.896 3.648 7.373v6.103c.001.619.34 1.117.758 1.117zM331.624 235.84c.568 0 1.03-.621 1.03-1.383v-7.574c2.643-.557 4.694-3.276 4.936-8.174.015-.319.023-.646.023-.982 0-6.176-3.67-30.265-5.989-30.265-2.32 0-5.991 24.089-5.991 30.265 0 .336.009.664.025.982.24 4.898 2.292 7.617 4.936 8.174v7.574c0 .762.462 1.383 1.03 1.383zM349.408 236.997c.531 0 .964-.544 1.02-1.235.004-.05.011-.097.011-.147v-7.574c2.643-.557 4.694-3.276 4.936-8.174.015-.319.023-.646.023-.982 0-6.176-3.67-30.265-5.989-30.265-2.32 0-5.991 24.089-5.991 30.265 0 .336.009.664.025.982.24 4.898 2.292 7.617 4.936 8.174v7.574c-.001.761.461 1.382 1.029 1.382z" fill="#00a07d"/></g><g><g fill="#556483"><path d="M151.085 221.145h13.755v2.751h-13.755zM195.101 215.644h-19.257v24.758h19.257v-24.758zm-16.505 5.501v-2.752h13.755v2.752h1.375v2.751h-1.375v13.754h-13.755v-13.754h-1.376v-2.751h1.376z"/><path d="M178.596 223.896h15.13v-2.751H177.22v2.751zM203.354 240.402h19.256v-24.758h-19.256v24.758zm16.505-16.506v13.754h-13.754v-13.754h-1.376v-2.751h1.376v-2.752h13.754v2.752h1.376v2.751h-1.376z"/><path d="M219.859 221.145H204.729v2.751h16.506v-2.751zM206.105 259.658h-19.256v24.76h19.256v-24.76zm-17.882 5.502h1.375v-2.75h13.756v2.75h1.375v2.752h-1.375v13.754h-13.756v-13.754h-1.375v-2.752z"/><path d="M203.354 267.912h1.375v-2.752h-16.506v2.752h1.376zM233.614 259.658h-19.257v24.76h19.257v-24.76zm-17.881 5.502h1.376v-2.75h13.755v2.75h1.375v2.752h-1.375v13.754h-13.755v-13.754h-1.376v-2.752z"/><path d="M230.864 267.912h1.375v-2.752h-16.506v2.752h1.376zM241.868 284.418h19.258v-24.76h-19.258v24.76zm1.375-19.258h1.375v-2.75h13.755v2.75h1.375v2.752h-1.375v13.754h-13.755v-13.754h-1.375v-2.752z"/><path d="M258.373 267.912h1.375v-2.752H243.243v2.752h1.375zM129.077 259.658H109.82v21.16c.929.051 1.844.143 2.751.256v-13.162h-1.375v-2.752h1.375v-2.75h13.755v2.75h1.375v2.752h-1.375v13.754h-10.253a36.755 36.755 0 0 1 7.964 2.752h5.04v-24.76z"/><path d="M127.701 267.912v-2.752H111.196v2.752h15.131zM137.331 284.418h19.256v-24.76h-19.256v24.76zm1.376-19.258h1.375v-2.75h13.755v2.75h1.376v2.752h-1.376v13.754h-13.755v-13.754h-1.375v-2.752z"/><path d="M153.836 267.912h1.376v-2.752h-16.505v2.752h1.374zM167.591 215.644h-19.257v24.758h19.257v-24.758zm-2.751 2.749V237.65h-13.755V218.393h13.755z"/></g><g fill="#b1d5ec"><path d="M151.085 218.393h13.755v2.752h-13.755zM151.085 223.896h13.755v13.754h-13.755zM178.596 218.393h13.755v2.752h-13.755zM178.596 223.896h13.755v13.754h-13.755zM206.105 223.896h13.754v13.754h-13.754zM206.105 218.393h13.754v2.752h-13.754zM189.599 262.41h13.756v2.75h-13.756zM189.599 267.912h13.756v13.754h-13.756zM217.109 262.41h13.755v2.75h-13.755zM217.109 267.912h13.755v13.754h-13.755zM244.618 262.41h13.755v2.75h-13.755zM244.618 267.912h13.755v13.754h-13.755zM126.327 267.912h-13.755v13.162c1.188.148 2.358.34 3.502.592h10.253v-13.754zM112.571 262.41h13.755v2.75h-13.755zM140.081 262.41h13.755v2.75h-13.755zM140.081 267.912h13.755v13.754h-13.755z"/></g><path d="M182.722 167.833l-49.518 49.519v17.062l39.325 19.66-3.687 7.383-2.627-1.313v35.252c.419-.027.837-.059 1.265-.059 3.399 0 6.558.879 9.205 2.377H278.01a17.73 17.73 0 0 1 3.747-2.604v-28.242l-99.035-99.035zm39.888 72.569h-19.256v-24.758h19.256v24.758zm-46.766-24.758h19.257v24.758h-19.257v-24.758zm-27.51 24.758v-24.758h19.257v24.758h-19.257zm38.515 44.016v-24.76h19.256v24.76h-19.256zm27.508 0v-24.76h19.257v24.76h-19.257zm46.769 0h-19.258v-24.76h19.258v24.76z" fill="#cdbea0"/><path d="M133.204 243.639l-33.011 16.506v21.363a38.7 38.7 0 0 1 9.628-.689v-21.16h19.257v24.76h-5.04c4.547 2.186 8.458 5.248 11.417 8.928 1.926-.527 3.938-.889 6.065-.889 6.173 0 11.692 2.395 15.411 6.158.13-.092.262-.182.396-.268.27-.18.545-.35.827-.514.055-.033.11-.063.166-.094 2.303-1.314 4.987-2.152 7.896-2.344v-35.252l-33.012-16.505zm23.382 40.779H137.33v-24.76h19.256v24.76z" fill="#e6e1dc"/><path fill="#674447" d="M176.686 297.715H278.01v5.557H176.686zM166.173 172.713l-23.18 23.181-8.777 8.776-9.432 9.432 5.836 5.834 2.584-2.584 49.518-49.519 99.035 99.036 2.583 2.582 5.836-5.834-23.311-23.31-66.4-66.4-17.743-17.742z"/><path fill="#745154" d="M93.879 254.074l1.365 2.735 2.321 4.648 2.627-1.312 33.012-16.506 33.011 16.506 2.627 1.312 3.687-7.383-39.325-19.66z"/><path fill="none" d="M0 0h370v370H0z"/></g><g><path d="M88.476 305.101H31.701c0-5.61 4.764-10.154 10.643-10.154 1.12 0 2.172.209 3.185.514 3.206-4.396 8.521-7.283 14.558-7.283 6.036 0 11.352 2.888 14.558 7.283 1.013-.305 2.067-.514 3.184-.514 5.879-.001 10.647 4.544 10.647 10.154zM164.532 290.798a18.54 18.54 0 0 0-6.213 2.13l-.166.094c-.283.162-.557.336-.827.514-.134.087-.265.177-.396.268-.061.042-.118.088-.177.13-.174.126-.35.249-.519.381-.375.292-.739.596-1.083.917-.914-.196-1.853-.333-2.836-.333-2.291 0-4.422.574-6.232 1.553-1.728.934-3.163 2.234-4.138 3.787-.908 1.446-1.423 3.103-1.423 4.863h37.718c.001-7.121-5.907-13.028-13.708-14.304z" fill="#71be63"/><path d="M101.288 276.563c8.743 1.496 16.317 5.772 21.23 11.882 1.927-.526 3.938-.889 6.065-.889 7.518 0 14.065 3.549 17.567 8.807a13.086 13.086 0 0 1 6.232-1.553c.983 0 1.923.134 2.836.333.344-.321.708-.625 1.083-.917.168-.132.345-.255.519-.381.06-.042.117-.088.177-.13-3.719-3.764-9.238-6.158-15.411-6.158-2.127 0-4.139.362-6.065.889-2.959-3.68-6.87-6.741-11.417-8.927a36.648 36.648 0 0 0-7.964-2.752 38.288 38.288 0 0 0-3.502-.593 39.3 39.3 0 0 0-2.751-.255 38.7 38.7 0 0 0-9.628.689c-3.847.762-7.439 2.091-10.66 3.885a33.395 33.395 0 0 0-6.49 4.7c4.758-4.37 11.083-7.416 18.179-8.63z" fill="#34be71"/><path d="M140.589 305.014c0-1.761.516-3.417 1.423-4.863.976-1.553 2.411-2.854 4.138-3.787-3.502-5.258-10.049-8.807-17.567-8.807-2.128 0-4.138.362-6.065.889-4.913-6.109-12.487-10.386-21.23-11.882-7.095 1.214-13.421 4.26-18.179 8.631l-.032.029c-.305.281-.6.569-.891.86-.186.186-.366.376-.546.565-.169.179-.34.356-.505.538-.371.411-.732.829-1.077 1.258-1.928-.526-3.939-.889-6.066-.889-11.199 0-20.278 7.855-20.278 17.544H148.862c0-.029-.005-.058-.005-.087h-8.268z" fill="#0e8e65"/><path d="M164.599 290.711c7.801 1.276 13.708 7.184 13.708 14.303h6.088c0-2.395-.68-4.648-1.863-6.642-1.341-2.259-3.337-4.174-5.78-5.557-2.647-1.498-5.806-2.376-9.205-2.376-.428 0-.846.031-1.265.059-2.909.191-5.593 1.028-7.896 2.343a18.524 18.524 0 0 1 6.213-2.13zM263.45 295.185c-1.013-.306-2.065-.515-3.186-.515-3.17 0-6.008 1.329-7.958 3.427-1.666 1.792-2.685 4.144-2.685 6.729h56.774c0-5.609-4.768-10.155-10.646-10.155-1.117 0-2.172.209-3.185.515-3.205-4.396-8.521-7.284-14.558-7.284-3.051 0-5.915.739-8.418 2.036a17.767 17.767 0 0 0-3.747 2.604c-.885.8-1.691 1.683-2.391 2.643z" fill="#71be63"/></g><g><path d="M0 370h370V0H0v370zm159.254-41.044a1.692 1.692 0 1 1 0-3.384 1.692 1.692 0 0 1 0 3.384zm23.814 29.37a1.75 1.75 0 1 1 0-3.5 1.75 1.75 0 0 1 0 3.5zm178.798-41.608a1 1 0 1 1 .001 2 1 1 0 0 1-.001-2zm-16.621-3.674a1.5 1.5 0 1 1 0 3 1.5 1.5 0 0 1 0-3zm-38.269 15.075a1.5 1.5 0 1 1 0 3 1.5 1.5 0 0 1 0-3zm-7.425 25.482a1.691 1.691 0 1 1-1.691-1.692 1.69 1.69 0 0 1 1.691 1.692zm-3.456-31.938a2.21 2.21 0 1 1 0 4.421 2.21 2.21 0 1 1 0-4.421zm-30.469 26.104a2.21 2.21 0 1 1 0 4.421 2.21 2.21 0 1 1 0-4.421zm-11.184-21.148a1.5 1.5 0 1 1 0 3.001 1.5 1.5 0 0 1 0-3.001zm-20.829 21.574a1.501 1.501 0 0 1 0 3 1.5 1.5 0 0 1 0-3zm-5.574-2.269c.93 0 1.684.959 1.684 2.143 0 1.183-.754 2.141-1.684 2.141s-1.684-.958-1.684-2.141c0-1.184.754-2.143 1.684-2.143zm-10.93-31.63a1.75 1.75 0 1 1 .001 3.499 1.75 1.75 0 0 1-.001-3.499zm-3.621 11.468a2 2 0 1 1-.002 4.002 2 2 0 0 1 .002-4.002zm-3.389 21.12a1.27 1.27 0 1 1 0 2.54 1.27 1.27 0 0 1 0-2.54zm-6.745 7.685a2.21 2.21 0 1 1 .001 4.42 2.21 2.21 0 0 1-.001-4.42zm-6.638-36.93a1.576 1.576 0 1 1 0 3.151 1.576 1.576 0 0 1 0-3.151zm-4.365 29.955a1.5 1.5 0 1 1 0 3 1.5 1.5 0 0 1 0-3zm-9.284-21.19a2.358 2.358 0 1 1-.001 4.717 2.358 2.358 0 0 1 .001-4.717zM176.686 363a2 2 0 1 1 .001 3.999 2 2 0 0 1-.001-3.999zm-5.237-16.803a2.36 2.36 0 1 1-.002 4.718 2.36 2.36 0 0 1 .002-4.718zm-6.609 5.904a1.5 1.5 0 1 1 0 3 1.5 1.5 0 0 1 0-3zm-5.458-41.057a2 2 0 1 1-.002 4.002 2 2 0 0 1 .002-4.002zm-6.19 3.537a1.576 1.576 0 0 1 .871 2.888 1.996 1.996 0 0 1-.293 3.971 1.994 1.994 0 1 1-.942-3.754 1.574 1.574 0 0 1 .364-3.105zm-9.118 29.456a2.157 2.157 0 1 1 .002 4.316 2.157 2.157 0 0 1-.002-4.316zm-4.297-25.652a1.577 1.577 0 1 1-.003 3.153 1.577 1.577 0 0 1 .003-3.153zm-1.482 34.966a1.27 1.27 0 1 1 .002 2.538 1.27 1.27 0 0 1-.002-2.538zm-11.554-37.691a.994.994 0 1 1 0 1.988.994.994 0 0 1 0-1.988zm-1.245 33.432a1.75 1.75 0 1 1 .001 3.499 1.75 1.75 0 0 1-.001-3.499zm-5.104-36.614a1 1 0 1 1 0 2 1 1 0 0 1 0-2zm-34.166-2.923a1.75 1.75 0 1 1 .001 3.499 1.75 1.75 0 0 1-.001-3.499zm-4.739 45.065a2.158 2.158 0 1 1 0 4.316 2.158 2.158 0 0 1 0-4.316zm-16.859-39.39a1.692 1.692 0 1 1 0 3.384 1.692 1.692 0 0 1 0-3.384zm-10.927 5.382a1.75 1.75 0 1 1 .001 3.499 1.75 1.75 0 0 1-.001-3.499zm-29.169 25.697a1.692 1.692 0 1 1 0 3.384 1.692 1.692 0 0 1 0-3.384z" fill="none"/><circle cx="254.442" cy="328.119" r="1.5" fill="#5acd8c"/><circle cx="53.701" cy="322.362" r="1.75" fill="#5acd8c"/><circle cx="217.109" cy="316.044" r="1.75" fill="#5acd8c"/><circle cx="125.496" cy="350.842" r="1.75" fill="#23b475"/><circle cx="296.095" cy="323.874" r="2.21" fill="#5acd8c"/><circle cx="306.976" cy="329.619" r="1.5" fill="#5acd8c"/><circle cx="233.613" cy="349.693" r="1.5" fill="#5acd8c"/><circle cx="86.226" cy="311.305" r="1.75" fill="#5acd8c"/><circle cx="203.354" cy="356.778" r="2.21" fill="#5acd8c"/><circle cx="164.84" cy="353.601" r="1.5" fill="#5acd8c"/><circle cx="138.295" cy="354.62" r="1.269" fill="#23b475"/><circle cx="176.686" cy="365" r="2" fill="#5acd8c"/><circle cx="64.628" cy="316.923" r="1.692" fill="#34be71"/><circle cx="297.859" cy="353.601" r="1.692" fill="#5acd8c"/><circle cx="159.254" cy="327.264" r="1.692" fill="#34be71"/><circle cx="120.392" cy="313.478" r="1" fill="#34be71"/><circle cx="213.488" cy="327.762" r="2" fill="#34be71"/><circle cx="159.382" cy="313.044" r="2" fill="#5acd8c"/><circle cx="126.741" cy="316.654" r=".994" fill="#34be71"/><circle cx="192.351" cy="349.092" r="1.5" fill="#23b475"/><circle cx="196.716" cy="319.212" r="1.576" fill="#34be71"/><circle cx="183.068" cy="356.576" r="1.75" fill="#34be71"/><circle cx="345.245" cy="314.544" r="1.5" fill="#34be71"/><circle cx="24.532" cy="348.001" r="1.692" fill="#23b475"/><path d="M152.828 317.686a1.994 1.994 0 0 0 .942 3.754 1.996 1.996 0 1 0 .293-3.971c-.25.166-.548.264-.871.264a1.613 1.613 0 0 1-.364-.047z" fill="#34be71"/><circle cx="139.777" cy="319.961" r="1.577" fill="#34be71"/><path d="M152.828 317.686c.118.028.239.047.365.047.322 0 .621-.098.871-.264a1.576 1.576 0 1 0-2.447-1.312 1.572 1.572 0 0 0 1.211 1.529z" fill="#34be71"/><circle cx="183.067" cy="328.761" r="2.358" fill="#23b475"/><circle cx="361.866" cy="317.718" r="1" fill="#34be71"/><circle cx="265.626" cy="349.977" r="2.21" fill="#23b475"/><circle cx="81.487" cy="356.778" r="2.158" fill="#23b475"/><circle cx="210.099" cy="348.151" r="1.269" fill="#23b475"/><circle cx="171.449" cy="348.556" r="2.359" fill="#23b475"/><ellipse cx="228.039" cy="348.065" rx="1.684" ry="2.142" fill="#23b475"/><circle cx="144.074" cy="346.195" r="2.158" fill="#23b475"/></g><g><path d="M0 119.372c.335.022.672.058 1.01.112 2.86.464 5.705 2.367 7.427 4.027 1.076 1.038 1.714 1.98 1.643 2.418-.042.263-.34.344-.952.154l-9.022-2.794c-.035-.011-.07-.017-.105-.027V370h370V0H0v119.372zm266.143 31.515l-2.009-.624a2.058 2.058 0 0 0-2.477 1.088 2.058 2.058 0 0 0-2.008-1.814l-2.102-.043c-.759-.016.906-1.029 2.178-.823a2.337 2.337 0 0 1 1.932 2.679 2.335 2.335 0 0 1 2.678-1.932c1.273.206 2.533 1.693 1.808 1.469zM253.944 98c.096-.13.267-.28.497-.438 1.036-.707 3.274-1.559 5.323-1.462.228.011.454.033.675.069a6.49 6.49 0 0 1 5.365 7.435 6.49 6.49 0 0 1 7.439-5.36c1.104.18 2.206.707 3.137 1.328 1.86 1.241 3.039 2.857 2.197 2.817a1.3 1.3 0 0 1-.314-.063l-5.579-1.73a5.763 5.763 0 0 0-2.091-.251c-2.048.135-3.883 1.376-4.792 3.273-.35-2.782-2.632-4.98-5.577-5.041l-5.839-.121c-.527-.01-.633-.194-.441-.456z" fill="none"/><path d="M264.335 149.417a2.335 2.335 0 0 0-2.678 1.932 2.336 2.336 0 0 0-1.932-2.679c-1.272-.206-2.937.808-2.178.823l2.102.043a2.059 2.059 0 0 1 2.008 1.814 2.058 2.058 0 0 1 2.477-1.088l2.009.624c.725.225-.535-1.262-1.808-1.469zM254.441 97.563c-.23.157-.401.307-.497.438.097-.131.267-.281.497-.438zM272.686 100.596l5.578 1.73a1.254 1.254 0 0 0 .001 0l-5.579-1.73zM271.933 98.166a6.488 6.488 0 0 0-6.128 5.439v.005a6.49 6.49 0 0 1 6.128-5.444zM260.225 98.577l-5.839-.121 5.839.121c2.945.061 5.227 2.258 5.577 5.041-.351-2.783-2.632-4.98-5.577-5.041zM254.441 97.563c1.036-.706 3.274-1.559 5.323-1.462-2.048-.097-4.286.755-5.323 1.462z" fill="#48606c"/><path d="M254.385 98.457l5.839.121c2.945.061 5.227 2.258 5.577 5.04.909-1.897 2.744-3.138 4.792-3.273a5.766 5.766 0 0 1 2.092.251l5.579 1.73c.126.039.229.06.313.063.842.04-.337-1.576-2.197-2.817-.931-.621-2.032-1.148-3.137-1.328a6.496 6.496 0 0 0-1.311-.079 6.488 6.488 0 0 0-6.128 5.444v-.005a6.49 6.49 0 0 0-5.365-7.435 6.003 6.003 0 0 0-.675-.069c-2.049-.097-4.288.756-5.323 1.462-.23.157-.401.307-.497.438-.192.262-.086.446.441.457z" fill="#48606c"/><path d="M8.437 123.512c1.076 1.038 1.713 1.98 1.643 2.418.071-.438-.567-1.381-1.643-2.418z" fill="#6d92a4"/><path d="M9.128 126.084c.612.19.909.109.952-.154.071-.438-.567-1.38-1.643-2.418-1.722-1.66-4.567-3.563-7.427-4.027-.338-.055-.675-.09-1.01-.112v3.891l.105.027 9.023 2.793z" fill="#6d92a4"/></g></svg>