<svg xmlns="http://www.w3.org/2000/svg" width="640" height="360" viewBox="0 0 640 360"><path fill="#95C6D0" d="M0 0h640v360H0z"/><path fill="#FFA42A" d="M588.517 301.607c-2.13-3.243-21.317-29.342-28.166-24.313-35.798 26.291-17.174 2.241-31.903-14.434-2.251 1.605-2.577 5.15-3.136 7.646.09-2.855 1.12-6.693-1.057-9.084-.3.394-1.123.993-1.456 1.587-.634-8.279 1.51-15.534 6.424-21.76 2.313-6.032-12.023 4.602-13.381 7.694-2.256-.197-6.04-.17-8.232.323a57.699 57.699 0 0 1-.378-19.591c-14.444.124-13.474 1.487-27.313 3.949-1.216 5.053.854 10.484-.417 15.536-3.675.233-7.158 1.708-10.845 1.797 1.603 6.319.725 12.308-2.632 17.975-6.168.889 1.047-14.657-10.137-13.177-1.688 4.15-4.838 6.833-9.444 8.048-2.216-5.008 1.405-10.515-.117-15.586-5.613-.779-10.598 3.953-16.279 1.443-.816 11.162 7.803 16.74 8.997 28.482-.867-.135-2.361.493-3.241.359.942 2.636 2.79 4.38 5.546 5.236-4.534 2.101-6.703 1.731-6.51-1.105-3.425.936-5.643 2.762-6.661 5.465-.013-1.984-.181-3.91-.806-5.594.509-6.768-4.904 18.571-3.404 21.366-4.458-2.122-8.026-5.136-10.693-9.061-4.271 7.882 4.786 15.184-5.487 12.001-.291 2-.854 3.717-1.674 5.165-2.479-2.656-5.32-5.043-8.374-7.272-2.319-1.563-4.715-3.068-7.146-4.549-1.9 1.009-3 2.616-5.856 2.911v4.368c-1.953-.295-2.543.427-3.747.691a.837.837 0 0 1-.159.428v5.433c-1.313.453-2.89.708-3.895 1.392l-.61.02.021.546a1.938 1.938 0 0 0-.398.955c-2.262-.229-3.635-1.12-6.708-.739-.808 1.387-1.146 2.813-.952 3.952-.024-.146 5.063 1.004 5.66 1.337 1.27.709 1.538 1.702 2.133 2.556.17.244.379.544.618.861L378.087 360H640v-88.339c-30.951-30.987-43.883 41.52-51.483 29.946z"/><path fill="#1F2D49" d="M74.4 79.251c-4.464 1.089-9.309 1.523-12.193 1.306-2.396 3.538-5.063 6.914-8.166 9.908-4.627 4.354-10.179 6.313-16.004 5.606-11.105-1.306-7.403-14.044 4.899-9.907 1.143.436.762 1.09-.164.707-8.709-3.265-10.887 7.295-3.375 7.676 4.844.219 8.873-2.123 12.52-5.661 7.131-7.021 11.269-21.501 20.522-31.898 1.034-1.089 1.905-2.123 2.885-3.05-6.206-.925-13.337-.488-17.91.383-6.858 1.252-18.181 5.443-19.487 13.553-.599 3.811 2.068 6.805 5.334 6.914 3.429.109 6.913-2.939 8.166-6.587.164-.815.762-.708.762.056-.054 4.953-4.79 7.729-9.036 7.619-4.301-.163-8.329-2.884-8.057-8.437.49-9.744 14.317-13.771 22.101-14.916 6.042-.871 13.173-1.251 19.597.056 1.198-.927 2.449-1.688 4.083-2.287 1.742-.708 1.851 0 .544.816-.544.381-1.524 1.089-2.45 2.015 2.286.599 4.41 1.47 6.314 2.613C99.004 63.9 85.178 76.639 74.4 79.251zm3.538-24.823c-5.553 7.785-9.689 16.876-14.97 24.987 2.776.107 6.26-.437 9.69-1.471 11.812-3.592 19.923-15.351 11.376-21.066-1.633-1.089-3.755-1.905-6.096-2.45zM93.016 94.221c-1.797.108-4.355-1.307-2.722-7.022-.871 1.415-2.34 3.593-3.919 5.117-6.26 5.987-10.397-3.539-2.178-13.391 3.267-3.865 9.527-5.88 12.63-2.505.762.816.326 1.741-.599 1.58-.599-2.016-2.613-2.451-4.627-1.361C89.15 78 86.32 81.211 84.36 84.422c-.436.763-1.905 3.43-2.231 5.498-.545 3.811 2.45 3.375 5.008.327 1.905-2.286 3.43-4.954 4.845-7.621 1.198-2.286 1.959-3.594 3.701-3.484.708.055 1.524.381 2.287.218-1.143 1.144-4.355 6.859-5.063 10.18-.435 2.232-.163 3.266.545 3.266 2.286.109 5.878-6.805 7.021-9.145.49-.98 1.307-.653.762.435-1.633 3.321-4.954 9.852-8.219 10.125z"/><path fill="#1F2D49" d="M107.44 94.058c-1.852.435-5.172-1.197-2.995-6.859.817-2.23 2.776-5.063 3.375-6.424.762-1.796-1.143-2.504-4.191-2.558l-.653 1.742c-1.307 3.429-3.919 9.471-6.586 12.03-.436.381-.762-.218-.436-.708 4.3-5.662 7.294-13.881 8.383-19.978.544-3.048 4.083-1.688 3.321 1.959-.327 1.524-2.069 2.995-2.994 3.647 2.014.109 4.844.055 7.512-.218.381.762-.49 2.83-1.143 4.191-.816 1.688-6.369 11.649-3.103 11.813 2.232.055 5.607-6.75 6.75-9.09.489-.927 1.197-.544.653.544-1.579 3.268-4.355 9.038-7.893 9.909z"/><path fill="#1F2D49" d="M127.907 74.624h-3.157c-1.851 3.156-4.028 6.042-7.24 8.982-.49 1.415-1.252 5.553-1.252 5.553-.816 3.646 1.688 4.136 3.484 2.83 2.504-1.852 4.301-5.28 5.771-8.22.436-.98 1.252-.763.708.325-2.396 5.009-3.32 6.479-5.334 8.492-2.939 2.832-8.329 1.905-7.513-4.082.49-3.701 2.504-9.636 4.247-13.881h-2.831c-.599 0-.49-1.198.109-1.198h3.266c1.252-2.721 2.613-5.389 3.974-7.729 3.756-6.587 9.634-5.661 5.606 3.048a93.268 93.268 0 0 1-2.341 4.682h2.613c.543 0 .434 1.198-.11 1.198zm-6.968 0c-1.143 2.667-2.177 5.335-2.94 7.24 2.069-2.123 3.919-4.628 5.499-7.24h-2.559zm4.41-9.145c-1.307 1.85-2.504 4.844-3.866 7.946h2.723a57.598 57.598 0 0 0 2.721-5.553c1.034-2.285 1.797-7.13-1.578-2.393z"/><path fill="#1F2D49" d="M135.527 94.329c-1.905 0-4.519-1.306-2.885-6.368.435-1.415 1.469-3.267 2.994-5.716 1.307-2.123.327-3.594-3.865.327-1.851 1.686-4.518 4.735-7.566 10.778-.436.761-.926.815-2.069.815-.816.055-1.306 0-1.851.326 2.613-5.172 4.844-10.342 7.512-15.241 1.415-2.612 2.123-3.539 3.864-3.43.708.054 1.525.381 2.286.218-1.632.871-4.627 6.313-6.586 10.234 1.088-1.361 2.83-3.431 4.518-4.899 2.613-2.342 8.22-5.77 10.07-5.116 0 0-5.824 10.232-6.532 14.043-.436 2.232.163 2.723.871 2.723 2.831 0 6.315-7.131 7.458-9.417.436-.98 1.307-.6.762.488-1.633 3.323-4.789 10.235-8.981 10.235z"/><path fill="#1F2D49" d="M147.556 94.329c-2.722 0-5.171-1.796-5.226-5.226-.054-3.267 1.796-7.349 4.192-10.179 2.776-3.267 6.913-5.336 9.308-3.54 2.068 1.58.49 5.281-2.994 7.948-1.688 1.252-5.226 2.396-6.696 2.396-.816 1.96-1.742 7.458 1.851 7.458 4.791 0 7.73-6.423 8.982-9.309.435-.979 1.524-1.089.98.055-2.014 4.356-4.354 10.397-10.397 10.397zm2.232-14.642c-1.416 1.741-2.776 4.137-3.266 5.117.98 0 3.81-.763 5.77-2.396 4.464-3.757 4.191-10.832-2.504-2.721z"/><path fill="#1F2D49" d="M164.104 94.058c-1.852.435-5.172-1.197-2.995-6.859.817-2.23 2.776-5.063 3.375-6.424.763-1.796-1.143-2.504-4.191-2.558l-.653 1.742c-1.307 3.429-3.919 9.471-6.586 12.03-.436.381-.762-.218-.436-.708 4.3-5.662 7.295-13.881 8.383-19.978.544-3.048 4.083-1.688 3.32 1.959-.327 1.524-2.069 2.995-2.994 3.647 2.014.109 4.844.055 7.512-.218.381.762-.49 2.83-1.143 4.191-.816 1.688-6.369 11.649-3.103 11.813 2.232.055 5.607-6.75 6.75-9.09.489-.927 1.197-.544.653.544-1.579 3.268-4.355 9.038-7.892 9.909z"/><path fill="#1F2D49" d="M174.663 93.785c-.762.326-1.524.544-2.231.544-6.587 0-5.334-7.565-2.722-7.676 1.469-2.775 3.266-6.313 4.681-9.417.98-2.122 2.613-4.408 4.519-4.682.816-.107 1.47 0 2.014.273.98.49.762 1.415-.217.925-.544-.218-1.198-.327-1.742-.054-2.504 1.197-1.96 4.952-1.143 6.912.871 2.068 2.068 4.029 1.959 6.423-.108 2.125-1.742 4.628-3.864 6.043l.38.054c1.851.273 3.539-.87 4.899-2.503 1.252-1.524 2.939-4.899 4.083-7.131.272-.545 1.089-.218.817.326-2.016 4.52-5.282 11.815-11.433 9.963zm-3.702-4.681c-1.742 1.742-1.034 4.301 1.088 4.301.382 0 .762-.054 1.089-.218-1.142-.708-2.068-2.015-2.177-4.083zm4.791-12.412c-1.47 2.939-3.811 7.676-5.117 10.071 0 0 1.198-.055 1.143 1.741-.109 2.069 1.034 3.592 2.287 4.191 1.197-.925 2.231-2.776 2.395-5.662.163-3.427-1.144-7.891-.708-10.341zM264.752 66.295c-6.316-1.034-11.703-4.245-12.738-4.682-3.484 3.974-5.717 10.507-7.24 14.045 3.32.437 8.002.437 10.234.326 1.85-.109 1.797.654.107 1.089-1.904.49-8.219.6-10.996.272-3.756 10.179-9.635 23.843-27.217 23.843-12.683 0-20.849-9.58-16.983-21.447.979-3.103 4.082-5.172 5.66-5.662 1.742-.544.599.273-1.033 1.416-1.361.979-3.539 2.612-4.192 6.313-1.905 10.671 7.948 16.494 15.896 16.821 12.085.544 20.739-9.581 25.911-21.447-2.068 0-9.308-.817-11.867 2.884-.653.871-1.143.11-.871-.488 2.504-5.553 8.274-5.335 13.5-4.41 2.558-6.26 6.859-13.064 7.894-14.263-4.627-2.286-9.472-4.408-14.806-5.17-14.862-2.232-21.775 11.431-16.821 14.533 5.498 3.431 11.432-1.741 11.377-3.267.055-1.196 1.579-2.176.925-.217-1.578 5.279-8.438 7.24-12.792 4.735-9.037-5.116.327-22.916 18.235-17.854 5.988 1.632 11.214 4.191 14.589 6.313.6-.653 2.123-2.396 4.572-1.688 1.416.436 1.197 2.668 0 1.307-1.252-.49-2.504.327-3.266 1.035 3.646 1.905 15.785 6.478 17.854 2.068.764-1.742 1.307-1.09.98.271-.326 2.235-3.211 3.868-6.912 3.324zM266.926 93.677c-1.633 0-2.777-.6-3.484-1.416-1.523 1.144-3.156 1.905-4.736 1.851-4.137-.109-4.734-5.063-2.666-9.907 2.123-5.008 6.641-9.254 10.342-9.145 4.137.055 4.736 5.063 2.668 9.908-.816 1.903-2.504 4.462-4.572 6.422.436.816 1.252 1.361 2.559 1.361 3.482 0 6.314-6.751 7.621-9.363.271-.545 1.197-.325.816.49-.927 2.068-3.976 9.799-8.548 9.799zm-7.131-9.69c-2.123 4.464-2.613 8.273-.652 8.873 1.033.271 2.395-.273 3.701-1.361-.6-.871-.871-1.852-.871-2.667.055-1.253.543-2.342 1.904-2.342.926 0 1.633.764 1.633 1.634 0 .218-.055.381-.109.599.6-.871 1.199-1.905 1.689-2.939 2.121-4.463 2.395-8.329.436-8.928-2.342-.654-5.717 2.831-7.731 7.131zM104.448 140.053c1.089 0 3.484-.056 4.354-.381 1.035-.383 1.361 0 .437.652-1.416.979-3.702 1.36-5.281 1.47-.979 3.212-5.226 14.59-2.831 17.201.708.763 1.852.872 3.048 0 2.776-2.067 5.063-6.314 6.805-9.853.598-1.197 1.415-.925.816.381-2.831 5.987-4.191 7.839-6.641 10.234-1.905 1.852-4.246 2.449-6.151 1.469-4.954-2.557.49-15.677 1.797-19.433-2.451 0-13.5-.49-18.454-.707-4.246 12.628-14.208 25.639-28.252 27.435-12.411 1.578-24.604-5.553-21.067-19.161.926-3.538 4.9-6.858 6.642-6.912 1.143 0 .653.544.109.762-1.796.761-4.954 4.081-5.553 8.6-1.523 11.867 11.704 14.753 19.325 13.064 15.242-3.429 22.373-14.426 25.966-23.896-1.143 0-2.231.381-3.266.871-.599.272-2.287.816-1.47-.599.49-.816 1.959-1.905 3.375-2.068h2.123c2.722-6.805 6.804-15.351 7.947-17.637-10.669 1.196-23.516.381-27.436 12.955-1.851 5.934 1.633 10.886 7.131 8.873 4.028-1.471 5.498-8.656 4.79-9.69-.599-.871.327-1.197.708-.381 2.069 4.519-1.523 9.69-5.443 11.105-6.532 2.395-12.684-3.647-10.887-10.778 3.429-13.772 21.284-12.356 31.899-13.392.381-.653 2.45-3.811 4.191-4.354 1.579-.437 3.103 0 3.103 1.524 0 2.558-4.246 4.028-6.423 4.028-2.069 4.028-6.097 15.404-7.022 17.746 7.294 0 14.643.925 18.454.925.817-2.286 7.566-19.979 11.867-21.447 2.124-.762 4.573-1.089 2.559-.054-1.035.544-6.915 8.764-11.269 21.448zm-13.609-19.979c4.627-.708 3.539-2.613 2.885-2.613-.544-.273-2.123 1.633-2.885 2.613z"/><path fill="#1F2D49" d="M114.896 159.648c-2.722 0-5.171-1.796-5.226-5.226-.054-3.266 1.796-7.349 4.191-10.179 2.776-3.267 6.914-5.336 9.309-3.538 2.068 1.578.49 5.279-2.994 7.946-1.688 1.252-5.226 2.396-6.696 2.396-.816 1.96-1.742 7.458 1.851 7.458 4.791 0 7.73-6.423 8.982-9.309.436-.979 1.524-1.089.98.055-2.013 4.356-4.354 10.397-10.397 10.397zm2.232-14.642c-1.416 1.741-2.776 4.137-3.267 5.117.98 0 3.811-.763 5.771-2.396 4.464-3.756 4.192-10.831-2.504-2.721z"/><path fill="#1F2D49" d="M136.071 159.54c-1.797.108-4.355-1.307-2.723-7.022-.871 1.415-2.34 3.593-3.918 5.117-6.26 5.987-10.397-3.539-2.178-13.391 3.267-3.865 9.527-5.88 12.63-2.505.761.816.326 1.741-.599 1.578-.599-2.014-2.613-2.449-4.627-1.359-2.45 1.359-5.28 4.572-7.24 7.783-.436.763-1.905 3.43-2.231 5.498-.545 3.811 2.449 3.375 5.008.327 1.905-2.286 3.43-4.954 4.845-7.621 1.198-2.286 1.959-3.594 3.701-3.484.708.055 1.525.381 2.287.218-1.143 1.144-4.355 6.859-5.063 10.18-.435 2.232-.163 3.267.545 3.267 2.286.108 5.879-6.806 7.022-9.146.49-.98 1.306-.653.762.437-1.635 3.319-4.956 9.851-8.221 10.123z"/><path fill="#1F2D49" d="M146.521 148.926c-.272.925-.816 2.231-1.143 3.592-1.633 6.532 2.722 7.458 5.606 3.43 1.797-2.559 3.32-5.499 4.028-6.914.49-.925 1.308-.815.817.273-1.361 2.884-4.191 10.233-9.689 10.233-6.097 0-3.484-7.457-2.559-10.724 1.688-6.097 5.117-13.936 8.274-19.216 3.865-6.478 9.744-5.716 5.825 2.994-2.504 5.607-5.824 11.486-11.159 16.332zm9.037-19.598c-2.667 3.757-6.914 13.501-8.601 17.855 3.864-3.92 7.784-10.344 9.907-15.406 1.089-2.503 1.633-6.64-1.306-2.449z"/><path fill="#1F2D49" d="M168.349 139.943h-3.157c-1.851 3.156-4.028 6.042-7.24 8.982-.49 1.415-1.252 5.553-1.252 5.553-.816 3.646 1.688 4.136 3.484 2.83 2.504-1.852 4.301-5.281 5.771-8.22.436-.98 1.251-.763.708.327-2.396 5.007-3.321 6.478-5.334 8.49-2.94 2.83-8.329 1.905-7.513-4.082.49-3.701 2.504-9.635 4.246-13.881h-2.83c-.599 0-.49-1.198.108-1.198h3.266c1.253-2.721 2.613-5.389 3.974-7.729 3.756-6.587 9.635-5.662 5.607 3.048a92.423 92.423 0 0 1-2.341 4.682h2.613c.543 0 .434 1.198-.11 1.198zm-6.968 0c-1.143 2.666-2.177 5.335-2.939 7.24 2.069-2.124 3.919-4.628 5.499-7.24h-2.56zm4.41-9.144c-1.307 1.85-2.504 4.844-3.865 7.946h2.722a57.847 57.847 0 0 0 2.722-5.553c1.033-2.286 1.796-7.13-1.579-2.393z"/><path fill="#1F2D49" d="M175.915 159.648c-1.905 0-4.518-1.306-2.885-6.368.435-1.415 1.47-3.267 2.994-5.716 1.306-2.123.327-3.594-3.865.326-1.851 1.687-4.518 4.736-7.622 10.779-.38.761-.871.815-2.014.815-.816.055-1.307 0-1.851.326 4.409-9.145 9.689-20.249 14.97-29.993 1.251-2.286 2.123-3.538 3.865-3.43.708.055 1.524.326 2.287.219-2.396 2.449-9.472 15.785-13.936 24.875 1.469-1.85 2.939-3.537 4.409-4.789 2.613-2.342 8.22-5.77 10.071-5.118 0 0-5.824 10.234-6.532 14.045-.435 2.232.109 2.83.816 2.886 2.504.164 6.206-7.24 7.349-9.58.49-.98 1.307-.6.762.544-1.796 3.756-4.791 10.179-8.818 10.179zM224.904 135.098c-6.151.545-11.323.383-16.44-1.251-1.959 2.776-5.933 8.873-7.893 13.718-5.552 13.881 3.103 16.331 13.119 8.002 5.607-4.735 11.377-11.813 14.262-17.148 3.375-6.313 6.26-1.905 3.103 1.525-3.048 3.43-6.151 9.254-7.131 14.589-1.688 9.199 3.702 7.839 8.002 2.503 1.687-2.177 3.537-5.008 4.735-7.729.49-1.035 1.524-1.089.926.217-.979 2.179-3.048 6.043-5.063 8.71-1.851 2.503-4.954 4.682-8.002 4.682-6.043 0-4.682-10.725-2.232-13.936-4.464 5.279-14.643 15.678-22.373 12.356-5.226-2.231-5.226-11.866.218-21.72 1.36-2.449 2.939-4.79 4.791-6.912-2.177-1.034-4.083-2.232-5.444-3.757-1.524-1.742-1.688-5.279-.49-6.15.653-.871 1.579-.273.98 1.034-.708 1.633-.109 2.884 1.143 4.299 1.198 1.361 2.83 2.505 4.79 3.431 6.859-7.622 15.95-14.209 26.564-14.209 5.825 0 9.363 2.886 9.363 6.914.001 3.973-4.245 9.69-16.928 10.832zm7.73-16.329c-10.18 0-17.202 6.695-23.299 13.989 4.246 1.361 8.656 1.633 15.569 1.034 9.036-.763 14.698-4.791 14.698-10.18 0-3.211-2.994-4.843-6.968-4.843z"/><path fill="#1F2D49" d="M246.893 159.648c-1.904 0-4.517-1.306-2.884-6.368.435-1.415 1.468-3.267 2.994-5.716 1.307-2.123.326-3.594-3.865.326-1.852 1.687-4.518 4.736-7.566 10.779-.436.761-.925.815-2.068.815-.816.055-1.307 0-1.851.326 2.613-5.17 4.845-10.342 7.512-15.241 1.415-2.612 2.122-3.539 3.864-3.43.708.054 1.525.381 2.287.218-1.632.871-4.626 6.315-6.586 10.234 1.089-1.361 2.831-3.431 4.519-4.899 2.613-2.342 8.218-5.77 10.07-5.118 0 0-5.824 10.234-6.533 14.045-.436 2.232.164 2.723.871 2.723 2.832 0 6.316-7.131 7.459-9.417.436-.98 1.307-.6.762.49-1.636 3.321-4.794 10.233-8.985 10.233z"/><path fill="#1F2D49" d="M267.686 152.19c-.543 1.253-2.23 5.825.328 5.825 2.721 0 5.879-6.75 7.021-9.036.436-.98 1.307-.762.816.327-1.307 3.047-4.465 10.124-8.818 10.124-.871 0-1.742-.436-2.449-1.469-.6-.927-1.035-2.559-.49-4.791-1.633 2.667-4.191 7.021-7.947 6.043-5.117-1.415-2.123-10.181 1.852-14.97 3.047-3.538 7.783-5.443 11.703-3.157 2.611-4.954 5.008-9.963 6.314-12.901 1.033-2.449 1.959-2.995 3.701-2.832.707.056 1.523.327 2.34.22-1.633 1.523-11.213 19.106-14.371 26.617zm-10.016-1.523c-3.592 6.749-.326 10.125 4.301 3.592 2.014-2.83 4.736-7.512 7.295-12.301-2.723-2.669-8.711 3.374-11.596 8.709zM356.141 129.057c-8.057-1.034-12.574-2.995-13.717-3.483-6.533 10.396-6.969 22.317-14.971 31.462-11.539 13.12-46.051 9.31-38.703-13.936 1.633-5.062 7.021-7.294 6.695-5.008-.869 1.09-4.736 2.342-5.605 7.514-1.961 11.158 8.109 17.146 16.492 16.982 8.547-.217 14.371-3.647 18.508-8.165 6.588-7.132 13.719-26.347 16.006-29.395-5.717-1.797-10.67-2.722-16.496-2.995-15.566-.761-21.826 15.189-13.281 17.91 6.695 2.122 10.615-4.627 10.396-6.151v-.109c.545-.49 1.09-.271 1.09.437-.707 5.824-6.914 8.927-12.029 7.185-11.105-3.864-6.969-23.896 13.445-22.047 6.531.546 14.262 3.757 17.744 4.737.49-.6 2.832-3.322 4.029-3.322h-.055c1.742-.544 2.178 2.125.381 1.58-.49-.382-2.123 1.47-2.83 2.177 4.682 1.524 17.908 5.172 17.908 1.47 0-.489.109-.815.6-.815.381 0 .545.87.545 1.142 0 2.067-2.723 3.264-6.152 2.83z"/><path fill="#1F2D49" d="M346.123 159.377c-1.852.435-5.172-1.197-2.994-6.859.816-2.232 2.775-5.063 3.375-6.424.762-1.796-1.143-2.504-4.191-2.558l-.654 1.742c-1.307 3.429-3.918 9.471-6.586 12.03-.436.381-.762-.218-.436-.708 4.301-5.662 7.295-13.881 8.383-19.978.545-3.048 4.084-1.688 3.32 1.959-.326 1.524-2.068 2.993-2.992 3.647 2.014.109 4.844.055 7.512-.218.381.762-.49 2.83-1.145 4.191-.816 1.688-6.367 11.649-3.102 11.813 2.23.055 5.607-6.75 6.75-9.09.488-.927 1.197-.545.652.544-1.577 3.268-4.355 9.038-7.892 9.909z"/><path fill="#1F2D49" d="M364.902 159.54c-1.797.108-4.354-1.307-2.723-7.022-.871 1.415-2.34 3.593-3.918 5.117-6.26 5.987-10.396-3.539-2.178-13.391 3.266-3.865 9.527-5.88 12.629-2.505.762.816.326 1.741-.598 1.578-.6-2.014-2.613-2.449-4.627-1.359-2.451 1.359-5.281 4.572-7.24 7.783-.436.763-1.906 3.43-2.232 5.498-.545 3.811 2.449 3.375 5.008.327 1.906-2.286 3.43-4.954 4.846-7.621 1.197-2.286 1.959-3.594 3.701-3.484.707.055 1.523.381 2.287.218-1.145 1.144-4.355 6.859-5.064 10.18-.434 2.232-.162 3.267.545 3.267 2.287.108 5.879-6.806 7.021-9.146.49-.98 1.307-.653.764.437-1.635 3.319-4.955 9.851-8.221 10.123z"/><path fill="#1F2D49" d="M382.375 159.648c-1.904 0-4.518-1.306-2.885-6.368.436-1.415 1.469-3.267 2.994-5.716 1.307-2.123.326-3.594-3.865.326-1.852 1.687-4.518 4.736-7.566 10.779-.436.761-.926.815-2.068.815-.816.055-1.307 0-1.852.326 2.613-5.17 4.846-10.342 7.512-15.241 1.416-2.612 2.123-3.539 3.865-3.43.707.054 1.525.381 2.287.218-1.633.871-4.627 6.315-6.588 10.234 1.09-1.361 2.832-3.431 4.52-4.899 2.613-2.342 8.219-5.77 10.07-5.118 0 0-5.824 10.234-6.533 14.045-.436 2.232.164 2.723.871 2.723 2.832 0 6.314-7.131 7.459-9.417.434-.98 1.305-.6.762.49-1.633 3.321-4.792 10.233-8.983 10.233z"/><path fill="#1F2D49" d="M393.969 159.104c-.762.326-1.523.544-2.232.544-6.586 0-5.334-7.565-2.721-7.676 1.469-2.775 3.266-6.313 4.682-9.417.979-2.122 2.611-4.408 4.518-4.682.816-.107 1.469 0 2.014.273.98.49.762 1.415-.217.925-.545-.218-1.199-.327-1.742-.054-2.504 1.197-1.961 4.952-1.143 6.913.871 2.067 2.066 4.028 1.959 6.422-.109 2.125-1.742 4.628-3.865 6.043l.381.054c1.852.273 3.539-.87 4.898-2.503 1.254-1.524 2.939-4.899 4.084-7.131.271-.545 1.088-.218.816.326-2.016 4.52-5.282 11.815-11.432 9.963zm-3.701-4.681c-1.742 1.741-1.035 4.301 1.088 4.301.381 0 .762-.054 1.09-.218-1.145-.707-2.071-2.015-2.178-4.083zm4.789-12.411c-1.469 2.939-3.811 7.676-5.117 10.071 0 0 1.199-.056 1.145 1.741-.109 2.069 1.033 3.592 2.287 4.191 1.195-.925 2.23-2.776 2.395-5.662.161-3.427-1.146-7.892-.71-10.341z"/><path fill="#1F2D49" d="M405.236 153.661c.707.871 1.359 2.177 1.742 4.082l.162.707c3.268.22 6.369-5.823 8.166-9.634.381-.708 1.197-.436.816.381-2.014 4.571-5.008 10.288-8.873 10.288.652 7.621-3.484 19.161-9.363 18.89-1.523-.056-2.775-.653-2.83-2.83-.109-3.54 2.395-10.127 5.607-17.692-1.145-1.742-.654-4.084.381-4.845.545-.436 1.252-.708 1.959-.599 3.92-8.819 8.166-17.638 11.16-23.244 1.197-2.341 2.34-3.812 4.627-3.812.652 0 1.578.383 2.395.273-3.429 3.212-10.505 15.788-15.949 28.035zm-2.287 5.172c-1.904 4.789-3.646 9.852-4.518 13.445-1.469 6.313 1.033 5.279 3.158 2.449 2.666-3.483 4.627-10.181 4.518-15.023-1.089.108-2.449-.273-3.158-.871zm2.559-2.613a5.922 5.922 0 0 0-.816-1.307l-1.197 2.722c.326.599 1.197 1.035 2.178 1.035h.326c-.056-.927-.218-1.742-.491-2.45z"/><path fill="#1F2D49" d="M425.867 158.995c-1.635 0-2.777-.599-3.484-1.415-1.525 1.144-3.156 1.905-4.736 1.851-4.137-.109-4.736-5.063-2.668-9.907 2.123-5.008 6.643-9.254 10.344-9.145 4.137.055 4.736 5.063 2.666 9.906-.814 1.905-2.504 4.464-4.57 6.424.434.816 1.25 1.361 2.557 1.361 3.484 0 6.316-6.751 7.621-9.363.273-.545 1.197-.326.816.49-.927 2.069-3.974 9.798-8.546 9.798zm-7.131-9.688c-2.123 4.462-2.613 8.273-.654 8.873 1.033.271 2.395-.273 3.701-1.361-.598-.871-.871-1.852-.871-2.667.055-1.252.545-2.342 1.906-2.342a1.64 1.64 0 0 1 1.633 1.634c0 .218-.055.381-.109.599.6-.871 1.197-1.905 1.688-2.939 2.123-4.463 2.395-8.329.436-8.928-2.341-.655-5.716 2.83-7.73 7.131z"/><path fill="#1F2D49" d="M440.508 159.377c-1.85.435-5.17-1.197-2.994-6.859.818-2.232 2.777-5.063 3.375-6.424.764-1.796-1.143-2.504-4.191-2.558l-.652 1.742c-1.307 3.429-3.92 9.471-6.586 12.03-.436.381-.764-.218-.436-.708 4.299-5.662 7.293-13.881 8.383-19.978.543-3.048 4.082-1.688 3.32 1.959-.328 1.524-2.068 2.993-2.994 3.647 2.014.109 4.844.055 7.512-.218.381.762-.49 2.83-1.143 4.191-.816 1.688-6.369 11.649-3.104 11.813 2.232.055 5.607-6.75 6.75-9.09.49-.927 1.197-.545.654.544-1.58 3.268-4.355 9.038-7.894 9.909z"/><path fill="#1F2D49" d="M467.072 159.648c-1.961 0-4.574-1.306-2.939-6.368.436-1.415 1.469-3.267 2.994-5.716 1.305-2.123.326-3.594-3.865.326-2.342 2.177-6.967 8.273-7.676 11.54-1.252 0-2.014-1.415-1.742-2.993.381-2.396 1.361-4.191 2.287-6.206 1.795-3.701 3.537-7.676-2.178-2.341-1.85 1.687-4.41 4.627-7.512 10.615-.381.815-.871.871-2.07.871-.76.054-1.25 0-1.795.327 2.613-5.172 4.736-10.234 7.402-15.134 1.416-2.612 2.125-3.539 3.865-3.43.709.054 1.523.381 2.287.218-1.635.871-4.627 6.315-6.588 10.234 1.09-1.361 2.83-3.431 4.52-4.899 2.613-2.342 6.096-5.77 7.945-5.118.98.383 1.309 1.308.818 2.396-.98 2.286-2.668 4.955-3.975 7.622 1.09-1.361 2.885-3.431 4.518-4.899 2.613-2.342 8.275-5.77 10.072-5.118 0 0-5.771 10.234-6.533 14.045-.381 2.232.219 2.723.926 2.723 2.83 0 6.314-6.914 7.457-9.417.436-.98 1.307-.6.762.49-1.63 3.32-4.843 10.232-8.98 10.232z"/><path fill="#1F2D49" d="M486.885 159.54c-1.797.108-4.355-1.307-2.721-7.022-.871 1.415-2.342 3.593-3.92 5.117-6.262 5.987-10.396-3.539-2.178-13.391 3.266-3.865 9.525-5.88 12.629-2.505.762.816.326 1.741-.598 1.578-.6-2.014-2.613-2.449-4.629-1.359-2.449 1.359-5.279 4.572-7.238 7.783-.438.763-1.906 3.43-2.232 5.498-.545 3.811 2.449 3.375 5.008.327 1.906-2.286 3.43-4.954 4.844-7.621 1.197-2.286 1.961-3.594 3.703-3.484.707.055 1.523.381 2.285.218-1.143 1.144-4.354 6.859-5.063 10.18-.436 2.232-.162 3.267.545 3.267 2.287.108 5.879-6.806 7.021-9.146.49-.98 1.307-.653.764.437-1.634 3.319-4.955 9.851-8.22 10.123z"/><path fill="#1F2D49" d="M507.623 139.943h-3.156c-1.852 3.156-4.027 6.042-7.24 8.982-.488 1.415-1.252 5.553-1.252 5.553-.816 3.646 1.688 4.136 3.484 2.83 2.504-1.852 4.301-5.281 5.77-8.22.436-.98 1.252-.763.707.327-2.395 5.007-3.32 6.478-5.334 8.49-2.939 2.83-8.328 1.905-7.512-4.082.49-3.701 2.504-9.635 4.246-13.881h-2.83c-.6 0-.49-1.198.107-1.198h3.268c1.25-2.721 2.611-5.389 3.973-7.729 3.758-6.587 9.635-5.662 5.607 3.048a94.123 94.123 0 0 1-2.34 4.682h2.613c.543 0 .434 1.198-.111 1.198zm-6.967 0c-1.145 2.666-2.176 5.335-2.939 7.24 2.068-2.124 3.92-4.628 5.498-7.24h-2.559zm4.408-9.144c-1.305 1.85-2.502 4.844-3.863 7.946h2.721a57.394 57.394 0 0 0 2.723-5.553c1.033-2.286 1.796-7.13-1.581-2.393z"/><path fill="#1F2D49" d="M507.078 158.233c.816.109 1.852-.49 2.451-1.034 1.797-1.796 3.592-5.172 5.117-8.22.434-.98 1.197-.599.707.49-1.416 3.048-4.518 9.961-8.547 9.961-4.084 0-4.084-4.245-2.939-7.077l3.484-8.873c.436-1.032-.328-2.013-.545-2.286l2.994-.054c1.742 0 1.742.599 1.145 1.905l-4.355 10.179s-.545 1.198-.654 1.579c-.491 1.798-.381 3.322 1.142 3.43zm3.92-19.325c-1.252 0-2.068-.979-1.904-2.231.217-1.252 1.414-2.23 2.611-2.23 1.252 0 2.123.979 1.906 2.23-.216 1.253-1.361 2.231-2.613 2.231z"/><path fill="#1F2D49" d="M525.26 158.995c-1.633 0-2.775-.599-3.484-1.415-1.523 1.144-3.156 1.905-4.736 1.851-4.137-.109-4.734-5.063-2.666-9.907 2.123-5.008 6.641-9.254 10.342-9.145 4.137.055 4.736 5.063 2.668 9.906-.816 1.905-2.504 4.464-4.572 6.424.436.816 1.252 1.361 2.559 1.361 3.482 0 6.314-6.751 7.621-9.363.271-.545 1.197-.326.814.49-.925 2.069-3.974 9.798-8.546 9.798zm-7.131-9.688c-2.123 4.462-2.611 8.273-.652 8.873 1.033.271 2.393-.273 3.701-1.361-.6-.871-.871-1.852-.871-2.667.053-1.252.543-2.342 1.904-2.342.926 0 1.633.763 1.633 1.634 0 .218-.055.381-.107.599a21.81 21.81 0 0 0 1.686-2.939c2.125-4.463 2.396-8.329.438-8.928-2.343-.655-5.718 2.83-7.732 7.131z"/><path fill="#1F2D49" d="M542.949 159.648c-1.904 0-4.518-1.306-2.883-6.368.434-1.415 1.469-3.267 2.992-5.716 1.307-2.123.328-3.594-3.863.326-1.852 1.687-4.52 4.736-7.568 10.779-.434.761-.924.815-2.068.815-.816.055-1.307 0-1.85.326 2.613-5.17 4.844-10.342 7.512-15.241 1.414-2.612 2.123-3.539 3.865-3.43.707.054 1.523.381 2.285.218-1.633.871-4.627 6.315-6.586 10.234 1.09-1.361 2.83-3.431 4.518-4.899 2.613-2.342 8.221-5.77 10.07-5.118 0 0-5.824 10.234-6.531 14.045-.436 2.232.164 2.723.871 2.723 2.83 0 6.314-7.131 7.457-9.417.436-.98 1.307-.6.762.49-1.633 3.321-4.791 10.233-8.983 10.233zM280.715 94.937c-1.813.436-5.063-1.198-2.932-6.857.801-2.233 2.719-5.063 3.305-6.425.746-1.796-1.119-2.503-4.104-2.559l-.639 1.743c-1.279 3.429-3.838 9.471-6.449 12.03-.426.379-.746-.219-.426-.708 4.209-5.662 7.141-13.881 8.207-19.978.531-3.05 3.996-1.688 3.25 1.959-.32 1.524-2.025 2.993-2.932 3.647 1.973.107 4.744.054 7.354-.218.373.762-.479 2.829-1.117 4.191-.801 1.687-6.236 11.649-3.039 11.813 2.186.055 5.49-6.75 6.607-9.092.48-.925 1.174-.544.641.546-1.545 3.268-4.263 9.037-7.726 9.908z"/><path fill="#FF9323" d="M370.851 243.438c.941.496 1.915.762 2.866 1.254.557.283 1.12.552 1.742.582.116-.427.984-1.171.519-1.461-.955-.594-1.999-.763-3.003-1.155-.616-.242-3.694-.051-2.124.78zM375.789 236.227c.536-1.044-1.71-1.295-2.316-1.806-.441.044-.909-.431-1.339-.143-.044.864 3.071 1.904 3.655 1.949zM316.161 241.763c2.18-1.598-.381-2.949-2.051-1.968-.767.45-1.772 1.301-.985 2.342.835 1.105 2.173.258 3.036-.374zM364.921 246.7c.42-.021 1.737-.29 1.773-.904-.562-.463-1.266-.631-1.881-.978-.921-.518-1.901-1.169-2.975-.734.725 1.321 1.542 2.689 3.083 2.616zM371.533 245.1c.809.363 2.565 1.707 3.423 1.378.035-.607-3.438-2.157-3.97-2.312-1.27-.373-2.534-2.241-4.006-1.314.762 1.337 3.341 1.701 4.553 2.248zM359.091 229.792c1.271.705 2.343 1.194 3.754 1.211.04-.857-1.067-.9-1.554-1.078-.604-.227-1.122-.677-1.743-.854-.571-.165-1.232.293-.457.721zM358.082 235.295c-.114-1.221-4.378-2.209-4.392-.895-.009.994 4.465 1.686 4.392.895zM370.559 250.302c1.848-1.354.59-1.936-.936-2.108-1.26-.143-2.575-.171-3.831.078-.156 1.594 3.842 2.708 4.767 2.03zM381.419 248.35c-.123-.44-.709-.697-1.091-.682.172.42.613.569 1.091.682zM355.563 249.959c.514 2.059 4.646.223 4.041-1.877-.831-.585-2.036-.678-2.986-.56-1.43.172-1.409 1.01-1.055 2.437zM383.025 264.61c-2.817-5.361-8.486-9.411-13.428-11.945-1.41-.723-5.034-3.315-6.568-1.896-1.013.939-1.646 2.021-2.845 2.719-.562.325-2.071 1.313-2.062 2.153.018 1.425 4.882 2.243 5.953 2.481 1.065.232 2.241.673 3.269 1.04 1.049.371 2.326.771 3.313 1.316 2.131 1.176 4.588 1.821 6.776 2.991 1.624.87 3.804 1.377 5.592 1.141zM357.165 240.66c1.176.488 2.433.869 3.691.958.466.028-1.816-1.346-2.12-1.486-.865-.398-2.2-1.509-3.198-1.344-1.238.206 1.416 1.787 1.627 1.872zM391.699 252.008c2.441-.229 5.185 2.833 7.445 3.64.715.191-.559-.699-.733-.833-.603-.376-1.218-.729-1.826-1.096-1.057-.631-2.258-1.402-3.417-1.762-1.355-.418-2.418-1.098-3.728-1.643-1.186-.493-2.921-1.431-4.166-1.548-.113 1.027 5.713 3.307 6.425 3.242zM394.013 257.764c.736-.816-.965-1.451-1.366-1.643-.841-.512-2.227-1.395-3.146-.56.015.933 1.229 1.72 1.805 2.206.936.793 1.86.937 2.707-.003zM393.708 255.506c.812.49 1.692.83 2.492 1.342-.563-.441-1.791-1.544-2.132-1.755a138.598 138.598 0 0 0-3.471-2.104c-2.7-1.588-5.479-2.995-8.28-4.34-.125.581 10.232 6.156 11.391 6.857zM324.021 224.764c.694-.014 1.383-.198 1.986-.607.177-.71-2.085-.665-2.391-.577-.973.285-.266 1.2.405 1.184zM326.188 232.805c-.494.994 4.478 1.275 5.035 1.414.547.135.943.62 1.547.277.245-1.142-6.116-1.709-6.582-1.691zM320.702 223.651c-.106-.299-.843-.399-1.017-.124.148.487.706.26 1.017.124zM330.981 231.983c.209-.836-3.52-1.043-3.869-1.099-.44-.064-1.204-.433-1.419.285.359.301 5.045 1.972 5.288.814zM354.529 245.494c.786-.074 3.386-1.341 1.793-2.31-1.28-.779-2.793-1.381-4.26-1.442-1.807-.077-1.618 1.48-.92 2.748.697 1.266 2.214 1.115 3.387 1.004zM319.879 232.612c.89.356 2.108.274 3.019.03 1.362-.364-.042-1.099-.635-1.317-1.283-.475-2.617-.205-3.943-.353-.608-.068-1.844-.552-2.276.234.231.678 3.153 1.133 3.835 1.406zM322.418 226.47c.057-.89-1.789-.7-2.144-.191-.26.37-1.086 1.845-.992 2.295.336 1.622 2.881-1.831 3.136-2.104zM318.007 236.196c1.063-1.077 1.805-1.919.137-2.71-.523-.249-1.122-.478-1.707-.36-.892.182-.328.626-.465 1.352-.206 1.098-1.221 1.946-.857 3.15 1.205.185 2.037-.564 2.892-1.432zM340.393 230.508c.82.603 5.533 1.108 4.062-1.168-.456-.706-1.882-.595-2.545-.586-.633.008-2.721.867-1.517 1.754zM344.83 237.729c1.05.453 2.618.96 3.765.744 1.349-.255 3.093-1.689 1.178-2.583-.995-.464-3.679-1.651-4.648-.648-.049.771.448 1.007-.437 1.432-.779.37-.425.809.142 1.055zM319.223 238.367c-.168-.063-.172.087-.276.108.069.186.262.115.276-.108zM348.502 229.061c.835.261 2.325.735 2.43-.749.241-.406.649-.486.656-1.07-.576-.26-1.156-.51-1.751-.712-.446-.151-2.892-1.007-2.612.086.377 1.47-.186 1.988 1.277 2.445zM318.616 242.819c.328 1.602 3.751.257 4.607-.091 3.295-1.329 6.729-1.848 10.033-2.896.687-.219 1.837-.185 1.35-1.293-.245-.559-.543-1.331-.906-1.817-.85-1.135-3.355-.962-4.549-1.171-1.869-.323-3.644-.146-5.45.537-1.067.405-3.041.927-3.681 2.012-.587.997-1.661 3.48-1.404 4.719zM340.473 235.844c.692-.048.834-.823.195-1.119-.448-.209-.964-.216-1.434-.303-1.173-.211-2.219-.779-3.437-.978a14.534 14.534 0 0 0-2.091-.188c-.062.536 6.014 2.64 6.767 2.588zM374.42 252.677c-.063.739 1.051 1.466 1.51 1.758.64.404 1.337.584 2.065.618.227-.716.431-1.438.657-2.153.443-1.394-.639-1.845-1.774-1.989-.682-.088-2.383.854-2.458 1.766zM401.357 270.772c.181-.021.093-.226.077-.365-.146-.006-.144.283-.077.365zM405.688 277.636c.119 1.453 1.958 1.477 1.62-.272-.31-1.602-1.751-1.311-1.62.272zM401.849 270.68c.013.364.03.496.348.515.171-.31.039-.822-.348-.515zM394.753 261.703a153.785 153.785 0 0 0-6.213-4.13c-1.444-.918-2.802-2.041-4.44-1.845-.458.057-1.282-.261-1.681.146.011.291.03.578.058.867.618 1.007.865 2.191 1.382 3.313.934 2.04 2.687 3.87 4.455 4.943 1.684 1.018 4.031 2.6 5.905 2.969 1.586.308 3.2 1.925 4.818 1.989 2.101.083-.666-4.11-.801-4.709-.339-1.508-2.415-2.789-3.483-3.543zM341.139 244.131c.394-1.066.786-2.043.625-3.23-.299-.62-1.502-.283-1.957-.245-1.796.145-2.979-.648-3.645 1.811-1.162 4.303 3.782 4.882 4.977 1.664zM334.508 262.918c.784-1.078 1.398-2.305 1.886-3.587-.74-.121-1.982 2.917-1.886 3.587zM335.895 268.492c.558-.874-.524-4.174-1.196-2.251-.199.572-.503 1.495-.208 2.086.287.581 1.02.769 1.404.165zM342.035 239.613c.998-1.061.631-1.864-.566-2.309-1.469-.546-2.766-.449-3.879.687-.868.884-.062 1.556.791 1.78.928.243 2.943.597 3.654-.158zM410.964 271.552c1.473-.173.478-2.581-.276-2.621-.714-.038-1.327 2.807.276 2.621zM402.252 265.396c.303.779.323 1.672.675 2.43.771 1.646 3.074-.164 3.937-.803.867-.643 1.123.745.618 1.359-.458.556-.748.837-1.313 1.134-.743.388-.941 1.415.08 1.416.656 0 1.18-.39 1.685-.828.594-.518 1.475-.595 1.34-1.593-.104-.768-.573-1.319-.922-1.943-1.041-1.85-2.331-2.722-3.997-3.741-1.284-.786-2.92-2.207-4.413-2.386-1.269-.154.226 2.062.493 2.442.559.806 1.465 1.609 1.817 2.513zM422.404 265.011c.701-.807-.202-1.919-.027-3.088-.956.348-1.022 2.856.027 3.088zM421.956 266.218c.121-1.465-1.707-.909-1.569.464.128 1.235 1.498.358 1.569-.464zM409.588 277.315c.559.668 1.346-.007 1.152-.827-.261-1.102-1.355-.174-1.152.827zM409.668 264.365c.392-.722 1.914-2.048.8-2.773-.556-.362-1.036.542-1.321.959-.362.532-.93 1.245-.686 1.972.346 1.023.878.455 1.207-.158zM343.384 272.947c2.16-.203 4.264-1.302 6.461-1.229 2.488.084 5.125-.016 7.643-.034 2.55-.018 5.058-1.141 7.536-1.744.256-.063 2.992-.794 1.561-1.213-.777-.229-1.701-.491-2.502-.578-2.542-.27-5.173-1.27-7.706-1.83-2.723-.601-5.471-1.048-8.21-1.568-1.598-.305-4.844-1.041-5.299 1.565-.218 1.224-1.436 6.813.516 6.631zM345.096 256.205c-.086 1.943 1.842 2.168 2.709.729 1.21-2.009-2.626-2.608-2.709-.729zM344.438 252.649c.192 1.637 3.909.877 4.238-.353.445-1.655-4.545-2.234-4.238.353zM337.643 262.737c.814-.029 1.516-.711 2.079-1.319.661-.711 1.366-1.632.034-1.993-.899-.24-1.124.576-1.611 1.247-.61.837-.716 1.094-.502 2.065zM360.889 232.121c-.141-.783-1.268-.756-1.785-.789.231.328.523.552.877.671.298.065.602.101.908.118zM355.903 237.927c-.065.998 2.547 1.411 3.136 1.687.316.147 2.96 1.529 2.377-.12-.278-.786-5.417-3.015-5.513-1.567zM375.947 267.338c3.155-1.432-2.868-3.442-3.8-3.815-5.361-2.153-10.597-4.65-16.125-6.093-1.266-.33-2.91-1.32-3.994-.167-.978 1.042-1.883 2.151-2.901 3.148-.619.606-1.191 1.286-1.45 2.191.505.446 1.186.489 1.794.554 1.316.14 2.587.579 3.895.776 1.633.247 3.296.194 4.935.413 1.24.165 2.354.831 3.597.958 2.518.256 5.048 1.296 7.546 1.82 1.996.421 4.518 1.115 6.503.215zM351.244 254.325c.263.523.938.93 1.454.992.957.115 1.857-.707 2.153-1.722-.437-.906-1.423-.811-2.177-.579-.444.133-1.862.446-1.43 1.309zM345.213 248.943c.997.849 3.234-1.913 4.265-1.902.028-.438-4.034 1.069-4.265 1.902zM339.845 274.053c1.182-.363.132-2.736-.844-2.533-1.306.268-.724 3.016.844 2.533zM341.8 254.597c-1.514-.513-2.657 2.903-.96 3.032 1.415.107 2.469-2.519.96-3.032zM340.252 265.054c-.212-.687-1.036-.756-1.522-.436-.567.374-.372 1.401-.283 2 .3 2.059 2.297.011 1.805-1.564zM350.792 248.006c-.537.276-1.897.67-1.949 1.526-.087 1.457 2.635.755 3.169.191.2-1.277.289-2.493-1.22-1.717zM340.158 253.204c.903.021 2.559-2.064 3.236-2.705-.333-.669-3.135 1.88-3.236 2.705zM344.935 260.709c-1.063-.787-2.514.235-2.313 1.712.986.896 2.769.093 2.313-1.712zM358.39 304.891c.078-1-2.467-.868-2.636-.096.408.267 2.556 1.104 2.636.096zM370.002 294.672c1.91-1.204 3.793-2.466 5.764-3.54 1.839-1 3.834-1.608 5.633-2.618 1.899-1.066 3.93-1.703 5.874-2.667 1.979-.982 3.908-2.073 5.918-2.979.751-.339 5.934-2.888 5.167-3.838-.974-1.204-4.086.175-5.305.358-4.266.639-8.524 1.52-12.815 1.957-1.852.189-4.313.377-5.94 1.549-1.88 1.354-3.999 1.628-5.954 2.608-.946.475-1.565 1.486-2.557 1.899-1.018.423-2.059.819-3.146.835-1.688.026-4.519 1.786-6.004 2.848-.632.453-2.063 1.087-2.381 1.896-.376.957-.208 2.882.3 3.63 1.01 1.484 1.497 4.481 3.39 4.922.677.158 2.011-.78 2.597-1.117 1.125-.651 2.209-1.396 3.295-2.132 2.004-1.358 4.135-2.332 6.164-3.611zM353.92 303.627c.155-1.059-.141-1.739-.579-2.618-.396-.796-1.996-1.267-1.868.205.064.75.449 1.89.676 2.61.286.914 1.63.758 1.771-.197zM351.868 306.658c.533.381 1.875.54 2.42.083.083-.719-2.09-.544-2.42-.083zM356.868 307.761c.419.558 1.151.794 2.05.864.773-.873-1.596-1.908-2.05-.864zM394.107 285.023c-2.183 1.1-4.125 2.679-6.289 3.813-1.835.959-3.646 1.837-5.504 2.754-1.113.549-2.067 1.29-3.238 1.731-.743.281-1.688.506-2.294 1.112-1.102 1.106-3.143 1.667-4.485 2.412-1.165.646-2.329 1.191-3.454 1.828a141.402 141.402 0 0 1-5.735 3.047c-1.582.8-2.294 1.107-1.025 2.715 1.875.548 3.941 1.48 5.765.193 2.899-2.048 6.083-3.758 9.054-5.469 6.885-3.964 15.215-7.466 20.279-14.511.469-.652 1.156-1.199 1.313-2.081-.605-.364-3.718 2.119-4.387 2.456zM360.85 306.965c.297.923 2.491 1.183 2.322-.06-.123-.914-2.874-1.655-2.322.06zM396.073 289.065c-.394.579-1.084.354-1.582.892-.881.955.327.706.706.742.416-.769 1.128-1.194 1.819-1.556.05-.816-.638-.528-.943-.078zM340.759 287.973c-.634 1.91 2.362 2.853 2.521 1.078.096-1.056-2.115-2.309-2.521-1.078zM345.627 299.368c-1.83.067-.914 2.358.452 2.252.64-.051 1.144-.601 1.11-1.355-.041-.94-.889-.922-1.562-.897zM345.72 293.27c-1.035-.004-.511 1.313-.387 1.95.573 2.899 2.902.551 2.053-1.003-.258-.471-1.193-.946-1.666-.947zM350.175 295.544c-.506.365-1.646.996-1.153 1.864.36.639 1.214 1.132 1.89.986 1.307-.281 1.081-4.163-.737-2.85zM349.786 281.318c.784-.381 1.708-.593 2.383-1.221.433-.401 1.499-.58 2.049-.814.71-.3 1.431-.513 2.146-.734.984-.306 2.021-.774 2.973-1.206 1.038-.471.525-.861-.016-1.51-1.142-1.376-3.702-1.877-5.305-2.112-1.804-.27-3.618-.146-5.445-.021-.782.053-5.978.531-5.525 1.572.051.114-.823 1.947-.883 2.271-.148.833-.189 1.73-.015 2.556.747.483 1.673 1.696 2.112 2.533.662 1.268.511 1.306 1.999.636 1.223-.551 2.325-1.366 3.527-1.95zM392.783 270.123c-3.251-1.104-6.718-3.224-10.162-3.06-1.924.094-2.992.773-4.416 2.188-1.367 1.358-3.924.614-5.574.636-3.011.046-7.14 1.339-9.717 3.173-3.21 2.28 5.471 3.732 6.563 4.018 3.327.862 6.688.872 10.052.788 3.66-.092 7.722-.276 11.313-1.119 1.548-.362 3.277-.61 4.815-.825 1.367-.19 3.072.017 4.313-.911 1.09-2.25-6.149-4.537-7.187-4.888zM352.725 291.532c1.862-1.2 3.484-2.736 5.336-3.953 1.776-1.172 3.543-2.433 5.406-3.42 1.62-.857 3.861-1.492 5.609-1.883.973-.215 3.815-.61 4.314-1.775-.077-.519-5.179-1.132-5.854-1.278-1.698-.369-3.907-.672-5.619-.428-3.785.537-7.469 2.373-11.056 3.836-1.771.724-3.534 1.591-5.16 2.681-.797.534.724 2.616 1.002 3.267.696 1.624 1.277 2.009 2.684 2.933 1.193.777 2.194.756 3.338.02zM347.342 303.917c-.068 1.15 2.506 2.503 2.544.839.036-1.474-2.409-3.034-2.544-.839zM413.825 265.172c-.88.088-.854 2.691.4 2.308.401-.719.609-2.41-.4-2.308zM412.012 278.265c-.501 1.078.517 1.154 1.168 1.181.291-.302.563-.869.461-1.328-.181-.836-1.233-.018-1.629.147zM413.298 273.036c-.646.191-.794 1.736-.672 2.181.933.123.839-.439.777-1.249.1-.336.063-.647-.105-.932zM415.646 259.646c-.497.359-1.178 2.114-.226 2.289 1.449.267 1.231-3.017.226-2.289zM415.459 270.268c-.351.359-1.307 2.326-.479 2.562.935.267 1.503-2.322.479-2.562zM410.328 283.838c-.334.513.49 2.295-.548 1.929-.829-.294-1.05.671-.429.688 1.264.042 1.475-.874 2.063-1.872-.265-.433-.625-.679-1.086-.745zM409.214 271.927c-.609.066-1.628 2.005-1.506 2.624 1.387.57 1.451-1.626 1.506-2.624zM402.89 272.877c-.664.044-.758 1.226-.604 1.729.494 1.605 2.126 1.853 2.255-.247-.836-.812-.096-1.584-1.651-1.482zM401.538 283c-.468-.02-.744.79-.982 1.112-1.205 1.635.271 1.687 1.177.484.328-.432.777-1.554-.195-1.596zM416.638 267.687c-.811.036-.083 2.185.125 2.551.36.636.969-2.602-.125-2.551zM409.721 283.185c.08-.763-1.063-.777-1.297-.211-.498 1.208 1.214.993 1.297.211zM401.252 279.937c.969-.324.492-2.35-.408-2.407-.864-.055-1.727 3.119.408 2.407zM406.111 281.364c-.429.563.028 1.604.433 1.753 1.349.496.833-2.094-.433-1.753zM404.171 284.946c.163.061 1.902-.182 1.958-.312.291-.672-2.188-.875-1.958.312zM322.17 255.636c1.2-2.623-2.353-1.904-3.215-.878-.825.983 2.232 3.032 3.215.878zM320.448 260.035c.058 1.66 3.057 1.518 2.01-.644-.578-1.19-2.059-.793-2.01.644zM316.896 257.097c-1.382.473.099 1.815.872 1.79 1.811-.063.733-2.336-.872-1.79zM341.737 295.271c-.427-.394-1.104.159-1.191.71-.114.694.465 1.615.843 2.087.952 1.183 1.248-1.968.348-2.797zM324.497 264.673c.73.817 3.847.952 2.5-.603-.462-.056-4.09-1.17-2.5.603zM334.317 246.374c.015-.23-.779-1.032-.946-1.292-.417-.648-.693-.979-.936-1.772-.65-2.15-1.799-1.326-3.491-1.006-2.838.536-5.398 1.631-7.468 3.783-1.706 1.776.115 4.903 2.203 4.469 2.834-.591 5.471-2.23 8.255-3.094.796-.245 1.687-.558 2.383-1.088zM314.487 249.468c.393.729.893 1.994 1.851 1.866.358-.045 1.803-1.66 1.903-2.043.922-3.543-4.598-1.393-3.754.177zM308.185 239.923c1.089-.197 2.814-.638 2.62-2.308-.977-.337-4.016.531-2.62 2.308zM311.56 246.544c-.854-.176-1.296 1.108-.874 1.982 1.268.573 1.809-1.789.874-1.982zM309.994 234.048c-.588.083-1.001 1.311-1.041 1.858-.058.867 1.259.436 1.762.53 1.141-.334.168-2.512-.721-2.388zM314.209 254.479c.138 1.124 2.446 1.041 1.92-.564-.616-.658-1.515.118-1.92.564zM328.482 267.337c-.746 1.24 1.455 3.238 2.142 1.888.805-1.591-.842-4.043-2.142-1.888zM312.425 251.373c-1.605-.347-1.761 1.972-.382 2.356 1.394.389 2.081-1.992.382-2.356zM315.139 246.203c.913.18 2.898-1.666 1.442-1.886-.554-.086-1.269-.098-1.755.289-.556.442-.372 1.464.313 1.597zM326.135 258.712c2.095-.39-.349-1.848-1.313-1.741-2.04.225.515 1.889 1.313 1.741zM336.406 284.132c-1.568-.237-.606 3.623-.063 3.759 1.405.355 1.389-3.557.063-3.759zM309.183 243.453c-1.927-.206-1.018 1.679-.282 2.499 1.327-.485 2.147-2.3.282-2.499zM338.284 276.225c-1.347-.338-1.577 2.139-.645 2.676 1.993.59 1.672-2.42.645-2.676zM340.725 282.983c-1.523.271-.911 2.822.32 2.909 1.761.125 1.367-3.208-.32-2.909zM338.142 290.714c-1.426-.848-.827 2.089.32 2.241.525.07 1.293-.373 1.131-1.115-.138-.617-1.027-.873-1.451-1.126zM336.791 250.965c-.14-.751-.41-2.38-1.1-2.581-1.954-.568-4.646.45-6.439 1.396-1.076.569-1.969 1.72-1.304 2.995.5.961 1.304 1.247 1.63 2.307.793 2.578 4.643-.228 5.833-.931 1.203-.71 1.679-1.569 1.38-3.186zM329.231 259.206c-.929.167-3.82 1.265-2.078 2.364.768.485 2.604 1.625 3.46.914 2.315-1.91 1.142-3.728-1.382-3.278zM332.908 265.288c-.248.094-.661 4.255-.379 4.483.217-.234.287-.519.213-.853.194-1.062.666-2.606.166-3.63zM338.943 254.611c-.316.186-2.439 2.299-1.568 2.743.538-.505 1.335-1.75 1.71-2.427a.668.668 0 0 0-.142-.316zM331.923 272.696c-.304.16-.389.953-.301 1.4.287-.135.536-1.237.301-1.4zM334.552 275.568c.566-1.018 1.038-1.971 1.056-3.206-.492-.405-1.049-.307-1.439.226-.761 1.035-1.099 2.972.383 2.98zM333.581 279.149c-.547 1.047.171 2.202 1.271 2.176 1.45-.995-.529-2.114-1.271-2.176z"/><path fill="#1F2D49" d="M450.668 277.346c-4.176-1.121-8.364-1.509-12.524-2.503-1.438-.345-2.75-.825-4.157-1.355-1.706-.644-3.272-1.685-4.948-2.278-1.775-.63-2.623-.284-4.312.583-1.973 1.016-4.049 1.726-6.021 2.741-.87-.717-.749-2.378-.676-3.448.05-.712.134-1.421.203-2.133.573-.05 1.151.091 1.715.185 2.722.459 3.291-1.935 3.863-4.565.26-1.188.089-2.827-.509-3.844-.686-1.17 1.582-1.634 2.189-1.979 2.84-1.609 5.783-3.236 8.725-4.635 2.082-.99 4.686-3.373 7.018-3.084 1.016.125 2.762-.771.844-1.183-1.206-.26-1.981.06-3.054.619-3.038 1.577-6.05 3.211-9.066 4.842-1.213.656-7.61 5.214-8.556 3.102 2.204-2.646 4.688-5.047 6.977-7.604 1.148-1.282 2.328-2.523 3.502-3.775.916-.976 2.392-3.392 3.641-3.748 1.031-.296 2.785.167 1.6-1.508-1.31-.078-2.202.708-3.218 1.646-1.087 1.007-2.06 2.161-3.049 3.287-1.025 1.169-2.529 2.186-3.302 3.589-1.418 2.578-4.328 4.79-6.316 6.808-2.084 2.116-5.544-.22-8 .994-2.21 1.092-4.238-1.02-5.489-2.744-1.902-2.621-5.206-4.652-7.659-6.549-5.313-4.103-10.914-7.293-16.854-10.047-2.262-1.048-4.494-2.417-6.733-3.599-2.268-1.197-4.483-2.287-6.813-3.249-4.222-1.744-8.391-3.979-12.837-4.966-2.318-.51-4.56-1.587-6.96-1.965-1.371-.217-2.658-.767-4.036-.984-1.252-.197-2.608-.596-3.86-.642-2.067-.073-4.227-.433-6.305-.649-1.642-.172-4.021.1-5.543-.572-.698-.308-1.041-.021-1.703.073-1.389.198-2.753-.266-4.14-.188-.559.032-1.299.134-1.849.259-.997.229-2.064.054-3.045.359-3.839 1.191-7.362 2.077-10.341 5.312-1.415 1.535-.964 3.824-2.012 5.643-.905 1.571-1.725 3.574-1.993 5.437-.244 1.692-.209 4.711.616 6.162 1.036 1.829 2.154 3.704 2.565 5.868.343 1.807 2.007 3.976 3.35 4.989.843.637 1.446 1.276 2.103 2.15.74.983 1.879 1.156 2.818 1.785.672.452.979 1.088 1.809 1.205 1.113.153 1.366 1.229 2.093 2.025 1.512 1.658 3.375 2.512 4.842 4.188.593.681 1.334 1.175 1.906 1.871.533.648.642 1.707 1.067 2.469.484.867 1.035 1.701 1.674 2.424.752.845.857.854 1.735.488-.04 1.355-.509 2.547-.843 3.83-.215.811 1.006 2.315 1.35 3.05 1.091 2.325 2.181 5.64 2.315 8.223.075 1.438 1.202 2.391 1.961 3.438.74 1.024.734 2.397 1.67 3.27 1.057.99 1.219 2.135 1.77 3.438.648 1.529 1.258 1.534 2.521 2.174.863.438.85 1.899 1.817 2.367 1.215.589 1.948.887 2.796 2.097 1.739 2.491 5.049 1.87 7.588 2.381 2.478.497 4.343 1.038 6.867.554 2.684-.516 5.246-1.965 7.716-3.317 5.493-3.014 10.833-6.354 16.462-9.024 2.947-1.4 5.778-3.097 8.802-4.281 2.844-1.114 6.279-2.405 8.265-5.163.36-.502.526-1.059.833-1.586.376-.65.911-.104 1.492-.11a4.845 4.845 0 0 1 2.391.572c.558.303 1.265 1.02 1.554 1.645.49 1.057-.337 2.482-.686 3.555-.841 2.577-1.774 4.563-3.042 6.864-.714 1.3 1.069 1.272 1.665.908 1.269-.773 2.47-1.901 3.616-2.883 1.654-1.418 3.578-1.46 5.459-.639 1.269.553 3.847 3.015 3.998.018.045-.896-2.604-.882-3.257-1.133-.94-.361-1.634-1.003-2.695-.902-2.253.214-3.965 1.559-5.89 2.913-.072-1.098 1.078-2.431 1.497-3.362.642-1.438 1.199-2.975 1.194-4.618-.001-1.192.172-2.479.955-3.397.959-1.119.966-3.207 2.451-3.618 2.269-.631 4.055-.633 6.335-.773 2.506-.153 4.55-2.463 6.976-1.26 2.379 1.182 4.357 3.13 6.59 4.649a52.497 52.497 0 0 0 3.381 2.133c1.374.786 3.307.844 4.523 1.739 1.052.771 2.546.968 3.689 1.67 1.031.635 1.724 1.639 2.632 2.445.408.36 1.97 1.264 1.652-.22-.269-1.263-1.799-2.048-2.679-2.616-1.903-1.227-4.303-2.699-6.456-3.194-2.967-.683-6.208-3.276-8.723-5.13-2.268-1.672-4.413-4.678-7.258-4.042-1.216.273-2.437.4-3.679.71-.338.085-3.741.345-2.794-.586.761-.75 2.314-.842 3.231-1.215 1.275-.518 2.315-1.239 3.412-2.123 2.507-2.013 5.651-.018 8.275.554 2.215.48 4.279 1.339 6.443 1.996 2.681.813 5.58.069 8.229 1.074 1.455.553 2.922 1.846 4.442 2.082.848.131 1.046-.63.516-1.284-.56-.699-1.527-.973-2.304-1.18zm-28.291-15.423c-.175 1.169.729 2.281.027 3.088-1.049-.232-.983-2.74-.027-3.088zm-.421 4.295c-.071.822-1.441 1.699-1.569.464-.138-1.373 1.69-1.929 1.569-.464zm-11.268 2.713c.754.04 1.749 2.448.276 2.621-1.603.186-.99-2.659-.276-2.621zm-1.1 8.384c-.203-1.001.892-1.93 1.152-.827.194.821-.594 1.495-1.152.827zm-.442-14.764c.285-.417.766-1.321 1.321-.959 1.114.726-.408 2.052-.8 2.773-.329.612-.861 1.181-1.207.157-.243-.726.324-1.439.686-1.971zm-9.205-2.11c1.493.179 3.129 1.6 4.413 2.386 1.666 1.02 2.956 1.892 3.997 3.741.349.624.818 1.176.922 1.943.135.998-.746 1.075-1.34 1.593-.505.438-1.028.828-1.685.828-1.021-.001-.823-1.028-.08-1.416.564-.297.854-.578 1.313-1.134.505-.614.249-2.002-.618-1.359-.862.639-3.166 2.448-3.937.803-.352-.758-.372-1.65-.675-2.43-.352-.904-1.258-1.707-1.817-2.513-.267-.38-1.761-2.596-.493-2.442zm5.747 17.195c-.132-1.583 1.31-1.874 1.62-.272.338 1.748-1.5 1.725-1.62.272zm-3.492-6.442c-.317-.019-.335-.15-.348-.515.388-.306.52.206.348.515zm-.839-.422c-.067-.082-.069-.371.077-.365.016.14.104.344-.077.365zm-2.32-.816c-1.618-.064-3.232-1.682-4.818-1.989-1.874-.369-4.222-1.951-5.905-2.969-1.769-1.073-3.521-2.903-4.455-4.943-.517-1.121-.764-2.306-1.382-3.313a15.638 15.638 0 0 1-.058-.867c.398-.407 1.223-.09 1.681-.146 1.639-.196 2.996.927 4.44 1.845a153.43 153.43 0 0 1 6.213 4.13c1.068.754 3.145 2.035 3.483 3.544.135.598 2.902 4.791.801 4.708zm-64.339-3.715c.672-1.923 1.754 1.377 1.196 2.251-.384.604-1.116.416-1.404-.165-.295-.591.009-1.514.208-2.086zm-.19-3.323c-.096-.67 1.146-3.708 1.886-3.587-.488 1.282-1.102 2.509-1.886 3.587zm1.654-20.452c.665-2.459 1.849-1.666 3.645-1.811.455-.038 1.658-.375 1.957.245.161 1.188-.231 2.164-.625 3.23-1.195 3.219-6.139 2.64-4.977-1.664zm1.428-4.475c1.113-1.136 2.41-1.232 3.879-.687 1.197.444 1.564 1.248.566 2.309-.711.755-2.727.4-3.654.158-.853-.224-1.659-.896-.791-1.78zm2.166 21.434c1.332.361.627 1.282-.034 1.993-.563.608-1.265 1.29-2.079 1.319-.214-.972-.107-1.229.502-2.065.487-.671.711-1.487 1.611-1.247zm-1.027 5.193c.486-.32 1.311-.251 1.522.436.492 1.575-1.505 3.623-1.806 1.564-.088-.598-.283-1.626.284-2zm.272 6.902c.976-.203 2.025 2.17.844 2.533-1.568.483-2.15-2.265-.844-2.533zm1.839-13.891c-1.697-.129-.554-3.545.96-3.032 1.509.513.455 3.139-.96 3.032zm-.682-4.425c.101-.825 2.902-3.374 3.236-2.705-.677.641-2.332 2.726-3.236 2.705zm4.777 7.505c.456 1.805-1.326 2.608-2.313 1.712-.201-1.477 1.249-2.499 2.313-1.712zm7.077-10.985c-.534.563-3.256 1.266-3.169-.191.052-.856 1.412-1.25 1.949-1.526 1.509-.777 1.42.439 1.22 1.717zm.663 3.293c.754-.231 1.74-.327 2.177.579-.296 1.015-1.196 1.837-2.153 1.722-.517-.063-1.191-.469-1.454-.992-.433-.864.985-1.177 1.43-1.309zm-7.462-4.074c.231-.833 4.293-2.341 4.265-1.902-1.031-.011-3.268 2.751-4.265 1.902zm3.463 3.354c-.329 1.229-4.046 1.989-4.238.353-.307-2.588 4.683-2.009 4.238-.353zm-.871 4.638c-.867 1.438-2.795 1.214-2.709-.729.083-1.88 3.919-1.281 2.709.729zm-4.938 9.381c.455-2.606 3.701-1.87 5.299-1.565 2.739.521 5.487.968 8.21 1.568 2.533.561 5.164 1.561 7.706 1.83.801.087 1.725.35 2.502.578 1.432.419-1.305 1.15-1.561 1.213-2.479.604-4.986 1.727-7.536 1.744-2.518.019-5.154.118-7.643.034-2.197-.073-4.301 1.025-6.461 1.229-1.951.182-.733-5.407-.516-6.631zm19.029-1.012c-1.243-.127-2.356-.793-3.597-.958-1.639-.219-3.302-.166-4.935-.413-1.308-.197-2.578-.637-3.895-.776-.608-.064-1.289-.107-1.794-.554.259-.905.831-1.585 1.45-2.191 1.019-.997 1.924-2.106 2.901-3.148 1.084-1.153 2.729-.163 3.994.167 5.528 1.442 10.764 3.939 16.125 6.093.932.373 6.955 2.384 3.8 3.815-1.985.9-4.507.206-6.505-.214-2.496-.525-5.026-1.565-7.544-1.821zm-.48-25.811c.583 1.649-2.061.268-2.377.12-.589-.275-3.201-.688-3.136-1.687.096-1.447 5.235.782 5.513 1.567zm-2.312-8.161c.518.033 1.645.006 1.785.789a5.771 5.771 0 0 1-.908-.118 1.733 1.733 0 0 1-.877-.671zm-.368 8.8c.304.141 2.586 1.515 2.12 1.486-1.259-.089-2.516-.47-3.691-.958-.211-.085-2.865-1.666-1.627-1.872.998-.165 2.333.945 3.198 1.344zm.868 7.95c.605 2.1-3.527 3.936-4.041 1.877-.354-1.427-.375-2.265 1.055-2.437.95-.118 2.155-.025 2.986.56zm11.053 12.397c-.986-.546-2.264-.945-3.313-1.316-1.027-.367-2.203-.808-3.269-1.04-1.071-.238-5.936-1.057-5.953-2.481-.01-.841 1.5-1.828 2.062-2.153 1.198-.698 1.832-1.779 2.845-2.719 1.534-1.42 5.158 1.173 6.568 1.896 4.941 2.534 10.61 6.584 13.428 11.945-1.788.235-3.969-.271-5.592-1.14-2.188-1.17-4.645-1.816-6.776-2.992zm-4.865-12.208c1.256-.249 2.571-.221 3.831-.078 1.525.173 2.783.754.936 2.108-.925.679-4.923-.435-4.767-2.03zm23.708 7.291c.92-.835 2.306.048 3.146.56.401.191 2.103.826 1.366 1.643-.847.94-1.771.796-2.708.004-.575-.488-1.789-1.275-1.804-2.207zm-.06-5.248c1.31.545 2.372 1.225 3.728 1.643 1.159.359 2.36 1.131 3.417 1.762.608.366 1.224.72 1.826 1.096-.057-.041-.008-.011.236.146-.079-.049-.157-.095-.236-.146.175.134 1.448 1.024.733.833-2.261-.807-5.004-3.868-7.445-3.64-.712.065-6.538-2.215-6.425-3.241 1.246.117 2.981 1.054 4.166 1.547zm1.158 2.675c1.164.684 2.329 1.387 3.471 2.104.341.211 1.569 1.313 2.132 1.755.091.059.184.119.273.182-.029 0-.132-.072-.273-.182-.8-.512-1.681-.852-2.492-1.342-1.159-.701-11.516-6.275-11.391-6.856 2.801 1.344 5.579 2.751 8.28 4.339zm-9.179-4.639c-.478-.112-.919-.262-1.091-.682.382-.016.968.241 1.091.682zm-2.767 4.549c-.227.716-.431 1.438-.657 2.153-.729-.034-1.426-.214-2.065-.618-.459-.292-1.572-1.019-1.51-1.758.075-.912 1.776-1.854 2.458-1.767 1.136.146 2.218.597 1.774 1.99zm-5.179-18.478c.606.511 2.853.762 2.316 1.806-.584-.045-3.699-1.085-3.655-1.948.429-.289.897.186 1.339.142zm-.498 8.237c1.004.393 2.048.562 3.003 1.155.466.29-.402 1.034-.519 1.461-.622-.03-1.186-.299-1.742-.582-.951-.492-1.925-.758-2.866-1.254-1.57-.831 1.508-1.022 2.124-.78zm-1.989 1.508c.531.154 4.005 1.704 3.97 2.312-.857.329-2.614-1.015-3.423-1.378-1.212-.547-3.791-.91-4.553-2.248 1.472-.927 2.737.941 4.006 1.314zm-6.173.652c.615.347 1.319.515 1.881.978-.036.614-1.354.884-1.773.904-1.541.073-2.358-1.295-3.082-2.616 1.073-.435 2.054.217 2.974.734zm-5.265-15.747c.621.177 1.139.627 1.743.854.486.178 1.594.221 1.554 1.078-1.411-.017-2.482-.506-3.754-1.211-.775-.428-.114-.886.457-.721zm-1.466 6.224c.073.791-4.401.099-4.392-.895.014-1.314 4.278-.326 4.392.895zm-6.019 6.447c1.467.062 2.979.663 4.26 1.442 1.593.969-1.007 2.235-1.793 2.31-1.173.111-2.69.262-3.387-1.004-.699-1.267-.887-2.825.92-2.748zm-2.226-15.213c.595.202 1.175.452 1.751.712-.007.584-.415.664-.656 1.07-.104 1.484-1.595 1.01-2.43.749-1.463-.456-.9-.975-1.277-2.445-.28-1.093 2.166-.237 2.612-.086zm-5.149 10.145c.885-.425.388-.66.437-1.432.97-1.003 3.653.185 4.648.648 1.915.894.171 2.328-1.178 2.583-1.146.216-2.715-.291-3.765-.744-.567-.246-.921-.685-.142-1.055zm-2.779-7.92c.663-.009 2.089-.12 2.545.586 1.472 2.276-3.241 1.771-4.062 1.168-1.203-.887.885-1.746 1.517-1.754zm-6.111 4.69c1.218.198 2.264.767 3.437.978.47.087.985.094 1.434.303.639.296.497 1.071-.195 1.119-.753.052-6.829-2.052-6.766-2.587.698.009 1.397.077 2.09.187zm-15.777 4.656c.64-1.085 2.613-1.606 3.681-2.012 1.807-.683 3.581-.86 5.45-.537 1.193.209 3.699.036 4.549 1.171.363.486.661 1.259.906 1.817.487 1.108-.663 1.074-1.35 1.293-3.304 1.049-6.738 1.567-10.033 2.896-.856.348-4.279 1.692-4.607.091-.258-1.239.816-3.722 1.404-4.719zm-1.075.376c.104-.021.108-.171.276-.108-.013.222-.206.293-.276.108zm13.824-3.98c-.604.343-1-.143-1.547-.277-.558-.139-5.529-.42-5.035-1.414.466-.018 6.827.549 6.582 1.691zm-5.658-3.611c.35.056 4.078.263 3.869 1.099-.243 1.157-4.93-.514-5.288-.813.215-.719.979-.351 1.419-.286zm-3.495-7.306c.306-.088 2.567-.133 2.391.577a3.625 3.625 0 0 1-1.986.607c-.672.017-1.379-.898-.405-1.184zm-2.915.072c-.312.136-.869.362-1.017-.124.174-.275.911-.174 1.017.124zm-.428 2.627c.354-.509 2.2-.698 2.144.191-.255.273-2.8 3.727-3.136 2.104-.094-.45.733-1.925.992-2.295zm-1.955 4.695c1.326.147 2.66-.122 3.943.353.593.219 1.997.953.635 1.317-.91.244-2.129.326-3.019-.03-.682-.273-3.604-.729-3.836-1.405.434-.787 1.669-.304 2.277-.235zm-2.347 3.505c.137-.726-.427-1.17.465-1.352.585-.117 1.184.111 1.707.36 1.668.791.926 1.633-.137 2.71-.854.868-1.687 1.617-2.893 1.432-.363-1.204.652-2.053.858-3.15zm-1.862 5.317c1.67-.981 4.23.37 2.051 1.968-.863.632-2.201 1.479-3.036.374-.787-1.041.219-1.892.985-2.342zm-5.21 6.157c-.735-.82-1.645-2.705.282-2.499 1.866.199 1.046 2.014-.282 2.499zm-.715-6.029c-1.396-1.777 1.644-2.645 2.62-2.308.194 1.67-1.532 2.111-2.62 2.308zm2.53-3.486c-.503-.095-1.819.337-1.762-.53.04-.548.453-1.775 1.041-1.858.889-.125 1.862 2.053.721 2.388zm-.029 12.089c-.422-.874.021-2.158.874-1.982.935.193.394 2.555-.874 1.982zm1.357 5.203c-1.379-.385-1.224-2.703.382-2.356 1.699.364 1.012 2.745-.382 2.356zm2.783-9.123c.486-.387 1.201-.375 1.755-.289 1.456.22-.529 2.065-1.442 1.886-.685-.133-.869-1.155-.313-1.597zm-.617 9.873c.405-.445 1.304-1.222 1.92-.564.526 1.605-1.782 1.688-1.92.564zm2.129-3.145c-.958.128-1.458-1.137-1.851-1.866-.845-1.569 4.676-3.72 3.754-.177-.1.383-1.545 1.998-1.903 2.043zm1.431 7.553c-.773.025-2.254-1.317-.872-1.79 1.604-.546 2.682 1.727.872 1.79zm1.186-4.129c.862-1.026 4.415-1.745 3.215.878-.983 2.154-4.04.105-3.215-.878zm1.493 5.277c-.049-1.438 1.432-1.834 2.01-.644 1.047 2.162-1.952 2.304-2.01.644zm1.029-13.948c2.069-2.152 4.63-3.247 7.468-3.783 1.692-.32 2.841-1.145 3.491 1.006.242.794.519 1.124.936 1.772.167.26.961 1.062.946 1.292-.696.53-1.587.843-2.383 1.088-2.784.863-5.421 2.503-8.255 3.094-2.088.434-3.909-2.693-2.203-4.469zm3.345 10.884c.964-.106 3.407 1.352 1.313 1.741-.798.148-3.353-1.516-1.313-1.741zm-.325 7.702c-1.59-1.772 2.038-.659 2.5-.603 1.347 1.555-1.769 1.42-2.5.603zm6.127 4.552c-.687 1.351-2.888-.647-2.142-1.888 1.3-2.155 2.947.297 2.142 1.888zm-.011-6.741c-.856.711-2.692-.429-3.46-.914-1.742-1.1 1.149-2.197 2.078-2.364 2.524-.45 3.697 1.368 1.382 3.278zm1.009 11.613c-.088-.447-.003-1.24.301-1.4.235.162-.014 1.264-.301 1.4zm.907-4.326c-.282-.229.131-4.39.379-4.483.5 1.023.027 2.568-.166 3.631.074.334.004.618-.213.852zm-2.951-14.689c-.326-1.06-1.13-1.346-1.63-2.307-.665-1.275.228-2.426 1.304-2.995 1.794-.946 4.485-1.965 6.439-1.396.689.201.96 1.83 1.1 2.581.299 1.617-.177 2.477-1.38 3.187-1.19.702-5.04 3.508-5.833.93zm4.59 17.506c.391-.532.947-.631 1.439-.226-.018 1.235-.489 2.188-1.056 3.206-1.481-.008-1.143-1.945-.383-2.98zm.685 8.737c-1.101.026-1.818-1.129-1.271-2.176.741.062 2.72 1.181 1.271 2.176zm4.09-26.714c.073.089.12.193.142.316-.375.677-1.172 1.922-1.71 2.427-.871-.444 1.252-2.557 1.568-2.743zm-2.599 33.28c-.544-.136-1.506-3.996.063-3.759 1.325.202 1.341 4.114-.063 3.759zm1.296-8.991c-.933-.537-.702-3.014.645-2.676 1.026.257 1.347 3.267-.645 2.676zm.822 14.055c-1.147-.152-1.746-3.089-.32-2.241.425.253 1.313.509 1.451 1.126.162.742-.606 1.185-1.131 1.115zm2.263-9.972c1.688-.3 2.081 3.033.32 2.909-1.232-.086-1.844-2.638-.32-2.909zm.664 15.084c-.378-.472-.957-1.393-.843-2.087.088-.551.765-1.104 1.191-.71.9.83.604 3.981-.348 2.797zm-.63-10.094c.406-1.23 2.617.022 2.521 1.078-.159 1.774-3.155.832-2.521-1.078zm3.502-5.342c-.439-.837-1.365-2.05-2.112-2.533-.175-.825-.134-1.723.015-2.556.06-.323.934-2.156.883-2.271-.452-1.041 4.743-1.52 5.525-1.572 1.827-.124 3.642-.248 5.445.021 1.603.235 4.163.736 5.305 2.112.541.648 1.054 1.039.016 1.51-.951.432-1.988.9-2.973 1.206-.716.222-1.437.435-2.146.734-.55.234-1.616.413-2.049.814-.675.628-1.599.84-2.383 1.221-1.202.584-2.304 1.398-3.526 1.948-1.49.672-1.338.633-2-.634zm1.818 18.989c-1.366.106-2.282-2.185-.452-2.252.673-.025 1.521-.043 1.563.896.033.756-.471 1.305-1.111 1.356zm-.746-6.4c-.124-.637-.648-1.954.387-1.95.474.001 1.408.477 1.666.947.849 1.554-1.48 3.902-2.053 1.003zm1.371-6.642c-.278-.65-1.799-2.732-1.002-3.267 1.626-1.09 3.389-1.957 5.16-2.681 3.587-1.463 7.271-3.299 11.056-3.836 1.712-.244 3.921.059 5.619.428.675.146 5.776.76 5.854 1.278-.499 1.165-3.342 1.561-4.314 1.775-1.748.391-3.989 1.025-5.609 1.883-1.863.987-3.63 2.248-5.406 3.42-1.852 1.217-3.474 2.753-5.336 3.953-1.144.735-2.145.757-3.337-.021-1.408-.923-1.989-1.308-2.685-2.932zm.638 15.339c.135-2.195 2.58-.635 2.544.839-.038 1.664-2.613.311-2.544-.839zm3.569-5.522c-.676.146-1.529-.348-1.89-.986-.493-.868.647-1.499 1.153-1.864 1.819-1.314 2.045 2.568.737 2.85zm2.43 2.614c.438.879.734 1.56.579 2.618-.141.955-1.485 1.111-1.771.197-.227-.721-.611-1.86-.676-2.61-.128-1.472 1.472-1.001 1.868-.205zm-1.473 5.649c.33-.461 2.503-.636 2.42.083-.545.457-1.887.298-2.42-.083zm7.05 1.967c-.898-.07-1.631-.307-2.05-.864.454-1.044 2.823-.009 2.05.864zm-3.164-3.83c.169-.772 2.714-.904 2.636.096-.08 1.008-2.228.171-2.636-.096zm2.191-3.263c-1.893-.44-2.38-3.438-3.39-4.922-.508-.748-.676-2.673-.3-3.63.318-.809 1.749-1.442 2.381-1.896 1.485-1.062 4.315-2.821 6.004-2.848 1.087-.016 2.128-.412 3.146-.835.991-.413 1.61-1.425 2.557-1.899 1.955-.98 4.074-1.254 5.954-2.608 1.628-1.172 4.089-1.359 5.94-1.549 4.291-.438 8.55-1.318 12.815-1.957 1.219-.184 4.331-1.563 5.305-.358.767.95-4.416 3.499-5.167 3.838-2.01.905-3.938 1.996-5.918 2.979-1.944.964-3.975 1.601-5.874 2.667-1.799 1.01-3.794 1.618-5.633 2.618-1.971 1.074-3.854 2.336-5.764 3.54-2.029 1.279-4.16 2.253-6.165 3.611-1.086.736-2.17 1.48-3.295 2.132-.585.337-1.919 1.275-2.596 1.117zm2.905 5.433c-.552-1.715 2.199-.974 2.322-.06.169 1.242-2.026.983-2.322.06zm34.347-16.266c-.379-.036-1.587.213-.706-.742.498-.538 1.188-.313 1.582-.892.305-.45.993-.738.943.078-.691.362-1.403.788-1.819 1.556zm1.983-6.05c-5.064 7.045-13.395 10.547-20.279 14.511-2.971 1.711-6.154 3.421-9.054 5.469-1.823 1.287-3.89.354-5.765-.193-1.269-1.607-.557-1.915 1.025-2.715a141.402 141.402 0 0 0 5.735-3.047c1.125-.637 2.289-1.182 3.454-1.828 1.343-.745 3.384-1.306 4.485-2.412.605-.606 1.551-.831 2.294-1.112 1.171-.441 2.125-1.183 3.238-1.731 1.858-.917 3.669-1.795 5.504-2.754 2.164-1.134 4.106-2.713 6.289-3.813.669-.338 3.781-2.82 4.385-2.455-.155.881-.843 1.428-1.311 2.08zm2.79-9.638c-1.241.928-2.946.721-4.313.911-1.538.215-3.268.463-4.815.825-3.591.843-7.652 1.027-11.313 1.119-3.363.084-6.725.074-10.052-.788-1.092-.285-9.772-1.737-6.563-4.018 2.577-1.834 6.706-3.127 9.717-3.173 1.65-.021 4.207.723 5.574-.636 1.424-1.415 2.492-2.095 4.416-2.188 3.444-.164 6.911 1.956 10.162 3.06 1.038.351 8.277 2.638 7.187 4.888zm.874 2.518c.9.058 1.377 2.083.408 2.407-2.135.713-1.272-2.461-.408-2.407zm.888 7.068c-.905 1.202-2.382 1.15-1.177-.484.238-.322.515-1.132.982-1.112.973.041.524 1.163.195 1.596zm.553-9.992c-.153-.503-.06-1.685.604-1.729 1.556-.102.815.67 1.65 1.481-.128 2.101-1.76 1.854-2.254.248zm3.844 10.03c-.056.13-1.795.372-1.958.312-.23-1.188 2.249-.985 1.958-.312zm.415-1.518c-.404-.148-.861-1.189-.433-1.753 1.266-.341 1.782 2.249.433 1.753zm1.164-8.566c-.122-.619.896-2.558 1.506-2.624-.055.998-.119 3.194-1.506 2.624zm.716 8.423c.233-.566 1.377-.552 1.297.211-.083.782-1.795.997-1.297-.211zm.928 3.481c-.621-.018-.4-.982.429-.688 1.038.366.214-1.416.548-1.929.461.066.821.313 1.087.745-.59.998-.801 1.914-2.064 1.872zm3.274-11.238c-.122-.444.026-1.989.672-2.181.168.285.205.596.105.932.062.809.156 1.372-.777 1.249zm.554 4.228c-.651-.026-1.669-.103-1.168-1.181.396-.165 1.448-.982 1.629-.147.101.459-.17 1.027-.461 1.328zm1.046-11.966c-1.255.384-1.28-2.22-.4-2.308 1.008-.101.8 1.59.4 2.308zm1.42-7.833c1.005-.729 1.223 2.556-.226 2.289-.951-.174-.271-1.929.226-2.289zm-.666 13.183c-.828-.235.128-2.202.479-2.562 1.024.241.456 2.83-.479 2.562zm1.783-2.592c-.208-.366-.936-2.515-.125-2.551 1.094-.05.485 3.188.125 2.551z"/><path fill="#FF9323" d="M398.411 254.814c.079.051.157.097.236.146-.244-.156-.293-.187-.236-.146zM396.2 256.848c.142.109.244.182.273.182a6.81 6.81 0 0 0-.273-.182z"/><path fill="#FFC72A" d="M399.979 348.277v-29.846c1.843-.494 4.313-.329 6.172-.806.343-.658.716-1.281 1.085-1.908a9.435 9.435 0 0 0 1.042-.199c2.156-4.152 4.942-7.637 8.024-10.813a136.527 136.527 0 0 1 5.063-4.549c1.346 1.009 2.125 2.616 4.147 2.911v4.368c1.446-.308 1.833.499 2.767.729V313.987c1.419.69 3.292.901 3.459 2.912 1.624-.232 2.597-1.151 4.84-.729-.133-.949-.038-1.657.259-2.152a5.367 5.367 0 0 1 1.868.045 5.883 5.883 0 0 1-.057-.865c.219.004.447.021.695.061a9.83 9.83 0 0 1 .348-1.979c.45-.194 1.036-.243 1.78-.129.157-2.387 1.025-4.025 2.166-5.379.975-.859 1.965-1.705 2.807-2.706 1.177-1.042 2.321-2.122 3.136-3.549 1.404.239 2.387.922 3.596 1.367v2.911c4.68.898 7.64 3.605 13.829 2.912v-1.998c.668.007 1.372-.024 2.127-.108v-8.028c.413 1.955.938 3.791 2.715 4.312-1.122-2.091-1.307-6.247-1.845-10.565 1.585 2.545.841 7.542 3.972 8.458-1.951-3.641-1.062-13.525-4.15-19.655h-.176a1.342 1.342 0 0 0-.647-.683c-.022-1.299 1.826-.626 2.898-.774v.729c1.886-.065 1.391 1.212 2.767 0v4.368c2.317.499 2.527-1.222 2.767-2.912 2.721-.438-.177 5.037 2.765 4.368v-12.376c3.607.894 5.438 2.486 6.225-2.185 1.41 1.185 2.825 2.364 4.839 2.912v1.456h2.768v8.736c2.565-.516 2.968 1.243 5.531.728v1.455c.068 3.326-.56 7.385 1.383 8.736 1.409-.702 1.494-2.796 1.385-5.097.753-1.632 3.395-1.278 4.148-2.911 1.026.618 1.487 1.832 1.384 3.64 1.576-.203 2.598.177 2.767 1.457.592-.674-.407-5.845 0-8.736 2.973-.124 6.027 2.404 8.298.729-.238 1.69-.448 3.412-2.767 2.911v3.64c.557.626 1.895.433 2.075 1.457a26.08 26.08 0 0 0-1.137 1.636c-.461-.842-1.133-1.272-2.107-1.056-.118-1.09.244-2.687-.692-2.912-2.253 2.967-3.957 6.512-4.842 10.919h.514a28.712 28.712 0 0 0-.514 2.107h3.986c-.015.076-.035.148-.05.224h.902c-.172 4.417 2.498 6.994 2.768 10.696 2.013.249 2.857-.732 3.519-1.907a9.66 9.66 0 0 1 .418 2.131c1.083.133 1.823-.092 2.382-.506-.111 1.043-.078 2.087.599 3.195.986-.176 1.166-1.2 2.075-1.457.044 6.021 4.736 4.912 7.606 6.552.192.432.326.851.411 1.26-.806 4.174-6.069 7.437-5.104 11.659-.309 1.408-.06 2.896 1.234 4.553 1.314.094 2.538.037 3.701-.106.077.109.148.217.235.328 5.753.416 9.854-1.938 14.007-2.742 0 .305.003.605.012.9-.032 1.809-.013 3.566.257 5.058-5.177 5.16-10.583 10.076-15.445 15.563.035.659.603.758 1.016 1.019-.334.365-.686.718-1.016 1.091.035.667.621.756 1.035 1.027H399.979v-11.726z"/><path fill="#FFE525" d="M414.706 345.122c-.123-.075-.223-.148-.331-.222a55.208 55.208 0 0 1-5.226.07c-1.827-1.123-2.18-2.135-1.742-3.091-.581-1.22.438-2.322 1.881-3.404h-3.137c4.015-.428 7.227-1.475 8.002-3.806.514-1.61-.434-1.522-3.151-2.122-4.406-.972-7.426-1.01-7.79-3.817-.61.315-2.202.604-2.831.854-.768-.606-1.087-1.306-.946-2.022-1.055.292-2.145.108-3.148.215-.052-.389-.76-.926-.729-1.309-3.707 3.063-6.354-.853-7.476-2.463-.595-.854-.863-1.847-2.133-2.556-.597-.333-5.685-1.482-5.66-1.337-.194-1.14.145-2.565.952-3.952-.044.005-.08.005-.125.011.188-.949.053-1.657-.367-2.152a10.652 10.652 0 0 0-2.637.045c.062-.315.083-.601.08-.865-.308.004-.63.021-.982.061a7.304 7.304 0 0 0-.489-1.979c-.638-.194-1.463-.243-2.514-.129a7.533 7.533 0 0 0-.172-1.02c-.434-1.847-1.519-3.209-2.887-4.359-1.375-.859-2.774-1.705-3.961-2.706-1.664-1.042-3.28-2.122-4.429-3.549-1.983.239-3.37.922-5.076 1.367v2.911c-6.607.898-10.786 3.605-19.524 2.912v-1.998a34.75 34.75 0 0 1-3.004-.108v-8.028c-.584 1.955-1.325 3.791-3.832 4.312 1.583-2.091 1.844-6.247 2.604-10.565-2.238 2.545-1.188 7.542-5.606 8.458 2.753-3.641 1.498-13.525 5.858-19.655h.25c.182-.307.495-.532.911-.683.032-1.299-2.578-.626-4.09-.774v.729c-2.663-.065-1.966 1.212-3.907 0v4.368c-3.272.499-3.568-1.222-3.906-2.912-3.841-.438.25 5.037-3.903 4.368v-12.376c-5.094.894-7.677 2.486-8.788-2.185-1.992 1.185-3.988 2.364-6.833 2.912v1.456h-3.906v8.736c-3.622-.516-4.19 1.243-7.81.728v1.455c-.096 3.326.789 7.385-1.952 8.736-1.988-.702-2.108-2.796-1.953-5.097-1.065-1.632-4.795-1.278-5.859-2.911-1.449.618-2.1 1.832-1.953 3.64-2.227-.203-3.669.177-3.907 1.457-.835-.674.576-5.845 0-8.736-4.195-.124-8.509 2.404-11.715.729.338 1.69.634 3.412 3.907 2.911v3.64c-.786.626-2.675.433-2.93 1.457a27.79 27.79 0 0 1 1.604 1.636c.651-.842 1.602-1.272 2.977-1.056.167-1.09-.347-2.687.977-2.912 3.182 2.967 5.586 6.512 6.835 10.919h-.724c.27.682.519 1.379.724 2.107H272.6c.021.076.05.148.07.224h-1.272c.24 4.417-3.527 6.994-3.91 10.696-2.841.249-4.034-.732-4.967-1.907-.294.681-.514 1.382-.59 2.131-1.527.133-2.574-.092-3.363-.506.158 1.043.111 2.087-.844 3.195-1.394-.176-1.646-1.2-2.931-1.457-.061 6.021-6.686 4.912-10.738 6.552a4.977 4.977 0 0 0-.581 1.26c1.138 4.174 8.569 7.437 7.206 11.659.437 1.408.084 2.896-1.742 4.553a37.752 37.752 0 0 1-5.226-.106c-.109.109-.208.217-.332.328-8.123.416-13.913-1.938-19.777-2.742 0 .305-.002.605-.015.9.044 1.809.018 3.566-.363 5.058 7.307 5.16 14.94 10.076 21.805 15.563-.05.659-.85.758-1.433 1.019.472.365.967.718 1.433 1.091-.05.667-.876.756-1.459 1.027h170.947c-.584-.184-1.411-.244-1.46-.697.466-.253.962-.492 1.434-.741-.584-.178-1.385-.244-1.434-.69 6.218-3.374 13.064-6.433 19.731-9.581v-.013-4.825c-5.309.647-10.742 1.92-18.083 1.665z"/><path fill="#E5FF3C" d="M639.272 294.552a8.42 8.42 0 0 0 .08-1.231 7.157 7.157 0 0 0-.982.084 14.151 14.151 0 0 0-.489-2.82c-.638-.275-1.465-.346-2.514-.182-.223-3.4-1.449-5.734-3.059-7.662-1.375-1.227-2.774-2.433-3.965-3.859-2.232-1.996-3.664-5.705-6.799-4.341-2.809 1.223-1.367 3.523-3.067 5.476-.67.77-4.709 1.431-5.824 1.817-4.177 1.448-8.746 3.22-13.202 2.115.119-.733-.374-1.827-.238-2.581-.745.117-2.067-.517-2.777-.427-.474-3.586-.076-7.423-.143-11.06-.465 2.304-1.266 4.963-3.68 5.799 1.73-4.63 1.966-9.859 2.416-14.755-1.967 3.479-.99 10.167-5.444 11.772 2.887-1.04 2.558-17.451 3.138-20.308.291-1.436 3.715-8.497 3.239-9.26-1.16-1.86-5.53 1.408-7.282.988-.255 1.755.763 6.042-1.739 5.881-1.652-.107-2.381-2.762-2.481-4.028-3.16.651-.396 4.902-3.327 6.07-2.292-5.428.254-11.729-.603-17.354-3.645.382-8.004 2.316-8.728-3.052-2.498 1.238-6.169 2.737-6.979 5.689-1.127-.124-2.356.446-3.435.47-.594 2.767.121 5.468-.173 8.213-.367 3.428-.056 2.534-2.442 3.963-3.14 1.879-5.303.802-5.222 5.688.053 3.21.935 7.437-2.219 9.537-3.021-1.971-.933-5.845-3.467-8.327-.442-.434-1.009-.829-1.786-1.16-3.42-1.454-2.108-.733-4.364 1.31-.577.522-.663 1.517-1.424 2.143-.741.611-1.797.779-2.55 1.662-.601-2.418 1.56-10.317-.566-11.737-1.72-1.148-8.381 1.798-10.857 1.319-.424 2.113 1.178 3.804 3.301 4.069.117 1.864-3.962 7.498-1.721 8.733 1.914 1.056 3.92-3.417 4.545-4.771 4.547 3.479 6.964 12.29 6.512 17.856.024-.306-5.063 2.107-5.66 2.806-1.27 1.487-1.538 3.573-2.133 5.364-1.122 3.378-3.769 11.597-7.476 5.167.031.803-.677 1.931-.729 2.745-1.004-.22-2.094.162-3.148-.449.141 1.505-.179 2.973-.946 4.246-.629-.525-2.221-1.131-2.831-1.793-.364 5.894-3.384 5.972-7.79 8.012-2.718 1.259-3.665 1.072-3.151 4.452.775 4.894 3.987 7.089 8.002 7.987h-3.137c1.443 2.271 2.462 4.583 1.881 7.145.438 2.006.085 4.128-1.742 6.485a26.533 26.533 0 0 1-5.226-.148c-.108.154-.208.309-.331.468-8.123.591-13.912-2.763-19.777-3.908 0 .433-.003.861-.015 1.282.044 2.576.019 5.082-.364 7.206 7.309 7.352 14.942 14.356 21.807 22.174-.049.938-.85 1.076-1.434 1.449.472.522.968 1.023 1.434 1.555-.049.95-.876 1.078-1.46 1.464H640v-65.555a9.295 9.295 0 0 0-.728.107z"/></svg>