<svg xmlns="http://www.w3.org/2000/svg" width="360" height="360" viewBox="0 0 360 360"><path fill="#95C6D0" d="M-5-5h370v370H-5z"/><path fill="#95C6D0" d="M0 0h360v360H0z"/><path fill="#FF9323" d="M140.658 257.247c.445-.868-1.42-1.075-1.923-1.5-.366.036-.755-.358-1.111-.117-.038.716 2.549 1.579 3.034 1.617zM126.796 251.905c1.055.584 1.944.991 3.116 1.004.033-.712-.887-.746-1.29-.895-.502-.188-.933-.563-1.447-.709-.475-.136-1.022.245-.379.6zM125.958 256.474c-.095-1.014-3.635-1.834-3.646-.743-.008.824 3.708 1.398 3.646.743zM97.682 247.729a3.025 3.025 0 0 0 1.649-.503c.146-.59-1.73-.554-1.985-.479-.81.237-.222.996.336.982zM99.48 254.405c-.41.825 3.717 1.06 4.18 1.174.454.111.783.516 1.284.231.203-.949-5.078-1.419-5.464-1.405zM94.926 246.807c-.088-.248-.699-.332-.844-.104.122.403.586.217.844.104zM103.459 253.724c.175-.693-2.921-.866-3.212-.912-.364-.054-1-.359-1.177.237.297.248 4.188 1.636 4.389.675zM94.242 254.245c.738.297 1.75.228 2.507.025 1.131-.302-.035-.912-.527-1.093-1.065-.395-2.173-.171-3.273-.294-.506-.057-1.53-.457-1.891.195.193.564 2.618.941 3.184 1.167zM96.351 249.146c.048-.738-1.484-.581-1.78-.158-.215.307-.9 1.53-.823 1.904.278 1.347 2.391-1.519 2.603-1.746zM92.688 257.222c.884-.895 1.499-1.594.115-2.251-.436-.205-.933-.396-1.418-.298-.74.15-.271.519-.387 1.122-.17.911-1.012 1.615-.712 2.615 1.003.153 1.693-.469 2.402-1.188zM111.273 252.499c.681.5 4.592.919 3.371-.97-.379-.586-1.563-.493-2.112-.487-.525.007-2.259.72-1.259 1.457zM118.004 251.297c.693.217 1.932.611 2.019-.621.199-.338.539-.403.544-.89a16.792 16.792 0 0 0-1.452-.591c-.371-.126-2.401-.836-2.169.072.312 1.22-.155 1.651 1.058 2.03zM111.339 256.928c.575-.039.691-.683.162-.929-.372-.173-.8-.18-1.189-.252-.975-.174-1.842-.646-2.854-.811a12.145 12.145 0 0 0-1.734-.155c-.055.445 4.99 2.191 5.615 2.147zM128.289 253.838c-.118-.65-1.054-.627-1.482-.655.191.271.434.459.728.558.247.053.499.083.754.097zM86.037 255.438c-.489.069-.832 1.088-.865 1.542-.048.722 1.046.363 1.464.441.947-.278.137-2.087-.599-1.983z"/><path fill="#FFA42A" d="M317.261 311.524c-1.769-2.692-17.697-24.359-23.384-20.184-29.719 21.826-14.257 1.86-26.485-11.983-1.869 1.333-2.14 4.276-2.603 6.348.073-2.37.93-5.558-.877-7.542-.25.327-.933.825-1.209 1.318-.526-6.874 1.253-12.896 5.332-18.065 1.921-5.007-9.98 3.82-11.107 6.389-1.873-.163-5.015-.142-6.835.267a47.888 47.888 0 0 1-.314-16.263c-11.991.103-11.185 1.234-22.673 3.278-1.011 4.195.709 8.704-.348 12.898-3.051.193-5.942 1.418-9.002 1.491 1.33 5.246.601 10.217-2.187 14.923-5.12.736.869-12.169-8.414-10.94-1.401 3.446-4.017 5.674-7.841 6.683-1.84-4.158 1.167-8.73-.097-12.94-4.66-.646-8.798 3.283-13.516 1.199-.678 9.266 6.478 13.897 7.47 23.646-.72-.112-1.96.409-2.69.298.782 2.188 2.316 3.636 4.604 4.347-3.766 1.744-5.565 1.438-5.405-.916-2.843.776-4.685 2.291-5.53 4.535-.011-1.646-.149-3.245-.668-4.644.422-5.617-4.071 15.418-2.827 17.738-3.701-1.762-6.663-4.264-8.876-7.521-3.546 6.542 3.973 12.604-4.557 9.962-.241 1.661-.71 3.087-1.389 4.289-2.059-2.205-4.418-4.187-6.953-6.038a150.965 150.965 0 0 0-5.933-3.776c-1.578.837-2.491 2.172-4.862 2.417v3.625c-1.62-.243-2.11.355-3.11.576a.707.707 0 0 1-.132.354v4.509c-1.091.378-2.398.588-3.232 1.155l-.508.018.019.452a1.613 1.613 0 0 0-.331.794c-1.878-.191-3.018-.931-5.568-.614-.671 1.151-.952 2.335-.791 3.281-.02-.121 4.204.833 4.699 1.109 1.053.59 1.276 1.413 1.77 2.122.142.202.316.451.515.715l1.15 29.167H360v-73.336c-25.693-25.727-36.43 34.467-42.739 24.859z"/><path fill="#FF9323" d="M136.559 263.232c.781.412 1.589.634 2.379 1.042.462.234.931.458 1.446.482.098-.354.817-.971.431-1.213-.792-.492-1.66-.632-2.493-.959-.511-.2-3.066-.041-1.763.648zM91.155 261.842c1.811-1.326-.315-2.448-1.702-1.633-.637.373-1.471 1.08-.817 1.944.693.918 1.802.214 2.519-.311zM131.636 265.94c.348-.017 1.441-.24 1.472-.749-.466-.386-1.05-.525-1.561-.813-.766-.43-1.58-.97-2.471-.61.602 1.097 1.281 2.234 2.56 2.172zM137.124 264.612c.673.302 2.131 1.418 2.843 1.145.028-.505-2.855-1.792-3.295-1.919-1.055-.31-2.104-1.86-3.326-1.092.632 1.11 2.772 1.412 3.778 1.866zM136.316 268.932c1.534-1.125.488-1.608-.778-1.751-1.045-.118-2.137-.142-3.179.064-.13 1.325 3.189 2.249 3.957 1.687zM145.333 267.312c-.103-.366-.59-.58-.907-.566.142.347.509.471.907.566zM123.868 268.646c.426 1.709 3.856.185 3.354-1.559-.69-.485-1.689-.563-2.479-.464-1.188.143-1.171.839-.875 2.023zM146.665 280.81c-2.338-4.451-7.045-7.813-11.147-9.917-1.17-.601-4.179-2.752-5.453-1.573-.841.779-1.365 1.677-2.36 2.257-.467.271-1.721 1.089-1.712 1.789.015 1.182 4.052 1.86 4.941 2.059.885.193 1.861.56 2.714.864.871.308 1.932.64 2.751 1.092 1.768.977 3.808 1.513 5.624 2.483 1.348.721 3.159 1.142 4.642.946zM125.197 260.928c.977.405 2.02.721 3.063.795.388.023-1.508-1.117-1.759-1.233-.719-.332-1.828-1.253-2.656-1.116-1.027.17 1.176 1.482 1.352 1.554zM153.866 270.348c2.027-.19 4.305 2.353 6.181 3.021.595.159-.463-.581-.607-.691-.502-.313-1.013-.606-1.517-.909-.877-.523-1.875-1.165-2.837-1.464-1.125-.347-2.007-.911-3.095-1.362-.983-.41-2.425-1.188-3.459-1.285-.094.851 4.743 2.744 5.334 2.69zM155.787 275.127c.611-.68-.802-1.206-1.135-1.364-.698-.425-1.849-1.158-2.612-.466.013.775 1.02 1.429 1.499 1.833.778.657 1.545.776 2.248-.003zM155.534 273.252c.674.407 1.404.688 2.069 1.114-.467-.368-1.486-1.282-1.771-1.457a113.14 113.14 0 0 0-2.881-1.748c-2.24-1.316-4.548-2.486-6.874-3.602-.103.483 8.495 5.11 9.457 5.693zM123.008 264.939c.654-.062 2.812-1.112 1.488-1.917-1.062-.646-2.317-1.146-3.536-1.198-1.499-.063-1.343 1.229-.764 2.282.579 1.05 1.839.926 2.812.833zM114.957 258.494c.871.376 2.174.797 3.124.618 1.121-.212 2.568-1.403.978-2.146-.825-.385-3.054-1.37-3.858-.537-.04.64.373.836-.362 1.188-.648.307-.354.673.118.877zM93.698 259.022c-.14-.052-.144.072-.229.091.056.155.217.095.229-.091zM93.193 262.719c.273 1.33 3.115.214 3.825-.075 2.736-1.104 5.587-1.534 8.33-2.404.57-.181 1.525-.152 1.12-1.073-.203-.464-.451-1.105-.753-1.509-.704-.941-2.784-.799-3.776-.972-1.551-.269-3.023-.121-4.524.445-.885.336-2.524.77-3.056 1.67-.486.828-1.378 2.89-1.166 3.918zM139.521 270.902c-.052.614.872 1.218 1.255 1.46.531.336 1.109.484 1.714.513.188-.595.357-1.193.546-1.787.367-1.157-.53-1.531-1.473-1.652-.567-.073-1.979.71-2.042 1.466zM161.885 285.925c.149-.018.077-.187.064-.303-.123-.005-.121.235-.064.303zM165.48 291.623c.099 1.206 1.625 1.227 1.345-.226-.258-1.33-1.455-1.087-1.345.226zM162.292 285.848c.011.304.024.412.289.428.143-.256.032-.682-.289-.428zM156.401 278.397c-1.7-1.198-3.409-2.32-5.158-3.43-1.199-.762-2.326-1.694-3.686-1.532-.38.047-1.065-.215-1.396.123.008.241.025.479.048.72.514.836.718 1.819 1.146 2.75.775 1.692 2.23 3.212 3.7 4.104 1.396.846 3.346 2.157 4.901 2.464 1.317.256 2.656 1.599 4 1.652 1.744.068-.554-3.412-.665-3.909-.279-1.252-2.004-2.317-2.89-2.942zM111.893 263.808c.327-.885.652-1.695.519-2.681-.248-.516-1.248-.235-1.625-.204-1.491.119-2.474-.538-3.025 1.504-.966 3.572 3.138 4.052 4.131 1.381zM106.387 279.404c.651-.895 1.162-1.912 1.565-2.978-.612-.099-1.645 2.422-1.565 2.978zM107.539 284.033c.462-.727-.436-3.466-.993-1.869-.167.475-.418 1.241-.173 1.732.239.483.847.638 1.166.137zM112.636 260.059c.828-.882.524-1.549-.47-1.918-1.22-.452-2.296-.372-3.221.57-.721.734-.05 1.292.657 1.478.771.201 2.445.495 3.034-.13zM169.858 286.572c1.223-.143.397-2.142-.229-2.177-.592-.031-1.1 2.334.229 2.177zM162.626 281.462c.252.647.269 1.389.562 2.018.64 1.366 2.552-.137 3.268-.666.72-.534.934.619.514 1.128-.381.462-.621.695-1.089.941-.618.322-.783 1.174.065 1.176.546 0 .979-.324 1.398-.688.492-.429 1.225-.493 1.111-1.321-.085-.637-.475-1.096-.764-1.613-.864-1.536-1.937-2.26-3.319-3.106-1.065-.652-2.423-1.833-3.663-1.98-1.053-.127.187 1.712.408 2.027.466.668 1.219 1.334 1.509 2.084zM179.357 281.143c.581-.67-.168-1.594-.023-2.563-.794.287-.848 2.369.023 2.563zM178.985 282.144c.101-1.215-1.418-.754-1.304.385.108 1.026 1.244.298 1.304-.385zM168.718 291.357c.464.554 1.116-.006.955-.687-.215-.915-1.125-.144-.955.687zM168.784 280.606c.325-.599 1.589-1.7.663-2.302-.461-.302-.86.449-1.098.795-.3.441-.771 1.034-.568 1.638.287.849.73.377 1.003-.131zM113.756 287.73c1.794-.168 3.54-1.079 5.364-1.02 2.065.07 4.254-.013 6.345-.028 2.116-.015 4.197-.946 6.256-1.447.213-.052 2.483-.66 1.295-1.008-.646-.19-1.412-.407-2.077-.479-2.109-.225-4.294-1.055-6.396-1.52-2.26-.498-4.542-.87-6.815-1.301-1.327-.254-4.022-.865-4.399 1.298-.183 1.017-1.194 5.657.427 5.505zM115.177 273.832c-.07 1.613 1.529 1.799 2.249.606 1.004-1.668-2.18-2.166-2.249-.606zM114.63 270.88c.16 1.359 3.245.728 3.519-.292.37-1.375-3.774-1.857-3.519.292zM108.989 279.255c.676-.024 1.259-.591 1.726-1.095.549-.592 1.135-1.355.028-1.655-.746-.199-.934.478-1.337 1.036-.506.694-.593.908-.417 1.714zM124.149 258.658c-.054.828 2.113 1.171 2.603 1.4.264.122 2.458 1.27 1.974-.101-.232-.651-4.497-2.501-4.577-1.299zM140.789 283.074c2.62-1.188-2.381-2.857-3.154-3.167-4.45-1.788-8.798-3.861-13.387-5.059-1.051-.273-2.415-1.096-3.316-.139-.811.864-1.562 1.785-2.409 2.613-.514.503-.988 1.067-1.203 1.82.419.369.985.405 1.489.459 1.093.116 2.148.48 3.233.645 1.356.206 2.735.161 4.097.343 1.029.138 1.953.689 2.986.797 2.09.212 4.189 1.074 6.264 1.51 1.658.349 3.752.926 5.4.178zM120.281 272.271c.219.435.778.771 1.207.823.795.096 1.542-.586 1.787-1.429-.361-.753-1.181-.673-1.806-.48-.368.11-1.547.37-1.188 1.086zM115.274 267.803c.828.706 2.685-1.587 3.541-1.579.024-.364-3.349.887-3.541 1.579zM110.817 288.648c.98-.302.11-2.271-.701-2.103-1.083.224-.599 2.504.701 2.103zM112.44 272.497c-1.257-.426-2.206 2.409-.796 2.517 1.174.09 2.049-2.091.796-2.517zM111.155 281.177c-.176-.568-.859-.627-1.264-.361-.472.312-.308 1.165-.235 1.661.25 1.709 1.907.009 1.499-1.3zM119.906 267.025c-.446.229-1.575.556-1.619 1.267-.072 1.21 2.188.627 2.631.158.167-1.058.24-2.069-1.012-1.425zM111.078 271.341c.75.018 2.123-1.715 2.686-2.246-.277-.555-2.603 1.56-2.686 2.246zM115.043 277.57c-.883-.652-2.087.196-1.92 1.423.818.743 2.299.076 1.92-1.423zM126.213 314.25c.065-.83-2.048-.722-2.188-.08.339.221 2.121.917 2.188.08zM135.854 305.767c1.586-1 3.147-2.048 4.784-2.939 1.527-.829 3.182-1.336 4.677-2.173 1.576-.885 3.263-1.415 4.876-2.215 1.643-.815 3.244-1.721 4.913-2.472.622-.281 4.926-2.398 4.289-3.188-.808-1-3.392.146-4.403.299-3.541.529-7.077 1.26-10.64 1.625-1.537.157-3.58.313-4.932 1.285-1.561 1.124-3.319 1.352-4.943 2.166-.785.393-1.299 1.233-2.121 1.576-.846.351-1.71.681-2.612.693-1.401.021-3.751 1.483-4.984 2.363-.523.377-1.712.902-1.976 1.575-.313.793-.173 2.392.248 3.013.839 1.231 1.243 3.72 2.814 4.086.562.132 1.669-.647 2.155-.928.935-.54 1.834-1.158 2.735-1.77 1.666-1.126 3.436-1.935 5.12-2.996zM122.502 313.201c.129-.88-.116-1.444-.48-2.175-.327-.66-1.656-1.052-1.55.171.054.623.372 1.568.562 2.168.236.759 1.352.628 1.468-.164zM120.799 315.718c.443.315 1.558.447 2.01.069.069-.598-1.736-.453-2.01-.069zM124.951 316.632c.347.464.955.66 1.701.719.642-.725-1.324-1.584-1.701-.719zM155.865 297.756c-1.812.913-3.425 2.224-5.221 3.165-1.522.797-3.027 1.526-4.568 2.287-.925.455-1.717 1.07-2.689 1.438-.617.232-1.401.42-1.904.923-.915.919-2.609 1.385-3.724 2.002-.968.537-1.933.99-2.868 1.519-1.559.88-3.171 1.727-4.76 2.53-1.314.663-1.905.919-.852 2.253 1.556.454 3.271 1.229 4.785.161 2.407-1.701 5.05-3.12 7.517-4.541 5.715-3.291 12.631-6.198 16.835-12.046.39-.542.96-.996 1.089-1.729-.5-.302-3.083 1.759-3.64 2.038zM128.256 315.972c.247.766 2.068.981 1.928-.05-.102-.759-2.387-1.374-1.928.05zM157.498 301.112c-.327.479-.9.293-1.313.739-.731.794.271.586.586.617.346-.638.937-.991 1.511-1.292.039-.676-.531-.438-.784-.064zM111.576 300.204c-.526 1.586 1.962 2.368 2.094.896.08-.876-1.756-1.917-2.094-.896zM115.618 309.665c-1.52.056-.759 1.958.374 1.869.531-.041.951-.498.923-1.126-.034-.779-.738-.764-1.297-.743zM115.695 304.602c-.859-.003-.424 1.091-.322 1.619.477 2.407 2.411.457 1.705-.832-.215-.391-.989-.785-1.383-.787zM119.394 306.49c-.42.304-1.367.827-.957 1.547.299.531 1.007.939 1.568.82 1.086-.234.899-3.457-.611-2.367zM119.071 294.681c.65-.316 1.418-.492 1.978-1.014.359-.334 1.244-.481 1.701-.676.59-.249 1.188-.427 1.782-.61.817-.253 1.678-.643 2.468-1.001.861-.392.436-.715-.013-1.253-.947-1.143-3.074-1.559-4.405-1.754-1.496-.225-3.003-.12-4.52-.019-.649.044-4.963.441-4.588 1.306.043.095-.684 1.617-.732 1.885-.124.691-.156 1.437-.012 2.122.62.402 1.389 1.407 1.754 2.103.55 1.053.424 1.084 1.659.528 1.016-.456 1.93-1.132 2.928-1.617zM154.767 285.386c-2.7-.916-5.577-2.676-8.437-2.539-1.598.078-2.484.643-3.666 1.816-1.135 1.128-3.258.511-4.628.528-2.499.037-5.927 1.11-8.067 2.634-2.664 1.894 4.542 3.099 5.448 3.335 2.764.717 5.553.725 8.346.655 3.038-.077 6.41-.229 9.392-.931 1.284-.3 2.721-.506 3.996-.686 1.137-.156 2.551.015 3.582-.756.905-1.865-5.105-3.765-5.966-4.056zM121.511 303.16c1.546-.996 2.893-2.272 4.43-3.282 1.475-.974 2.94-2.02 4.487-2.839 1.345-.712 3.206-1.238 4.658-1.563.806-.178 3.167-.506 3.582-1.475-.064-.431-4.301-.939-4.859-1.061-1.412-.307-3.244-.558-4.666-.355-3.143.446-6.2 1.971-9.179 3.185-1.471.602-2.934 1.321-4.284 2.227-.661.443.603 2.171.833 2.711.577 1.349 1.06 1.668 2.228 2.435.988.644 1.821.628 2.77.017zM117.041 313.441c-.057.954 2.081 2.078 2.112.696.03-1.223-1.999-2.518-2.112-.696zM172.235 281.276c-.731.072-.709 2.234.331 1.916.333-.597.506-2.001-.331-1.916zM170.729 292.146c-.417.896.429.958.97.98.242-.251.467-.722.382-1.104-.149-.692-1.023-.013-1.352.124zM171.797 287.805c-.536.158-.659 1.441-.559 1.811.775.102.698-.365.646-1.037a.932.932 0 0 0-.087-.774zM173.747 276.688c-.414.299-.978 1.756-.188 1.9 1.203.223 1.022-2.504.188-1.9zM173.591 285.507c-.29.297-1.084 1.93-.397 2.126.776.221 1.247-1.927.397-2.126zM169.332 296.772c-.278.426.407 1.904-.455 1.601-.688-.243-.871.557-.355.572 1.048.035 1.224-.726 1.713-1.554-.22-.36-.521-.564-.903-.619zM168.406 286.884c-.506.055-1.352 1.664-1.249 2.178 1.151.473 1.204-1.35 1.249-2.178zM163.156 287.673c-.551.036-.629 1.017-.502 1.435.41 1.333 1.766 1.539 1.872-.204-.693-.675-.079-1.316-1.37-1.231zM162.034 296.076c-.389-.016-.618.656-.816.924-.999 1.357.227 1.4.978.402.272-.36.646-1.29-.162-1.326zM174.57 283.363c-.674.03-.069 1.813.104 2.118.299.529.805-2.16-.104-2.118zM168.828 296.229c.065-.633-.884-.646-1.077-.174-.413 1.003 1.008.824 1.077.174zM161.797 293.533c.805-.269.408-1.95-.338-1.998-.717-.045-1.434 2.59.338 1.998zM165.831 294.718c-.355.469.023 1.333.359 1.455 1.12.412.692-1.737-.359-1.455zM164.22 297.693c.136.05 1.579-.151 1.625-.26.242-.557-1.816-.727-1.625.26zM96.146 273.358c.996-2.177-1.954-1.579-2.671-.728-.685.816 1.853 2.517 2.671.728zM94.715 277.011c.049 1.379 2.538 1.261 1.669-.534-.481-.988-1.71-.659-1.669.534zM91.767 274.572c-1.147.393.082 1.507.725 1.486 1.501-.051.606-1.939-.725-1.486zM112.389 306.263c-.354-.327-.916.132-.988.59-.096.576.385 1.342.699 1.733.791.982 1.036-1.635.289-2.323zM98.076 280.861c.607.679 3.194.79 2.075-.5-.383-.047-3.394-.97-2.075.5zM106.229 265.67c.013-.191-.646-.856-.784-1.071-.348-.539-.577-.813-.778-1.473-.539-1.785-1.493-1.101-2.897-.835-2.356.445-4.482 1.354-6.2 3.141-1.416 1.476.096 4.07 1.829 3.71 2.353-.49 4.542-1.851 6.854-2.567.658-.205 1.398-.465 1.976-.905zM89.766 268.238c.327.606.742 1.656 1.537 1.55.297-.038 1.496-1.379 1.58-1.696.764-2.942-3.818-1.156-3.117.146zM84.534 260.314c.903-.163 2.337-.529 2.175-1.916-.811-.279-3.333.441-2.175 1.916zM87.336 265.812c-.708-.146-1.076.92-.726 1.646 1.053.474 1.502-1.486.726-1.646zM89.535 272.398c.114.934 2.032.864 1.594-.469-.511-.544-1.258.1-1.594.469zM101.385 283.074c-.619 1.029 1.209 2.688 1.777 1.566.668-1.321-.697-3.356-1.777-1.566zM88.055 269.821c-1.333-.288-1.462 1.636-.317 1.955 1.156.324 1.726-1.653.317-1.955zM90.307 265.529c.759.148 2.406-1.384 1.197-1.565-.459-.072-1.053-.082-1.457.238-.462.366-.308 1.217.26 1.327zM99.436 275.912c1.74-.322-.289-1.533-1.089-1.444-1.695.187.427 1.568 1.089 1.444zM107.964 297.016c-1.304-.196-.505 3.008-.053 3.121 1.167.296 1.152-2.953.053-3.121zM85.362 263.245c-1.6-.171-.844 1.395-.234 2.075 1.102-.402 1.782-1.91.234-2.075zM109.522 290.451c-1.119-.279-1.31 1.775-.536 2.223 1.656.49 1.388-2.009.536-2.223zM111.548 296.063c-1.265.225-.756 2.343.266 2.414 1.461.104 1.134-2.664-.266-2.414zM109.404 302.48c-1.185-.704-.687 1.734.266 1.86.436.058 1.073-.31.938-.926-.114-.512-.851-.724-1.204-.934zM108.282 269.481c-.116-.624-.341-1.976-.913-2.142-1.622-.474-3.856.372-5.345 1.158-.895.473-1.635 1.428-1.083 2.486.415.798 1.083 1.035 1.354 1.915.658 2.141 3.854-.188 4.842-.773 1-.588 1.394-1.302 1.145-2.644zM102.007 276.322c-.771.141-3.171 1.05-1.726 1.963.637.404 2.161 1.351 2.873.76 1.921-1.586.948-3.095-1.147-2.723zM105.06 281.372c-.206.078-.549 3.533-.314 3.723.179-.194.238-.431.176-.708.159-.882.552-2.164.138-3.015zM110.069 272.509c-.263.153-2.025 1.909-1.302 2.276.447-.418 1.108-1.452 1.42-2.015a.549.549 0 0 0-.118-.261zM104.24 287.523c-.251.132-.322.79-.248 1.161.237-.111.445-1.026.248-1.161zM106.423 289.907c.471-.846.863-1.636.877-2.662-.408-.336-.87-.255-1.195.187-.631.86-.911 2.467.318 2.475zM105.617 292.879c-.453.869.143 1.83 1.056 1.808 1.204-.827-.44-1.756-1.056-1.808z"/><path fill="#1F2D49" d="M202.821 291.383c-3.467-.932-6.943-1.252-10.397-2.079-1.194-.286-2.284-.684-3.451-1.125-1.416-.534-2.718-1.397-4.108-1.891-1.475-.523-2.179-.235-3.578.484-1.638.842-3.362 1.432-5 2.275-.723-.596-.622-1.974-.561-2.863.041-.591.11-1.179.168-1.77.477-.043.956.075 1.424.152 2.26.382 2.731-1.606 3.208-3.789.215-.987.073-2.349-.423-3.192-.569-.971 1.313-1.356 1.816-1.643 2.359-1.335 4.802-2.687 7.243-3.847 1.729-.822 3.89-2.801 5.826-2.561.844.104 2.293-.64.701-.981-1.001-.216-1.646.048-2.535.514-2.522 1.309-5.022 2.665-7.528 4.02-1.005.544-6.317 4.328-7.102 2.574 1.829-2.195 3.892-4.189 5.791-6.313.954-1.064 1.934-2.095 2.907-3.134.761-.812 1.987-2.816 3.022-3.112.856-.246 2.313.139 1.328-1.252-1.086-.064-1.828.588-2.67 1.367-.903.834-1.71 1.793-2.532 2.729-.852.97-2.1 1.813-2.74 2.979-1.178 2.141-3.593 3.976-5.245 5.651-1.729 1.757-4.602-.183-6.642.825-1.834.906-3.517-.848-4.556-2.279-1.579-2.175-4.321-3.861-6.358-5.436-4.411-3.406-9.062-6.054-13.992-8.341-1.878-.87-3.73-2.007-5.59-2.987-1.883-.995-3.722-1.898-5.656-2.697-3.505-1.448-6.965-3.303-10.657-4.123-1.923-.423-3.784-1.317-5.776-1.632-1.139-.179-2.207-.635-3.351-.817-1.041-.163-2.166-.493-3.205-.531-1.716-.061-3.509-.359-5.234-.54-1.363-.142-3.339.083-4.602-.475-.58-.255-.865-.018-1.415.061-1.151.165-2.285-.22-3.436-.155-.463.027-1.078.111-1.535.216-.828.188-1.713.044-2.527.297-3.187.99-6.111 1.726-8.585 4.41-1.175 1.274-.801 3.174-1.669 4.685-.753 1.305-1.433 2.967-1.655 4.514-.203 1.404-.175 3.91.511 5.115.861 1.519 1.788 3.074 2.13 4.872.284 1.499 1.667 3.3 2.781 4.141.699.528 1.201 1.06 1.744 1.786.615.816 1.561.96 2.341 1.481.558.376.813.903 1.502 1.001.924.128 1.133 1.021 1.736 1.682 1.256 1.375 2.803 2.084 4.021 3.477.492.565 1.106.976 1.583 1.553.441.539.532 1.418.886 2.051.401.72.858 1.411 1.39 2.012.624.701.712.709 1.439.405-.033 1.125-.421 2.114-.699 3.18-.178.673.836 1.922 1.12 2.531.905 1.931 1.811 4.683 1.922 6.827.063 1.194.998 1.985 1.629 2.854.614.85.609 1.989 1.386 2.714.877.822 1.012 1.772 1.47 2.854.539 1.27 1.043 1.272 2.092 1.804.718.364.705 1.578 1.51 1.966 1.008.489 1.617.735 2.32 1.74 1.444 2.068 4.191 1.553 6.3 1.977 2.056.413 3.605.861 5.7.461 2.229-.43 4.355-1.632 6.406-2.755 4.561-2.502 8.994-5.274 13.666-7.492 2.447-1.163 4.797-2.571 7.307-3.555 2.362-.924 5.213-1.996 6.861-4.286.3-.416.437-.878.691-1.316.313-.539.758-.087 1.238-.092a4.017 4.017 0 0 1 1.985.475c.464.252 1.05.848 1.29 1.366.407.877-.279 2.061-.568 2.951-.698 2.139-1.473 3.788-2.526 5.698-.592 1.078.889 1.057 1.384.755 1.053-.643 2.049-1.579 3.001-2.394 1.374-1.177 2.971-1.212 4.531-.531 1.055.459 3.193 2.504 3.319.016.037-.743-2.161-.732-2.703-.941-.781-.3-1.356-.833-2.238-.748-1.87.178-3.291 1.294-4.889 2.417-.061-.91.896-2.018 1.243-2.791.532-1.192.994-2.469.991-3.833-.002-.99.144-2.059.792-2.821.797-.929.802-2.662 2.035-3.003 1.883-.523 3.366-.525 5.261-.643 2.079-.128 3.776-2.045 5.789-1.045 1.976.98 3.618 2.598 5.471 3.859a44.72 44.72 0 0 0 2.807 1.77c1.142.654 2.746.701 3.757 1.444.872.64 2.113.803 3.063 1.386.855.528 1.431 1.361 2.185 2.031.34.298 1.635 1.05 1.372-.183-.224-1.048-1.493-1.7-2.224-2.172-1.581-1.019-3.572-2.241-5.36-2.651-2.463-.567-5.153-2.721-7.241-4.259-1.882-1.388-3.663-3.884-6.025-3.355-1.009.227-2.022.331-3.054.589-.281.071-3.106.286-2.319-.486.632-.623 1.921-.7 2.683-1.01 1.058-.429 1.922-1.027 2.832-1.762 2.081-1.67 4.691-.014 6.871.459 1.839.399 3.552 1.113 5.349 1.658 2.225.676 4.633.057 6.831.891 1.209.459 2.427 1.533 3.688 1.729.704.108.869-.523.428-1.065-.469-.578-1.271-.805-1.917-.977zm-23.487-12.804c-.145.97.604 1.894.023 2.563-.871-.193-.817-2.275-.023-2.563zm-.349 3.565c-.061.684-1.196 1.411-1.304.385-.114-1.139 1.405-1.6 1.304-.385zm-9.356 2.252c.627.035 1.452 2.034.229 2.177-1.329.156-.821-2.209-.229-2.177zm-.911 6.961c-.17-.831.74-1.603.955-.687.161.682-.491 1.241-.955.687zm-.368-12.257c.237-.346.637-1.097 1.098-.795.926.602-.338 1.703-.663 2.302-.273.508-.716.979-1.003.131-.204-.604.268-1.197.568-1.638zm-7.641-1.751c1.24.147 2.598 1.328 3.663 1.98 1.383.847 2.455 1.57 3.319 3.106.289.518.679.977.764 1.613.113.828-.619.893-1.111 1.321-.419.364-.853.688-1.398.688-.849-.002-.684-.854-.065-1.176.468-.246.708-.479 1.089-.941.42-.509.206-1.662-.514-1.128-.716.529-2.628 2.032-3.268.666-.293-.629-.31-1.37-.562-2.018-.29-.75-1.043-1.416-1.509-2.086-.221-.313-1.461-2.152-.408-2.025zm4.771 14.274c-.11-1.313 1.087-1.556 1.345-.226.28 1.453-1.246 1.432-1.345.226zm-2.899-5.348c-.265-.016-.278-.124-.289-.428.321-.253.432.173.289.428zm-.696-.35c-.057-.067-.059-.308.064-.303.013.116.085.285-.064.303zm-1.927-.677c-1.344-.054-2.683-1.396-4-1.652-1.556-.307-3.505-1.618-4.901-2.464-1.47-.892-2.925-2.411-3.7-4.104-.429-.931-.633-1.914-1.146-2.75-.022-.241-.04-.479-.048-.72.33-.338 1.016-.076 1.396-.123 1.359-.162 2.486.771 3.686 1.532a125.318 125.318 0 0 1 5.158 3.43c.886.625 2.61 1.689 2.892 2.941.109.498 2.407 3.978.663 3.91zm-53.412-3.084c.558-1.597 1.455 1.143.993 1.869-.319.501-.927.346-1.166-.137-.245-.491.006-1.257.173-1.732zm-.159-2.76c-.08-.557.953-3.077 1.565-2.978-.403 1.066-.914 2.084-1.565 2.978zm1.374-16.977c.552-2.042 1.534-1.385 3.025-1.504.377-.031 1.377-.312 1.625.204.134.985-.191 1.796-.519 2.681-.992 2.671-5.096 2.191-4.131-1.381zm1.184-3.716c.925-.942 2.001-1.022 3.221-.57.994.369 1.298 1.036.47 1.918-.589.625-2.263.331-3.033.13-.707-.186-1.378-.744-.658-1.478zm1.798 17.794c1.106.3.521 1.063-.028 1.655-.467.504-1.05 1.07-1.726 1.095-.177-.806-.089-1.02.417-1.714.404-.559.591-1.235 1.337-1.036zm-.851 4.31c.404-.266 1.088-.207 1.264.361.408 1.31-1.249 3.009-1.499 1.3-.073-.496-.237-1.349.235-1.661zm.224 5.731c.812-.168 1.682 1.801.701 2.103-1.3.4-1.784-1.88-.701-2.103zm1.529-11.532c-1.41-.107-.461-2.942.796-2.517 1.252.426.377 2.607-.796 2.517zm-.567-3.673c.083-.686 2.409-2.801 2.686-2.246-.563.531-1.936 2.263-2.686 2.246zm3.965 6.229c.379 1.499-1.102 2.166-1.92 1.423-.167-1.226 1.037-2.075 1.92-1.423zm5.875-9.12c-.443.469-2.703 1.052-2.631-.158.044-.711 1.173-1.037 1.619-1.267 1.252-.644 1.179.367 1.012 1.425zm.552 2.736c.625-.192 1.444-.272 1.806.48-.245.843-.992 1.524-1.787 1.429-.429-.052-.988-.389-1.207-.823-.36-.717.819-.977 1.188-1.086zm-6.196-3.383c.191-.691 3.564-1.942 3.541-1.579-.856-.008-2.712 2.285-3.541 1.579zm2.874 2.785c-.273 1.02-3.358 1.651-3.519.292-.254-2.149 3.89-1.667 3.519-.292zm-.722 3.85c-.72 1.192-2.319 1.007-2.249-.606.069-1.56 3.253-1.062 2.249.606zm-4.099 7.788c.377-2.163 3.072-1.552 4.399-1.298 2.273.431 4.556.803 6.815 1.301 2.103.465 4.287 1.295 6.396 1.52.665.072 1.432.289 2.077.479 1.188.348-1.082.956-1.295 1.008-2.059.501-4.14 1.433-6.256 1.447-2.091.016-4.279.099-6.345.028-1.824-.06-3.57.852-5.364 1.02-1.619.151-.608-4.489-.427-5.505zm15.798-.839c-1.033-.107-1.957-.659-2.986-.797-1.361-.182-2.74-.137-4.097-.343-1.085-.164-2.141-.528-3.233-.645-.504-.054-1.07-.09-1.489-.459.215-.753.689-1.317 1.203-1.82.848-.828 1.599-1.749 2.409-2.613.901-.957 2.266-.135 3.316.139 4.589 1.197 8.937 3.271 13.387 5.059.773.31 5.774 1.979 3.154 3.167-1.648.748-3.742.171-5.4-.178-2.075-.436-4.174-1.298-6.264-1.51zm-.399-21.429c.484 1.37-1.71.223-1.974.101-.489-.229-2.656-.572-2.603-1.4.08-1.203 4.345.647 4.577 1.299zm-1.919-6.775c.429.028 1.364.005 1.482.655a4.77 4.77 0 0 1-.755-.098 1.435 1.435 0 0 1-.727-.557zm-.305 7.306c.251.116 2.146 1.257 1.759 1.233-1.044-.074-2.087-.39-3.063-.795-.176-.071-2.379-1.384-1.352-1.555.828-.136 1.937.785 2.656 1.117zm.72 6.599c.503 1.743-2.928 3.268-3.354 1.559-.296-1.185-.313-1.881.875-2.022.789-.1 1.788-.022 2.479.463zm9.176 10.292c-.819-.452-1.88-.784-2.751-1.092-.853-.305-1.829-.671-2.714-.864-.89-.198-4.927-.877-4.941-2.059-.009-.7 1.245-1.519 1.712-1.789.995-.58 1.52-1.478 2.36-2.257 1.274-1.179 4.283.973 5.453 1.573 4.103 2.104 8.81 5.466 11.147 9.917-1.483.196-3.294-.225-4.643-.946-1.815-.97-3.855-1.507-5.623-2.483zm-4.039-10.135c1.042-.206 2.134-.183 3.179-.064 1.267.143 2.313.626.778 1.751-.768.562-4.087-.362-3.957-1.687zm19.681 6.052c.764-.692 1.914.041 2.612.466.333.158 1.746.685 1.135 1.364-.703.779-1.47.66-2.248.003-.479-.404-1.486-1.058-1.499-1.833zm-.049-4.355c1.088.451 1.97 1.016 3.095 1.362.962.299 1.96.94 2.837 1.464.504.303 1.015.597 1.517.909-.048-.034-.008-.009.194.12-.064-.04-.13-.079-.194-.12.145.11 1.202.851.607.691-1.876-.669-4.153-3.212-6.181-3.021-.591.055-5.428-1.839-5.334-2.69 1.034.097 2.476.875 3.459 1.285zm.96 2.219a113.14 113.14 0 0 1 2.881 1.748c.285.175 1.305 1.089 1.771 1.457.075.049.152.099.227.15-.023 0-.11-.062-.227-.15-.665-.426-1.396-.707-2.069-1.114-.962-.583-9.561-5.21-9.457-5.692 2.326 1.115 4.634 2.285 6.874 3.601zm-7.618-3.849c-.398-.095-.765-.219-.907-.566.317-.015.804.199.907.566zm-2.298 3.776c-.188.594-.357 1.192-.546 1.787-.604-.028-1.183-.177-1.714-.513-.383-.242-1.307-.846-1.255-1.46.063-.756 1.476-1.539 2.042-1.467.943.122 1.84.496 1.473 1.653zm-4.3-15.341c.503.425 2.368.632 1.923 1.5-.485-.038-3.072-.901-3.034-1.617.356-.241.745.153 1.111.117zm-.414 6.838c.833.327 1.701.467 2.493.959.387.242-.333.859-.431 1.213-.516-.024-.984-.248-1.446-.482-.79-.408-1.598-.63-2.379-1.042-1.302-.69 1.253-.849 1.763-.648zm-1.649 1.253c.439.127 3.323 1.414 3.295 1.919-.712.273-2.17-.843-2.843-1.145-1.006-.454-3.146-.756-3.778-1.866 1.221-.768 2.271.782 3.326 1.092zm-5.125.541c.511.287 1.095.427 1.561.813-.03.509-1.124.732-1.472.749-1.278.062-1.958-1.075-2.56-2.172.891-.36 1.705.18 2.471.61zm-4.372-13.073c.515.146.945.521 1.447.709.403.148 1.323.183 1.29.895-1.172-.013-2.062-.42-3.116-1.004-.643-.356-.096-.737.379-.6zm-1.217 5.168c.062.655-3.654.081-3.646-.743.011-1.091 3.551-.271 3.646.743zm-4.998 5.35c1.219.053 2.475.552 3.536 1.198 1.323.805-.834 1.855-1.488 1.917-.973.093-2.232.217-2.812-.833-.579-1.052-.735-2.345.764-2.282zm-1.846-12.629c.493.168.974.376 1.452.591-.005.486-.345.552-.544.89-.087 1.232-1.325.838-2.019.621-1.213-.379-.746-.81-1.059-2.029-.231-.909 1.799-.199 2.17-.073zm-4.276 8.422c.735-.352.322-.548.362-1.188.805-.833 3.033.152 3.858.537 1.591.742.144 1.934-.978 2.146-.95.179-2.253-.242-3.124-.618-.471-.204-.765-.57-.118-.877zm-2.306-6.575c.55-.006 1.733-.099 2.112.487 1.221 1.889-2.69 1.47-3.371.97-1-.737.734-1.45 1.259-1.457zm-5.075 3.895c1.013.165 1.88.637 2.854.811.39.072.817.079 1.189.252.529.246.413.89-.162.929-.625.044-5.67-1.702-5.616-2.146.581.006 1.162.063 1.735.154zm-13.098 3.864c.531-.9 2.171-1.334 3.056-1.67 1.501-.566 2.974-.714 4.524-.445.992.173 3.072.03 3.776.972.302.403.55 1.045.753 1.509.405.921-.55.893-1.12 1.073-2.743.87-5.594 1.301-8.33 2.404-.71.289-3.552 1.405-3.825.075-.212-1.028.68-3.09 1.166-3.918zm-.89.312c.086-.019.09-.143.229-.091-.012.186-.173.246-.229.091zm11.475-3.302c-.501.284-.83-.12-1.284-.231-.463-.114-4.59-.349-4.18-1.174.386-.015 5.667.455 5.464 1.405zm-4.697-2.999c.291.046 3.387.219 3.212.912-.201.961-4.092-.427-4.389-.675.177-.597.813-.291 1.177-.237zm-2.901-6.065c.255-.074 2.131-.11 1.985.479a3.025 3.025 0 0 1-1.649.503c-.558.014-1.146-.745-.336-.982zm-2.42.06c-.258.113-.722.3-.844-.104.145-.228.756-.144.844.104zm-.356 2.181c.296-.423 1.828-.58 1.78.158-.212.227-2.324 3.093-2.604 1.746-.076-.373.609-1.597.824-1.904zm-1.622 3.896c1.101.123 2.208-.101 3.273.294.492.181 1.658.791.527 1.093-.757.202-1.769.271-2.507-.025-.566-.227-2.991-.604-3.185-1.166.362-.653 1.386-.253 1.892-.196zm-1.95 2.911c.115-.604-.354-.972.387-1.122.485-.098.982.093 1.418.298 1.384.657.769 1.356-.115 2.251-.709.72-1.398 1.342-2.401 1.188-.301-1 .541-1.704.711-2.615zm-1.545 4.414c1.387-.815 3.513.307 1.702 1.633-.717.525-1.826 1.229-2.52.312-.653-.865.181-1.572.818-1.945zm-4.325 5.111c-.609-.681-1.365-2.246.234-2.075 1.548.165.868 1.673-.234 2.075zm-.594-5.006c-1.158-1.476 1.364-2.195 2.175-1.916.162 1.387-1.271 1.753-2.175 1.916zm2.102-2.893c-.418-.078-1.512.28-1.464-.441.033-.454.376-1.473.865-1.542.736-.104 1.546 1.705.599 1.983zm-.026 10.036c-.351-.726.018-1.791.726-1.646.776.161.327 2.121-.726 1.646zm1.127 4.319c-1.145-.319-1.016-2.243.317-1.955 1.41.302.84 2.279-.317 1.955zm2.31-7.574c.404-.32.998-.311 1.457-.238 1.209.182-.438 1.714-1.197 1.565-.568-.11-.722-.961-.26-1.327zm-.512 8.196c.336-.369 1.083-1.014 1.594-.469.438 1.334-1.48 1.403-1.594.469zm1.768-2.61c-.795.106-1.21-.943-1.537-1.55-.7-1.303 3.882-3.088 3.117-.146-.084.317-1.283 1.658-1.58 1.696zm1.188 6.271c-.643.021-1.872-1.094-.725-1.486 1.332-.454 2.227 1.434.725 1.486zm.984-3.428c.717-.852 3.667-1.449 2.671.728-.818 1.788-3.356.087-2.671-.728zm1.24 4.38c-.041-1.192 1.188-1.521 1.669-.534.869 1.794-1.62 1.913-1.669.534zm.853-11.579c1.718-1.787 3.844-2.695 6.2-3.141 1.404-.266 2.358-.95 2.897.835.201.66.431.934.778 1.473.138.215.797.88.784 1.071-.577.44-1.317.7-1.978.904-2.312.717-4.501 2.077-6.854 2.567-1.731.361-3.243-2.234-1.827-3.709zm2.779 9.036c.8-.089 2.829 1.122 1.089 1.444-.662.124-2.784-1.257-1.089-1.444zm-.271 6.393c-1.319-1.471 1.691-.547 2.075-.5 1.12 1.29-1.467 1.179-2.075.5zm5.086 3.78c-.568 1.121-2.396-.537-1.777-1.566 1.08-1.791 2.445.244 1.777 1.566zm-.008-5.596c-.712.591-2.236-.355-2.873-.76-1.445-.913.954-1.822 1.726-1.963 2.095-.372 3.068 1.137 1.147 2.723zm.838 9.64c-.074-.371-.003-1.029.248-1.161.197.134-.011 1.049-.248 1.161zm.753-3.59c-.234-.189.108-3.645.314-3.723.414.851.021 2.133-.139 3.015.063.277.004.513-.175.708zm-2.45-12.196c-.271-.88-.938-1.117-1.354-1.915-.552-1.059.188-2.014 1.083-2.486 1.488-.786 3.723-1.632 5.345-1.158.572.166.797 1.518.913 2.142.249 1.342-.146 2.056-1.146 2.645-.988.584-4.183 2.913-4.841.772zm3.809 14.533c.325-.441.787-.522 1.195-.187-.014 1.026-.406 1.816-.877 2.662-1.228-.008-.948-1.615-.318-2.475zm.569 7.255c-.913.022-1.509-.938-1.056-1.808.616.052 2.26.981 1.056 1.808zm3.396-22.178c.062.073.099.16.118.262-.312.563-.973 1.597-1.42 2.015-.723-.368 1.04-2.124 1.302-2.277zm-2.158 27.628c-.452-.113-1.251-3.317.053-3.121 1.099.168 1.114 3.417-.053 3.121zm1.075-7.463c-.773-.447-.583-2.502.536-2.223.852.214 1.12 2.713-.536 2.223zm.684 11.667c-.952-.126-1.45-2.564-.266-1.86.353.21 1.09.422 1.204.935.135.615-.503.982-.938.925zm1.878-8.278c1.4-.25 1.728 2.518.266 2.414-1.022-.071-1.531-2.189-.266-2.414zm.552 12.523c-.314-.392-.795-1.157-.699-1.733.072-.458.635-.917.988-.59.747.688.502 3.305-.289 2.323zm-.524-8.382c.338-1.021 2.174.02 2.094.896-.132 1.472-2.62.69-2.094-.896zm2.908-4.434c-.365-.695-1.134-1.7-1.754-2.103-.145-.686-.112-1.431.012-2.122.049-.268.775-1.79.732-1.885-.375-.864 3.938-1.262 4.588-1.306 1.517-.102 3.023-.206 4.52.019 1.331.195 3.458.611 4.405 1.754.448.538.874.861.013 1.253-.79.358-1.65.748-2.468 1.001-.595.184-1.192.361-1.782.61-.457.194-1.342.342-1.701.676-.56.521-1.327.697-1.978 1.014-.998.485-1.912 1.161-2.928 1.617-1.235.556-1.109.524-1.659-.528zm1.508 15.764c-1.133.089-1.894-1.813-.374-1.869.559-.021 1.263-.036 1.297.743.028.628-.392 1.085-.923 1.126zm-.619-5.313c-.102-.528-.537-1.622.322-1.619.394.002 1.168.396 1.383.787.706 1.289-1.228 3.239-1.705.832zm1.14-5.514c-.23-.54-1.494-2.268-.833-2.711 1.351-.905 2.813-1.625 4.284-2.227 2.979-1.214 6.036-2.738 9.179-3.185 1.422-.202 3.254.049 4.666.355.559.121 4.795.63 4.859 1.061-.415.969-2.776 1.297-3.582 1.475-1.452.325-3.313.852-4.658 1.563-1.547.819-3.013 1.865-4.487 2.839-1.537 1.01-2.884 2.286-4.43 3.282-.949.61-1.781.627-2.771-.019-1.168-.765-1.65-1.084-2.227-2.433zm.528 12.734c.113-1.822 2.142-.527 2.112.696-.031 1.383-2.169.259-2.112-.696zm2.964-4.584c-.562.119-1.27-.289-1.568-.82-.41-.72.537-1.243.957-1.547 1.51-1.09 1.697 2.133.611 2.367zm2.016 2.169c.364.73.609 1.295.48 2.175-.116.792-1.232.923-1.469.164-.189-.6-.508-1.545-.562-2.168-.105-1.222 1.224-.831 1.551-.171zm-1.222 4.692c.274-.384 2.079-.528 2.01.069-.453.378-1.567.246-2.01-.069zm5.853 1.633c-.746-.059-1.354-.255-1.701-.719.377-.865 2.343-.006 1.701.719zm-2.627-3.181c.14-.642 2.253-.75 2.188.08-.067.837-1.849.141-2.188-.08zm1.82-2.708c-1.571-.366-1.976-2.854-2.814-4.086-.421-.621-.562-2.22-.248-3.013.264-.673 1.452-1.198 1.976-1.575 1.233-.88 3.583-2.342 4.984-2.363.902-.013 1.767-.343 2.612-.693.822-.343 1.336-1.184 2.121-1.576 1.624-.814 3.383-1.042 4.943-2.166 1.352-.973 3.395-1.128 4.932-1.285 3.563-.365 7.099-1.096 10.64-1.625 1.012-.152 3.596-1.299 4.403-.299.637.789-3.667 2.906-4.289 3.188-1.669.751-3.271 1.656-4.913 2.472-1.613.8-3.3 1.33-4.876 2.215-1.495.837-3.149 1.344-4.677 2.173-1.637.892-3.198 1.939-4.784 2.939-1.685 1.062-3.454 1.87-5.119 2.998-.901.611-1.801 1.229-2.735 1.77-.487.278-1.595 1.058-2.156.926zm2.411 4.51c-.459-1.424 1.826-.809 1.928-.05.14 1.031-1.681.815-1.928.05zm28.515-13.503c-.314-.031-1.317.177-.586-.617.413-.446.986-.26 1.313-.739.253-.374.823-.612.783.064-.574.301-1.165.654-1.51 1.292zm1.645-5.023c-4.204 5.848-11.12 8.755-16.835 12.046-2.467 1.421-5.109 2.84-7.517 4.541-1.514 1.068-3.229.293-4.785-.161-1.054-1.334-.463-1.59.852-2.253 1.589-.804 3.201-1.65 4.76-2.53.936-.528 1.9-.981 2.868-1.519 1.114-.617 2.809-1.083 3.724-2.002.503-.503 1.287-.69 1.904-.923.973-.367 1.765-.982 2.689-1.438 1.541-.761 3.046-1.49 4.568-2.287 1.796-.941 3.409-2.252 5.221-3.165.557-.279 3.14-2.34 3.64-2.038-.129.733-.699 1.187-1.089 1.729zm2.316-8.003c-1.031.771-2.445.6-3.582.756-1.275.18-2.712.386-3.996.686-2.981.701-6.354.854-9.392.931-2.793.069-5.582.062-8.346-.655-.906-.236-8.112-1.441-5.448-3.335 2.141-1.523 5.568-2.597 8.067-2.634 1.37-.018 3.493.6 4.628-.528 1.182-1.174 2.068-1.738 3.666-1.816 2.859-.137 5.736 1.623 8.437 2.539.862.29 6.872 2.19 5.966 4.056zm.727 2.092c.746.048 1.143 1.729.338 1.998-1.772.592-1.055-2.043-.338-1.998zm.736 5.867c-.751.998-1.977.955-.978-.402.198-.268.428-.939.816-.924.809.036.435.966.162 1.326zm.459-8.295c-.127-.418-.049-1.398.502-1.435 1.291-.085.677.556 1.37 1.23-.106 1.744-1.462 1.538-1.872.205zm3.191 8.327c-.046.108-1.489.31-1.625.26-.191-.988 1.867-.818 1.625-.26zm.345-1.261c-.336-.122-.715-.986-.359-1.455 1.051-.282 1.479 1.867.359 1.455zm.967-7.111c-.103-.514.743-2.123 1.249-2.178-.045.828-.098 2.651-1.249 2.178zm.594 6.994c.193-.472 1.143-.459 1.077.174-.069.649-1.49.828-1.077-.174zm.77 2.889c-.516-.016-.333-.815.355-.572.862.304.177-1.175.455-1.601.382.055.683.259.902.619-.488.829-.664 1.589-1.712 1.554zm2.717-9.33c-.101-.369.022-1.652.559-1.811.14.237.171.495.088.773.052.673.129 1.14-.647 1.038zm.461 3.511c-.541-.022-1.387-.085-.97-.98.328-.137 1.202-.815 1.352-.123.085.381-.14.852-.382 1.103zm.867-9.934c-1.04.318-1.063-1.844-.331-1.916.837-.085.664 1.319.331 1.916zm1.181-6.504c.834-.604 1.015 2.122-.188 1.9-.789-.144-.226-1.601.188-1.9zm-.554 10.945c-.687-.196.107-1.829.397-2.126.851.199.38 2.347-.397 2.126zm1.481-2.152c-.173-.305-.777-2.088-.104-2.118.909-.042.403 2.647.104 2.118z"/><path fill="#FF9323" d="M159.439 272.678c.064.041.13.08.194.12-.201-.129-.241-.154-.194-.12zM157.604 274.366c.116.089.203.15.227.15-.075-.051-.152-.101-.227-.15z"/><path fill="#FFC72A" d="M160.74 350.269v-24.777c1.529-.41 3.58-.273 5.123-.67.285-.545.595-1.062.901-1.584a7.33 7.33 0 0 0 .865-.165c1.79-3.446 4.104-6.34 6.662-8.977a111.488 111.488 0 0 1 4.202-3.776c1.118.837 1.764 2.172 3.443 2.417v3.625c1.201-.254 1.521.415 2.297.607v4.833c1.179.574 2.732.748 2.871 2.419 1.349-.193 2.156-.957 4.019-.605-.11-.788-.031-1.376.215-1.786a4.47 4.47 0 0 1 1.552.037 4.785 4.785 0 0 1-.048-.718c.181.003.371.016.577.05a8.107 8.107 0 0 1 .289-1.644c.373-.162.859-.203 1.478-.106.13-1.982.852-3.343 1.798-4.467.81-.714 1.631-1.414 2.33-2.246.977-.865 1.927-1.762 2.603-2.946 1.167.199 1.982.766 2.986 1.135v2.417c3.885.746 6.342 2.994 11.48 2.419v-1.66c.555.007 1.14-.021 1.765-.09v-6.665c.345 1.624.78 3.148 2.254 3.579-.931-1.735-1.084-5.187-1.53-8.771 1.315 2.114.697 6.262 3.297 7.022-1.62-3.022-.882-11.228-3.445-16.318h-.146a1.102 1.102 0 0 0-.538-.565c-.019-1.078 1.516-.521 2.406-.643v.604c1.565-.053 1.153 1.006 2.296 0v3.627c1.924.414 2.099-1.015 2.298-2.418 2.259-.363-.147 4.182 2.295 3.627v-10.275c2.995.742 4.514 2.065 5.167-1.813 1.171.984 2.347 1.963 4.018 2.419v1.209h2.297v7.252c2.13-.429 2.465 1.031 4.593.604v1.209c.057 2.762-.464 6.131 1.148 7.251 1.169-.581 1.24-2.319 1.148-4.23.626-1.354 2.818-1.061 3.443-2.417.854.514 1.235 1.521 1.149 3.022 1.309-.169 2.157.146 2.298 1.21.491-.56-.338-4.854 0-7.253 2.467-.104 5.004 1.996 6.888.604-.198 1.404-.372 2.832-2.296 2.416v3.022c.462.52 1.573.359 1.723 1.21-.332.436-.643.89-.944 1.357-.382-.699-.94-1.056-1.75-.877-.097-.905.203-2.229-.573-2.417-1.872 2.463-3.286 5.406-4.021 9.065h.427a23.29 23.29 0 0 0-.427 1.749h3.311c-.013.063-.03.122-.043.186h.75c-.144 3.666 2.074 5.807 2.298 8.879 1.67.208 2.371-.608 2.921-1.582a7.98 7.98 0 0 1 .346 1.768c.899.111 1.514-.075 1.979-.42-.092.866-.065 1.733.497 2.653.819-.146.968-.996 1.723-1.21.036 4.999 3.932 4.078 6.314 5.439.16.358.271.707.341 1.046-.668 3.466-5.038 6.174-4.236 9.68-.257 1.169-.051 2.404 1.024 3.779a15.8 15.8 0 0 0 3.072-.089c.064.091.123.181.195.273 4.775.346 8.18-1.609 11.628-2.277 0 .253.003.503.011.748-.028 1.501-.011 2.961.212 4.199-4.297 4.282-8.785 8.364-12.822 12.918.03.549.501.631.844.846-.278.304-.568.598-.844.907.03.553.516.627.859.852H160.74v-9.733z"/><path fill="#FFE525" d="M172.966 347.648c-.103-.063-.184-.122-.275-.184-1.362.08-2.796.111-4.337.059-1.517-.933-1.81-1.773-1.446-2.566-.482-1.013.363-1.927 1.561-2.826h-2.604c3.334-.354 6.001-1.224 6.644-3.158.428-1.338-.36-1.264-2.615-1.762-3.658-.807-6.165-.84-6.467-3.17-.508.262-1.829.503-2.352.708-.636-.503-.901-1.084-.785-1.678-.876.241-1.781.089-2.614.177-.042-.321-.63-.768-.604-1.086-3.077 2.543-5.274-.707-6.206-2.044-.494-.709-.717-1.532-1.77-2.122-.497-.276-4.72-1.23-4.699-1.109-.162-.946.119-2.13.79-3.281-.037.005-.067.005-.104.009.155-.788.042-1.376-.305-1.786a8.854 8.854 0 0 0-2.189.037c.051-.262.069-.499.066-.718a7.78 7.78 0 0 0-.816.05 6.03 6.03 0 0 0-.405-1.644c-.529-.162-1.215-.203-2.087-.106a6.38 6.38 0 0 0-.143-.848c-.36-1.532-1.261-2.664-2.397-3.619-1.141-.714-2.302-1.414-3.287-2.246-1.382-.865-2.724-1.762-3.678-2.946-1.646.199-2.798.766-4.213 1.135v2.417c-5.485.746-8.955 2.994-16.21 2.419v-1.66a28.625 28.625 0 0 1-2.492-.09v-6.665c-.485 1.624-1.102 3.148-3.183 3.579 1.313-1.735 1.53-5.187 2.162-8.771-1.858 2.114-.986 6.262-4.654 7.022 2.285-3.022 1.243-11.228 4.863-16.318h.208c.15-.255.41-.441.756-.565.026-1.078-2.141-.521-3.395-.643v.604c-2.211-.053-1.633 1.006-3.244 0v3.627c-2.717.414-2.962-1.015-3.243-2.418-3.189-.363.207 4.182-3.241 3.627v-10.275c-4.229.742-6.372 2.065-7.295-1.813-1.653.984-3.312 1.963-5.674 2.419v1.209h-3.242v7.252c-3.006-.429-3.479 1.031-6.482.604v1.209c-.08 2.762.653 6.131-1.622 7.251-1.65-.581-1.749-2.319-1.62-4.23-.885-1.354-3.98-1.061-4.864-2.417-1.204.514-1.744 1.521-1.622 3.022-1.848-.169-3.046.146-3.243 1.21-.693-.56.478-4.854 0-7.253-3.482-.104-7.064 1.996-9.726.604.28 1.404.525 2.832 3.244 2.416v3.022c-.653.52-2.221.359-2.433 1.21.467.436.905.89 1.331 1.357.54-.699 1.329-1.056 2.471-.877.14-.905-.288-2.229.811-2.417 2.642 2.463 4.638 5.406 5.675 9.065h-.602c.225.565.431 1.144.602 1.749h-4.672c.018.063.042.122.058.186h-1.056c.199 3.666-2.928 5.807-3.245 8.879-2.359.208-3.351-.608-4.124-1.582-.244.563-.428 1.146-.49 1.768-1.267.111-2.138-.075-2.791-.42.132.866.091 1.733-.701 2.653-1.157-.146-1.367-.996-2.433-1.21-.051 4.999-5.551 4.078-8.914 5.439a4.07 4.07 0 0 0-.484 1.046c.946 3.466 7.116 6.174 5.983 9.68.362 1.169.07 2.404-1.446 3.779-1.542.077-2.975.03-4.339-.089-.09.091-.173.181-.275.273-6.743.346-11.55-1.609-16.418-2.277 0 .253-.003.503-.013.748.038 1.501.016 2.961-.302 4.199 6.066 4.282 12.403 8.364 18.104 12.918-.043.549-.706.631-1.19.846.394.304.804.598 1.19.907-.043.553-.729.627-1.212.852h141.917c-.485-.152-1.173-.203-1.213-.578.388-.211.8-.409 1.19-.616-.485-.146-1.15-.203-1.19-.572 5.162-2.802 10.847-5.34 16.38-7.954v-.011-4.006c-4.409.54-8.918 1.597-15.013 1.384z"/><path fill="#E5FF3C" d="M359.396 305.667c.052-.372.069-.71.066-1.022a6.006 6.006 0 0 0-.814.068 11.826 11.826 0 0 0-.407-2.34c-.529-.229-1.216-.287-2.087-.15-.184-2.824-1.202-4.761-2.538-6.362-1.143-1.019-2.304-2.02-3.292-3.203-1.854-1.657-3.041-4.736-5.645-3.604-2.332 1.014-1.134 2.925-2.547 4.545-.555.639-3.908 1.188-4.834 1.509-3.469 1.202-7.261 2.674-10.961 1.756.1-.608-.311-1.517-.197-2.143-.619.098-1.717-.429-2.306-.354-.394-2.978-.063-6.163-.118-9.183-.387 1.913-1.052 4.121-3.055 4.815 1.436-3.844 1.631-8.187 2.005-12.25-1.633 2.888-.822 8.44-4.52 9.773 2.396-.863 2.123-14.487 2.605-16.858.24-1.193 3.083-7.055 2.688-7.688-.963-1.543-4.592 1.169-6.046.82-.212 1.457.634 5.017-1.444 4.883-1.371-.089-1.977-2.293-2.06-3.344-2.623.54-.329 4.07-2.762 5.04-1.903-4.508.211-9.738-.501-14.407-3.025.316-6.645 1.922-7.245-2.533-2.073 1.028-5.122 2.272-5.793 4.723-.936-.104-1.957.371-2.851.39-.494 2.298.099 4.539-.145 6.819-.306 2.845-.046 2.103-2.027 3.289-2.606 1.56-4.402.665-4.335 4.721.044 2.666.775 6.175-1.842 7.918-2.508-1.636-.774-4.852-2.879-6.913-.366-.36-.838-.687-1.482-.962-2.84-1.209-1.751-.609-3.624 1.086-.478.434-.55 1.261-1.182 1.779-.614.508-1.491.647-2.117 1.38-.498-2.007 1.295-8.565-.47-9.744-1.427-.954-6.957 1.493-9.013 1.096-.353 1.754.978 3.157 2.739 3.379.098 1.546-3.288 6.224-1.427 7.249 1.588.877 3.253-2.836 3.771-3.962 3.774 2.889 5.781 10.205 5.406 14.825.021-.253-4.204 1.749-4.699 2.329-1.053 1.235-1.276 2.967-1.77 4.454-.932 2.804-3.129 9.627-6.206 4.288.025.667-.563 1.604-.605 2.279-.834-.183-1.738.135-2.613-.372a5.74 5.74 0 0 1-.786 3.524c-.523-.437-1.843-.938-2.351-1.488-.302 4.893-2.809 4.957-6.468 6.651-2.255 1.045-3.042.89-2.614 3.696.643 4.063 3.31 5.884 6.642 6.63h-2.603c1.197 1.885 2.043 3.806 1.561 5.932.362 1.666.07 3.428-1.446 5.384a21.922 21.922 0 0 1-4.339-.124c-.09.129-.172.258-.273.39-6.744.491-11.55-2.294-16.42-3.245 0 .36-.002.715-.013 1.064.037 2.139.016 4.22-.302 5.982 6.067 6.103 12.404 11.919 18.103 18.408-.039.778-.703.895-1.189 1.204.392.434.804.849 1.189 1.29-.039.789-.726.895-1.211 1.215H360v-54.423c-.191.022-.393.05-.604.091z"/><path fill="#1F2D49" d="M52.712 97.261c-3.397.828-7.084 1.16-9.28.994-1.823 2.692-3.853 5.262-6.214 7.54-3.521 3.313-7.747 4.806-12.18 4.267-8.451-.994-5.634-10.688 3.729-7.54.87.332.58.829-.125.539-6.628-2.485-8.285 5.551-2.568 5.841 3.687.166 6.753-1.615 9.528-4.308 5.427-5.345 8.576-16.364 15.618-24.277.787-.828 1.45-1.615 2.196-2.319-4.723-.705-10.15-.373-13.63.29-5.22.952-13.836 4.143-14.831 10.315-.456 2.899 1.574 5.178 4.06 5.261 2.61.083 5.261-2.237 6.214-5.013.124-.621.58-.538.58.042-.041 3.77-3.646 5.883-6.877 5.8-3.272-.125-6.338-2.196-6.131-6.422.373-7.415 10.896-10.48 16.82-11.351 4.599-.663 10.025-.953 14.914.041.911-.704 1.864-1.284 3.107-1.74 1.326-.538 1.409 0 .414.622-.414.29-1.16.828-1.864 1.532 1.74.456 3.355 1.119 4.805 1.989 10.441 6.214-.082 15.908-8.285 17.897zm2.693-18.892c-4.226 5.925-7.374 12.843-11.393 19.016 2.113.083 4.764-.331 7.375-1.118 8.99-2.734 15.162-11.683 8.658-16.033-1.243-.829-2.858-1.45-4.64-1.865zM66.883 108.653c-1.367.083-3.314-.994-2.071-5.345-.663 1.077-1.782 2.734-2.983 3.895-4.764 4.557-7.913-2.692-1.657-10.191 2.486-2.941 7.25-4.474 9.611-1.905.58.621.249 1.325-.456 1.201-.456-1.532-1.989-1.864-3.521-1.035-1.864 1.035-4.019 3.479-5.51 5.924-.332.58-1.45 2.609-1.699 4.185-.414 2.899 1.864 2.568 3.812.248 1.45-1.74 2.61-3.77 3.687-5.8.911-1.74 1.491-2.734 2.817-2.651.539.041 1.16.29 1.74.166-.87.87-3.314 5.22-3.853 7.747-.332 1.698-.124 2.485.415 2.485 1.74.083 4.474-5.179 5.344-6.96.373-.746.995-.497.58.331-1.243 2.527-3.77 7.498-6.256 7.705z"/><path fill="#1F2D49" d="M77.862 108.529c-1.409.331-3.936-.912-2.278-5.221.621-1.698 2.113-3.853 2.568-4.888.58-1.367-.87-1.906-3.19-1.947l-.497 1.325c-.994 2.61-2.983 7.209-5.013 9.156-.332.289-.58-.166-.332-.539 3.273-4.309 5.551-10.564 6.38-15.204.414-2.319 3.107-1.284 2.527 1.491-.249 1.16-1.574 2.279-2.278 2.776 1.533.083 3.687.041 5.717-.166.29.58-.373 2.154-.87 3.189-.622 1.285-4.847 8.866-2.361 8.99 1.698.041 4.267-5.137 5.137-6.918.373-.705.912-.415.497.414-1.201 2.488-3.314 6.879-6.007 7.542z"/><path fill="#1F2D49" d="M93.439 93.739h-2.403c-1.409 2.402-3.065 4.599-5.51 6.836-.373 1.077-.953 4.226-.953 4.226-.621 2.775 1.285 3.148 2.651 2.154 1.906-1.409 3.273-4.019 4.392-6.256.332-.746.953-.58.539.248-1.823 3.812-2.527 4.931-4.06 6.463-2.237 2.154-6.338 1.45-5.717-3.106.373-2.817 1.906-7.333 3.231-10.564h-2.154c-.456 0-.373-.911.083-.911h2.486c.953-2.071 1.988-4.102 3.024-5.883 2.858-5.013 7.333-4.309 4.267 2.319a71.688 71.688 0 0 1-1.781 3.563h1.989c.414 0 .331.911-.084.911zm-5.302 0c-.87 2.03-1.657 4.06-2.237 5.51 1.574-1.615 2.983-3.521 4.185-5.51h-1.948zm3.355-6.96c-.994 1.408-1.905 3.688-2.941 6.049h2.072a44 44 0 0 0 2.071-4.226c.787-1.74 1.367-5.427-1.202-1.823z"/><path fill="#1F2D49" d="M99.24 108.736c-1.45 0-3.438-.994-2.195-4.848.331-1.077 1.118-2.485 2.278-4.35.994-1.615.249-2.734-2.941.249-1.409 1.284-3.438 3.604-5.758 8.202-.332.58-.704.621-1.574.621-.622.042-.994 0-1.409.249 1.989-3.936 3.687-7.871 5.717-11.6 1.077-1.988 1.615-2.693 2.941-2.61.539.042 1.16.29 1.74.166-1.243.663-3.521 4.806-5.013 7.788.829-1.035 2.154-2.609 3.438-3.729 1.988-1.781 6.255-4.391 7.664-3.894 0 0-4.433 7.788-4.971 10.688-.332 1.699.124 2.072.663 2.072 2.154 0 4.806-5.428 5.676-7.167.331-.746.994-.456.58.372-1.243 2.53-3.646 7.791-6.836 7.791z"/><path fill="#1F2D49" d="M108.396 108.736c-2.071 0-3.936-1.367-3.978-3.978-.041-2.485 1.367-5.593 3.19-7.747 2.112-2.485 5.261-4.06 7.084-2.692 1.574 1.201.373 4.019-2.278 6.048-1.284.953-3.978 1.823-5.096 1.823-.621 1.491-1.326 5.676 1.408 5.676 3.646 0 5.883-4.889 6.836-7.084.331-.746 1.16-.829.745.041-1.531 3.315-3.312 7.913-7.911 7.913zm1.699-11.144c-1.077 1.326-2.112 3.148-2.485 3.895.745 0 2.899-.58 4.392-1.823 3.395-2.859 3.188-8.245-1.907-2.072z"/><path fill="#1F2D49" d="M120.99 108.529c-1.409.331-3.936-.912-2.278-5.221.621-1.698 2.112-3.853 2.568-4.888.58-1.367-.87-1.906-3.19-1.947l-.497 1.325c-.994 2.61-2.982 7.209-5.013 9.156-.331.289-.58-.166-.331-.539 3.272-4.309 5.551-10.564 6.38-15.204.414-2.319 3.106-1.284 2.526 1.491-.248 1.16-1.574 2.279-2.278 2.776 1.533.083 3.688.041 5.717-.166.29.58-.372 2.154-.869 3.189-.622 1.285-4.848 8.866-2.361 8.99 1.698.041 4.267-5.137 5.137-6.918.373-.705.911-.415.497.414-1.202 2.488-3.315 6.879-6.008 7.542z"/><path fill="#1F2D49" d="M129.027 108.321c-.579.249-1.159.415-1.698.415-5.013 0-4.06-5.759-2.071-5.842 1.118-2.112 2.485-4.806 3.563-7.167.746-1.615 1.989-3.355 3.438-3.563.622-.083 1.119 0 1.533.207.746.373.58 1.077-.166.704-.414-.165-.911-.248-1.325-.041-1.906.911-1.491 3.77-.87 5.261.663 1.574 1.574 3.066 1.491 4.889-.083 1.616-1.325 3.521-2.941 4.599l.29.041c1.408.208 2.693-.662 3.729-1.905.953-1.16 2.237-3.729 3.107-5.427.207-.414.828-.166.621.248-1.534 3.439-4.019 8.99-8.701 7.581zm-2.816-3.562c-1.326 1.326-.787 3.273.828 3.273.29 0 .58-.042.829-.166-.87-.539-1.574-1.533-1.657-3.107zm3.645-9.446c-1.119 2.237-2.9 5.841-3.895 7.664 0 0 .912-.041.87 1.326-.083 1.574.787 2.733 1.74 3.189.911-.704 1.698-2.112 1.822-4.309.127-2.608-.868-6.005-.537-7.87zM197.591 87.4c-4.806-.787-8.907-3.23-9.694-3.563-2.651 3.024-4.35 7.996-5.51 10.688 2.527.331 6.09.331 7.789.249 1.408-.083 1.367.497.082.828-1.449.373-6.255.456-8.368.207-2.858 7.747-7.332 18.146-20.714 18.146-9.652 0-15.866-7.291-12.925-16.322.745-2.361 3.106-3.936 4.309-4.309 1.325-.414.455.207-.787 1.077-1.036.745-2.693 1.988-3.19 4.806-1.45 8.119 6.049 12.552 12.097 12.801 9.197.414 15.784-7.291 19.72-16.322-1.574 0-7.084-.622-9.031 2.195-.497.663-.87.083-.663-.373 1.906-4.226 6.297-4.06 10.274-3.355 1.947-4.764 5.22-9.942 6.007-10.854-3.521-1.74-7.208-3.356-11.269-3.936-11.31-1.699-16.57 8.699-12.801 11.061 4.185 2.61 8.7-1.325 8.658-2.485.042-.911 1.201-1.657.704-.166-1.201 4.019-6.421 5.51-9.735 3.604-6.877-3.895.249-17.441 13.879-13.588 4.557 1.242 8.533 3.189 11.103 4.805.455-.497 1.615-1.822 3.479-1.284 1.077.332.911 2.03 0 .995-.953-.373-1.905.248-2.485.787 2.775 1.449 12.014 4.93 13.588 1.574.58-1.326.994-.829.746.207-.25 1.699-2.446 2.942-5.263 2.527zM199.251 108.239c-1.243 0-2.113-.456-2.651-1.077-1.16.87-2.403 1.449-3.604 1.408-3.148-.083-3.604-3.853-2.029-7.54 1.615-3.812 5.054-7.042 7.871-6.96 3.148.042 3.604 3.854 2.029 7.54-.621 1.45-1.905 3.397-3.479 4.889.331.621.953 1.035 1.947 1.035 2.651 0 4.806-5.137 5.8-7.125.207-.414.911-.249.621.373-.705 1.574-3.026 7.457-6.505 7.457zm-5.427-7.374c-1.616 3.396-1.989 6.297-.497 6.752.787.207 1.822-.207 2.816-1.035-.455-.663-.663-1.409-.663-2.03.042-.953.415-1.781 1.45-1.781.704 0 1.243.58 1.243 1.243 0 .165-.041.29-.083.455.456-.663.911-1.45 1.284-2.237 1.616-3.396 1.823-6.338.332-6.794-1.781-.498-4.35 2.154-5.882 5.427z"/><path fill="#1F2D49" d="M210.395 108.529c-1.408.331-3.936-.912-2.278-5.221.621-1.698 2.112-3.853 2.568-4.888.58-1.367-.87-1.906-3.189-1.947l-.498 1.325c-.994 2.61-2.982 7.209-5.013 9.156-.331.289-.58-.166-.331-.539 3.272-4.309 5.552-10.564 6.38-15.204.414-2.319 3.107-1.284 2.527 1.491-.249 1.16-1.574 2.279-2.278 2.776 1.532.083 3.687.041 5.717-.166.29.58-.373 2.154-.87 3.189-.621 1.285-4.847 8.866-2.361 8.99 1.698.041 4.267-5.137 5.137-6.918.373-.705.911-.415.497.414-1.203 2.488-3.316 6.879-6.008 7.542zM278.751 93.822c.829 0 2.651-.042 3.314-.29.787-.29 1.035 0 .331.497-1.077.746-2.816 1.035-4.019 1.118-.745 2.444-3.977 11.103-2.154 13.092.539.58 1.409.662 2.32 0 2.113-1.574 3.853-4.806 5.179-7.499.455-.911 1.077-.704.621.29-2.154 4.558-3.189 5.966-5.054 7.789-1.45 1.408-3.231 1.864-4.682 1.118-3.77-1.947.373-11.932 1.367-14.79-1.864 0-10.274-.372-14.044-.538-3.231 9.611-10.813 19.513-21.501 20.879-9.445 1.202-18.726-4.226-16.032-14.582.704-2.692 3.729-5.22 5.054-5.262.87 0 .497.415.083.58-1.367.58-3.77 3.107-4.226 6.546-1.16 9.031 8.907 11.227 14.707 9.942 11.6-2.609 17.026-10.979 19.761-18.187-.87 0-1.698.29-2.485.663-.456.207-1.74.621-1.119-.456.373-.621 1.491-1.45 2.568-1.574h1.616c2.071-5.179 5.179-11.683 6.048-13.423-8.119.912-17.896.29-20.879 9.86-1.409 4.516 1.243 8.285 5.427 6.753 3.065-1.119 4.185-6.588 3.646-7.375-.455-.662.249-.911.539-.289 1.574 3.438-1.16 7.374-4.143 8.451-4.972 1.822-9.653-2.776-8.286-8.203 2.61-10.481 16.198-9.404 24.276-10.191.29-.497 1.864-2.899 3.19-3.314 1.201-.331 2.361 0 2.361 1.16 0 1.947-3.231 3.066-4.889 3.066-1.574 3.065-4.64 11.724-5.344 13.505 5.551 0 11.144.704 14.044.704.621-1.739 5.758-15.204 9.031-16.322 1.615-.58 3.479-.828 1.947-.041-.785.415-5.259 6.671-8.573 16.323zm-10.356-15.204c3.521-.538 2.692-1.988 2.195-1.988-.414-.207-1.615 1.242-2.195 1.988z"/><path fill="#1F2D49" d="M286.709 108.736c-2.072 0-3.936-1.367-3.978-3.978-.041-2.485 1.367-5.593 3.19-7.747 2.112-2.485 5.261-4.06 7.084-2.692 1.574 1.201.373 4.019-2.279 6.048-1.284.953-3.977 1.823-5.095 1.823-.622 1.491-1.326 5.676 1.408 5.676 3.646 0 5.883-4.889 6.836-7.084.331-.746 1.159-.829.745.041-1.531 3.315-3.313 7.913-7.911 7.913zm1.698-11.144c-1.077 1.326-2.113 3.148-2.485 3.895.745 0 2.899-.58 4.391-1.823 3.397-2.859 3.19-8.245-1.906-2.072z"/><path fill="#1F2D49" d="M302.824 108.653c-1.367.083-3.314-.994-2.071-5.345-.663 1.077-1.781 2.734-2.983 3.895-4.764 4.557-7.912-2.692-1.656-10.191 2.485-2.941 7.249-4.474 9.61-1.905.58.621.249 1.325-.455 1.201-.456-1.532-1.988-1.864-3.521-1.035-1.864 1.035-4.019 3.479-5.51 5.924-.332.58-1.45 2.609-1.698 4.185-.415 2.899 1.864 2.568 3.811.248 1.45-1.74 2.61-3.77 3.688-5.8.911-1.74 1.491-2.734 2.817-2.651.538.041 1.159.29 1.739.166-.87.87-3.313 5.22-3.853 7.747-.331 1.698-.124 2.485.414 2.485 1.74.083 4.475-5.179 5.345-6.96.373-.746.994-.497.58.331-1.244 2.527-3.771 7.498-6.257 7.705z"/><path fill="#1F2D49" d="M310.779 100.575c-.207.704-.621 1.698-.87 2.733-1.242 4.972 2.071 5.676 4.268 2.61 1.367-1.947 2.527-4.185 3.065-5.262.373-.704.994-.621.621.208-1.035 2.195-3.189 7.788-7.374 7.788-4.64 0-2.651-5.676-1.947-8.161 1.285-4.641 3.895-10.605 6.298-14.624 2.941-4.93 7.415-4.35 4.433 2.278-1.907 4.268-4.433 8.743-8.494 12.43zm6.877-14.914c-2.029 2.858-5.261 10.273-6.545 13.588 2.941-2.982 5.924-7.871 7.539-11.724.829-1.906 1.244-5.054-.994-1.864z"/><path fill="#1F2D49" d="M327.392 93.739h-2.402c-1.409 2.402-3.066 4.599-5.511 6.836-.372 1.077-.952 4.226-.952 4.226-.622 2.775 1.284 3.148 2.651 2.154 1.905-1.409 3.272-4.019 4.391-6.256.332-.746.953-.58.539.248-1.823 3.812-2.527 4.931-4.06 6.463-2.237 2.154-6.339 1.45-5.718-3.106.373-2.817 1.906-7.333 3.231-10.564h-2.154c-.455 0-.372-.911.083-.911h2.485c.953-2.071 1.989-4.102 3.024-5.883 2.858-5.013 7.333-4.309 4.268 2.319a71.688 71.688 0 0 1-1.781 3.563h1.988c.415 0 .332.911-.082.911zm-5.303 0c-.87 2.03-1.657 4.06-2.237 5.51 1.574-1.615 2.983-3.521 4.185-5.51h-1.948zm3.355-6.96c-.994 1.408-1.905 3.688-2.941 6.049h2.071a44 44 0 0 0 2.071-4.226c.788-1.74 1.368-5.427-1.201-1.823z"/><path fill="#1F2D49" d="M333.15 108.736c-1.45 0-3.438-.994-2.195-4.848.331-1.077 1.118-2.485 2.278-4.35.994-1.615.249-2.734-2.941.249-1.408 1.284-3.438 3.604-5.8 8.202-.29.58-.663.621-1.533.621-.621.042-.994 0-1.408.249 3.355-6.96 7.374-15.411 11.393-22.827.953-1.739 1.616-2.692 2.941-2.609.539.041 1.16.248 1.74.166-1.823 1.864-7.209 12.014-10.605 18.932 1.118-1.408 2.237-2.692 3.355-3.646 1.988-1.781 6.256-4.391 7.664-3.894 0 0-4.433 7.788-4.972 10.688-.331 1.699.083 2.154.622 2.196 1.905.124 4.723-5.51 5.593-7.291.372-.746.994-.456.58.414-1.367 2.86-3.646 7.748-6.712 7.748zM63.34 158.37c-1.367.083-3.314-.994-2.071-5.345-.663 1.077-1.782 2.734-2.983 3.895-4.764 4.557-7.913-2.692-1.657-10.191 2.486-2.941 7.25-4.474 9.611-1.905.58.621.249 1.325-.456 1.201-.456-1.532-1.989-1.864-3.521-1.035-1.864 1.035-4.019 3.479-5.51 5.924-.332.58-1.45 2.609-1.699 4.185-.414 2.899 1.864 2.568 3.812.248 1.45-1.74 2.61-3.77 3.687-5.8.911-1.74 1.491-2.734 2.817-2.651.539.041 1.16.29 1.74.166-.87.87-3.314 5.22-3.853 7.747-.332 1.698-.124 2.485.415 2.485 1.74.083 4.474-5.179 5.344-6.96.373-.746.995-.497.58.331-1.243 2.526-3.77 7.498-6.256 7.705z"/><path fill="#1F2D49" d="M76.639 158.453c-1.45 0-3.438-.994-2.195-4.848.331-1.077 1.118-2.485 2.278-4.35.994-1.615.249-2.734-2.941.249-1.409 1.284-3.438 3.604-5.758 8.202-.332.58-.704.621-1.574.621-.622.042-.994 0-1.409.249 1.989-3.936 3.687-7.871 5.717-11.6 1.077-1.988 1.615-2.693 2.941-2.61.539.042 1.16.29 1.74.166-1.243.663-3.521 4.806-5.013 7.788.829-1.035 2.154-2.609 3.438-3.729 1.988-1.781 6.255-4.391 7.664-3.894 0 0-4.433 7.788-4.971 10.688-.332 1.699.124 2.072.663 2.072 2.154 0 4.806-5.428 5.676-7.167.332-.746.994-.456.58.372-1.243 2.529-3.646 7.791-6.836 7.791z"/><path fill="#1F2D49" d="M92.465 152.777c-.414.953-1.699 4.433.249 4.433 2.071 0 4.474-5.137 5.344-6.877.332-.746.994-.58.622.249-.995 2.319-3.397 7.705-6.711 7.705-.663 0-1.326-.331-1.864-1.118-.456-.705-.787-1.947-.373-3.646-1.243 2.03-3.19 5.345-6.048 4.599-3.894-1.077-1.616-7.747 1.409-11.393 2.32-2.692 5.924-4.143 8.907-2.402 1.989-3.771 3.812-7.581 4.806-9.818.787-1.864 1.491-2.278 2.817-2.154.539.041 1.16.248 1.782.166-1.246 1.158-8.537 14.54-10.94 20.256zm-7.623-1.16c-2.734 5.137-.249 7.706 3.272 2.734 1.533-2.154 3.604-5.717 5.551-9.362-2.07-2.03-6.627 2.569-8.823 6.628zM159.785 135.171c-6.131-.787-9.569-2.279-10.439-2.651-4.971 7.912-5.303 16.985-11.393 23.944-8.782 9.984-35.048 7.085-29.455-10.605 1.243-3.853 5.345-5.551 5.096-3.811-.662.828-3.604 1.781-4.267 5.717-1.491 8.492 6.173 13.05 12.553 12.925 6.504-.165 10.937-2.775 14.085-6.214 5.013-5.427 10.439-20.051 12.18-22.371-4.35-1.367-8.12-2.071-12.553-2.278-11.848-.58-16.612 11.559-10.108 13.63 5.096 1.615 8.079-3.521 7.913-4.682v-.083c.414-.372.828-.207.828.332-.538 4.433-5.261 6.794-9.155 5.469-8.451-2.941-5.303-18.188 10.232-16.778 4.972.414 10.854 2.858 13.506 3.604.372-.455 2.154-2.526 3.065-2.526h-.042c1.326-.415 1.657 1.615.29 1.201-.372-.29-1.615 1.118-2.154 1.657 3.563 1.16 13.63 3.936 13.63 1.118 0-.373.083-.621.456-.621.29 0 .414.663.414.87 0 1.573-2.071 2.484-4.682 2.153z"/><path fill="#1F2D49" d="M152.165 158.246c-1.408.331-3.936-.912-2.278-5.221.621-1.698 2.112-3.853 2.568-4.888.58-1.367-.87-1.906-3.189-1.947l-.498 1.325c-.994 2.61-2.982 7.209-5.013 9.156-.331.289-.579-.166-.331-.539 3.272-4.309 5.552-10.564 6.38-15.204.414-2.319 3.107-1.284 2.527 1.491-.249 1.16-1.574 2.279-2.278 2.776 1.532.083 3.687.041 5.717-.166.29.58-.373 2.154-.87 3.189-.621 1.285-4.847 8.866-2.361 8.99 1.698.041 4.267-5.137 5.137-6.918.373-.705.911-.415.497.414-1.202 2.487-3.316 6.879-6.008 7.542z"/><path fill="#1F2D49" d="M166.459 158.37c-1.367.083-3.314-.994-2.071-5.345-.663 1.077-1.781 2.734-2.983 3.895-4.764 4.557-7.912-2.692-1.656-10.191 2.485-2.941 7.249-4.474 9.61-1.905.58.621.249 1.325-.455 1.201-.456-1.532-1.988-1.864-3.521-1.035-1.864 1.035-4.019 3.479-5.51 5.924-.332.58-1.45 2.609-1.698 4.185-.415 2.899 1.864 2.568 3.811.248 1.45-1.74 2.61-3.77 3.688-5.8.911-1.74 1.491-2.734 2.817-2.651.538.041 1.159.29 1.739.166-.87.87-3.313 5.22-3.853 7.747-.331 1.698-.124 2.485.414 2.485 1.74.083 4.475-5.179 5.345-6.96.373-.746.994-.497.58.331-1.244 2.526-3.772 7.498-6.257 7.705z"/><path fill="#1F2D49" d="M179.758 158.453c-1.45 0-3.438-.994-2.196-4.848.332-1.077 1.119-2.485 2.279-4.35.994-1.615.248-2.734-2.941.249-1.409 1.284-3.438 3.604-5.759 8.202-.331.58-.704.621-1.574.621-.621.042-.994 0-1.408.249 1.988-3.936 3.687-7.871 5.717-11.6 1.077-1.988 1.615-2.693 2.941-2.61.538.042 1.16.29 1.739.166-1.242.663-3.521 4.806-5.013 7.788.829-1.035 2.154-2.609 3.438-3.729 1.989-1.781 6.256-4.391 7.664-3.894 0 0-4.433 7.788-4.971 10.688-.332 1.699.124 2.072.663 2.072 2.154 0 4.806-5.428 5.675-7.167.332-.746.995-.456.58.372-1.241 2.529-3.645 7.791-6.834 7.791z"/><path fill="#1F2D49" d="M188.582 158.038c-.58.249-1.16.415-1.698.415-5.013 0-4.06-5.759-2.071-5.842 1.118-2.112 2.485-4.806 3.563-7.167.746-1.615 1.988-3.355 3.438-3.563.621-.083 1.118 0 1.533.207.745.373.58 1.077-.166.704-.414-.165-.911-.248-1.325-.041-1.906.911-1.492 3.77-.87 5.261.662 1.574 1.574 3.066 1.491 4.889-.083 1.616-1.326 3.521-2.941 4.599l.29.041c1.408.208 2.692-.662 3.729-1.905.953-1.16 2.237-3.729 3.106-5.427.208-.414.829-.166.622.248-1.534 3.439-4.019 8.99-8.701 7.581zm-2.816-3.562c-1.326 1.326-.787 3.273.828 3.273.29 0 .58-.042.828-.166-.869-.539-1.574-1.533-1.656-3.107zm3.645-9.446c-1.119 2.237-2.9 5.841-3.895 7.664 0 0 .911-.041.87 1.326-.083 1.574.787 2.733 1.74 3.189.911-.704 1.698-2.112 1.822-4.309.125-2.608-.869-6.005-.537-7.87z"/><path fill="#1F2D49" d="M197.158 153.896c.538.663 1.035 1.657 1.325 3.107l.124.538c2.486.166 4.848-4.433 6.215-7.332.29-.539.911-.332.621.29-1.533 3.479-3.812 7.829-6.753 7.829.497 5.8-2.651 14.583-7.125 14.376-1.16-.042-2.113-.497-2.154-2.154-.083-2.693 1.822-7.706 4.267-13.464-.87-1.326-.497-3.107.29-3.688.414-.331.953-.538 1.491-.455 2.983-6.712 6.215-13.423 8.493-17.69.911-1.781 1.781-2.899 3.521-2.899.497 0 1.201.29 1.822.207-2.608 2.444-7.994 12.013-12.137 21.335zm-1.74 3.935c-1.45 3.646-2.775 7.499-3.438 10.233-1.119 4.805.787 4.018 2.402 1.864 2.03-2.651 3.521-7.747 3.438-11.435-.828.084-1.864-.206-2.402-.662zm1.947-1.988a4.565 4.565 0 0 0-.622-.994l-.911 2.071c.249.456.911.787 1.657.787h.248c-.041-.704-.165-1.325-.372-1.864z"/><path fill="#1F2D49" d="M212.859 157.956c-1.243 0-2.113-.456-2.651-1.077-1.16.87-2.403 1.449-3.604 1.408-3.148-.083-3.604-3.853-2.029-7.54 1.615-3.812 5.054-7.042 7.871-6.96 3.148.042 3.604 3.854 2.029 7.54-.621 1.45-1.905 3.397-3.479 4.889.331.621.953 1.035 1.947 1.035 2.651 0 4.806-5.137 5.8-7.125.207-.414.911-.249.621.373-.705 1.574-3.025 7.457-6.505 7.457zm-5.426-7.374c-1.616 3.396-1.989 6.297-.497 6.752.787.207 1.822-.207 2.816-1.035-.455-.663-.662-1.409-.662-2.03.041-.953.414-1.781 1.449-1.781.704 0 1.243.58 1.243 1.243 0 .165-.042.29-.083.455.456-.663.911-1.45 1.284-2.237 1.616-3.396 1.823-6.338.332-6.794-1.782-.498-4.35 2.154-5.882 5.427z"/><path fill="#1F2D49" d="M224.004 158.246c-1.408.331-3.936-.912-2.278-5.221.621-1.698 2.112-3.853 2.568-4.888.58-1.367-.87-1.906-3.189-1.947l-.498 1.325c-.994 2.61-2.982 7.209-5.013 9.156-.331.289-.58-.166-.331-.539 3.272-4.309 5.552-10.564 6.38-15.204.414-2.319 3.107-1.284 2.527 1.491-.249 1.16-1.574 2.279-2.278 2.776 1.532.083 3.687.041 5.717-.166.29.58-.373 2.154-.87 3.189-.621 1.285-4.847 8.866-2.361 8.99 1.698.041 4.267-5.137 5.137-6.918.373-.705.911-.415.497.414-1.202 2.487-3.316 6.879-6.008 7.542z"/><path fill="#1F2D49" d="M244.221 158.453c-1.491 0-3.479-.994-2.237-4.848.332-1.077 1.119-2.485 2.279-4.35.994-1.615.248-2.734-2.941.249-1.781 1.656-5.303 6.297-5.842 8.782-.952 0-1.532-1.077-1.325-2.278.29-1.823 1.035-3.19 1.739-4.723 1.367-2.817 2.693-5.842-1.656-1.781-1.409 1.284-3.356 3.521-5.718 8.078-.29.621-.662.663-1.574.663-.58.041-.952 0-1.367.248 1.989-3.936 3.604-7.788 5.635-11.517 1.077-1.988 1.615-2.693 2.941-2.61.538.042 1.16.29 1.739.166-1.242.663-3.521 4.806-5.013 7.788.829-1.035 2.154-2.609 3.438-3.729 1.989-1.781 4.641-4.391 6.049-3.894.746.29.994.994.621 1.822-.745 1.74-2.029 3.771-3.023 5.8.828-1.035 2.195-2.609 3.438-3.729 1.988-1.781 6.297-4.391 7.664-3.894 0 0-4.392 7.788-4.972 10.688-.29 1.699.166 2.072.704 2.072 2.154 0 4.806-5.262 5.676-7.167.331-.746.994-.456.58.372-1.243 2.53-3.687 7.792-6.835 7.792z"/><path fill="#1F2D49" d="M259.302 158.37c-1.367.083-3.314-.994-2.071-5.345-.663 1.077-1.781 2.734-2.983 3.895-4.764 4.557-7.912-2.692-1.656-10.191 2.485-2.941 7.249-4.474 9.61-1.905.58.621.249 1.325-.455 1.201-.456-1.532-1.988-1.864-3.521-1.035-1.864 1.035-4.019 3.479-5.51 5.924-.332.58-1.45 2.609-1.698 4.185-.415 2.899 1.864 2.568 3.811.248 1.45-1.74 2.61-3.77 3.688-5.8.911-1.74 1.491-2.734 2.817-2.651.538.041 1.159.29 1.739.166-.87.87-3.313 5.22-3.853 7.747-.331 1.698-.124 2.485.414 2.485 1.74.083 4.475-5.179 5.345-6.96.372-.746.994-.497.58.331-1.245 2.526-3.772 7.498-6.257 7.705z"/><path fill="#1F2D49" d="M275.086 143.456h-2.402c-1.409 2.402-3.066 4.599-5.511 6.836-.372 1.077-.952 4.226-.952 4.226-.622 2.775 1.284 3.148 2.651 2.154 1.905-1.409 3.272-4.019 4.391-6.256.332-.746.953-.58.539.248-1.823 3.812-2.527 4.931-4.06 6.463-2.237 2.154-6.339 1.45-5.718-3.106.373-2.817 1.906-7.333 3.231-10.564h-2.154c-.455 0-.372-.911.083-.911h2.485c.953-2.071 1.989-4.102 3.024-5.883 2.858-5.013 7.333-4.309 4.268 2.319a71.688 71.688 0 0 1-1.781 3.563h1.988c.415 0 .332.911-.082.911zm-5.303 0c-.87 2.03-1.657 4.06-2.237 5.51 1.574-1.615 2.983-3.521 4.185-5.51h-1.948zm3.356-6.96c-.994 1.408-1.905 3.688-2.941 6.049h2.071a44 44 0 0 0 2.071-4.226c.787-1.74 1.367-5.427-1.201-1.823z"/><path fill="#1F2D49" d="M274.672 157.376c.622.083 1.409-.373 1.864-.787 1.367-1.367 2.734-3.936 3.895-6.256.331-.746.911-.456.539.373-1.077 2.319-3.438 7.581-6.505 7.581-3.106 0-3.106-3.231-2.236-5.386l2.65-6.753c.332-.787-.248-1.532-.414-1.739l2.278-.042c1.326 0 1.326.456.87 1.45l-3.313 7.747s-.415.911-.497 1.201c-.373 1.368-.29 2.528.869 2.611zm2.983-14.707c-.953 0-1.574-.746-1.45-1.698.166-.953 1.077-1.699 1.988-1.699.953 0 1.616.746 1.45 1.699-.165.952-1.036 1.698-1.988 1.698z"/><path fill="#1F2D49" d="M288.51 157.956c-1.243 0-2.113-.456-2.651-1.077-1.16.87-2.403 1.449-3.604 1.408-3.148-.083-3.604-3.853-2.029-7.54 1.615-3.812 5.054-7.042 7.871-6.96 3.148.042 3.604 3.854 2.029 7.54-.621 1.45-1.905 3.397-3.479 4.889.331.621.953 1.035 1.947 1.035 2.651 0 4.806-5.137 5.8-7.125.207-.414.911-.249.621.373-.705 1.574-3.026 7.457-6.505 7.457zm-5.427-7.374c-1.616 3.396-1.989 6.297-.497 6.752.787.207 1.822-.207 2.816-1.035-.455-.663-.662-1.409-.662-2.03.041-.953.414-1.781 1.449-1.781.704 0 1.243.58 1.243 1.243 0 .165-.042.29-.083.455.456-.663.911-1.45 1.284-2.237 1.616-3.396 1.823-6.338.332-6.794-1.781-.498-4.35 2.154-5.882 5.427z"/><path fill="#1F2D49" d="M301.975 158.453c-1.45 0-3.438-.994-2.196-4.848.332-1.077 1.119-2.485 2.279-4.35.994-1.615.248-2.734-2.941.249-1.409 1.284-3.438 3.604-5.759 8.202-.331.58-.704.621-1.574.621-.621.042-.994 0-1.408.249 1.988-3.936 3.687-7.871 5.717-11.6 1.077-1.988 1.615-2.693 2.941-2.61.538.042 1.16.29 1.739.166-1.242.663-3.521 4.806-5.013 7.788.829-1.035 2.154-2.609 3.438-3.729 1.989-1.781 6.256-4.391 7.664-3.894 0 0-4.433 7.788-4.971 10.688-.332 1.699.124 2.072.663 2.072 2.154 0 4.806-5.428 5.675-7.167.332-.746.995-.456.58.372-1.242 2.529-3.645 7.791-6.834 7.791z"/></svg>