<svg xmlns="http://www.w3.org/2000/svg" width="1088" height="612" viewBox="0 0 1088 612"><path fill="#2F60B5" d="M.5.5h1088v612H.5z"/><g opacity=".22" fill="none" stroke="#FFF" stroke-miterlimit="10"><path d="M0 .5h1088M0 591.25h1088M0 559.906h1088M0 529.094h1088M0 497.75h1088M0 466.938h1088M0 435.594h1088M0 404.781h1088M0 373.438h1088M0 342.625h1088M0 311.281h1088M0 280.469h1088M0 249.125h1088M0 218.313h1088M0 186.969h1088M0 156.156h1088M0 124.813h1088M0 94h1088M0 62.656h1088M0 31.844h1088"/><path stroke-width=".75" d="M.375 0v612M1056.922 0v612M1025.844 0v612M994.766 0v612M963.688 0v612M932.609 0v612M901.531 0v612M870.453 0v612M839.375 0v612M808.297 0v612M777.219 0v612M746.141 0v612M715.063 0v612M683.984 0v612M652.906 0v612M621.828 0v612M590.75 0v612M559.672 0v612M528.328 0v612M497.25 0v612M466.172 0v612M435.094 0v612M404.016 0v612M372.938 0v612M341.859 0v612M310.781 0v612M279.703 0v612M248.625 0v612M217.547 0v612M186.469 0v612M155.391 0v612M124.313 0v612M93.234 0v612M62.156 0v612M31.078 0v612M1087.625 0v612"/></g><g fill="none" stroke="#FFF" stroke-width=".5" stroke-miterlimit="10"><path d="M441.295 35.15v512M624.922 447.775L257.669 80.523M284.514 420.932l313.562-313.563"/></g><g fill="none" stroke="#FFF" stroke-width=".5" stroke-miterlimit="10"><path d="M211.559 264.15H827M617 8.149V520.15M800.627 447.775L433.374 80.523M460.219 420.932l313.562-313.563"/></g><path fill="none" stroke="#FFF" stroke-width=".5" stroke-miterlimit="10" d="M281.882 264.15h615.99M529 19v562"/><g opacity=".25"><circle fill="none" stroke="#FFF" stroke-width=".709" stroke-miterlimit="10" stroke-dasharray="4" cx="391.427" cy="269.041" r="104.566"/><circle fill="none" stroke="#FFF" stroke-width=".709" stroke-miterlimit="10" stroke-dasharray="4" cx="417.613" cy="269.041" r="130.707"/><circle fill="none" stroke="#FFF" stroke-width=".709" stroke-miterlimit="10" stroke-dasharray="4" cx="450.347" cy="269.041" r="163.384"/><circle fill="none" stroke="#FFF" stroke-width=".709" stroke-miterlimit="10" stroke-dasharray="4" cx="491.264" cy="269.041" r="204.23"/></g><path opacity=".25" fill="none" stroke="#FFF" stroke-width=".25" stroke-miterlimit="10" d="M363.404 467.063c-102.364-102.359-102.364-268.327 0-370.691 102.361-102.363 268.328-102.363 370.691 0 102.363 102.364 102.363 268.332 0 370.691-102.363 102.364-268.329 102.364-370.691 0z"/><g opacity=".51"><circle fill="none" stroke="#FFF" stroke-width=".709" stroke-miterlimit="10" stroke-dasharray="4" cx="386.677" cy="276.916" r="104.566"/><circle fill="none" stroke="#FFF" stroke-width=".709" stroke-miterlimit="10" stroke-dasharray="4" cx="412.864" cy="276.916" r="130.707"/><circle fill="none" stroke="#FFF" stroke-width=".709" stroke-miterlimit="10" stroke-dasharray="4" cx="445.597" cy="276.916" r="163.384"/><circle fill="none" stroke="#FFF" stroke-width=".709" stroke-miterlimit="10" stroke-dasharray="4" cx="486.514" cy="276.916" r="204.23"/></g><circle fill="none" stroke="#FFF" stroke-width=".706" stroke-miterlimit="10" stroke-dasharray="4" cx="595.94" cy="274.341" r="104.143"/><circle fill="none" stroke="#FFF" stroke-width=".706" stroke-miterlimit="10" stroke-dasharray="4" cx="622.021" cy="274.341" r="130.179"/><circle fill="none" stroke="#FFF" stroke-width=".706" stroke-miterlimit="10" stroke-dasharray="4" cx="654.622" cy="274.341" r="162.723"/><circle fill="none" stroke="#FFF" stroke-width=".706" stroke-miterlimit="10" stroke-dasharray="4" cx="695.374" cy="274.341" r="203.404"/><circle fill="none" stroke="#FFF" stroke-width=".706" stroke-miterlimit="10" stroke-dasharray="4" cx="591.397" cy="265.733" r="104.143"/><circle fill="none" stroke="#FFF" stroke-width=".706" stroke-miterlimit="10" stroke-dasharray="4" cx="617.478" cy="265.733" r="130.179"/><circle fill="none" stroke="#FFF" stroke-width=".706" stroke-miterlimit="10" stroke-dasharray="4" cx="650.079" cy="265.732" r="162.723"/><circle fill="none" stroke="#FFF" stroke-width=".706" stroke-miterlimit="10" stroke-dasharray="4" cx="690.831" cy="265.732" r="203.404"/><path opacity=".51" fill="none" stroke="#FFF" stroke-width=".25" stroke-miterlimit="10" d="M358.654 474.938c-102.364-102.359-102.364-268.327 0-370.691 102.361-102.363 268.328-102.363 370.691 0 102.363 102.364 102.363 268.332 0 370.691-102.363 102.364-268.329 102.364-370.691 0z"/><path opacity=".4" fill="#FFF" stroke="#FFF" stroke-width="2.877" stroke-miterlimit="10" d="M490.348 73.442l16.006 32.909-38.601 13.232c-26.886 9.743-41.455 26.543-43.702 50.399 1.077 7.824 3.278 15.533 6.6 23.128l67.889 134.282c5.925 11.047 8.889 23.32 8.889 36.821 0 18.641-6.814 35.423-20.44 50.343-13.626 14.92-30.605 25.486-50.93 31.699l-36.427 11.737-16.595-33.943 37.163-10.817c13.603-3.758 24.369-10.086 32.297-18.985 7.928-8.897 11.894-18.908 11.894-30.033 0-8.668-1.847-16.837-5.54-24.509l-67.972-132.902c-5.587-11.89-8.921-24.164-10.001-36.821.541-18.563 7.086-35.343 19.64-50.342 12.553-14.997 29.763-26.178 51.63-33.542l38.2-12.656zM621.097 310.122v149.415h-43.311V310.122h-35.372l15.458-37.888h19.914V85.405H700.35l15.442 37.888h-95.945v148.94h74.777v37.888h-73.527z"/><path fill="none" stroke="#FFF" stroke-width="2.906" stroke-miterlimit="10" d="M490.814 71.5l16.168 33.241-38.99 13.367c-27.158 9.841-41.874 26.811-44.144 50.908 1.088 7.903 3.311 15.69 6.667 23.362l68.574 135.639c5.985 11.158 8.979 23.556 8.979 37.193 0 18.828-6.882 35.78-20.646 50.851-13.765 15.071-30.914 25.744-51.445 32.021l-36.795 11.855-16.762-34.287 37.538-10.926c13.741-3.795 24.615-10.188 32.624-19.177 8.008-8.989 12.014-19.101 12.014-30.337 0-8.756-1.866-17.008-5.596-24.756l-68.658-134.245c-5.643-12.009-9.012-24.408-10.102-37.193.545-18.751 7.156-35.701 19.837-50.85 12.681-15.148 30.064-26.442 52.152-33.881L490.814 71.5z"/><path fill="none" stroke="#FFF" stroke-width="3" stroke-miterlimit="10" d="M620.891 310.502v150.925h-43.748V310.502h-35.729l15.614-38.271h20.115V83.516h123.803l15.599 38.271H619.63v150.445h75.533v38.271h-74.272z"/><path opacity=".33" fill="none" stroke="#FFF" stroke-width=".975" stroke-miterlimit="10" d="M485.175 70.937l15.946 33.182-38.895 13.128c-27.094 9.674-41.83 26.505-44.204 50.494 1.045 7.876 3.224 15.642 6.529 23.298l67.657 135.409c5.909 11.143 8.832 23.504 8.768 37.084-.088 18.754-7.022 35.604-20.801 50.547-13.779 14.945-30.909 25.496-51.387 31.649l-36.701 11.634-16.533-34.228 37.438-10.702c13.702-3.718 24.563-10.033 32.581-18.947 8.018-8.914 12.055-18.964 12.107-30.157.041-8.719-1.778-16.947-5.457-24.682l-67.748-134.021c-5.563-11.987-8.86-24.351-9.886-37.089.631-18.672 7.295-35.521 19.996-50.55 12.699-15.026 30.066-26.193 52.099-33.497l38.491-12.552z"/><path opacity=".33" fill="none" stroke="#FFF" stroke-width="1.006" stroke-miterlimit="10" d="M615.002 309.541l-.711 150.311-43.569-.206.709-150.31-35.583-.168 15.73-38.042 20.033.095.888-187.948 123.3.582 15.354 38.189-96.521-.457-.707 149.833 75.226.355-.18 38.115-73.969-.349z"/><path opacity=".74" fill="none" stroke="#FFF" stroke-width=".969" stroke-miterlimit="10" d="M492.705 78.106l15.121 32.52-38.049 12.306c-26.511 9.086-41.074 25.299-43.684 48.636.922 7.685 2.946 15.277 6.072 22.775l64.224 132.738c5.617 10.926 8.313 23.003 8.081 36.231-.318 18.266-7.282 34.591-20.889 48.978s-30.424 24.449-50.447 30.191l-35.894 10.877-15.68-33.544 36.599-9.964c13.393-3.448 24.05-9.465 31.971-18.05 7.921-8.583 11.977-18.324 12.168-29.225.148-8.492-1.522-16.529-5.009-24.11L392.96 207.08c-5.271-11.746-8.329-23.829-9.17-36.25.846-18.18 7.546-34.51 20.104-48.991 12.557-14.48 29.611-25.142 51.163-31.983l37.648-11.75z"/><path opacity=".74" fill="none" stroke="#FFF" stroke-miterlimit="10" d="M620.614 309.227l-2.556 146.404-42.438-.74 2.555-146.405-34.659-.604 15.795-36.86 19.513.34 3.195-183.064 120.095 2.096 14.483 37.389-94.012-1.641-2.548 145.939 73.271 1.279-.647 37.125-72.047-1.258z"/><circle fill="none" stroke="#FFF" stroke-miterlimit="10" cx="621.016" cy="310.502" r="7.778"/><circle fill="none" stroke="#FFF" stroke-miterlimit="10" cx="541.538" cy="310.502" r="7.778"/><circle fill="none" stroke="#FFF" stroke-miterlimit="10" cx="701.07" cy="83.516" r="7.778"/><circle fill="none" stroke="#FFF" stroke-miterlimit="10" cx="695.287" cy="272.231" r="7.778"/><circle fill="none" stroke="#FFF" stroke-width="2" stroke-miterlimit="10" cx="621.016" cy="310.502" r="7.778"/><circle fill="none" stroke="#FFF" stroke-width="2" stroke-miterlimit="10" cx="541.538" cy="310.502" r="7.778"/><circle fill="none" stroke="#FFF" stroke-width="2" stroke-miterlimit="10" cx="701.07" cy="83.516" r="7.778"/><circle fill="none" stroke="#FFF" stroke-width="2" stroke-miterlimit="10" cx="695.287" cy="272.231" r="7.778"/><circle fill="none" stroke="#FFF" stroke-width=".969" stroke-miterlimit="10" cx="490.814" cy="71.5" r="7.536"/><circle fill="none" stroke="#FFF" stroke-width=".969" stroke-miterlimit="10" cx="430.515" cy="192.378" r="7.536"/><circle fill="none" stroke="#FFF" stroke-width=".969" stroke-miterlimit="10" cx="435.977" cy="448.081" r="7.536"/><circle fill="none" stroke="#FFF" stroke-width=".969" stroke-miterlimit="10" cx="452.582" cy="395.547" r="7.536"/><circle fill="none" stroke="#FFF" stroke-width=".969" stroke-miterlimit="10" cx="380.239" cy="169.016" r="7.536"/><circle fill="none" stroke="#FFF" stroke-width="2" stroke-miterlimit="10" cx="490.814" cy="71.5" r="7.536"/><circle fill="none" stroke="#FFF" stroke-width="2" stroke-miterlimit="10" cx="430.515" cy="192.378" r="7.536"/><circle fill="none" stroke="#FFF" stroke-width="2" stroke-miterlimit="10" cx="435.977" cy="448.081" r="7.536"/><circle fill="none" stroke="#FFF" stroke-width="2" stroke-miterlimit="10" cx="452.582" cy="395.547" r="7.536"/><circle fill="none" stroke="#FFF" stroke-width="2" stroke-miterlimit="10" cx="380.239" cy="169.016" r="7.536"/><g fill-rule="evenodd" clip-rule="evenodd" fill="#FFF"><path d="M721.148 105.531h-2c.131-.227-.163-.801 0-1 .268-.326 1.64.25 2 0v1zM723.148 105.531c.134-.199-.167-.832 0-1 .088-.088.862 0 1 0s.912-.088 1 0c.167.168-.134.801 0 1h-2zM731.148 106.531c-.2.135-.833-.166-1 0-.14.141.16.895 0 1-.23.154-.749-.123-1 0v-1c0-.34-.206-1.76 0-2 .032-.037.95-.033 1 0 .16.107-.14.861 0 1 .125.125.918-.146 1 0 .142.256-.113.731 0 1zM733.148 105.531c.131-.227-.163-.801 0-1 .268-.326 1.64.25 2 0v1h-2zM737.148 104.531c.2.135.833-.166 1 0 .095.096-.008.854 0 1 .015.279.067.73 0 1-.044.178.122.879 0 1-.167.168-.8-.133-1 0v-3zM721.148 105.531h2v2h-2v-2zM733.148 105.531v2h-1c-.134.201.167.834 0 1-.167.168-.8-.133-1 0v-2c.2-.133.833.168 1 0 .167-.166-.167-.832 0-1 .167-.166.8.135 1 0zM735.148 105.531c.227.131.801-.162 1 0 .327.268-.25 1.641 0 2h-1v-2zM721.148 107.531c-.134.201.167.834 0 1-.088.088-.862 0-1 0s-.912.088-1 0c-.167-.166.134-.799 0-1h2zM723.148 107.531h2c-.131.227.163.801 0 1-.268.328-1.64-.25-2 0v-1zM733.148 107.531h2c-.131.227.163.801 0 1-.268.328-1.64-.25-2 0v-1zM723.148 112.531h1c-.134-.199.167-.832 0-1-.031-.031-.977-.029-1 0-.163.203.13.772 0 1h-2c-.256-.41.333-1.666 0-2-.265-.264-1.819.309-2 0-.035-.061-.043-.957 0-1 .167-.166.8.135 1 0h1c.317 0 1.789-.199 2 0 .058.055-.054.996 0 1 .126.01.92.08 1 0 .167-.166-.134-.799 0-1 .227.131.801-.162 1 0 .189.156-.016 1.719 0 2 .038.664-.028 1.336 0 2h-2v-1zM728.148 111.531c-.448-.252-1.619.33-2 0-.076-.064-.006-.883 0-1 .008-.146-.095-.904 0-1 .167-.166.8.135 1 0 .123.252-.153.77 0 1 .106.16.86-.139 1 0 .167.168-.133.801 0 1zM730.148 109.531c.2.135.833-.166 1 0 .095.096-.008.854 0 1 .015.279.067.73 0 1-.044.178.122.879 0 1-.167.168-.8-.133-1 0v-3zM737.148 112.531c-.333-.014-.668.018-1 0-.146-.008-.905.096-1 0-.167-.166.134-.799 0-1h-3v-2c.2.135.833-.166 1 0 .077.078-.088.979 0 1 .099.025.937.064 1 0 .105-.105-.126-.945 0-1 .457-.195 1.496-.004 2 0 .003 0-.003.934 0 1 .134.201-.167.834 0 1 .14.141.894-.16 1 0 .154.231-.123.75 0 1zM740.148 112.531h-2c.185-.586-.241-1.436 0-2 .054-.125.895.105 1 0 .167-.166-.134-.799 0-1h1c.26 0 1.864-.172 2 0 .035.045.037.963 0 1-.167.168-.8-.133-1 0-.227.131-.801-.162-1 0-.327.268.25 1.641 0 2zM744.148 109.531c.2.135.833-.166 1 0 .095.096-.008.854 0 1 .015.279.067.73 0 1-.044.178.122.879 0 1-.167.168-.8-.133-1 0v-3z"/><path d="M720.148 112.531c-.229-.129-.797.162-1 0-.029-.023-.031-.969 0-1 .167-.166.8.135 1 0v1zM728.148 112.531v-1c.2.135.833-.166 1 0 .033.033.033.967 0 1-.167.168-.799-.133-1 0zM720.148 112.531h1c-.134.201.167.834 0 1-.033.033-.967.033-1 0-.167-.166.134-.799 0-1zM728.148 112.531c-.134.201.167.834 0 1-.088.088-.862 0-1 0s-.912.088-1 0c-.167-.166.134-.799 0-1h2zM737.148 112.531h1c-.134.201.167.834 0 1-.033.033-.967.033-1 0-.167-.166.134-.799 0-1zM740.148 112.531h2c-.131.227.163.801 0 1-.268.328-1.64-.25-2 0v-1zM720.148 114.531c.2.135.833-.166 1 0 .095.096-.008.854 0 1 .015.279.067.73 0 1-.044.178.122.879 0 1-.167.168-.8-.133-1 0v-3zM723.148 114.531c.131.227-.163.801 0 1 .268.328 1.64-.25 2 0-.134.201.167.834 0 1-.167.168-.8-.133-1 0-.2.135-.833-.166-1 0-.035.035.006 1.002 0 1-.175-.039-.881.119-1 0-.122-.121.044-.822 0-1-.094-.375-.146-1.646 0-2 .049-.117.895.096 1 0zM727.148 115.531c-.033-.033-.033-.967 0-1s.967-.033 1 0 .033.967 0 1-.966.033-1 0zM730.148 115.531c-.229-.129-.797.162-1 0-.029-.023-.031-.969 0-1 .167-.166.8.135 1 0v1zM742.148 116.531h1c-.134-.199.167-.832 0-1-.031-.031-.977-.029-1 0-.163.203.13.772 0 1-.333.014-.668-.018-1 0-.146.008-.905-.094-1 0-.167.168.134.801 0 1-.333-.014-.668.018-1 0-.146-.008-.905.096-1 0-.054-.053.048-.998 0-1-.129-.006-.918-.082-1 0-.137.137.157.9 0 1-.236.152-.744-.121-1 0v-2c.2-.133.833.168 1 0 .071-.07-.078-.984 0-1 .105-.021.933-.066 1 0 .045.045-.03 1.002 0 1 .146-.008.905.096 1 0 .038-.037-.013-1.002 0-1 .166.029.889-.111 1 0 .049.049-.038 1 0 1 .188 0 .85.102 1 0 .16-.105-.14-.859 0-1 .105-.105.841.021 1 0 .435-.057 1.603-.17 2 0 .126.055-.105.895 0 1 .167.168.8-.133 1 0-.134.201.167.834 0 1-.168.168-.828-.164-1 0-.17.164.151.816 0 1-.268.328-1.64-.25-2 0v-1zM747.148 116.531c.25-.359-.327-1.732 0-2 .199-.162.773.131 1 0 .134.201-.167.834 0 1 .105.105.946-.125 1 0 .093.217.127 1.816 0 2-.107.156-.848-.125-1 0-.134-.199.167-.832 0-1-.167-.166-.799.135-1 0zM730.148 115.531c.448.254 1.619-.33 2 0 .076.066.006.885 0 1-.008.146.095.906 0 1-.167.168-.8-.133-1 0-.123-.25.153-.77 0-1-.106-.16-.86.141-1 0-.167-.166.134-.799 0-1zM727.148 117.531c-.033-.033-.033-.967 0-1s.967-.033 1 0 .033.967 0 1-.966.033-1 0zM747.148 116.531c-.13.23.163.797 0 1-.023.029-.969.031-1 0-.167-.166.134-.799 0-1h1zM723.148 118.531c.2.135.833-.166 1 0 .095.096-.008.854 0 1 .053.998-.042 2.002 0 3-.2-.133-.833.168-1 0-.095-.094.008-.854 0-1-.052-.996.042-2.002 0-3zM726.148 118.531c.36.25 1.732-.326 2 0 .035.043.036.965 0 1-.073.074-1.942.07-2 0-.163-.199.131-.773 0-1zM740.148 119.531v2h1c.121 0 .932.082 1 0-.156.186.17.83 0 1-.095.096-.854-.008-1 0-.279.016-.729.068-1 0-.178-.043-.878.123-1 0-.056-.055.053-.996 0-1-.125-.01-.921-.078-1 0-.14.141.16.895 0 1-.104.07-.874.033-1 0-.092-.023.08-.92 0-1-.167-.166-.8.135-1 0v-1c0-.133-.087-.916 0-1 .035-.033.966-.033 1 0 .08.08-.092.977 0 1 .097.025.938.063 1 0 .14-.139-.16-.893 0-1 .23-.152.749.123 1 0 .134-.199-.167-.832 0-1 .122-.121.822.045 1 0 .187-.047 1.916-.117 2 0 .036.051.039.961 0 1-.095.096-.854-.008-1 0-.332.018-.667-.013-1 0zM744.148 119.531c-.082-.061-.981.078-1 0-.024-.098-.063-.936 0-1 .088-.088.862 0 1 0s.912-.088 1 0c.127.127-.052.818 0 1 .061.215.137 1.863 0 2-.033.033-.967.033-1 0-.095-.094.008-.854 0-1-.017-.332.014-.666 0-1zM749.148 121.531h-2v-1c0-.316-.199-1.789 0-2 .157-.166.808.133 1 0 .134.201-.167.834 0 1 .105.105.946-.125 1 0 .242.565-.184 1.414 0 2zM719.148 119.531h3c-.25.361.327 1.732 0 2-.199.164-.773-.131-1 0-.131.227.163.801 0 1-.268.328-1.64-.25-2 0v-3zM729.148 119.531c.2.135.833-.166 1 0 .095.096-.008.854 0 1 .007.129.082.918 0 1-.033.033-.967.033-1 0-.095-.094.008-.854 0-1-.017-.332.014-.666 0-1zM731.148 119.531c.2.135.833-.166 1 0 .095.096-.008.854 0 1 .007.129.082.918 0 1-.033.033-.967.033-1 0-.095-.094.008-.854 0-1-.017-.332.014-.666 0-1zM727.148 121.531c-.033-.033-.033-.967 0-1s.967-.033 1 0 .033.967 0 1-.966.033-1 0zM749.148 121.531c.637.121 1.372-.156 2 0 .178.045.878-.121 1 0 .167.168-.134.801 0 1h-3v-1z"/></g><path fill-rule="evenodd" clip-rule="evenodd" fill="#FFF" d="M515.708 257c-.2.134-.833-.167-1 0-.033.033-.033.967 0 1 .167.167.8-.134 1 0v2h-3v-4h3v1zM522.708 259v-1h-2v-2h2c.134.2-.167.833 0 1 .105.105.946-.126 1 0 .241.563-.185 1.413 0 2h-1zM532.708 258v1c.2.134.833-.167 1 0s-.134.8 0 1h-2c-.2-.134-.833.167-1 0s.134-.8 0-1h-1v-1c-.251-.123-.77.153-1 0-.16-.106.14-.86 0-1-.125-.125-.918.146-1 0-.142-.255.113-.729 0-1h3c.25.36-.327 1.732 0 2 .199.163.773-.131 1 0h1z"/><path fill-rule="evenodd" clip-rule="evenodd" fill="#FFF" d="M532.708 258v-1c-.2-.134-.833.167-1 0s.134-.8 0-1c.448.253 1.619-.33 2 0 .076.065.006.884 0 1-.008.146.095.905 0 1-.166.167-.799-.134-1 0zM515.708 258v-1c.2.134.833-.167 1 0 .033.033.033.967 0 1-.166.167-.799-.134-1 0z"/><g fill-rule="evenodd" clip-rule="evenodd" fill="#FFF"><path d="M224 240.842c.131-.227-.163-.801 0-1 .09-.11 1.832-.064 2 0 .116.044-.098.902 0 1 .167.167.8-.134 1 0-.25.36.327 1.732 0 2-.199.163-.773-.131-1 0-.134-.2.167-.833 0-1s-.8.134-1 0c-.134-.2.167-.833 0-1s-.8.134-1 0zM234 239.842v3h-2v-2h1c.134-.2-.167-.833 0-1s.8.134 1 0zM244 240.842h-1c.134.2-.167.833 0 1 .031.031.977.029 1 0 .163-.203-.13-.77 0-1h1v2c-.2.134-.833-.167-1 0-.105.105.126.946 0 1-.563.241-1.413-.185-2 0v-2h-2v-1c-.229-.13-.797.162-1 0-.029-.023-.031-.969 0-1 .167-.167.8.134 1 0 .2.134.833-.167 1 0 .077.077-.088.979 0 1 .099.024.937.063 1 0 .105-.105-.126-.946 0-1 .563-.241 1.413.185 2 0v1z"/><path d="M224 240.842c.134.2-.167.833 0 1s.8-.134 1 0c.134.2-.167.833 0 1s.8-.134 1 0c-.131.227.163.801 0 1-.268.327-1.64-.25-2 0-.134-.2.167-.833 0-1-.105-.105-.946.126-1 0-.241-.563.185-1.413 0-2h1zM240 241.842c.134.2-.167.833 0 1 .14.14.894-.16 1 0 .153.23-.123.749 0 1h-1c-.34 0-1.76.206-2 0-.037-.032-.033-.95 0-1 .106-.16.86.14 1 0 .125-.125-.147-.918 0-1 .255-.141.729.114 1 0zM236 243.842c-.033-.033-.033-.967 0-1s.967-.033 1 0 .033.967 0 1-.967.033-1 0zM225 247.842h-2v2c-.2-.134-.833.167-1 0-.122-.122.044-.822 0-1-.157-.628.12-1.363 0-2h1c.317 0 1.789-.199 2 0 .166.158-.133.808 0 1zM232 248.842c-.134.2.167.833 0 1-.122.122-.822-.044-1 0-.268.067-1.794.155-2 0-.16-.12.128-.837 0-1 .227-.131.801.163 1 0 .245-.2-.271-1.883 0-2 .075-.032.949-.051 1 0 .167.167-.134.8 0 1s-.167.833 0 1 .8-.134 1 0zM233 247.842c.134-.2-.167-.833 0-1 .088-.088.862 0 1 0s.912-.088 1 0c.167.167-.134.8 0 1h-2zM243 246.842c.36.25 1.732-.327 2 0 .035.043.036.964 0 1-.073.073-1.942.07-2 0-.163-.199.131-.773 0-1zM247 247.842c.134-.2-.167-.833 0-1 .033-.033.967-.033 1 0 .167.167-.134.8 0 1h-1zM251 248.842h1c.106-.28-.133-.732 0-1 .068-.138.884.116 1 0 .105-.105-.126-.946 0-1 .18-.077 1.876-.118 2 0 .032.031.032.968 0 1-.167.167-.8-.134-1 0v2c.137.117.912-.146 1 0 .035.06.043.957 0 1-.122.122-.822-.044-1 0-.628.157-1.363-.12-2 0-.134-.2.167-.833 0-1s-.8.134-1 0v-1zM225 247.842c.2.134.833-.167 1 0 .095.095-.008.854 0 1 .018.332-.014.667 0 1 .36.25 1.732-.327 2 0 .163.199-.131.773 0 1h-3v-3zM232 248.842c.134-.2-.167-.833 0-1s.8.134 1 0c-.134.2.167.833 0 1s-.8-.134-1 0zM236 247.842c.2.134.833-.167 1 0 .095.095-.008.854 0 1 .007.129.082.918 0 1-.033.033-.967.033-1 0-.095-.095.008-.854 0-1-.018-.332.014-.667 0-1zM238 247.842c.2.134.833-.167 1 0 .095.095-.008.854 0 1 .007.129.082.918 0 1-.033.033-.967.033-1 0-.095-.095.008-.854 0-1-.018-.332.014-.667 0-1zM247 247.842v2c-.227-.131-.801.163-1 0-.327-.268.25-1.64 0-2h1zM248 247.842h1c.267 0 1.855-.177 2 0 .163.199-.131.773 0 1-.2.134-.833-.167-1 0s.167.833 0 1-.833-.167-1 0 .134.8 0 1c-.36-.25-1.732.327-2 0-.163-.199.131-.773 0-1 .2-.134.833.167 1 0 .333-.333-.256-1.589 0-2zM234 248.842c.2.134.833-.167 1 0 .095.095-.008.854 0 1 .007.129.082.918 0 1-.073.073-1.942.07-2 0-.163-.199.131-.773 0-1 .2-.134.833.167 1 0s-.134-.8 0-1zM243 249.842c.36.25 1.732-.327 2 0 .035.043.036.964 0 1-.073.073-1.942.07-2 0-.163-.199.131-.773 0-1zM224 253.842h-1v-2c.227.131.801-.163 1 0 .327.268-.25 1.64 0 2zM224 253.842c.227-.131.801.163 1 0 .327-.268-.25-1.64 0-2h4c.274 0 1.846-.181 2 0 .043.05.039.942 0 1-.106.16-.86-.14-1 0-.113.113.031.832 0 1-.06.322.048.676 0 1 .071-.036.994.045 1 0-.022.16.106.894 0 1-.093.093-.856-.006-1 0-.152.006-.89.091-1 0-.327-.268.25-1.64 0-2-.2.134-.833-.167-1 0-.071.071.078.984 0 1-.105.021-.933.067-1 0-.153-.153.168-.867 0-1-.205-.162-.77.13-1 0-.131.227.163.801 0 1-.268.327-1.64-.25-2 0v-1zM235 252.842c-.256.411.333 1.667 0 2s-1.589-.256-2 0v-1c0-.305-.194-1.806 0-2 .033-.033.967-.033 1 0 .14.14-.16.894 0 1 .23.154.749-.123 1 0zM241 251.842c.134.2-.167.833 0 1 .105.105.946-.126 1 0 .075.175.116 1.884 0 2-.033.033-.967.033-1 0-.14-.14.16-.894 0-1-.132-.088-.93.127-1 0-.142-.255.113-.729 0-1 .134-.2-.167-.833 0-1s.8.134 1 0zM243 251.842c.36.25 1.732-.327 2 0 .035.043.036.964 0 1-.073.073-1.942.07-2 0-.163-.199.131-.773 0-1zM252 253.842c-.411-.256-1.667.333-2 0s.256-1.589 0-2h2v2zM255 254.842c.25-.36-.327-1.732 0-2 .199-.163.773.131 1 0 .134-.2-.167-.833 0-1 .122-.122.822.044 1 0 .628-.157 1.363.12 2 0v3c-.227-.131-.801.163-1 0-.323-.265.242-1.637 0-2-.103-.153-.852.123-1 0-.256.411.333 1.667 0 2s-1.589-.256-2 0zM261 252.842v1c0 .069.021.996 0 1-.108.02-.931.069-1 0-.122-.122.044-.823 0-1-.056-.225-.143-1.857 0-2 .073-.073 1.943-.069 2 0 .035.044.037.963 0 1-.167.167-.8-.134-1 0zM266 252.842c-.256.411.333 1.667 0 2s-1.589-.256-2 0v-1c0-.305-.194-1.806 0-2 .033-.033.967-.033 1 0 .14.14-.16.894 0 1 .23.154.749-.123 1 0zM267 251.842c.36.25 1.732-.327 2 0 .035.043.036.964 0 1-.073.073-1.942.07-2 0-.163-.199.131-.773 0-1zM270 251.842h3c-.134.2.167.833 0 1-.095.095-.854-.008-1 0-.113.006-.945-.077-1 0-.314.444.241 1.504 0 2 .36.25 1.732-.327 2 0 .163.2-.131.773 0 1h-3v-4zM254 254.842h-2v-1c.2-.134.833.167 1 0 .071-.071-.078-.984 0-1 .121-.024.911-.072 1 0 .327.268-.25 1.64 0 2zM223 253.842c-.13.229.163.797 0 1-.023.029-.969.031-1 0-.167-.167.134-.8 0-1h1zM244 254.842c-.033-.033-.033-.967 0-1s.967-.033 1 0 .033.967 0 1-.967.033-1 0zM252 254.842c-.134.2.167.833 0 1-.088.088-.862 0-1 0s-.912.088-1 0c-.167-.167.134-.8 0-1h2zM254 254.842h1c-.134.2.167.833 0 1-.033.033-.967.033-1 0-.167-.167.134-.8 0-1zM267 254.842c.36.25 1.732-.327 2 0 .035.043.036.964 0 1-.073.073-1.942.07-2 0-.163-.199.131-.773 0-1z"/></g><g fill="none" stroke="#FFF" stroke-miterlimit="10"><path stroke-width="1.011" d="M516.742 527.821l91.276-14.045"/><path d="M607.568 512.731l7.994-24.231"/></g><g fill-rule="evenodd" clip-rule="evenodd" fill="#FFF"><path d="M485.124 515.031h-2c.131-.227-.163-.801 0-1 .268-.326 1.64.25 2 0v1zM487.124 515.031c.134-.199-.167-.832 0-1 .088-.088.862 0 1 0s.912-.088 1 0c.167.168-.134.801 0 1h-2zM495.124 516.031c-.2.135-.833-.166-1 0-.14.141.16.895 0 1-.23.154-.749-.123-1 0v-1c0-.34-.206-1.76 0-2 .032-.037.95-.033 1 0 .16.107-.14.861 0 1 .125.125.918-.146 1 0 .141.256-.114.731 0 1zM497.124 515.031c.131-.227-.163-.801 0-1 .268-.326 1.64.25 2 0v1h-2zM501.124 514.031c.2.135.833-.166 1 0 .095.096-.008.854 0 1 .015.279.067.73 0 1-.044.178.122.879 0 1-.167.168-.8-.133-1 0v-3zM485.124 515.031h2v2h-2v-2zM497.124 515.031v2h-1c-.134.201.167.834 0 1-.167.168-.8-.133-1 0v-2c.2-.133.833.168 1 0 .167-.166-.167-.832 0-1 .167-.166.799.135 1 0zM499.124 515.031c.227.131.801-.162 1 0 .327.268-.25 1.641 0 2h-1v-2zM485.124 517.031c-.134.201.167.834 0 1-.088.088-.862 0-1 0s-.912.088-1 0c-.167-.166.134-.799 0-1h2zM487.124 517.031h2c-.131.227.163.801 0 1-.268.328-1.64-.25-2 0v-1zM497.124 517.031h2c-.131.227.163.801 0 1-.268.328-1.64-.25-2 0v-1zM487.124 522.031h1c-.134-.199.167-.832 0-1-.031-.031-.977-.029-1 0-.164.203.129.772 0 1h-2c-.256-.41.333-1.666 0-2-.265-.264-1.819.309-2 0-.035-.061-.043-.957 0-1 .167-.166.8.135 1 0h1c.317 0 1.789-.199 2 0 .058.055-.054.996 0 1 .126.01.92.08 1 0 .167-.166-.134-.799 0-1 .227.131.801-.162 1 0 .189.156-.016 1.719 0 2 .038.664-.028 1.336 0 2h-2v-1zM492.124 521.031c-.448-.252-1.619.33-2 0-.076-.064-.006-.883 0-1 .008-.146-.095-.904 0-1 .167-.166.8.135 1 0 .123.252-.153.77 0 1 .106.16.86-.139 1 0 .167.168-.134.801 0 1zM494.124 519.031c.2.135.833-.166 1 0 .095.096-.008.854 0 1 .015.279.067.73 0 1-.044.178.122.879 0 1-.167.168-.8-.133-1 0v-3zM501.124 522.031c-.333-.014-.668.018-1 0-.146-.008-.905.096-1 0-.167-.166.134-.799 0-1h-3v-2c.2.135.833-.166 1 0 .077.078-.088.979 0 1 .099.025.937.064 1 0 .105-.105-.126-.945 0-1 .457-.195 1.496-.004 2 0 .003 0-.003.934 0 1 .134.201-.167.834 0 1 .14.141.894-.16 1 0 .153.231-.124.75 0 1zM504.124 522.031h-2c.185-.586-.241-1.436 0-2 .054-.125.895.105 1 0 .167-.166-.134-.799 0-1h1c.26 0 1.864-.172 2 0 .035.045.037.963 0 1-.167.168-.8-.133-1 0-.227.131-.801-.162-1 0-.328.268.25 1.641 0 2zM508.124 519.031c.2.135.833-.166 1 0 .095.096-.008.854 0 1 .015.279.067.73 0 1-.044.178.122.879 0 1-.167.168-.8-.133-1 0v-3z"/><path d="M484.124 522.031c-.229-.129-.797.162-1 0-.029-.023-.031-.969 0-1 .167-.166.8.135 1 0v1zM492.124 522.031v-1c.2.135.833-.166 1 0 .033.033.033.967 0 1-.167.168-.8-.133-1 0zM484.124 522.031h1c-.134.201.167.834 0 1-.033.033-.967.033-1 0-.167-.166.133-.799 0-1zM492.124 522.031c-.134.201.167.834 0 1-.088.088-.862 0-1 0s-.912.088-1 0c-.167-.166.134-.799 0-1h2zM501.124 522.031h1c-.134.201.167.834 0 1-.033.033-.967.033-1 0-.167-.166.133-.799 0-1zM504.124 522.031h2c-.131.227.163.801 0 1-.268.328-1.64-.25-2 0v-1zM484.124 524.031c.2.135.833-.166 1 0 .095.096-.008.854 0 1 .015.279.067.73 0 1-.044.178.122.879 0 1-.167.168-.8-.133-1 0v-3zM487.124 524.031c.131.227-.163.801 0 1 .268.328 1.64-.25 2 0-.134.201.167.834 0 1-.167.168-.8-.133-1 0-.2.135-.833-.166-1 0-.035.035.006 1.002 0 1-.175-.039-.881.119-1 0-.122-.121.044-.822 0-1-.094-.375-.146-1.646 0-2 .048-.117.894.096 1 0zM491.124 525.031c-.033-.033-.033-.967 0-1s.967-.033 1 0 .033.967 0 1-.967.033-1 0zM494.124 525.031c-.229-.129-.797.162-1 0-.029-.023-.031-.969 0-1 .167-.166.8.135 1 0v1zM506.124 526.031h1c-.134-.199.167-.832 0-1-.031-.031-.977-.029-1 0-.164.203.129.772 0 1-.333.014-.668-.018-1 0-.146.008-.905-.094-1 0-.167.168.134.801 0 1-.333-.014-.668.018-1 0-.146-.008-.905.096-1 0-.054-.053.048-.998 0-1-.129-.006-.918-.082-1 0-.137.137.157.9 0 1-.236.152-.744-.121-1 0v-2c.2-.133.833.168 1 0 .071-.07-.078-.984 0-1 .105-.021.933-.066 1 0 .045.045-.03 1.002 0 1 .146-.008.905.096 1 0 .038-.037-.013-1.002 0-1 .166.029.889-.111 1 0 .049.049-.038 1 0 1 .188 0 .85.102 1 0 .16-.105-.14-.859 0-1 .105-.105.841.021 1 0 .435-.057 1.603-.17 2 0 .126.055-.105.895 0 1 .167.168.8-.133 1 0-.134.201.167.834 0 1-.168.168-.828-.164-1 0-.17.164.151.816 0 1-.268.328-1.64-.25-2 0v-1zM511.124 526.031c.25-.359-.327-1.732 0-2 .199-.162.773.131 1 0 .134.201-.167.834 0 1 .105.105.946-.125 1 0 .093.217.127 1.816 0 2-.107.156-.848-.125-1 0-.134-.199.167-.832 0-1-.167-.166-.8.135-1 0zM494.124 525.031c.448.254 1.619-.33 2 0 .076.066.006.885 0 1-.008.146.095.906 0 1-.167.168-.8-.133-1 0-.123-.25.153-.77 0-1-.106-.16-.86.141-1 0-.167-.166.133-.799 0-1zM491.124 527.031c-.033-.033-.033-.967 0-1s.967-.033 1 0 .033.967 0 1-.967.033-1 0zM511.124 526.031c-.13.23.163.797 0 1-.023.029-.969.031-1 0-.167-.166.134-.799 0-1h1zM487.124 528.031c.2.135.833-.166 1 0 .095.096-.008.854 0 1 .053.998-.042 2.002 0 3-.2-.133-.833.168-1 0-.095-.094.008-.854 0-1-.053-.996.042-2.002 0-3zM490.124 528.031c.36.25 1.732-.326 2 0 .035.043.036.965 0 1-.073.074-1.942.07-2 0-.164-.199.13-.773 0-1zM504.124 529.031v2h1c.121 0 .932.082 1 0-.156.186.17.83 0 1-.095.096-.854-.008-1 0-.279.016-.729.068-1 0-.178-.043-.878.123-1 0-.056-.055.053-.996 0-1-.125-.01-.921-.078-1 0-.14.141.16.895 0 1-.104.07-.874.033-1 0-.092-.023.08-.92 0-1-.167-.166-.8.135-1 0v-1c0-.133-.087-.916 0-1 .035-.033.966-.033 1 0 .08.08-.092.977 0 1 .097.025.938.063 1 0 .14-.139-.16-.893 0-1 .23-.152.749.123 1 0 .134-.199-.167-.832 0-1 .122-.121.822.045 1 0 .187-.047 1.916-.117 2 0 .036.051.039.961 0 1-.095.096-.854-.008-1 0-.332.018-.667-.013-1 0zM508.124 529.031c-.082-.061-.981.078-1 0-.024-.098-.063-.936 0-1 .088-.088.862 0 1 0s.912-.088 1 0c.127.127-.052.818 0 1 .061.215.137 1.863 0 2-.033.033-.967.033-1 0-.095-.094.008-.854 0-1-.018-.332.013-.666 0-1zM513.124 531.031h-2v-1c0-.316-.199-1.789 0-2 .157-.166.808.133 1 0 .134.201-.167.834 0 1 .105.105.946-.125 1 0 .241.565-.185 1.414 0 2zM483.124 529.031h3c-.25.361.327 1.732 0 2-.199.164-.773-.131-1 0-.131.227.163.801 0 1-.268.328-1.64-.25-2 0v-3zM493.124 529.031c.2.135.833-.166 1 0 .095.096-.008.854 0 1 .007.129.082.918 0 1-.033.033-.967.033-1 0-.095-.094.008-.854 0-1-.018-.332.013-.666 0-1zM495.124 529.031c.2.135.833-.166 1 0 .095.096-.008.854 0 1 .007.129.082.918 0 1-.033.033-.967.033-1 0-.095-.094.008-.854 0-1-.018-.332.013-.666 0-1zM491.124 531.031c-.033-.033-.033-.967 0-1s.967-.033 1 0 .033.967 0 1-.967.033-1 0zM513.124 531.031c.637.121 1.372-.156 2 0 .178.045.878-.121 1 0 .167.168-.134.801 0 1h-3v-1z"/></g><path fill="#FFF" d="M721.13 132.045l.201 8.034c0 .286-.053.504-.158.652a.527.527 0 0 1-.457.222.505.505 0 0 1-.43-.215c-.105-.144-.168-.354-.187-.631l-.058-1.79c-.974 1.051-2.043 1.862-3.208 2.435s-2.325.859-3.48.859c-.897 0-1.606-.229-2.127-.687-.521-.459-.78-1.084-.78-1.877 0-1.012.697-1.936 2.092-2.771 1.394-.835 3.847-1.769 7.361-2.8l-.029-1.16c-.038-1.098-.195-1.843-.473-2.233-.277-.392-.744-.588-1.403-.588-.411 0-.891.077-1.439.229-.549.153-1.206.396-1.969.73-.306.134-.681.324-1.125.572-.444.249-.732.372-.866.372a.517.517 0 0 1-.372-.149.472.472 0 0 1-.158-.351c0-.182.091-.36.272-.537s.492-.38.931-.609c.937-.486 1.831-.861 2.686-1.124s1.602-.394 2.241-.394c1.061 0 1.805.267 2.234.802s.664 1.539.701 3.009zm-1.174 4.812l-.028-2.205c-3.008.945-5.113 1.747-6.316 2.406-1.203.658-1.805 1.322-1.805 1.99 0 .41.158.735.473.974.315.239.755.358 1.317.358.955 0 1.986-.306 3.094-.917 1.107-.61 2.196-1.479 3.265-2.606z"/><circle fill="none" stroke="#FFF" stroke-width=".796" cx="715.793" cy="135.554" r="12.546"/><path fill="#FFF" d="M626.353 468.647l.201 8.034c0 .286-.053.504-.158.652a.527.527 0 0 1-.457.222.505.505 0 0 1-.43-.215c-.105-.144-.168-.354-.187-.631l-.058-1.79c-.974 1.051-2.043 1.862-3.208 2.435s-2.325.859-3.48.859c-.897 0-1.606-.229-2.127-.687-.521-.459-.78-1.084-.78-1.877 0-1.012.697-1.936 2.092-2.771 1.394-.835 3.847-1.769 7.361-2.8l-.029-1.16c-.038-1.098-.195-1.843-.473-2.233-.277-.392-.744-.588-1.403-.588-.411 0-.891.077-1.439.229-.549.153-1.206.396-1.969.73-.306.134-.681.324-1.125.572-.444.249-.732.372-.866.372a.517.517 0 0 1-.372-.149.472.472 0 0 1-.158-.351c0-.182.091-.36.272-.537s.492-.38.931-.609c.937-.486 1.831-.861 2.686-1.124s1.602-.394 2.241-.394c1.061 0 1.805.267 2.234.802s.663 1.539.701 3.009zm-1.174 4.812l-.028-2.205c-3.008.945-5.113 1.747-6.316 2.406-1.203.658-1.805 1.322-1.805 1.99 0 .41.158.735.473.974.315.239.755.358 1.317.358.955 0 1.986-.306 3.094-.917 1.107-.61 2.195-1.479 3.265-2.606z"/><circle fill="none" stroke="#FFF" stroke-width=".796" cx="621.016" cy="472.156" r="12.546"/><path fill="#FFF" d="M418.2 262.21l.201 8.034c0 .286-.053.504-.158.652a.527.527 0 0 1-.457.222.505.505 0 0 1-.43-.215c-.105-.144-.168-.354-.187-.631l-.058-1.79c-.974 1.051-2.043 1.862-3.208 2.435s-2.325.859-3.48.859c-.897 0-1.606-.229-2.127-.687-.521-.459-.78-1.084-.78-1.877 0-1.012.697-1.936 2.092-2.771 1.394-.835 3.847-1.769 7.361-2.8l-.029-1.16c-.038-1.098-.195-1.843-.473-2.233-.277-.392-.744-.588-1.403-.588-.411 0-.891.077-1.439.229-.549.153-1.206.396-1.969.73-.306.134-.681.324-1.125.572-.444.249-.732.372-.866.372a.517.517 0 0 1-.372-.149.472.472 0 0 1-.158-.351c0-.182.091-.36.272-.537s.492-.38.931-.609c.937-.486 1.831-.861 2.686-1.124s1.602-.394 2.241-.394c1.061 0 1.805.267 2.234.802s.664 1.538.701 3.009zm-1.174 4.811l-.028-2.205c-3.008.945-5.113 1.747-6.316 2.406-1.203.658-1.805 1.322-1.805 1.99 0 .41.158.735.473.974.315.239.755.358 1.317.358.955 0 1.986-.306 3.094-.917 1.107-.609 2.196-1.479 3.265-2.606z"/><circle fill="none" stroke="#FFF" stroke-width=".796" cx="412.863" cy="265.719" r="12.546"/><g fill="#FFF"><path d="M447.848 162.806l6.32-.146c.148 0 .264.033.341.099s.119.161.119.281c0 .113-.042.2-.124.258a.642.642 0 0 1-.364.088l-6.305.123a.493.493 0 0 1-.151.159.501.501 0 0 1-.223.047c-.144 0-.246-.042-.305-.122-.058-.083-.087-.224-.087-.426 0-.765.146-1.438.438-2.013.288-.575.728-1.066 1.314-1.467.327-.219.892-.514 1.708-.877.812-.369 1.399-.692 1.769-.963.425-.326.753-.672.976-1.029.223-.362.34-.727.34-1.103 0-.55-.223-.996-.658-1.347-.442-.346-1.01-.521-1.713-.521-.568 0-1.087.122-1.567.364a3.076 3.076 0 0 0-1.172 1.019 4.797 4.797 0 0 0-.328.574c-.129.275-.26.411-.387.411a.29.29 0 0 1-.238-.113.424.424 0 0 1-.09-.283c0-.189.07-.422.221-.702.144-.276.341-.539.588-.781a4.19 4.19 0 0 1 1.371-.927 4.27 4.27 0 0 1 1.629-.313c.919 0 1.668.251 2.25.744.581.492.869 1.128.869 1.903 0 .412-.084.798-.249 1.16a3.4 3.4 0 0 1-.766 1.031c-.451.435-1.367.979-2.75 1.635-.352.164-.621.293-.807.385-.649.313-1.126.688-1.429 1.127-.296.436-.481 1.01-.54 1.725zM458.212 162.806l6.324-.146c.145 0 .258.033.339.099a.347.347 0 0 1 .117.281c0 .113-.043.2-.128.258-.083.059-.201.088-.363.088l-6.306.123a.407.407 0 0 1-.148.159.507.507 0 0 1-.227.047c-.141 0-.242-.042-.301-.122-.059-.083-.085-.224-.085-.426 0-.765.142-1.438.433-2.013a3.927 3.927 0 0 1 1.314-1.467c.327-.219.9-.514 1.709-.877.813-.369 1.406-.692 1.77-.963.429-.326.753-.672.979-1.029.225-.362.333-.727.333-1.103 0-.55-.216-.996-.656-1.347-.435-.346-1.008-.521-1.711-.521-.563 0-1.09.122-1.568.364a3.032 3.032 0 0 0-1.167 1.019 5.064 5.064 0 0 0-.33.574c-.135.275-.263.411-.393.411a.282.282 0 0 1-.234-.113.454.454 0 0 1-.094-.283c0-.189.076-.422.223-.702.151-.276.344-.539.588-.781a4.167 4.167 0 0 1 1.373-.927 4.292 4.292 0 0 1 1.635-.313c.916 0 1.666.251 2.244.744.583.492.875 1.128.875 1.903 0 .412-.086.798-.257 1.16a3.384 3.384 0 0 1-.762 1.031c-.446.435-1.366.979-2.754 1.635a24.44 24.44 0 0 0-.797.385c-.656.313-1.132.688-1.429 1.127-.305.436-.483 1.01-.546 1.725zM468.906 152.992c.598 0 1.114.207 1.534.626.419.417.629.928.629 1.528 0 .605-.209 1.119-.629 1.537a2.11 2.11 0 0 1-1.548.627c-.606 0-1.118-.206-1.532-.623-.41-.416-.618-.927-.618-1.541 0-.604.208-1.117.624-1.533.415-.416.931-.621 1.54-.621zm0 .687c-.438 0-.797.13-1.077.396-.274.261-.412.598-.412 1.01 0 .443.142.813.423 1.108a1.39 1.39 0 0 0 1.051.442c.424 0 .777-.141 1.066-.428.285-.282.431-.633.431-1.048a1.43 1.43 0 0 0-.426-1.056 1.438 1.438 0 0 0-1.056-.424z"/></g><path fill="none" stroke="#FFF" stroke-width=".706" stroke-miterlimit="10" stroke-dasharray="4" d="M487.637 256.136l-.113 1.919M487.637 275.329l-.113-1.92"/><path fill="none" stroke="#FFF" stroke-width=".25" stroke-miterlimit="10" stroke-dasharray="4" d="M607.756 35.305l132.551 33.1M684.589 510.884l115.338-73.428"/><g fill="none" stroke="#FFF" stroke-linecap="round" stroke-miterlimit="10"><path stroke-width=".378" d="M48.772 519.623a2.385 2.385 0 1 0-2.385 2.385 2.387 2.387 0 0 0 2.385-2.385M219.688 504.579c0-.421-.344-.766-.765-.766a.764.764 0 0 0 0 1.527.764.764 0 0 0 .765-.761"/><path stroke-width=".378" d="M219.612 504.579a.689.689 0 1 0-1.376 0 .689.689 0 0 0 1.376 0"/><path stroke-width=".378" d="M219.536 504.579a.609.609 0 0 0-.612-.608.608.608 0 1 0 0 1.216.609.609 0 0 0 .612-.608M219.461 504.579a.534.534 0 1 0 0 0"/><path stroke-width=".378" d="M219.385 504.579c0-.255-.206-.461-.461-.461s-.456.206-.456.461a.46.46 0 0 0 .917 0"/><path stroke-width=".378" d="M219.304 504.579c0-.21-.17-.385-.38-.385s-.38.175-.38.385a.38.38 0 1 0 .76 0"/><path stroke-width=".378" d="M219.228 504.579c0-.17-.139-.305-.304-.305s-.304.135-.304.305c0 .165.139.304.304.304s.304-.139.304-.304"/><path stroke-width=".378" d="M219.152 504.579c0-.125-.104-.229-.229-.229s-.229.104-.229.229.104.228.229.228.229-.103.229-.228"/><path stroke-width=".378" d="M219.076 504.579c0-.085-.067-.152-.152-.152s-.152.067-.152.152.067.152.152.152.152-.067.152-.152"/><path stroke-width=".378" d="M219 504.579c0-.045-.036-.076-.076-.076s-.076.031-.076.076c0 .04.036.076.076.076s.076-.036.076-.076"/><path stroke-width=".195" d="M238.062 549.283l.067-.027M125.271 544.908l-.059.026M125.292 549.252c.022.009.045.022.076.031M125.834 549.413l.076.013M238.228 544.939l-.059-.027M125.198 349.275l.054.026M238.165 349.307c.044-.018.084-.04.125-.063M163.487 342.775a2.251 2.251 0 0 0 2.25 2.252 2.255 2.255 0 0 0 2.255-2.252 2.253 2.253 0 0 0-4.505 0M172.963 336.076c0 1.038.841 1.876 1.874 1.876s1.879-.838 1.879-1.876-.846-1.877-1.879-1.877-1.874.839-1.874 1.877M179.463 336.076a2.25 2.25 0 0 0 2.25 2.252 2.256 2.256 0 0 0 2.255-2.252 2.256 2.256 0 0 0-2.255-2.253 2.25 2.25 0 0 0-2.25 2.253M238.146 345.414a.43.43 0 0 1-.045-.033M125.198 349.253l.054.026M238.169 349.284l.139-.071M125.82 549.1l.08.014M125.266 544.931c-.022.013-.045.022-.063.031M125.297 549.229c.022.014.045.022.067.031M125.852 549.395l.062.009M238.29 544.997c-.041-.022-.081-.044-.125-.066M237.529 549.113c.026-.005.054-.005.081-.014M237.521 549.404a.438.438 0 0 0 .08-.01M238.053 549.266l.076-.031M230.412 561.522c.12-.335.184-.685.184-1.037M233.239 559.648c.059-.022.121-.05.179-.076M224.02 330.911a13.389 13.389 0 0 0-.936-.033M176.461 546.344h-.059M187.027 546.344h-.057M189.747 550.983a8.032 8.032 0 0 0-8.029-8.03c-4.438 0-8.035 3.597-8.035 8.03a8.034 8.034 0 0 0 8.035 8.034c4.432.001 8.029-3.596 8.029-8.034"/><path stroke-width=".195" d="M173.728 550.983a7.985 7.985 0 0 0 7.985 7.989 7.985 7.985 0 0 0 7.989-7.989 7.985 7.985 0 0 0-7.989-7.985 7.984 7.984 0 0 0-7.985 7.985"/><path stroke-width=".195" d="M173.759 550.983a7.958 7.958 0 0 0 7.959 7.958c4.393 0 7.949-3.565 7.949-7.958a7.95 7.95 0 0 0-7.949-7.954 7.954 7.954 0 0 0-7.959 7.954"/><path stroke-width=".195" d="M174.658 550.983a7.056 7.056 0 0 0 7.06 7.055c3.892 0 7.055-3.158 7.055-7.055s-3.163-7.055-7.055-7.055a7.057 7.057 0 0 0-7.06 7.055"/><path stroke-width=".195" d="M189.595 550.983a7.878 7.878 0 0 0-7.882-7.878 7.877 7.877 0 0 0-7.878 7.878 7.881 7.881 0 0 0 7.878 7.882 7.883 7.883 0 0 0 7.882-7.882"/><path stroke-width=".195" d="M188.731 550.983a7.016 7.016 0 0 0-7.019-7.015 7.015 7.015 0 0 0-7.015 7.015 7.016 7.016 0 0 0 7.015 7.019 7.016 7.016 0 0 0 7.019-7.019"/><path stroke-width=".195" stroke-linejoin="round" d="M185.641 545.167h.067M177.723 545.167h.066M187.528 547.06v-.068M187.528 554.978v-.067M185.641 556.803h.067M177.723 556.803h.066M175.897 547.06v-.068M175.897 554.978v-.067M189.466 342.779l-.019-.145-.049-.136-.081-.121-.107-.099-.125-.062-.139-.042-.142-.012-.149-.002M174.774 342.16l-.147.002-.144.012-.138.042-.125.062-.108.099-.08.121-.05.136-.013.069-.004.076M174.774 343.395h13.881M174.774 343.491v-.096"/><path stroke-width=".195" stroke-linejoin="round" d="M173.965 342.779l.017.142.05.132.08.12.108.095.125.071.138.036.144.02h.147"/><path stroke-width=".195" stroke-linejoin="round" d="M174.774 342.063l-.331.023-.291.125-.206.244-.075.324.075.319.206.241.291.125.331.027M188.655 343.395h.149l.142-.02.139-.036.125-.071.107-.095.081-.12.049-.132.014-.074.005-.068M188.655 343.491h-13.881M188.655 343.395v.096M188.655 342.16h-13.881"/><path stroke-width=".195" stroke-linejoin="round" d="M188.655 342.063l.332.023.29.125.206.244.077.324-.077.319-.206.241-.29.125-.332.027M188.655 342.16v-.097M188.655 342.063h-13.881M174.774 342.16v-.097M185.439 565.303h-7.453M177.986 565.303l-.979.022-.609.071-.492.108-.322.094-.125.036"/><path stroke-width=".195" stroke-linejoin="round" d="M175.678 565.639l.135-.036.303-.077.206-.04.479-.071.348-.022.385-.014h.39M187.972 565.634l-.068-.018-.268-.081-.448-.107-.572-.089-.89-.036h-.287"/><path stroke-width=".195" stroke-linejoin="round" d="M187.752 565.639l-.134-.036-.305-.077-.205-.04-.479-.071-.349-.022-.384-.014h-.389M177.924 565.379h7.583M181.95 557.998v.04M176.036 555.107h-.05M187.438 555.107h-.043M144.426 565.017l.653.228.487.21.283.139.089.045M139.935 565.566l.048-.021.162-.072.277-.12.38-.149.474-.161.537-.134.555-.094.546-.036M144.426 565.129v-.112M142.914 564.779h.023M142.937 564.779l.733.063.756.175M144.426 565.129l.38.129M145.714 565.639l-.094-.045-.264-.116-.402-.17-.528-.179"/><path stroke-width=".195" stroke-linejoin="round" d="M140.167 565.571l.045-.017.156-.063.595-.237.895-.242.524-.085.555-.031M140.172 565.571l-.019.009M142.937 564.896l.782.067.707.166"/><path stroke-width=".195" stroke-linejoin="round" d="M144.39 565.119l.018.014.018-.004M174.823 343.677h13.783M189.747 342.779l-.026-.205-.068-.197-.111-.166-.148-.143-.179-.102-.196-.064-.206-.021-.207-.003M188.606 343.677l.207-.005.206-.025.196-.058.179-.103.148-.138.111-.175.068-.193.026-.201M188.606 343.677l.04-.151M188.606 341.878h-13.783M173.683 342.779l.027.201.066.193.113.175.147.138.179.103.197.058.206.025.205.005M174.783 343.526l.04.151M174.823 341.878l-.205.003-.206.021-.197.064-.179.102-.152.143-.112.166-.067.197-.022.205M182.858 559.089l1.422-.335 1.338-.582 1.222-.81 1.051-1.01.854-1.186.636-1.32.384-1.409.13-1.454M174.783 342.023l.04-.145M173.535 550.983l.13 1.458.385 1.41.635 1.315.854 1.186 1.052 1.01 1.217.81 1.341.582 1.423.335M188.646 342.023l-.04-.145M181.713 542.806l-1.593.156-1.534.465-1.418.757-1.239 1.015-1.016 1.239-.756 1.418-.469 1.53-.153 1.597M189.895 550.983l-.157-1.597-.465-1.53-.756-1.418-1.015-1.239-1.244-1.015-1.413-.757-1.535-.465-1.597-.156M233.548 349.449v195.092M182.858 559.089l-1.145.076M219.004 559.089h-36.146M180.572 559.089h-36.146M181.713 559.165l-1.141-.076M219.004 559.089v4.062M219.175 559.089h-.171M233.548 544.541v1.262l-.014 1.217-.031 1.234-.071 1.23-.125 1.231-.287 1.52-.479 1.468-.72 1.369-.967 1.203-1.18.989-1.351.747-1.459.51-1.516.299-1.231.135-1.225.08-1.24.036-1.22.014-1.257.004M237.614 544.541h-4.066M219.018 334.906l1.239.002 1.203.007 1.213.036 1.208.063 1.208.121 1.498.272 1.445.454 1.356.678 1.208.922 1.002 1.136.773 1.31.532 1.419.331 1.481.184 1.507.09 1.521.031 1.517.009 1.521M233.548 349.449h4.066M129.878 544.541V349.449M233.548 348.873v.576M219.004 334.906h.014M129.878 349.244l.004-1.537.031-1.529.072-1.531.161-1.525.3-1.506.492-1.449.734-1.342.974-1.185 1.186-.962 1.347-.727 1.449-.492 1.508-.298 1.217-.134 1.216-.067 1.226-.04 1.213-.012 1.248-.002M219.004 334.906v-4.066M144.426 334.906v-4.066M144.426 334.906h74.578M144.256 334.906h.17M129.878 544.751v-.21M129.878 349.449v-.205M125.815 349.449h4.063M129.878 544.541h-4.063M144.256 559.089l-1.534-.004-1.531-.031-1.53-.068-1.525-.161-1.508-.291-1.449-.492-1.347-.725-1.186-.97-.974-1.181-.734-1.342-.492-1.45-.3-1.503-.134-1.208-.08-1.229-.036-1.227-.014-1.212-.004-1.244M144.426 559.089h-.17M144.426 563.151v-4.062"/><path stroke-width=".195" stroke-linejoin="round" d="M188.646 343.526l.345-.022.309-.134.215-.255.08-.34-.08-.336-.215-.256-.309-.132-.345-.023M188.646 342.028h-13.868M188.646 343.526h-13.868M174.778 343.526l-.34-.022-.303-.134-.224-.255-.076-.34.076-.336.224-.256.303-.132.34-.023M219.004 563.151h-74.578M219.004 563.151l1.933-.005 1.781-.035M222.718 563.111l2.241-.148 2.021-.304 1.843-.487 2.457-1.114 2.089-1.557M233.369 559.501l.009-.005M233.378 559.496l1.168-1.262.975-1.421.787-1.58.582-1.736.487-2.581.206-2.948.031-3.427M237.614 349.449v195.092M144.426 330.84h74.578M233.378 334.499l1.168 1.257.975 1.423.787 1.581.582 1.738.487 2.577.206 2.947.031 3.427M233.369 334.494l.009.005M222.718 330.885l2.241.144 2.021.303 1.843.492 2.457 1.112 2.089 1.558M219.004 330.84l1.933.004 1.781.041M140.713 330.885l-2.246.144-2.022.303-1.839.492-2.456 1.112-2.093 1.558M144.426 330.84l-1.938.004-1.775.041M130.052 334.499l-1.163 1.257-.984 1.423-.783 1.581-.586 1.738-.483 2.577-.206 2.947-.032 3.427M130.057 334.494l-.005.005M125.815 544.541V349.449M130.052 559.496l-1.163-1.262-.984-1.421-.783-1.58-.586-1.736-.483-2.581-.206-2.948-.032-3.427M130.057 559.501l-.005-.005M140.713 563.111l-2.246-.148-2.022-.304-1.839-.487-2.456-1.114-2.093-1.557M144.426 563.151l-1.938-.005-1.775-.035"/><path stroke-width=".195" stroke-linejoin="round" d="M222.718 563.111l-1.781.035-1.933.005M237.614 544.541l-.031 3.4-.201 2.93-.475 2.564-.577 1.726-.765 1.579-.961 1.418-1.146 1.258M233.458 559.416l-.089.085M233.369 559.501l-2.089 1.557-2.457 1.114-1.843.487-2.021.304-2.241.148M237.614 349.449h.6M238.214 544.541h-.6M237.614 349.449v195.092M125.815 349.449v195.092M237.614 349.449l-.031-3.427-.206-2.947-.487-2.577-.582-1.738-.787-1.581-.975-1.423-1.168-1.257M233.378 334.499l-.009-.005M233.369 334.494l-2.089-1.558-2.457-1.112-1.843-.492-2.021-.303-2.241-.144M222.718 330.885l-1.781-.041-1.933-.004M219.004 330.84v-.6M144.426 330.84h74.578M130.057 334.494l2.093-1.558 2.456-1.112 1.839-.492 2.022-.303 2.246-.144M140.713 330.885l1.775-.041 1.938-.004M129.972 334.575l.085-.081M125.815 349.449l.032-3.399.202-2.931.473-2.562.573-1.73.769-1.572.962-1.423 1.146-1.257M144.426 563.151v.6M144.426 330.84v-.6M125.217 349.449h.598M125.815 544.541h-.598M219.004 563.151v.6"/><path stroke-width=".195" stroke-linejoin="round" d="M219.004 563.751l3.392-.027 2.943-.197 2.595-.469 1.762-.569 1.619-.76 1.468-.954 1.315-1.14 1.136-1.311.957-1.471.761-1.616.569-1.766.469-2.595.193-2.944.031-3.391M219.004 330.24l3.392.03 2.943.199 2.595.465 1.762.568 1.619.761 1.468.957 1.315 1.138 1.136 1.309.957 1.472.761 1.617.569 1.765.469 2.596.193 2.942.031 3.39M238.214 349.449v195.092M144.426 330.24l-3.391.03-2.944.199-2.594.465-1.768.568-1.615.761-1.471.957-1.311 1.138-1.141 1.309-.953 1.472-.76 1.617-.568 1.765-.47 2.596-.197 2.942-.026 3.39M144.426 330.24h74.578M144.426 563.751l-3.391-.027-2.944-.197-2.594-.469-1.768-.569-1.615-.76-1.471-.954-1.311-1.14-1.141-1.311-.953-1.471-.76-1.616-.568-1.766-.47-2.595-.197-2.944-.026-3.391M125.217 544.541V349.449M219.004 563.751h-74.578M227.821 330.913v-.17M137.21 330.646v-.321"/><path stroke-width=".195" stroke-linejoin="round" d="M140.713 563.111l1.775.035 1.938.005M130.057 559.501l2.093 1.557 2.456 1.114 1.839.487 2.022.304 2.246.148M125.815 544.541l.032 3.427.206 2.948.483 2.581.586 1.736.783 1.58.984 1.421 1.163 1.262M130.052 559.496l.005.005M144.426 563.151h74.578M229.495 331.435l-.322-.245M125.141 545.574v-1.033M125.274 545.574v-1.033M125.141 348.421v1.028M125.274 348.421v1.028M125.141 349.449v195.092M125.274 544.541V349.449M238.155 545.574l.005-1.033M238.29 544.541v1.033M238.155 348.421l.005 1.028M238.29 349.449v-1.028M238.29 544.541V349.449M238.16 544.541V349.449M186.97 546.335v-.058M176.461 546.335v-.058M186.844 546.191h.05M176.537 546.191h.049M124.93 544.541v1.033M124.93 349.449H123.396M124.93 349.449v-1.028M123.517 357.689l-.009-.509-.023-.288-.045-.24-.044-.145-.041-.066-.022-.003M123.517 363.613l-.009.51-.023.291-.045.241-.044.144-.041.062-.022.004M123.517 357.689v5.924M124.93 349.449v195.092M238.5 544.541v1.033M124.93 544.541H123.396M238.5 349.449v-1.028M123.333 373.419l.014.036.085.259.125.447.107.605.049.684.005.716M123.333 408.729l.014-.037.085-.258.125-.448.107-.604.049-.685.005-.716M123.718 405.981V376.166M123.324 545.574H124.93M124.93 545.574h.211M125.141 545.574h.133M238.5 545.574H240.102M238.29 545.574h.21M238.5 348.421H240.102M238.29 348.421h.21M125.141 348.421h.133M124.935 348.421h.206M124.93 348.421H123.324M238.5 544.541h1.534M238.5 349.449h1.534M238.5 349.449v195.092M240.102 435.838v.01l-.037-.117-.08-.299-.093-.461-.063-.551-.022-.85M240.102 412.129v-.01l-.037.121-.08.291-.093.448-.063.554-.022.863M239.807 433.57v-19.174M240.097 389.806l.005.013-.049-.143-.108-.336-.121-.524-.09-.643-.026-.9M240.097 373.414l.005-.013-.054.143-.103.35-.126.523-.085.648-.026.881M239.708 387.273v-11.327M238.236 345.417l-.138-1.979-.26-1.817-.402-1.683-.555-1.558-.716-1.439-.873-1.324-1.023-1.194-1.165-1.051-1.296-.908-1.414-.747-1.535-.593-1.655-.436-.993-.179-1.051-.139-1.097-.097-1.135-.06-1.236-.031-1.305-.016h-1.383M144.426 330.299l-3.07.021-2.692.142-2.398.353-1.642.432-1.52.581-1.41.743-1.279.899-1.154 1.043-1.016 1.18-.863 1.307-.712 1.432-.702 2.089-.434 2.31-.211 2.586"/><path stroke-width=".195" stroke-linejoin="round" d="M219.004 330.299l3.069.021 2.694.142 2.397.353 1.642.432 1.525.581 1.4.743 1.285.899 1.154 1.043 1.011 1.18.868 1.307.711 1.432.702 2.089.434 2.31.206 2.586M144.426 330.166l-4.483.074-2.076.179-2.057.362-1.996.609-1.892.894-1.816 1.271-1.57 1.561-1.293 1.865-.958 2.061-.688 2.534-.229 1.53-.139 1.54-.035.771"/><path stroke-width=".195" stroke-linejoin="round" d="M128.025 337.014l-.004-.003h-.004M219.004 329.956v.21M144.426 329.956v.21M219.004 330.166h-74.578M237.212 342.046v-.056l-.019-.145"/><path stroke-width=".195" stroke-linejoin="round" d="M238.446 345.417l-.138-1.995-.264-1.837-.402-1.702-.565-1.581-.724-1.461-.89-1.342-1.038-1.215-1.182-1.069-1.314-.921-1.432-.761-1.553-.604-1.673-.443-.876-.161-.926-.13-.94-.093-1.015-.072-1.047-.043-1.096-.022-1.154-.009h-1.213M239.171 345.417h-.725M238.446 345.417h-.21M239.98 345.417H239.171M124.983 345.417h.211M123.454 345.417H124.259M124.983 345.417l.139-1.995.26-1.837.407-1.702.564-1.581.729-1.461.881-1.342 1.038-1.215 1.181-1.069 1.315-.921 1.437-.761 1.551-.604 1.673-.443.877-.161.927-.13.939-.093 1.015-.072 1.047-.043 1.097-.022 1.154-.009h1.212M124.259 345.417h.724M219.004 328.424V329.229M144.426 329.229v.727M219.004 329.229v.727M144.426 328.361V329.229M219.004 329.956h-74.578M237.467 553.439l.429-2.282.206-2.581M133.403 562.297l-.299-.135-1.41-.742-1.279-.899-1.154-1.042-1.016-1.182-.863-1.306-.712-1.431-.702-2.089-.434-2.314-.211-2.581M229.092 562.064h.251"/><path stroke-width=".195" stroke-linejoin="round" d="M144.426 563.826h-1.155l-2.312-.031-2.309-.139-2.066-.286-2.031-.51-1.928-.778-1.804-1.083-1.601-1.373-1.351-1.624-1.06-1.82-.765-1.964-.604-2.77-.246-2.872M144.426 563.826h74.578M219.004 563.826h.703l2.81-.031 2.804-.188 1.391-.21 2.613-.689 1.248-.515 1.19-.639 1.695-1.23 1.459-1.476 1.189-1.701.909-1.865.344-.975.493-2.009.258-1.852.126-1.87M124.983 548.576h.211M238.079 548.876h.01M238.446 548.576h-.21M215.407 565.643l-.04-.009-.116-.023-.179-.031-.215-.026-.424-.032-.34-.004-.135.004-.21.013-.21.019-.188.026-.153.027-.111.018-.045.009-.026.005-.01.004M123.454 548.576h1.529M218.749 565.634l.036.009M218.785 565.643l-.04-.009-.121-.023-.179-.031-.21-.026-.425-.032-.335-.004-.144.004-.206.013-.21.019-.187.026-.158.027-.106.018-.045.009-.027.005-.009.004"/><path stroke-width=".195" stroke-linejoin="round" d="M124.983 548.576l.153 2.143.336 2.116.572 2.062.908 2.027 1.226 1.847 1.534 1.611 1.79 1.32 1.919.971 2.035.671 2.188.411 2.223.201 4.545.081M212.03 565.643l-.041-.009-.12-.023-.179-.031-.211-.026-.424-.032-.335-.004-.139.004-.211.013-.21.019-.188.026-.152.027-.112.018-.045.009-.026.005-.009.004M144.426 564.994l-.86-.192-.939-.036-.836.121-.774.219-.671.259-.411.184M208.652 565.643l-.04-.009-.116-.023-.183-.031-.21-.026-.426-.032-.335-.004-.139.004-.21.013-.211.019-.187.026-.153.027-.111.018-.045.009-.031.005-.005.004M201.897 565.643l-.04-.009-.121-.023-.178-.031-.211-.026-.425-.032-.335-.004-.144.004-.206.013-.21.019-.187.026-.157.027-.108.018-.044.009-.027.005-.009.004M205.275 565.643l-.041-.009-.12-.023-.179-.031-.21-.026-.425-.032-.336-.004-.139.004-.21.013-.21.019-.192.026-.148.027-.107.018-.05.009-.026.005-.009.004M190.186 565.625l-.049.014-.023.004"/><path stroke-width=".195" stroke-linejoin="round" d="M190.114 565.643l.09-.018.094-.014.17-.031.385-.045.232-.013.228-.004.46.017.175.019.215.026.26.045.071.014.018.004M151.463 565.643l-.04-.009-.121-.023-.175-.031-.215-.026-.425-.032-.335-.004-.138.004-.206.013-.215.019-.188.026-.152.027-.107.018-.05.009-.027.005-.008.004M188.23 565.639l-.076-.028-.3-.107-.5-.139-.658-.116-.984-.049h-.34M178.058 565.2h7.314M173.316 565.643l-.022-.004-.067-.014-.264-.045-.215-.026-.175-.019-.228-.013-.228-.004-.228.004-.117.004-.116.009-.389.045-.17.031-.089.009-.071.019-.023.004M175.194 565.639l.081-.028.3-.107.501-.139.657-.116.985-.049h.34M219.004 565.625v-1.588M144.426 564.994l.653.233.55.242.309.151M144.426 564.994l-.014-.957M225.54 565.406l-.067-.005-.193-.013-.303-.014-.368.005-.402.022-.38.049-.331.059-.237.049-.108.022M219.004 564.037h-74.592M222.163 565.616l-.067-.005-.189-.035-.295-.036-.376-.027h-.397l-.381.022-.326.041-.242.04-.112.023M239.98 548.576H238.446M238.446 548.576l-.147 2.054-.255 1.775-.407 1.714-.56 1.57-.724 1.463-.89 1.342-1.038 1.212-1.182 1.069-1.31.922-1.432.765-1.552.6-1.678.443-.975.179-1.056.138-1.132.103-1.149.062-1.248.036-1.172.009-1.535.005"/><path stroke-width=".195" stroke-linejoin="round" d="M236.004 555.851l.058-.085.089-.17M237.193 552.15l.023-.17v-.008M238.089 548.938l.009-.178.004-.184M238.102 548.576l.013-.313.031-1.248.009-1.441M238.155 545.574l.005-.165v-.161M125.342 548.938l-.009-.178-.01-.184M125.274 545.574v-.326M237.673 553.152l.031-.192M125.995 551.032l.063.005.026-.005M125.319 550.441l.077.243.111.133M124.983 548.576H123.378M238.236 548.576h-.134M238.446 548.576h1.607M239.104 548.59l.103-.014h.116M237.923 550.817l.058-.071M237.346 551.032l.027.005.066-.005M127.073 552.844l.832 2.496 1.181 1.991M125.9 553.43l-.04-.035-.066-.158M126.585 553.645l-.018.008-.045.005M236.907 553.658l-.045-.005-.021-.008M237.673 553.152l-.108.243-.036.035M125.274 545.574v.314l.009 1.243.04 1.445M125.323 548.576h-.129M238.236 548.576h.21M125.141 545.574l.008 1.463.045 1.539M238.29 545.574l-.005.676-.049 2.326M124.93 545.574l.008 1.087.014.976.031.939M238.5 545.574v.201M238.5 545.775l-.009.94-.013.859-.023.823M238.455 548.397l-.009.179M125.194 548.576h-.211M125.373 550.769l-.054-.336"/><path stroke-width=".378" stroke-linejoin="round" d="M245.317 379.347l-4.763 1.279M245.317 381.9v-2.553M240.554 380.626l4.763 1.274M235.337 381.9l4.765-1.274M235.337 379.347v2.553M240.102 380.626l-4.765-1.279M278.663 383.01l.944-.496.497-1.392v-.943l-.497-1.441-.944-.447h-.943l-.945.447-.496 1.441.054.943.442 1.392.945.496h.943M273.966 380.626l.944-.447v-1.441l-.944-.447h-1.932l-.944.447M271.135 382.559l.899.451h1.932l.944-.451v-1.437l-.944-.496h-1.44M267.332 382.066h.944v.943h-.944zM263.087 383.01l.939-.496.496-1.392v-.943l-.496-1.441-.939-.447h-.944l-.944.447-.497 1.441.049.943.448 1.392.944.496h.944M286.721 406.841v-4.72l3.77 4.72v-4.72M282.466 406.841h1.888l.944-.945v-2.831l-.944-.944h-1.888l-.988.944v2.831l.988.945M280.104 402.121h-3.771M278.221 402.121v4.72M274.91 402.121h-3.775M273.022 402.121v4.72M265.945 402.121v3.775l.89.945h1.889l.993-.945v-3.775M260.751 404.009v-1.888h2.832l.443.447v.945l-.443.496h-2.832v2.832h2.783l.944-.447v-1.938l-.895-.447M279.16 397.308h-2.827M280.104 399.688h-3.771v-4.715h3.771M274.414 399.688l-1.888-2.828M274.414 394.973l-3.279 3.279M271.135 399.688v-4.715M266.89 397.308h1.887M265.945 399.688l1.888-4.715 1.884 4.715M260.751 394.973l.895 4.715.944-4.715.993 4.715.939-4.715M290.491 387.824l-3.77 4.715M281.522 392.539v-4.715h2.832l.944.447v1.441l-.993.447h-2.783M279.16 390.159h-2.827M280.104 392.539h-3.771v-4.715h3.771M273.966 390.159h-2.831M274.91 392.539h-3.775v-4.715h3.775M265.945 387.824v4.715h3.772M260.702 392.092l.944.447h1.937l.939-.497v-1.391l-.939-.492h-1.888l-.993-.447v-1.441l.993-.447h1.888l.939.447M240.554 380.626h7.783M240.102 380.626h-11.914M248.337 380.626h9.533M240.554 386.701v-10.844M240.102 387.421v-11.564M262.716 518.139l.894-.945h1.937l.944.945v.943l-.944.944h-1.937l-.894-.944v-2.832l.894-.943h1.937l.944.943M250.328 517.642l-31.404-13.063M259.861 517.642h-9.533M98.308 305.448l1.32 1.32h2.572l1.391-1.32v-5.283M123.146 310.816l4.477 2.084M124.787 308.861l-1.641 1.955M127.623 312.9l-2.836-4.039M116.323 303.43l11.3 9.47M106.79 303.43h9.533M196.815 342.63l.135-1.005.156-3.471M196.377 345.591l.112-.514.129-.965M195.715 348.513l.009-.043.322-1.418M191.644 358.138l.044-.07 1.629-3.076 1.347-3.207.595-1.847M190.016 360.651l.814-1.255M188.199 363.031l.922-1.18M180.572 370.167l2.112-1.577 2.589-2.319 1.96-2.094M178.063 371.804l1.279-.787M175.445 373.244l1.338-.671M165.577 376.662l1.673-.335 3.337-.989 3.239-1.279.281-.144M162.624 377.149l1.217-.138.268-.054M159.645 377.414l.738-.018.756-.081M149.235 376.52l.76.187 3.436.537 3.471.233 1.248-.032M146.336 375.772l.282.098 1.167.286M143.509 374.797l1.413.487M134.355 369.746l2.756 1.87 3.038 1.696 1.987.89M132.034 367.858l1.154.949M129.855 365.808l1.07 1.046M123.557 357.476l1.216 2.075 2.018 2.832 2.018 2.355M122.188 354.815l.644 1.354M121.024 352.06l.497 1.344.027.059M118.658 341.89l.13 1.469.612 3.424.913 3.358.193.516M118.479 338.901v.994l.045.501M118.524 335.908l-.045.506v.988M120.506 325.65l-.193.515-.913 3.357-.612 3.424-.13 1.47M121.548 322.843l-.027.056-.497 1.347M122.832 320.139l-.644 1.351M128.809 311.567l-2.018 2.354-2.018 2.834-1.216 2.073M130.925 309.451l-1.07 1.047M133.188 307.497l-1.154.948M142.136 302.102l-1.987.888-3.038 1.693-2.756 1.874M144.922 301.019l-1.413.488M147.785 300.146l-1.167.292-.282.096M158.15 298.858l-1.248-.029-3.471.231-3.436.536-.76.188M161.139 298.99l-.756-.083-.738-.015M164.109 299.346l-.268-.054-1.217-.139M174.107 302.388l-.281-.143-3.239-1.28-3.337-.984-1.673-.34M176.783 303.73l-1.338-.671M179.342 305.289l-1.279-.789M187.233 312.127l-1.96-2.094-2.589-2.317-2.112-1.579M189.121 314.453l-.922-1.181M190.83 316.909l-.814-1.257M195.259 326.366l-.595-1.847-1.347-3.208-1.629-3.074-.044-.071M196.046 329.252l-.322-1.421-.009-.038M196.618 332.187l-.129-.962-.112-.51M197.106 338.154l-.156-3.478-.135-1.004M135.17 455.661l-4.769 1.275M135.17 458.215v-2.554M130.401 456.936l4.769 1.279M118.56 458.215l4.764-1.279M118.56 455.661v2.554M123.324 456.936l-4.764-1.275M91.634 459.32h1.194M91.83 455.003l.402-.402v4.719M86.542 459.32l2.385-4.719h-3.781M81.349 458.376h.939v.944h-.939zM78.539 457.437h-3.775l2.832-2.836v4.719M130.401 456.936h11.913M123.324 456.936h-16.843M106.481 456.936h-9.533M123.324 444.57v17.134M228.26 477.08l4.769-1.275M228.26 474.525v2.555M233.029 475.805l-4.769-1.28M135.165 474.525l-4.764 1.28M135.165 477.08v-2.555M130.401 475.805l4.764 1.275M190.239 476.302l.895-.945h1.937l.94.945v.943l-.94.944h-1.937l-.895-.944v-2.827l.895-.948h1.937l.94.948M187.877 475.805l.939-.448v-1.44l-.939-.447h-1.937l-.944.447M185.046 477.742l.894.447h1.937l.939-.447v-1.44l-.939-.497h-1.44M181.243 477.245h.943v.944h-.943zM175.553 475.805l-.895-.448v-1.44l.895-.447h1.936l.945.447v1.44l-.945.448h-1.936l-.945.497v1.391l.945.496h1.936l.945-.447v-1.44l-.945-.497M169.469 476.302l.89-.945h1.937l.939.945v.943l-.939.944h-1.937l-.89-.944v-2.827l.89-.948h1.937l.939.948M233.029 475.805h-36.186M130.401 475.805h36.187M298.911 360.54l-1.279-4.767M296.356 360.54h2.555M297.632 355.773l-1.276 4.767M296.356 533.451l1.276 4.765M298.911 533.451h-2.555M297.632 538.216l1.279-4.765M312.528 478.292h-3.771l2.828-2.827v4.716M303.515 479.732l.939.449h1.937l.944-.449v-1.882l-.944-.497h-1.937l-.939.447v-2.335h3.82M299.761 479.236h.944v.944h-.944zM294.464 480.181h1.194M294.665 475.863l.398-.398v4.716M287.981 475.912l.896-.447h1.936l.945.447v.944l-3.825 2.38.048.945h3.777M284.076 480.181h1.195M284.278 475.863l.398-.398v4.716M297.632 355.773v117.258M297.632 538.216v-55.652M235.409 355.773H302.4M235.409 538.216H302.4M323.341 333.117l-1.279-4.764M320.786 333.117h2.555M322.062 328.353l-1.276 4.764M320.786 560.874l1.276 4.769M323.341 560.874h-2.555M322.062 565.643l1.279-4.769M334.574 449.38l2.384-4.72h-3.77M330.324 449.38l.945-.497.496-1.391v-.944l-.496-1.441-.945-.447h-.944l-.943.447-.493 1.441.049.944.444 1.391.943.497h.944M324.19 448.436h.944v.944h-.944zM318.501 446.995l-.896-.447v-1.441l.896-.447h1.932l.944.447v1.441l-.944.447h-1.932l-.944.497v1.391l.944.497h1.932l.944-.447v-1.441l-.944-.497M312.362 448.933l.945.447h1.937l.944-.447v-1.888l-.944-.497h-1.937l-.945.447v-2.335h3.826M308.507 449.38h1.194M308.708 445.059l.398-.399v4.72M322.062 328.353v113.874M322.062 565.643V451.76M221.389 328.353H326.83M218.768 565.643H326.83M235.337 593.854l4.769-1.276M235.337 591.299v2.555M240.106 592.578l-4.769-1.279M128.093 591.299l-4.769 1.279M128.093 593.854v-2.555M123.324 592.578l4.769 1.276M190.239 594.019l.895.939h1.937l.944-.939v-2.832l-.944-.944h-1.937l-.895.944-.049.944.944.943h1.937l.944-.943M186.437 594.958l2.379-4.715h-3.77M181.243 594.014h.943v.944h-.943zM176.05 594.958l2.384-4.715h-3.776M170.855 594.958l2.385-4.715h-3.776M240.106 592.578h-43.263M123.324 592.578h43.264M240.106 534.149v63.194M123.324 534.565v62.778M186.481 577.874l-4.768 1.274M186.481 580.424v-2.55M181.713 579.148l4.768 1.276M235.337 580.424l4.769-1.276M235.337 577.874v2.55M240.106 579.148l-4.769-1.274M219.908 581.533l.944-.497.497-1.39v-.945l-.497-1.44-.944-.448h-.944l-.943.448-.498 1.44.054.945.444 1.39.943.497h.944M212.384 580.589l.894.944h1.933l.943-.944v-2.832l-.943-.944h-1.933l-.894.944-.05.944.944.945h1.933l.943-.945M208.581 580.589h.943v.944h-.943zM202.891 579.148l-.895-.447v-1.44l.895-.448h1.936l.944.448v1.44l-.944.447h-1.936l-.945.498v1.39l.945.497h1.936l.944-.447v-1.44l-.944-.498M199.634 579.148l.939-.447v-1.44l-.939-.448h-1.938l-.943.448"/><path stroke-width=".378" stroke-linejoin="round" d="M196.802 581.086l.894.447h1.938l.939-.447v-1.44l-.939-.498h-1.441M181.713 579.148h12.213M240.106 579.148h-15.925M181.713 567.929v15.984M240.106 540.313v43.6M96.205 560.874l1.279 4.769M98.76 560.874h-2.555M97.484 565.643l1.276-4.769M98.76 555.752l-1.276-4.765M96.205 555.752h2.555M97.484 550.987l-1.279 4.765M81.349 545.91l.894-.944h1.933l.944.944v.944l-.944.944h-1.933l-.894-.944v-2.832l.894-.944h1.933l.944.944M77.542 547.798l2.384-4.72h-3.771M72.353 546.854h.943v.944h-.943zM65.768 546.854l.894.944h1.937l.939-.944v-2.832l-.939-.944h-1.937l-.894.944-.05.944.944.944h1.937l.939-.944M97.484 565.643v-20.234M97.484 545.409h-9.537M146.681 565.643H92.716M164.767 550.987H92.716M118.107 399.849l4.77-1.28M118.107 397.294v2.555M122.877 398.569l-4.77-1.275M128.093 397.294l-4.769 1.275M128.093 399.849v-2.555M123.324 398.569l4.769 1.28M107.371 400.953l.944-.496.497-1.392v-.943l-.497-1.44-.944-.444h-.943l-.945.444-.496 1.44.049.943.447 1.392.945.496h.943M102.674 398.569l.944-.447v-1.44l-.944-.444h-1.937l-.944.444M99.847 400.506l.89.447h1.937l.944-.447v-1.441l-.944-.496h-1.436M96.04 400.01h.943v.943h-.943zM91.794 400.953l.939-.496.502-1.392v-.943l-.502-1.44-.939-.444h-.943l-.945.444-.496 1.44.049.943.447 1.392.945.496h.943M59.205 408.103v-4.715l3.771 4.715v-4.715M54.955 408.103h1.883l.944-.945v-2.831l-.944-.939h-1.883l-.993.939v2.831l.993.945M52.588 403.388h-3.771M50.705 403.388v4.715M47.395 403.388h-3.772M45.511 403.388v4.715M38.43 403.388v3.77l.894.945h1.888l.993-.945v-3.77M33.235 405.271v-1.883h2.832l.448.447v.943l-.448.493h-2.832v2.832h2.784l.943-.448v-1.937l-.895-.447M82.803 398.569h-2.827M83.746 400.953h-3.77v-4.715h3.77M74.781 400.953v-4.715l1.888 4.715 1.889-4.715v4.715M69.588 396.238v3.772l.894.943h1.888l.993-.943v-3.772M64.398 396.238v4.715h3.772M60.148 400.953h1.884l.944-.943v-2.832l-.944-.94h-1.884l-.993.94v2.832l.993.943M54.011 396.238l1.884 4.715 1.887-4.715M45.015 400.953l.447-.943.049-2.832-.496-.94M41.261 398.569h-1.888M35.571 400.953l-.497-.943v-2.832l.497-.94M122.877 398.569h-1.705M123.324 398.569h11.917M121.172 398.569h-9.528M122.877 405.633v-11.828M123.324 406.345v-12.54M118.107 383.055l4.77-1.275M118.107 380.501v2.554M122.877 381.78l-4.77-1.279M128.093 380.501l-4.769 1.279M128.093 383.055v-2.554M123.324 381.78l4.769 1.275M106.182 384.164l.943-.496.497-1.392v-.943l-.497-1.44-.943-.444h-.94l-.944.444-.501 1.44.054.943.447 1.392.944.496h.94M101.484 381.78l.944-.447v-1.44l-.944-.444h-1.932l-.945.444M98.657 383.713l.895.451h1.932l.944-.451v-1.437l-.944-.496h-1.436M94.854 383.221h.943v.943h-.943zM90.604 384.164l.945-.496.496-1.392v-.943l-.496-1.44-.945-.444h-.944l-.943.444-.497 1.44.05.943.447 1.392.943.496h.944M58.015 391.313v-4.719l3.771 4.719v-4.719M53.765 391.313h1.887l.945-.944v-2.832l-.945-.943h-1.887l-.994.943v2.832l.994.944M51.398 386.594h-3.771M49.515 386.594v4.719M46.209 386.594h-3.775M44.321 386.594v4.719M37.244 386.594v3.775l.89.944h1.888l.994-.944v-3.775M32.05 388.481v-1.887h2.828l.447.447v.943l-.447.497H32.05v2.832h2.778l.944-.447v-1.937l-.894-.448M81.617 381.78h-2.832M82.562 384.164h-3.777v-4.715h3.777M73.596 384.164v-4.715l1.883 4.715 1.888-4.715v4.715M68.397 379.449v3.772l.895.943h1.889l.993-.943v-3.772M63.208 379.449v4.715h3.776M58.959 384.164h1.883l.944-.943v-2.832l-.944-.94h-1.883l-.993.94v2.832l.993.943M52.821 379.449l1.888 4.715 1.888-4.715M43.824 384.164l.447-.943.05-2.832-.497-.94M39.078 383.221v-2.832M40.519 381.78h-2.828M34.381 384.164l-.496-.943v-2.832l.496-.94M122.877 381.78h-2.891M123.324 381.78h11.917M119.986 381.78h-9.532M122.877 386.701v-9.69M123.324 375.804v10.74M117.92 362.4l4.765-1.277M117.92 359.846v2.554M122.685 361.123l-4.765-1.277M128.093 359.846l-4.769 1.277M128.093 362.4v-2.554M123.324 361.123l4.769 1.277M101.408 361.123l.945-.444v-1.442l-.945-.447h-1.932l-.945.447M98.581 363.063l.895.445h1.932l.945-.445v-1.441l-.945-.499h-1.44M97.158 361.622h-3.771l2.832-2.832v4.718M89.58 362.563h.944v.944h-.944zM85.335 363.508l.943-.497.497-1.389v-.943l-.497-1.442-.943-.447h-.944l-.944.447-.497 1.442.049.943.448 1.389.944.497h.944M77.291 370.654v-4.715M77.291 368.274h-3.77M73.521 370.654v-4.715M72.048 369.713l-.944.941h-1.833l-.945-.941v-2.83l.945-.944h1.882l.945.944M66.903 365.939h-3.77M65.021 365.939v4.715M59.325 365.939h.945M59.826 365.939v4.715M59.325 370.654h.945M52.745 365.939l.895 4.715.943-4.715.993 4.715.945-4.715M47.502 370.211l.943.443h1.938l.944-.497v-1.388l-.944-.495h-1.888l-.993-.447v-1.44l.993-.448h1.888l.944.448M77.291 363.508l-.943-2.385M73.521 363.508v-4.718h2.827l.943.447v1.442l-.943.444h-2.827M71.153 361.123h-2.827M72.098 363.508h-3.772v-4.718h3.772M65.021 361.123h1.882v1.44l-.943.945h-1.933l-.944-.945v-2.829l.993-.944h1.834l.944.944M57.938 363.508v-4.718l3.772 4.718v-4.718M54.136 358.79h.944M54.633 358.79v4.718M54.136 363.508h.944M51.327 363.508l-.944-2.385M47.551 363.508v-4.718h2.832l.944.447v1.442l-.944.444h-2.832M122.685 361.123h-7.968M123.324 361.123h11.917M114.717 361.123h-9.533M122.685 359.918v5.972M123.324 358.821v7.069"/><path stroke-width=".195" stroke-linejoin="round" d="M124.04 548.576l.241.009M238.155 545.57h.13M123.328 545.57H124.93M125.141 545.57h.133M240.102 545.57H238.5M124.93 545.57h.211M238.285 545.57h.215M238.446 345.414h1.607M238.102 345.414v-.031M238.155 348.743v-.324M240.102 348.419H238.5M123.328 348.419H124.93M125.274 348.419l-.003.165v.159M125.328 345.414l-.014.314-.031 1.248-.009 1.443M125.274 348.419h-.133M124.054 345.414l.259-.009M125.342 345.048l-.009.179-.005.187M238.155 348.419v-.312l-.012-1.248-.041-1.445M238.285 348.419h-.13M238.102 345.414h.134M239.122 345.405l.205.009M125.194 345.414h.134M124.983 345.414H123.378M238.446 345.414h-.21M238.285 348.419h.215M238.285 348.419l-.014-1.676-.035-1.329M238.5 348.419v-.199M238.451 345.594l-.005-.18M238.5 348.22l-.009-.945-.013-.856-.027-.825M238.102 345.383l-.009-.156-.004-.179M125.194 345.414h-.211M125.141 348.419l.004-.343.013-1.366.036-1.296M124.93 348.419l.008-1.09.014-.975.031-.94M124.93 348.419h.211M185.372 565.2v.014M188.187 565.634l-.045-.018-.269-.094-.475-.134-.634-.112-.9-.058-.492-.004"/><path stroke-width=".195" stroke-linejoin="round" d="M185.439 565.303l.985.022.608.071.492.108.322.094.126.041M178.058 565.214l-1.145.031-.667.094-.537.139-.349.111-.13.05M177.986 565.303h7.453M185.372 565.214h-7.314"/><path stroke-width=".195" stroke-linejoin="round" d="M175.459 565.639l.067-.023.264-.085.447-.103.577-.089.886-.036h.286M122.818 363.729l.005.38v.184l.004.159.005.136.009.103.013.067.018.022M123.517 357.576h-.699M123.517 363.729h-.699M122.818 357.576l.005-.383v-.178l.004-.161.005-.139.009-.104.013-.066.018-.023M122.688 357.533v-.591l.005-.111.005-.085.018-.067M122.818 363.729l-.13.041M122.818 363.729v-6.153M122.818 357.576l-.13-.043M122.688 363.77v.59l.005.112.005.085.018.067M122.688 357.533v6.237M239.829 433.557v-.018M240.102 432.967l-.014.071-.013.099-.018.134-.018.169-.018.189-.013.389M239.829 433.539v-19.111M239.829 414.41v.018M240.008 434.018l.013.379.018.193.018.166.018.139.013.098.014.076M240.021 434.397l-.013-.379M233.029 538.216H130.401M130.401 355.773h102.628M233.029 355.773v182.443M130.401 538.216V355.773M123.203 406.224v-11.368M123.203 406.224l-.009.719-.045.64-.062.448-.031.165M123.203 406.224h.515M123.722 394.856h-.519M123.024 406.224h.179M123.203 394.856l-.009-.72-.045-.635-.062-.452-.031-.165M123.024 406.224l-.017.827M123.203 394.856h-.179M123.007 407.051l-.028.322-.036.273-.035.206-.022.126M122.877 393.063l.009.04M122.886 393.103l.022.125.035.206.036.272.028.322M123.007 394.028l.017.828M123.024 394.856v11.368M122.886 407.978l-.009.035M123.203 387.291v-11.367M123.203 387.291h.519M123.718 375.924h-.515M123.024 387.291h.179M123.203 387.291l-.009.721-.045.634-.062.453-.031.166M123.024 375.924v11.367M123.203 375.924l-.009-.716-.045-.64-.062-.451-.031-.166M123.203 375.924h-.179M122.877 374.135l.009.036M122.886 374.171l.022.125.035.21.036.268.028.323M123.007 375.097l.017.827M123.024 387.291l-.017.828M123.007 388.119l-.028.322-.036.273-.035.206-.022.125M122.886 389.045l-.009.04M240.227 375.924v11.367M240.227 375.924h-.519M240.227 375.924l.008-.716.045-.64.063-.451.031-.166M240.401 375.924h-.174M239.708 387.291h.519M240.227 387.291l.008.721.045.634.063.453.031.166M240.424 375.097l.026-.323.031-.268.041-.21.022-.125M240.227 387.291h.174M240.401 387.291v-11.367M240.554 389.085l-.01-.04M240.544 389.045l-.022-.125-.041-.206-.031-.273-.026-.322M240.424 388.119l-.023-.828M240.401 375.924l.023-.827M240.544 374.171l.01-.036M123.328 349.452V356.438M123.328 364.865V373.419M123.328 408.729V544.541M240.102 544.541V435.838M240.102 412.129v-22.323M240.102 373.414V349.452M175.459 565.643h.219M187.752 565.643h.22M240.102 435.771v-.702M240.102 432.967v-20.772M144.426 328.353l-1.092-.002-1.091.008-.944.013-.945.029-.832.045-.823.059-.733.071-.734.092-.648.104-.649.122-.577.127-.573.146-.747.219-.738.255-.617.246-.609.268-.492.25-.487.262-.412.244-.407.26-.469.317-.461.345-.533.434-.514.461-.573.572-.541.604-.578.734-.532.764-.362.596-.336.608-.331.68-.295.693-.286.779-.251.787-.228.882-.188.889-.16 1.007-.121 1.007-.085 1.042-.05 1.042M240.048 345.414l-.04-.886-.068-.882-.089-.871-.121-.868-.134-.769-.165-.765-.269-.993-.322-.978-.326-.821-.371-.798-.359-.665-.385-.643-.353-.524-.371-.511-.318-.402-.336-.389-.334-.367-.35-.351-.434-.413-.456-.394-.559-.438-.577-.413-.694-.44-.72-.4-.845-.412-.873-.363-.564-.196-.567-.184-.627-.17-.631-.152-.688-.139-.699-.116-.769-.102-.77-.081-.858-.067-.86-.045-.965-.031-.971-.016-1.101-.008-1.105.002M175.23 565.643h.215M187.972 565.643h.215M222.163 565.607h.496l.496-.022M225.54 565.396l.326-.035.327-.041.649-.097.648-.126.582-.125.573-.148.747-.219.738-.255.613-.246.609-.268.496-.251.487-.264.412-.242.407-.255.47-.321.456-.345.537-.434.515-.46.572-.574.541-.603.577-.73.532-.769.359-.59.335-.613.331-.68.3-.693.287-.779.25-.788.228-.881.184-.89.165-1.006.116-1.007.094-1.043.045-1.042M123.382 548.576l.041.891.062.894.094.881.125.873.135.774.17.769.268.998.331.984.33.823.381.801.358.667.389.648.358.524.376.509.327.404.335.388.34.367.349.349.448.416.461.394.563.438.586.412.702.438.725.398.859.407.877.354.567.196.578.18.63.165.64.147.698.139.703.112.778.099.778.076.595.04.596.032M145.938 565.643h3.123M151.463 565.643h19.451M173.316 565.643h1.878M188.235 565.643h1.879M192.517 565.643h6.978M201.897 565.643h.976M205.271 565.643h.979M208.652 565.643h.976M212.03 565.643h.975M215.407 565.643h.976M218.79 565.643h.214"/><path stroke-width=".195" stroke-linejoin="round" d="M125.767 553.157l.013.054.014.059M219.004 328.353h-74.578M122.877 374.135v14.95M122.877 389.085l.089.09.09.09M123.056 373.951l-.09.09-.089.094M123.494 373.951h-.438M123.056 389.265h.666M205.275 565.643l-.041-.04-.035-.037M215.407 565.643l-.035-.04-.041-.037M212.03 565.643l-.036-.04-.04-.037M208.652 565.643l-.04-.04-.036-.037M151.463 565.643l-.036-.04-.04-.037M201.897 565.643l-.036-.04-.04-.037M216.459 565.566l-.04.037-.036.04M223.21 565.509l-.036.04-.036.036M219.004 565.643l.385-.004h.384M240.102 349.452v-1.033M123.328 544.541v1.029M240.102 545.57v-1.029M123.328 348.419v1.033M122.877 393.063v14.95M122.877 408.013l.089.093.09.09M123.056 392.884l-.09.089-.089.09M123.722 392.884h-.666M123.056 408.196h.438M240.554 389.085v-14.95M240.554 374.135l-.09-.094-.09-.09M240.374 389.265l.09-.09.09-.09M239.932 389.265h.442M240.374 373.951h-.442M122.872 364.78h.532M123.404 356.522h-.532M123.382 345.414l-.044 1.504-.01 1.501M240.097 348.419v-1.501l-.053-1.504M240.102 435.771h.008M240.11 412.195h-.008M145.66 565.616l.005.009h.004l.01.005.004.004.008.005h.019M145.71 565.639h.228M145.938 565.684v-.045M139.907 565.566l.125.005.121.005M175.445 565.643v.004M187.98 565.647v-.004M123.328 545.687l.005 1.444.054 1.445M240.044 548.576l.049-1.503.004-1.503M122.863 356.526l-.076.077-.071.072M122.716 364.628l.071.072.076.076"/><path stroke-width=".378" stroke-linejoin="round" d="M204.304 273.587h-6.241M206.385 278.839h-8.322v-10.394h8.322M151.874 273.963h-6.24M153.954 279.215h-8.32v-10.397h8.32"/><path stroke-width=".195" stroke-linejoin="round" d="M186.218 550.983h10.056M179.463 550.983h4.5M177.212 550.983h-10.061M181.713 546.479v-10.053M181.713 555.488v10.057M181.713 553.237v-4.505M203.804 289.853v7.506M203.728 289.853v7.22M203.655 289.853v6.939M203.579 289.853v6.652M203.499 289.853v6.366M203.423 289.853v6.084M203.347 289.853v5.798M203.271 289.853v5.516M203.194 289.853v5.23M203.119 289.853v4.943M203.043 289.853v4.662M203.804 289.853v7.506M203.884 289.853v7.22M203.96 289.853v6.939M204.036 289.853v6.652M204.107 289.853v6.366M204.188 289.853v6.084M204.264 289.853v5.798M204.34 289.853v5.516M204.416 289.853v5.23M204.492 289.853v4.943M204.568 289.853v4.662M201.795 289.853l2.009 7.506M203.804 297.359l2.012-7.506M203.804 282.346v15.013M148.648 289.853v7.506M148.573 289.853v7.22M148.497 289.853v6.939M148.421 289.853v6.652M148.345 289.853v6.366M148.264 289.853v6.084M148.188 289.853v5.798M148.116 289.853v5.516M148.04 289.853v5.23M147.964 289.853v4.943M147.884 289.853v4.662M148.648 289.853v7.506M148.725 289.853v7.22M148.801 289.853v6.939M148.877 289.853v6.652M148.953 289.853v6.366M149.024 289.853v6.084M149.105 289.853v5.798M149.181 289.853v5.516M149.262 289.853v5.23M149.333 289.853v4.943M149.409 289.853v4.662M146.636 289.853l2.012 7.506M148.648 297.359l2.009-7.506M148.648 282.346v15.013M207.933 297.359h4.88M204.68 297.359h1.629M193.3 297.359h9.756M190.047 297.359h1.629M178.666 297.359h9.757M175.414 297.359h1.628M164.029 297.359h9.761M160.781 297.359h1.624M149.396 297.359h9.756M146.148 297.359h1.624M139.644 297.359h4.876M184.719 336.076h3.002M180.966 336.076h1.498M178.711 336.076h-3.002M181.713 333.072v-3.002M181.713 339.08v3.002M181.713 336.827v-1.503M177.839 336.076h3.006M174.09 336.076h1.499M171.835 336.076h-3.002M174.837 333.072v-3.002M174.837 339.08v3.002M174.837 336.827v-1.503M168.744 342.775h3.002M164.986 342.775h1.503M162.736 342.775h-3.002M165.737 339.775v-3.004M165.737 345.777v3.004M165.737 343.526v-1.498M197.482 393.737v-7.506M197.558 393.737v-7.219M197.634 393.737v-6.938M197.71 393.737v-6.651M197.786 393.737v-6.37M197.862 393.737v-6.084M197.938 393.737v-5.801M198.015 393.737v-5.515M198.091 393.737v-5.229M198.167 393.737v-4.947M198.242 393.737v-4.661M198.318 393.737v-4.375M198.399 393.737v-4.092M198.471 393.737v-3.806M198.547 393.737v-3.52M198.627 393.737v-3.238M198.703 393.737v-2.952M198.779 393.737v-2.67M198.851 393.737v-2.383M198.932 393.737v-2.097M199.008 393.737v-1.815M199.084 393.737v-1.529M199.159 393.737v-1.243M199.235 393.737v-.961M199.312 393.737v-.674M199.388 393.737v-.393M199.464 393.737v-.106M199.464 393.737v-.106M197.482 393.737v-7.506M197.406 393.737v-7.219M197.325 393.737v-6.938M197.254 393.737v-6.651M197.178 393.737v-6.37M197.102 393.737v-6.084M197.025 393.737v-5.801M196.945 393.737v-5.515M196.874 393.737v-5.229M196.793 393.737v-4.947M196.717 393.737v-4.661M196.641 393.737v-4.375M196.565 393.737v-4.092M196.489 393.737v-3.806M196.413 393.737v-3.52M196.337 393.737v-3.238M196.261 393.737v-2.952M196.185 393.737v-2.67M196.108 393.737v-2.383M196.032 393.737v-2.097M195.956 393.737v-1.815M195.881 393.737v-1.529M195.805 393.737v-1.243M195.729 393.737v-.961M195.652 393.737v-.674M195.576 393.737v-.393M195.5 393.737v-.106M195.5 393.737v-.106M199.491 393.737l-2.009-7.506M195.469 393.737h4.022M197.482 386.231l-2.013 7.506M197.482 401.24v-15.009M167.434 393.737v-7.506M167.509 393.737v-7.219M167.585 393.737v-6.938M167.661 393.737v-6.651M167.737 393.737v-6.37M167.813 393.737v-6.084M167.89 393.737v-5.801M167.97 393.737v-5.515M168.042 393.737v-5.229M168.118 393.737v-4.947M168.193 393.737v-4.661M168.274 393.737v-4.375M168.351 393.737v-4.092M168.422 393.737v-3.806M168.498 393.737v-3.52M168.578 393.737v-3.238M168.654 393.737v-2.952M168.73 393.737v-2.67M168.807 393.737v-2.383M168.883 393.737v-2.097M168.959 393.737v-1.815M169.035 393.737v-1.529M169.11 393.737v-1.243M169.187 393.737v-.961M169.263 393.737v-.674M169.339 393.737v-.393M169.415 393.737v-.106M169.415 393.737v-.106M167.434 393.737v-7.506M167.357 393.737v-7.219M167.281 393.737v-6.938M167.205 393.737v-6.651M167.129 393.737v-6.37M167.053 393.737v-6.084M166.973 393.737v-5.801M166.896 393.737v-5.515M166.825 393.737v-5.229M166.749 393.737v-4.947M166.673 393.737v-4.661M166.592 393.737v-4.375M166.517 393.737v-4.092M166.444 393.737v-3.806M166.364 393.737v-3.52M166.288 393.737v-3.238M166.212 393.737v-2.952M166.136 393.737v-2.67M166.06 393.737v-2.383M165.983 393.737v-2.097M165.908 393.737v-1.815M165.832 393.737v-1.529M165.756 393.737v-1.243M165.68 393.737v-.961M165.604 393.737v-.674M165.527 393.737v-.393M165.447 393.737v-.106M165.447 393.737v-.106M169.446 393.737l-2.012-7.506M165.42 393.737h4.026M167.434 386.231l-2.014 7.506M167.434 401.24v-15.009M202.483 386.231h4.004M199.813 386.231h1.333M190.468 386.231h8.008M187.797 386.231h1.333M178.451 386.231h8.008M175.781 386.231h1.337M166.436 386.231h8.012M163.77 386.231h1.333M158.428 386.231h4.004"/><path stroke-width=".378" stroke-linejoin="round" d="M203.043 414.428l-2.076 2.08h-4.048l-2.085-2.08v-6.24l2.085-2.077h4.16l2.075 2.077M171.576 414.679l-2.081 2.08h-4.053l-2.075-2.08v-6.241l2.075-2.076h4.165l2.076 2.076M150.863 579.958l-2.639-3.959M150.863 573.355l-4.585 4.59M146.278 579.958v-6.603M170.359 569.969l1.623-4.661M168.247 568.533l2.112 1.436M171.982 565.308l-3.735 3.225M164.288 576.621l7.694-11.313M154.755 576.621h9.533M198.497 555.18l.381-1.889.152-2.304M197.603 557.854l.053-.107.421-1.222M196.257 560.328l.357-.518.354-.699M188.893 566.703l1.145-.532 1.95-1.244 1.768-1.494 1.548-1.718.156-.224M186.244 567.669l1.352-.42M183.476 568.211l1.395-.237M173.897 566.408l.529.286 2.16.827 2.25.538 2.3.232.93-.031M171.504 564.923l.891.657.268.144M169.37 563.079l1.016.984M164.758 554.49l.599 2.174.904 2.13 1.177 1.99.989 1.253M164.436 551.689v.453l.129.953M164.565 548.876l-.129.953v.447M168.427 539.934l-.989 1.248-1.177 1.995-.904 2.129-.599 2.17M170.386 537.907l-1.016.98M172.663 536.243l-.268.148-.891.657M182.066 533.711l-.93-.031-2.3.227-2.25.537-2.16.832-.529.291M184.871 533.997l-1.395-.237M187.596 534.722l-1.352-.421M195.46 540.475l-.156-.224-1.548-1.713-1.768-1.494-1.95-1.244-1.145-.532M196.968 542.859l-.354-.698-.357-.523M198.077 545.444l-.421-1.22-.053-.108M199.03 550.987l-.152-2.308-.381-1.888M94.049 529.156v-4.715l3.776 4.715v-4.715M89.799 529.156h1.889l.939-.943v-2.827l-.939-.945h-1.889l-.993.945v2.827l.993.943M87.438 524.441h-3.777M85.55 524.441v4.715M82.243 524.441h-3.77M80.36 524.441v4.715M73.278 524.441v3.772l.895.943h1.884l.993-.943v-3.772M68.085 526.325v-1.884h2.831l.443.444v.943l-.443.497h-2.831v2.831h2.777l.945-.447v-1.937l-.891-.447M60.528 526.772h-2.831M61.473 529.156h-3.776v-4.715h3.776M52.508 529.156v-4.715l1.884 4.715 1.887-4.715v4.715M48.253 529.156h1.889l.943-.943v-2.827l-.943-.945h-1.889l-.988.945v2.827l.988.943M45.896 529.156v-4.715M45.896 526.772H42.12M42.12 529.156v-4.715M80.427 522.008l.939-.496.502-1.392v-.944l-.502-1.441-.939-.442h-.944l-.944.442-.496 1.441.049.944.447 1.392.944.496h.944M72.898 521.063l.895.945h1.933l.948-.945v-2.831l-.948-.939h-1.933l-.895.939-.049.944.944.944h1.933l.948-.944M69.096 521.063h.944v.944h-.944zM64.846 522.008l.944-.496.496-1.392v-.944l-.496-1.441-.944-.442h-.945l-.939.442-.501 1.441.054.944.447 1.392.939.496h.945M58.614 522.008H59.8M58.811 517.687l.398-.394v4.715M44.321 523.265l4.058-7.207M170.945 544.917l4.921.349M171.777 542.501l-.832 2.416M175.866 545.266l-4.089-2.765M110.181 522.603l65.685 22.663M100.652 522.603h9.529"/><path stroke-width=".119" stroke-linejoin="round" d="M259.861 522.406h9.913M259.861 512.877h9.913M269.774 522.406v-9.529M259.861 522.406v-9.529"/></g></svg>