<svg xmlns="http://www.w3.org/2000/svg" width="754.5" height="754.5" viewBox="0 0 754.5 754.5"><path fill="#2F60B5" d="M0 0h754.5v754.5H0z"/><g opacity=".24" fill="none" stroke="#FFF" stroke-miterlimit="10"><path d="M4.5 754.5H750M4.5 25.052H750M4.5 50.472H750M4.5 75.523H750M4.5 100.575H750M4.5 125.627H750M4.5 151.047H750M4.5 176.1H750M4.5 201.15H750M4.5 226.203H750M4.5 251.623H750M4.5 276.675H750M4.5 301.727H750M4.5 326.778H750M4.5 352.198H750M4.5 377.25H750M4.5 402.302H750M4.5 427.722H750M4.5 452.773H750M4.5 477.825H750M4.5 502.877H750M4.5 528.297H750M4.5 553.35H750M4.5 578.4H750M4.5 603.453H750M4.5 628.873H750M4.5 653.925H750M4.5 678.977H750M4.5 704.028H750M4.5 729.448H750M4.5 0H750M4.5 754.5V0M725.065 754.5V0M700.313 754.5V0M675.377 754.5V0M650.624 754.5V0M625.689 754.5V0M600.937 754.5V0M576.002 754.5V0M551.248 754.5V0M526.313 754.5V0M501.561 754.5V0M476.626 754.5V0M451.873 754.5V0M426.938 754.5V0M402.185 754.5V0M377.25 754.5V0M352.315 754.5V0M327.563 754.5V0M302.627 754.5V0M277.874 754.5V0M252.939 754.5V0M228.187 754.5V0M203.251 754.5V0M178.499 754.5V0M153.563 754.5V0M128.811 754.5V0M103.876 754.5V0M79.123 754.5V0M54.188 754.5V0M29.435 754.5V0M750 754.5V0"/></g><g fill="none" stroke="#FFF" stroke-width=".5" stroke-miterlimit="10"><path d="M263.201 117.825v512.001M446.827 530.451L79.574 163.198M106.419 503.607l313.562-313.563"/></g><g fill="none" stroke="#FFF" stroke-width=".5" stroke-miterlimit="10"><path d="M33.464 346.825h615.441M438.905 90.824v512.002M622.532 530.451L255.279 163.198M282.124 503.607l313.563-313.563"/></g><path fill="none" stroke="#FFF" stroke-width=".5" stroke-miterlimit="10" d="M103.787 346.825h615.99M350.905 101.675v562.001"/><g opacity=".25"><circle fill="none" stroke="#FFF" stroke-width=".709" stroke-miterlimit="10" stroke-dasharray="4" cx="213.332" cy="351.716" r="104.566"/><circle fill="none" stroke="#FFF" stroke-width=".709" stroke-miterlimit="10" stroke-dasharray="4" cx="239.519" cy="351.716" r="130.707"/><circle fill="none" stroke="#FFF" stroke-width=".709" stroke-miterlimit="10" stroke-dasharray="4" cx="272.252" cy="351.716" r="163.384"/><circle fill="none" stroke="#FFF" stroke-width=".709" stroke-miterlimit="10" stroke-dasharray="4" cx="313.169" cy="351.716" r="204.23"/></g><path opacity=".25" fill="none" stroke="#FFF" stroke-width=".25" stroke-miterlimit="10" d="M185.31 549.738c-102.364-102.359-102.364-268.328 0-370.691 102.361-102.363 268.328-102.363 370.691 0s102.363 268.332 0 370.691c-102.363 102.364-268.33 102.364-370.691 0z"/><g opacity=".51"><circle fill="none" stroke="#FFF" stroke-width=".709" stroke-miterlimit="10" stroke-dasharray="4" cx="208.582" cy="359.591" r="104.566"/><circle fill="none" stroke="#FFF" stroke-width=".709" stroke-miterlimit="10" stroke-dasharray="4" cx="234.769" cy="359.591" r="130.707"/><circle fill="none" stroke="#FFF" stroke-width=".709" stroke-miterlimit="10" stroke-dasharray="4" cx="267.502" cy="359.591" r="163.384"/><circle fill="none" stroke="#FFF" stroke-width=".709" stroke-miterlimit="10" stroke-dasharray="4" cx="308.419" cy="359.591" r="204.23"/></g><circle fill="none" stroke="#FFF" stroke-width=".706" stroke-miterlimit="10" stroke-dasharray="4" cx="417.845" cy="357.016" r="104.143"/><circle fill="none" stroke="#FFF" stroke-width=".706" stroke-miterlimit="10" stroke-dasharray="4" cx="443.926" cy="357.016" r="130.179"/><circle fill="none" stroke="#FFF" stroke-width=".706" stroke-miterlimit="10" stroke-dasharray="4" cx="476.527" cy="357.017" r="162.724"/><circle fill="none" stroke="#FFF" stroke-width=".706" stroke-miterlimit="10" stroke-dasharray="4" cx="517.279" cy="357.017" r="203.405"/><circle fill="none" stroke="#FFF" stroke-width=".706" stroke-miterlimit="10" stroke-dasharray="4" cx="413.302" cy="348.408" r="104.143"/><circle fill="none" stroke="#FFF" stroke-width=".706" stroke-miterlimit="10" stroke-dasharray="4" cx="439.383" cy="348.408" r="130.179"/><circle fill="none" stroke="#FFF" stroke-width=".706" stroke-miterlimit="10" stroke-dasharray="4" cx="471.984" cy="348.408" r="162.723"/><circle fill="none" stroke="#FFF" stroke-width=".706" stroke-miterlimit="10" stroke-dasharray="4" cx="512.736" cy="348.408" r="203.404"/><path opacity=".51" fill="none" stroke="#FFF" stroke-width=".25" stroke-miterlimit="10" d="M180.56 557.613c-102.364-102.359-102.364-268.328 0-370.691 102.361-102.363 268.328-102.363 370.691 0s102.363 268.332 0 370.691c-102.363 102.364-268.33 102.364-370.691 0z"/><path opacity=".4" fill="#FFF" stroke="#FFF" stroke-width="2.877" stroke-miterlimit="10" d="M312.253 156.117l16.006 32.909-38.601 13.232c-26.886 9.743-41.455 26.543-43.702 50.399 1.077 7.824 3.278 15.533 6.6 23.128l67.889 134.282c5.925 11.047 8.889 23.32 8.889 36.822 0 18.641-6.814 35.422-20.44 50.342-13.626 14.92-30.605 25.486-50.93 31.699l-36.427 11.738-16.595-33.943 37.163-10.818c13.603-3.758 24.369-10.086 32.297-18.984 7.928-8.898 11.894-18.908 11.894-30.033 0-8.668-1.847-16.838-5.54-24.51l-67.972-132.901c-5.587-11.89-8.921-24.164-10.001-36.821.541-18.563 7.086-35.343 19.64-50.342 12.553-14.996 29.763-26.178 51.63-33.542l38.2-12.657zM443.002 392.797v149.416h-43.311V392.797h-35.372l15.458-37.888h19.914V168.08h122.564l15.442 37.889h-95.945v148.94h74.777v37.888h-73.527z"/><path fill="none" stroke="#FFF" stroke-width="2.906" stroke-miterlimit="10" d="M312.719 154.175l16.168 33.241-38.99 13.367c-27.158 9.841-41.874 26.811-44.144 50.908 1.088 7.903 3.311 15.69 6.667 23.361l68.574 135.639c5.985 11.158 8.979 23.557 8.979 37.193 0 18.828-6.882 35.781-20.646 50.852-13.765 15.07-30.914 25.744-51.445 32.02l-36.795 11.855-16.762-34.287 37.538-10.926c13.741-3.795 24.615-10.188 32.624-19.176 8.008-8.99 12.014-19.102 12.014-30.338 0-8.756-1.866-17.008-5.596-24.756l-68.658-134.245c-5.643-12.009-9.012-24.407-10.102-37.192.545-18.751 7.156-35.701 19.837-50.85s30.064-26.442 52.152-33.882l38.585-12.784z"/><path fill="none" stroke="#FFF" stroke-width="3" stroke-miterlimit="10" d="M442.796 393.178v150.924h-43.748V393.178h-35.729l15.614-38.271h20.115V166.19h123.803l15.599 38.271h-96.915v150.444h75.533v38.271h-74.272z"/><path opacity=".33" fill="none" stroke="#FFF" stroke-width=".975" stroke-miterlimit="10" d="M307.08 153.612l15.946 33.182-38.895 13.129c-27.094 9.674-41.83 26.505-44.204 50.493 1.045 7.876 3.224 15.643 6.529 23.299l67.657 135.408c5.909 11.143 8.832 23.504 8.768 37.084-.088 18.754-7.022 35.604-20.801 50.547-13.779 14.945-30.909 25.496-51.387 31.65l-36.701 11.633-16.533-34.227 37.438-10.703c13.702-3.717 24.563-10.033 32.581-18.947 8.018-8.914 12.055-18.963 12.107-30.156.041-8.719-1.778-16.947-5.457-24.682L206.382 287.3c-5.563-11.987-8.86-24.351-9.886-37.089.631-18.672 7.295-35.521 19.996-50.55 12.699-15.026 30.066-26.193 52.099-33.497l38.489-12.552z"/><path opacity=".33" fill="none" stroke="#FFF" stroke-width="1.006" stroke-miterlimit="10" d="M436.907 392.217l-.711 150.311-43.569-.207.709-150.309-35.583-.168 15.73-38.043 20.033.095.888-187.948 123.3.582 15.354 38.188-96.521-.456-.707 149.834 75.226.355-.18 38.115-73.969-.349z"/><path opacity=".74" fill="none" stroke="#FFF" stroke-width=".969" stroke-miterlimit="10" d="M314.61 160.781l15.121 32.521-38.049 12.306c-26.511 9.086-41.074 25.299-43.684 48.636.922 7.686 2.946 15.277 6.072 22.775l64.224 132.737c5.617 10.926 8.313 23.004 8.081 36.232-.318 18.266-7.282 34.59-20.889 48.977s-30.424 24.449-50.447 30.191l-35.894 10.877-15.68-33.543 36.599-9.965c13.393-3.447 24.05-9.465 31.971-18.049s11.977-18.324 12.168-29.225c.148-8.492-1.522-16.529-5.009-24.111l-64.329-131.386c-5.271-11.745-8.329-23.829-9.17-36.25.846-18.18 7.546-34.51 20.104-48.991 12.557-14.479 29.611-25.142 51.163-31.982l37.648-11.75z"/><path opacity=".74" fill="none" stroke="#FFF" stroke-miterlimit="10" d="M442.52 391.902l-2.556 146.404-42.438-.74 2.555-146.406-34.659-.604 15.795-36.861 19.513.341 3.195-183.064 120.095 2.097 14.483 37.389-94.012-1.641-2.548 145.939 73.271 1.279-.647 37.125-72.047-1.258z"/><circle fill="none" stroke="#FFF" stroke-miterlimit="10" cx="442.921" cy="393.178" r="7.778"/><circle fill="none" stroke="#FFF" stroke-miterlimit="10" cx="363.444" cy="393.178" r="7.778"/><circle fill="none" stroke="#FFF" stroke-miterlimit="10" cx="522.976" cy="166.19" r="7.778"/><circle fill="none" stroke="#FFF" stroke-miterlimit="10" cx="517.192" cy="354.906" r="7.778"/><circle fill="none" stroke="#FFF" stroke-width="2" stroke-miterlimit="10" cx="442.921" cy="393.178" r="7.778"/><circle fill="none" stroke="#FFF" stroke-width="2" stroke-miterlimit="10" cx="363.444" cy="393.178" r="7.778"/><circle fill="none" stroke="#FFF" stroke-width="2" stroke-miterlimit="10" cx="522.976" cy="166.19" r="7.778"/><circle fill="none" stroke="#FFF" stroke-width="2" stroke-miterlimit="10" cx="517.192" cy="354.906" r="7.778"/><circle fill="none" stroke="#FFF" stroke-width=".969" stroke-miterlimit="10" cx="312.719" cy="154.175" r="7.536"/><circle fill="none" stroke="#FFF" stroke-width=".969" stroke-miterlimit="10" cx="252.42" cy="275.053" r="7.536"/><circle fill="none" stroke="#FFF" stroke-width=".969" stroke-miterlimit="10" cx="257.882" cy="530.756" r="7.536"/><circle fill="none" stroke="#FFF" stroke-width=".969" stroke-miterlimit="10" cx="274.487" cy="478.223" r="7.536"/><circle fill="none" stroke="#FFF" stroke-width=".969" stroke-miterlimit="10" cx="202.145" cy="251.691" r="7.536"/><circle fill="none" stroke="#FFF" stroke-width="2" stroke-miterlimit="10" cx="312.719" cy="154.175" r="7.536"/><circle fill="none" stroke="#FFF" stroke-width="2" stroke-miterlimit="10" cx="252.42" cy="275.053" r="7.536"/><circle fill="none" stroke="#FFF" stroke-width="2" stroke-miterlimit="10" cx="257.882" cy="530.756" r="7.536"/><circle fill="none" stroke="#FFF" stroke-width="2" stroke-miterlimit="10" cx="274.487" cy="478.223" r="7.536"/><circle fill="none" stroke="#FFF" stroke-width="2" stroke-miterlimit="10" cx="202.145" cy="251.691" r="7.536"/><g fill-rule="evenodd" clip-rule="evenodd" fill="#FFF"><path d="M543.054 188.206h-2c.131-.227-.163-.801 0-1 .268-.326 1.64.25 2 0v1zM545.054 188.206c.134-.199-.167-.832 0-1 .088-.088.862 0 1 0s.912-.088 1 0c.167.168-.134.801 0 1h-2zM553.054 189.206c-.2.135-.833-.166-1 0-.14.141.16.895 0 1-.23.154-.749-.123-1 0v-1c0-.34-.206-1.76 0-2 .032-.037.95-.033 1 0 .16.107-.14.861 0 1 .125.125.918-.146 1 0 .141.256-.114.731 0 1zM555.054 188.206c.131-.227-.163-.801 0-1 .268-.326 1.64.25 2 0v1h-2zM559.054 187.206c.2.135.833-.166 1 0 .095.096-.008.854 0 1 .015.279.067.73 0 1-.044.178.122.879 0 1-.167.168-.8-.133-1 0v-3zM543.054 188.206h2v2h-2v-2zM555.054 188.206v2h-1c-.134.201.167.834 0 1-.167.168-.8-.133-1 0v-2c.2-.133.833.168 1 0 .167-.166-.167-.832 0-1 .167-.166.8.135 1 0zM557.054 188.206c.227.131.801-.162 1 0 .327.268-.25 1.641 0 2h-1v-2zM543.054 190.206c-.134.201.167.834 0 1-.088.088-.862 0-1 0s-.912.088-1 0c-.167-.166.134-.799 0-1h2zM545.054 190.206h2c-.131.227.163.801 0 1-.268.328-1.64-.25-2 0v-1zM555.054 190.206h2c-.131.227.163.801 0 1-.268.328-1.64-.25-2 0v-1zM545.054 195.206h1c-.134-.199.167-.832 0-1-.031-.031-.977-.029-1 0-.163.203.13.772 0 1h-2c-.256-.41.333-1.666 0-2-.265-.264-1.819.309-2 0-.035-.061-.043-.957 0-1 .167-.166.8.135 1 0h1c.317 0 1.789-.199 2 0 .058.055-.054.996 0 1 .126.01.92.08 1 0 .167-.166-.134-.799 0-1 .227.131.801-.162 1 0 .189.156-.016 1.719 0 2 .038.664-.028 1.336 0 2h-2v-1zM550.054 194.206c-.448-.252-1.619.33-2 0-.076-.064-.006-.883 0-1 .008-.146-.095-.904 0-1 .167-.166.8.135 1 0 .123.252-.153.77 0 1 .106.16.86-.139 1 0 .167.168-.134.801 0 1zM552.054 192.206c.2.135.833-.166 1 0 .095.096-.008.854 0 1 .015.279.067.73 0 1-.044.178.122.879 0 1-.167.168-.8-.133-1 0v-3zM559.054 195.206c-.333-.014-.668.018-1 0-.146-.008-.905.096-1 0-.167-.166.134-.799 0-1h-3v-2c.2.135.833-.166 1 0 .077.078-.088.979 0 1 .099.025.937.064 1 0 .105-.105-.126-.945 0-1 .457-.195 1.496-.004 2 0 .003 0-.003.934 0 1 .134.201-.167.834 0 1 .14.141.894-.16 1 0 .153.231-.123.75 0 1zM562.054 195.206h-2c.185-.586-.241-1.436 0-2 .054-.125.895.105 1 0 .167-.166-.134-.799 0-1h1c.26 0 1.864-.172 2 0 .035.045.037.963 0 1-.167.168-.8-.133-1 0-.227.131-.801-.162-1 0-.327.268.25 1.641 0 2zM566.054 192.206c.2.135.833-.166 1 0 .095.096-.008.854 0 1 .015.279.067.73 0 1-.044.178.122.879 0 1-.167.168-.8-.133-1 0v-3z"/><path d="M542.054 195.206c-.229-.129-.797.162-1 0-.029-.023-.031-.969 0-1 .167-.166.8.135 1 0v1zM550.054 195.206v-1c.2.135.833-.166 1 0 .033.033.033.967 0 1-.167.168-.8-.133-1 0zM542.054 195.206h1c-.134.201.167.834 0 1-.033.033-.967.033-1 0-.167-.166.134-.799 0-1zM550.054 195.206c-.134.201.167.834 0 1-.088.088-.862 0-1 0s-.912.088-1 0c-.167-.166.134-.799 0-1h2zM559.054 195.206h1c-.134.201.167.834 0 1-.033.033-.967.033-1 0-.167-.166.134-.799 0-1zM562.054 195.206h2c-.131.227.163.801 0 1-.268.328-1.64-.25-2 0v-1zM542.054 197.206c.2.135.833-.166 1 0 .095.096-.008.854 0 1 .015.279.067.73 0 1-.044.178.122.879 0 1-.167.168-.8-.133-1 0v-3zM545.054 197.206c.131.227-.163.801 0 1 .268.328 1.64-.25 2 0-.134.201.167.834 0 1-.167.168-.8-.133-1 0-.2.135-.833-.166-1 0-.035.035.006 1.002 0 1-.175-.039-.881.119-1 0-.122-.121.044-.822 0-1-.094-.375-.146-1.646 0-2 .049-.117.894.096 1 0zM549.054 198.206c-.033-.033-.033-.967 0-1s.967-.033 1 0 .033.967 0 1-.967.033-1 0zM552.054 198.206c-.229-.129-.797.162-1 0-.029-.023-.031-.969 0-1 .167-.166.8.135 1 0v1zM564.054 199.206h1c-.134-.199.167-.832 0-1-.031-.031-.977-.029-1 0-.163.203.13.772 0 1-.333.014-.668-.018-1 0-.146.008-.905-.094-1 0-.167.168.134.801 0 1-.333-.014-.668.018-1 0-.146-.008-.905.096-1 0-.054-.053.048-.998 0-1-.129-.006-.918-.082-1 0-.137.137.157.9 0 1-.236.152-.744-.121-1 0v-2c.2-.133.833.168 1 0 .071-.07-.078-.984 0-1 .105-.021.933-.066 1 0 .045.045-.03 1.002 0 1 .146-.008.905.096 1 0 .038-.037-.013-1.002 0-1 .166.029.889-.111 1 0 .049.049-.038 1 0 1 .188 0 .85.102 1 0 .16-.105-.14-.859 0-1 .105-.105.841.021 1 0 .435-.057 1.603-.17 2 0 .126.055-.105.895 0 1 .167.168.8-.133 1 0-.134.201.167.834 0 1-.168.168-.828-.164-1 0-.17.164.151.816 0 1-.268.328-1.64-.25-2 0v-1zM569.054 199.206c.25-.359-.327-1.732 0-2 .199-.162.773.131 1 0 .134.201-.167.834 0 1 .105.105.946-.125 1 0 .093.217.127 1.816 0 2-.107.156-.848-.125-1 0-.134-.199.167-.832 0-1-.167-.166-.8.135-1 0zM552.054 198.206c.448.254 1.619-.33 2 0 .076.066.006.885 0 1-.008.146.095.906 0 1-.167.168-.8-.133-1 0-.123-.25.153-.77 0-1-.106-.16-.86.141-1 0-.167-.166.134-.799 0-1zM549.054 200.206c-.033-.033-.033-.967 0-1s.967-.033 1 0 .033.967 0 1-.967.033-1 0zM569.054 199.206c-.13.23.163.797 0 1-.023.029-.969.031-1 0-.167-.166.134-.799 0-1h1zM545.054 201.206c.2.135.833-.166 1 0 .095.096-.008.854 0 1 .053.998-.042 2.002 0 3-.2-.133-.833.168-1 0-.095-.094.008-.854 0-1-.053-.996.042-2.002 0-3zM548.054 201.206c.36.25 1.732-.326 2 0 .035.043.036.965 0 1-.073.074-1.942.07-2 0-.163-.199.131-.773 0-1zM562.054 202.206v2h1c.121 0 .932.082 1 0-.156.186.17.83 0 1-.095.096-.854-.008-1 0-.279.016-.729.068-1 0-.178-.043-.878.123-1 0-.056-.055.053-.996 0-1-.125-.01-.921-.078-1 0-.14.141.16.895 0 1-.104.07-.874.033-1 0-.092-.023.08-.92 0-1-.167-.166-.8.135-1 0v-1c0-.133-.087-.916 0-1 .035-.033.966-.033 1 0 .08.08-.092.977 0 1 .097.025.938.063 1 0 .14-.139-.16-.893 0-1 .23-.152.749.123 1 0 .134-.199-.167-.832 0-1 .122-.121.822.045 1 0 .187-.047 1.916-.117 2 0 .036.051.039.961 0 1-.095.096-.854-.008-1 0-.332.018-.667-.014-1 0zM566.054 202.206c-.082-.061-.981.078-1 0-.024-.098-.063-.936 0-1 .088-.088.862 0 1 0s.912-.088 1 0c.127.127-.052.818 0 1 .061.215.137 1.863 0 2-.033.033-.967.033-1 0-.095-.094.008-.854 0-1-.018-.332.013-.666 0-1zM571.054 204.206h-2v-1c0-.316-.199-1.789 0-2 .157-.166.808.133 1 0 .134.201-.167.834 0 1 .105.105.946-.125 1 0 .241.565-.185 1.414 0 2zM541.054 202.206h3c-.25.361.327 1.732 0 2-.199.164-.773-.131-1 0-.131.227.163.801 0 1-.268.328-1.64-.25-2 0v-3zM551.054 202.206c.2.135.833-.166 1 0 .095.096-.008.854 0 1 .007.129.082.918 0 1-.033.033-.967.033-1 0-.095-.094.008-.854 0-1-.018-.332.013-.666 0-1zM553.054 202.206c.2.135.833-.166 1 0 .095.096-.008.854 0 1 .007.129.082.918 0 1-.033.033-.967.033-1 0-.095-.094.008-.854 0-1-.018-.332.013-.666 0-1zM549.054 204.206c-.033-.033-.033-.967 0-1s.967-.033 1 0 .033.967 0 1-.967.033-1 0zM571.054 204.206c.637.121 1.372-.156 2 0 .178.045.878-.121 1 0 .167.168-.134.801 0 1h-3v-1z"/></g><path fill-rule="evenodd" clip-rule="evenodd" fill="#FFF" d="M337.614 339.676c-.2.133-.833-.168-1 0-.033.033-.033.967 0 1 .167.166.8-.135 1 0v2h-3v-4h3v1zM344.614 341.676v-1h-2v-2h2c.134.199-.167.832 0 1 .105.105.946-.127 1 0 .241.563-.185 1.412 0 2h-1zM354.614 340.676v1c.2.133.833-.168 1 0 .167.166-.134.799 0 1h-2c-.2-.135-.833.166-1 0-.167-.168.134-.801 0-1h-1v-1c-.251-.123-.77.152-1 0-.16-.107.14-.861 0-1-.125-.125-.918.146-1 0-.142-.256.113-.73 0-1h3c.25.359-.327 1.732 0 2 .199.162.773-.131 1 0h1z"/><path fill-rule="evenodd" clip-rule="evenodd" fill="#FFF" d="M354.614 340.676v-1c-.2-.135-.833.166-1 0-.167-.168.134-.801 0-1 .448.252 1.619-.33 2 0 .076.064.006.883 0 1-.008.146.095.904 0 1-.167.166-.8-.135-1 0zM337.614 340.676v-1c.2.133.833-.168 1 0 .033.033.033.967 0 1-.167.166-.8-.135-1 0z"/><g fill-rule="evenodd" clip-rule="evenodd" fill="#FFF"><path d="M45.905 323.518c.131-.227-.163-.801 0-1 .09-.11 1.832-.064 2 0 .116.044-.098.902 0 1 .167.167.8-.134 1 0-.25.36.327 1.732 0 2-.199.163-.773-.131-1 0-.134-.2.167-.833 0-1s-.8.134-1 0c-.134-.2.167-.833 0-1s-.8.133-1 0zM55.905 322.518v3h-2v-2h1c.134-.2-.167-.833 0-1s.8.133 1 0zM65.905 323.518h-1c.134.2-.167.833 0 1 .031.031.977.029 1 0 .163-.204-.13-.771 0-1h1v2c-.2.134-.833-.167-1 0-.105.105.126.946 0 1-.563.241-1.413-.185-2 0v-2h-2v-1c-.229-.13-.797.162-1 0-.029-.023-.031-.969 0-1 .167-.167.8.134 1 0 .2.134.833-.167 1 0 .077.077-.088.979 0 1 .099.024.937.063 1 0 .105-.105-.126-.946 0-1 .563-.241 1.413.185 2 0v1z"/><path d="M45.905 323.518c.134.2-.167.833 0 1s.8-.134 1 0c.134.2-.167.833 0 1s.8-.134 1 0c-.131.227.163.801 0 1-.268.327-1.64-.25-2 0-.134-.2.167-.833 0-1-.105-.105-.946.126-1 0-.241-.563.185-1.413 0-2h1zM61.905 324.518c.134.2-.167.833 0 1 .14.14.894-.16 1 0 .153.23-.123.749 0 1h-1c-.34 0-1.76.206-2 0-.037-.032-.033-.95 0-1 .106-.16.86.14 1 0 .125-.125-.147-.918 0-1 .255-.142.73.113 1 0zM57.905 326.518c-.033-.033-.033-.967 0-1s.967-.033 1 0 .033.967 0 1-.967.033-1 0zM46.905 330.518h-2v2c-.2-.134-.833.167-1 0-.122-.122.044-.822 0-1-.157-.628.12-1.363 0-2h1c.317 0 1.789-.199 2 0 .166.157-.133.807 0 1zM53.905 331.518c-.134.2.167.833 0 1-.122.122-.822-.044-1 0-.268.067-1.794.155-2 0-.16-.12.128-.837 0-1 .227-.131.801.163 1 0 .245-.2-.271-1.883 0-2 .075-.032.949-.051 1 0 .167.167-.134.8 0 1s-.167.833 0 1 .8-.134 1 0zM54.905 330.518c.134-.2-.167-.833 0-1 .088-.088.862 0 1 0s.912-.088 1 0c.167.167-.134.8 0 1h-2zM64.905 329.518c.36.25 1.732-.327 2 0 .035.043.036.964 0 1-.073.073-1.942.07-2 0-.163-.2.131-.774 0-1zM68.905 330.518c.134-.2-.167-.833 0-1 .033-.033.967-.033 1 0 .167.167-.134.8 0 1h-1zM72.905 331.518h1c.106-.28-.133-.732 0-1 .068-.138.884.116 1 0 .105-.105-.126-.946 0-1 .18-.077 1.876-.118 2 0 .032.031.032.968 0 1-.167.167-.8-.134-1 0v2c.137.117.912-.146 1 0 .035.06.043.957 0 1-.122.122-.822-.044-1 0-.628.157-1.363-.12-2 0-.134-.2.167-.833 0-1s-.8.134-1 0v-1zM46.905 330.518c.2.134.833-.167 1 0 .095.095-.008.854 0 1 .018.332-.014.667 0 1 .36.25 1.732-.327 2 0 .163.199-.131.773 0 1h-3v-3zM53.905 331.518c.134-.2-.167-.833 0-1s.8.134 1 0c-.134.2.167.833 0 1s-.8-.134-1 0zM57.905 330.518c.2.134.833-.167 1 0 .095.095-.008.854 0 1 .007.129.082.918 0 1-.033.033-.967.033-1 0-.095-.095.008-.854 0-1-.017-.332.014-.667 0-1zM59.905 330.518c.2.134.833-.167 1 0 .095.095-.008.854 0 1 .007.129.082.918 0 1-.033.033-.967.033-1 0-.095-.095.008-.854 0-1-.017-.332.014-.667 0-1zM68.905 330.518v2c-.227-.131-.801.163-1 0-.327-.268.25-1.64 0-2h1zM69.905 330.518h1c.267 0 1.855-.177 2 0 .163.199-.131.773 0 1-.2.134-.833-.167-1 0s.167.833 0 1-.833-.167-1 0 .134.8 0 1c-.36-.25-1.732.327-2 0-.163-.199.131-.773 0-1 .2-.134.833.167 1 0 .333-.333-.256-1.589 0-2zM55.905 331.518c.2.134.833-.167 1 0 .095.095-.008.854 0 1 .007.129.082.918 0 1-.073.073-1.942.07-2 0-.163-.199.131-.773 0-1 .2-.134.833.167 1 0s-.134-.8 0-1zM64.905 332.518c.36.25 1.732-.327 2 0 .035.043.036.964 0 1-.073.073-1.942.07-2 0-.163-.2.131-.774 0-1zM45.905 336.518h-1v-2c.227.131.801-.163 1 0 .327.267-.25 1.639 0 2zM45.905 336.518c.227-.131.801.163 1 0 .327-.268-.25-1.64 0-2h4c.274 0 1.846-.181 2 0 .043.05.039.942 0 1-.106.16-.86-.14-1 0-.113.113.031.832 0 1-.06.322.048.676 0 1 .071-.036.994.045 1 0-.022.16.106.894 0 1-.093.093-.856-.006-1 0-.152.006-.89.091-1 0-.327-.268.25-1.64 0-2-.2.134-.833-.167-1 0-.071.071.078.984 0 1-.105.021-.933.067-1 0-.153-.153.168-.867 0-1-.205-.162-.77.13-1 0-.131.227.163.801 0 1-.268.327-1.64-.25-2 0v-1zM56.905 335.518c-.256.411.333 1.667 0 2s-1.589-.256-2 0v-1c0-.305-.194-1.806 0-2 .033-.033.967-.033 1 0 .14.14-.16.894 0 1 .231.153.749-.123 1 0zM62.905 334.518c.134.2-.167.833 0 1 .105.105.946-.126 1 0 .075.175.116 1.884 0 2-.033.033-.967.033-1 0-.14-.14.16-.894 0-1-.132-.088-.93.127-1 0-.142-.255.113-.729 0-1 .134-.2-.167-.833 0-1s.8.133 1 0zM64.905 334.518c.36.25 1.732-.327 2 0 .035.043.036.964 0 1-.073.073-1.942.07-2 0-.163-.2.131-.774 0-1zM73.905 336.518c-.411-.256-1.667.333-2 0s.256-1.589 0-2h2v2zM76.905 337.518c.25-.36-.327-1.732 0-2 .199-.163.773.131 1 0 .134-.2-.167-.833 0-1 .122-.122.822.044 1 0 .628-.157 1.363.12 2 0v3c-.227-.131-.801.163-1 0-.323-.265.242-1.637 0-2-.103-.153-.852.123-1 0-.256.411.333 1.667 0 2s-1.589-.256-2 0zM82.905 335.518v1c0 .069.021.996 0 1-.108.02-.931.069-1 0-.122-.122.044-.823 0-1-.056-.225-.143-1.857 0-2 .073-.073 1.943-.069 2 0 .035.044.037.963 0 1-.167.167-.8-.134-1 0zM87.905 335.518c-.256.411.333 1.667 0 2s-1.589-.256-2 0v-1c0-.305-.194-1.806 0-2 .033-.033.967-.033 1 0 .14.14-.16.894 0 1 .231.153.749-.123 1 0zM88.905 334.518c.36.25 1.732-.327 2 0 .035.043.036.964 0 1-.073.073-1.942.07-2 0-.163-.2.131-.774 0-1zM91.905 334.518h3c-.134.2.167.833 0 1-.095.095-.854-.008-1 0-.113.006-.945-.077-1 0-.314.444.241 1.504 0 2 .36.25 1.732-.327 2 0 .163.2-.131.773 0 1h-3v-4zM75.905 337.518h-2v-1c.2-.134.833.167 1 0 .071-.071-.078-.984 0-1 .121-.024.911-.072 1 0 .327.267-.25 1.639 0 2zM44.905 336.518c-.13.229.163.797 0 1-.023.029-.969.031-1 0-.167-.167.134-.8 0-1h1zM65.905 337.518c-.033-.033-.033-.967 0-1s.967-.033 1 0 .033.967 0 1-.967.033-1 0zM73.905 337.518c-.134.2.167.833 0 1-.088.088-.862 0-1 0s-.912.088-1 0c-.167-.167.134-.8 0-1h2zM75.905 337.518h1c-.134.2.167.833 0 1-.033.033-.967.033-1 0-.167-.167.134-.8 0-1zM88.905 337.518c.36.25 1.732-.327 2 0 .035.043.036.964 0 1-.073.073-1.942.07-2 0-.163-.2.131-.774 0-1z"/></g><g fill="none" stroke="#FFF" stroke-miterlimit="10"><path stroke-width="1.011" d="M338.647 610.496l91.276-14.045"/><path d="M429.474 595.406l7.993-24.23"/></g><g fill-rule="evenodd" clip-rule="evenodd" fill="#FFF"><path d="M307.029 597.707h-2c.131-.227-.163-.801 0-1 .268-.326 1.64.25 2 0v1zM309.029 597.707c.134-.199-.167-.832 0-1 .088-.088.862 0 1 0s.912-.088 1 0c.167.168-.134.801 0 1h-2zM317.029 598.707c-.2.135-.833-.166-1 0-.14.141.16.895 0 1-.23.154-.749-.123-1 0v-1c0-.34-.206-1.76 0-2 .032-.037.95-.033 1 0 .16.107-.14.861 0 1 .125.125.918-.146 1 0 .141.256-.113.731 0 1zM319.029 597.707c.131-.227-.163-.801 0-1 .268-.326 1.64.25 2 0v1h-2zM323.029 596.707c.2.135.833-.166 1 0 .095.096-.008.854 0 1 .015.279.067.73 0 1-.044.178.122.879 0 1-.167.168-.8-.133-1 0v-3zM307.029 597.707h2v2h-2v-2zM319.029 597.707v2h-1c-.134.201.167.834 0 1-.167.168-.8-.133-1 0v-2c.2-.133.833.168 1 0 .167-.166-.167-.832 0-1 .167-.166.8.135 1 0zM321.029 597.707c.227.131.801-.162 1 0 .327.268-.25 1.641 0 2h-1v-2zM307.029 599.707c-.134.201.167.834 0 1-.088.088-.862 0-1 0s-.912.088-1 0c-.167-.166.134-.799 0-1h2zM309.029 599.707h2c-.131.227.163.801 0 1-.268.328-1.64-.25-2 0v-1zM319.029 599.707h2c-.131.227.163.801 0 1-.268.328-1.64-.25-2 0v-1zM309.029 604.707h1c-.134-.199.167-.832 0-1-.031-.031-.977-.029-1 0-.163.203.13.772 0 1h-2c-.256-.41.333-1.666 0-2-.265-.264-1.819.309-2 0-.035-.061-.043-.957 0-1 .167-.166.8.135 1 0h1c.317 0 1.789-.199 2 0 .058.055-.054.996 0 1 .126.01.92.08 1 0 .167-.166-.134-.799 0-1 .227.131.801-.162 1 0 .189.156-.016 1.719 0 2 .038.664-.028 1.336 0 2h-2v-1zM314.029 603.707c-.448-.252-1.619.33-2 0-.076-.064-.006-.883 0-1 .008-.146-.095-.904 0-1 .167-.166.8.135 1 0 .123.252-.153.77 0 1 .106.16.86-.139 1 0 .167.168-.134.801 0 1zM316.029 601.707c.2.135.833-.166 1 0 .095.096-.008.854 0 1 .015.279.067.73 0 1-.044.178.122.879 0 1-.167.168-.8-.133-1 0v-3zM323.029 604.707c-.333-.014-.668.018-1 0-.146-.008-.905.096-1 0-.167-.166.134-.799 0-1h-3v-2c.2.135.833-.166 1 0 .077.078-.088.979 0 1 .099.025.937.064 1 0 .105-.105-.126-.945 0-1 .457-.195 1.496-.004 2 0 .003 0-.003.934 0 1 .134.201-.167.834 0 1 .14.141.894-.16 1 0 .153.231-.123.75 0 1zM326.029 604.707h-2c.185-.586-.241-1.436 0-2 .054-.125.895.105 1 0 .167-.166-.134-.799 0-1h1c.26 0 1.864-.172 2 0 .035.045.037.963 0 1-.167.168-.8-.133-1 0-.227.131-.801-.162-1 0-.327.268.25 1.641 0 2zM330.029 601.707c.2.135.833-.166 1 0 .095.096-.008.854 0 1 .015.279.067.73 0 1-.044.178.122.879 0 1-.167.168-.8-.133-1 0v-3z"/><path d="M306.029 604.707c-.229-.129-.797.162-1 0-.029-.023-.031-.969 0-1 .167-.166.8.135 1 0v1zM314.029 604.707v-1c.2.135.833-.166 1 0 .033.033.033.967 0 1-.167.168-.8-.133-1 0zM306.029 604.707h1c-.134.201.167.834 0 1-.033.033-.967.033-1 0-.167-.166.134-.799 0-1zM314.029 604.707c-.134.201.167.834 0 1-.088.088-.862 0-1 0s-.912.088-1 0c-.167-.166.134-.799 0-1h2zM323.029 604.707h1c-.134.201.167.834 0 1-.033.033-.967.033-1 0-.167-.166.134-.799 0-1zM326.029 604.707h2c-.131.227.163.801 0 1-.268.328-1.64-.25-2 0v-1zM306.029 606.707c.2.135.833-.166 1 0 .095.096-.008.854 0 1 .015.279.067.73 0 1-.044.178.122.879 0 1-.167.168-.8-.133-1 0v-3zM309.029 606.707c.131.227-.163.801 0 1 .268.328 1.64-.25 2 0-.134.201.167.834 0 1-.167.168-.8-.133-1 0-.2.135-.833-.166-1 0-.035.035.006 1.002 0 1-.175-.039-.881.119-1 0-.122-.121.044-.822 0-1-.094-.375-.146-1.646 0-2 .049-.117.894.096 1 0zM313.029 607.707c-.033-.033-.033-.967 0-1s.967-.033 1 0 .033.967 0 1-.967.033-1 0zM316.029 607.707c-.229-.129-.797.162-1 0-.029-.023-.031-.969 0-1 .167-.166.8.135 1 0v1zM328.029 608.707h1c-.134-.199.167-.832 0-1-.031-.031-.977-.029-1 0-.163.203.13.772 0 1-.333.014-.668-.018-1 0-.146.008-.905-.094-1 0-.167.168.134.801 0 1-.333-.014-.668.018-1 0-.146-.008-.905.096-1 0-.054-.053.048-.998 0-1-.129-.006-.918-.082-1 0-.137.137.157.9 0 1-.236.152-.744-.121-1 0v-2c.2-.133.833.168 1 0 .071-.07-.078-.984 0-1 .105-.021.933-.066 1 0 .045.045-.03 1.002 0 1 .146-.008.905.096 1 0 .038-.037-.013-1.002 0-1 .166.029.889-.111 1 0 .049.049-.038 1 0 1 .188 0 .85.102 1 0 .16-.105-.14-.859 0-1 .105-.105.841.021 1 0 .435-.057 1.603-.17 2 0 .126.055-.105.895 0 1 .167.168.8-.133 1 0-.134.201.167.834 0 1-.168.168-.828-.164-1 0-.17.164.151.816 0 1-.268.328-1.64-.25-2 0v-1zM333.029 608.707c.25-.359-.327-1.732 0-2 .199-.162.773.131 1 0 .134.201-.167.834 0 1 .105.105.946-.125 1 0 .093.217.127 1.816 0 2-.107.156-.848-.125-1 0-.134-.199.167-.832 0-1-.167-.166-.8.135-1 0zM316.029 607.707c.448.254 1.619-.33 2 0 .076.066.006.885 0 1-.008.146.095.906 0 1-.167.168-.8-.133-1 0-.123-.25.153-.77 0-1-.106-.16-.86.141-1 0-.167-.166.134-.799 0-1zM313.029 609.707c-.033-.033-.033-.967 0-1s.967-.033 1 0 .033.967 0 1-.967.033-1 0zM333.029 608.707c-.13.23.163.797 0 1-.023.029-.969.031-1 0-.167-.166.134-.799 0-1h1zM309.029 610.707c.2.135.833-.166 1 0 .095.096-.008.854 0 1 .053.998-.042 2.002 0 3-.2-.133-.833.168-1 0-.095-.094.008-.854 0-1-.053-.996.042-2.002 0-3zM312.029 610.707c.36.25 1.732-.326 2 0 .035.043.036.965 0 1-.073.074-1.942.07-2 0-.163-.199.131-.773 0-1zM326.029 611.707v2h1c.121 0 .932.082 1 0-.156.186.17.83 0 1-.095.096-.854-.008-1 0-.279.016-.729.068-1 0-.178-.043-.878.123-1 0-.056-.055.053-.996 0-1-.125-.01-.921-.078-1 0-.14.141.16.895 0 1-.104.07-.874.033-1 0-.092-.023.08-.92 0-1-.167-.166-.8.135-1 0v-1c0-.133-.087-.916 0-1 .035-.033.966-.033 1 0 .08.08-.092.977 0 1 .097.025.938.063 1 0 .14-.139-.16-.893 0-1 .23-.152.749.123 1 0 .134-.199-.167-.832 0-1 .122-.121.822.045 1 0 .187-.047 1.916-.117 2 0 .036.051.039.961 0 1-.095.096-.854-.008-1 0-.332.018-.667-.014-1 0zM330.029 611.707c-.082-.061-.981.078-1 0-.024-.098-.063-.936 0-1 .088-.088.862 0 1 0s.912-.088 1 0c.127.127-.052.818 0 1 .061.215.137 1.863 0 2-.033.033-.967.033-1 0-.095-.094.008-.854 0-1-.018-.332.013-.666 0-1zM335.029 613.707h-2v-1c0-.316-.199-1.789 0-2 .157-.166.808.133 1 0 .134.201-.167.834 0 1 .105.105.946-.125 1 0 .241.564-.185 1.414 0 2zM305.029 611.707h3c-.25.361.327 1.732 0 2-.199.164-.773-.131-1 0-.131.227.163.801 0 1-.268.328-1.64-.25-2 0v-3zM315.029 611.707c.2.135.833-.166 1 0 .095.096-.008.854 0 1 .007.129.082.918 0 1-.033.033-.967.033-1 0-.095-.094.008-.854 0-1-.018-.332.013-.666 0-1zM317.029 611.707c.2.135.833-.166 1 0 .095.096-.008.854 0 1 .007.129.082.918 0 1-.033.033-.967.033-1 0-.095-.094.008-.854 0-1-.018-.332.013-.666 0-1zM313.029 613.707c-.033-.033-.033-.967 0-1s.967-.033 1 0 .033.967 0 1-.967.033-1 0zM335.029 613.707c.637.121 1.372-.156 2 0 .178.045.878-.121 1 0 .167.168-.134.801 0 1h-3v-1z"/></g><path fill="#FFF" d="M543.035 214.721l.201 8.034c0 .286-.053.504-.158.652a.527.527 0 0 1-.457.222.505.505 0 0 1-.43-.215c-.105-.144-.168-.354-.187-.631l-.058-1.79c-.974 1.051-2.043 1.862-3.208 2.435s-2.325.859-3.48.859c-.897 0-1.606-.229-2.127-.687-.521-.459-.78-1.084-.78-1.877 0-1.012.697-1.936 2.092-2.771 1.394-.835 3.847-1.769 7.361-2.8l-.029-1.16c-.038-1.098-.195-1.843-.473-2.233-.277-.392-.744-.588-1.403-.588-.411 0-.891.077-1.439.229-.549.153-1.206.396-1.969.73-.306.134-.681.324-1.125.572-.444.249-.732.372-.866.372a.517.517 0 0 1-.372-.149.472.472 0 0 1-.158-.351c0-.182.091-.36.272-.537s.492-.38.931-.609c.937-.486 1.831-.861 2.686-1.124s1.602-.394 2.241-.394c1.061 0 1.805.267 2.234.802s.664 1.538.701 3.009zm-1.174 4.811l-.028-2.205c-3.008.945-5.113 1.747-6.316 2.406-1.203.658-1.805 1.322-1.805 1.99 0 .41.158.735.473.974.315.239.755.358 1.317.358.955 0 1.986-.306 3.094-.917 1.107-.61 2.196-1.479 3.265-2.606z"/><circle fill="none" stroke="#FFF" stroke-width=".796" cx="537.698" cy="218.229" r="12.546"/><path fill="#FFF" d="M448.258 551.322l.201 8.035c0 .285-.053.504-.158.652a.529.529 0 0 1-.457.221.505.505 0 0 1-.43-.215c-.105-.143-.168-.354-.187-.631l-.058-1.789c-.974 1.051-2.043 1.861-3.208 2.434-1.165.574-2.325.859-3.48.859-.897 0-1.606-.229-2.127-.686-.521-.459-.78-1.084-.78-1.877 0-1.012.697-1.936 2.092-2.771 1.394-.836 3.847-1.77 7.361-2.801l-.029-1.16c-.038-1.098-.195-1.842-.473-2.232-.277-.393-.744-.588-1.403-.588-.411 0-.891.076-1.439.229-.549.154-1.206.396-1.969.73-.306.135-.681.324-1.125.572-.444.25-.732.373-.866.373a.514.514 0 0 1-.372-.15.47.47 0 0 1-.158-.35c0-.182.091-.361.272-.537.182-.178.492-.381.931-.609a16.336 16.336 0 0 1 2.686-1.125c.854-.262 1.602-.393 2.241-.393 1.061 0 1.805.266 2.234.801s.664 1.538.701 3.008zm-1.174 4.813l-.028-2.205c-3.008.945-5.113 1.746-6.316 2.406-1.203.658-1.805 1.322-1.805 1.99 0 .41.158.734.473.973.315.24.755.359 1.317.359.955 0 1.986-.307 3.094-.918 1.107-.609 2.196-1.478 3.265-2.605z"/><circle fill="none" stroke="#FFF" stroke-width=".796" cx="442.921" cy="554.832" r="12.546"/><path fill="#FFF" d="M240.105 344.885l.201 8.035c0 .285-.053.504-.158.652a.529.529 0 0 1-.457.221.505.505 0 0 1-.43-.215c-.105-.143-.168-.354-.187-.631l-.058-1.789c-.974 1.051-2.043 1.861-3.208 2.434-1.165.574-2.325.859-3.48.859-.897 0-1.606-.229-2.127-.686-.521-.459-.78-1.084-.78-1.877 0-1.012.697-1.936 2.092-2.771 1.394-.836 3.847-1.77 7.361-2.801l-.029-1.16c-.038-1.098-.195-1.842-.473-2.232-.277-.393-.744-.588-1.403-.588-.411 0-.891.076-1.439.229-.549.154-1.206.396-1.969.73-.306.135-.681.324-1.125.572-.444.25-.732.373-.866.373a.514.514 0 0 1-.372-.15.47.47 0 0 1-.158-.35c0-.182.091-.361.272-.537.182-.178.492-.381.931-.609a16.336 16.336 0 0 1 2.686-1.125c.854-.262 1.602-.393 2.241-.393 1.061 0 1.805.266 2.234.801s.664 1.537.701 3.008zm-1.173 4.812l-.028-2.205c-3.008.945-5.113 1.746-6.316 2.406-1.203.658-1.805 1.322-1.805 1.99 0 .41.158.734.473.973.315.24.755.359 1.317.359.955 0 1.986-.307 3.094-.918 1.106-.609 2.195-1.478 3.265-2.605z"/><circle fill="none" stroke="#FFF" stroke-width=".796" cx="234.769" cy="348.395" r="12.546"/><g fill="#FFF"><path d="M269.753 245.48l6.32-.146c.148 0 .264.033.341.099a.354.354 0 0 1 .119.281c0 .113-.042.2-.124.258-.085.06-.21.089-.364.089l-6.305.122a.493.493 0 0 1-.151.159.515.515 0 0 1-.223.047c-.144 0-.246-.042-.305-.122-.058-.084-.087-.225-.087-.426 0-.765.146-1.438.438-2.013.288-.575.728-1.066 1.314-1.467.327-.219.892-.515 1.708-.877.812-.369 1.399-.692 1.769-.963.425-.326.753-.672.976-1.029.223-.362.34-.727.34-1.103 0-.551-.223-.996-.658-1.348-.442-.346-1.01-.521-1.713-.521-.568 0-1.087.122-1.567.364a3.068 3.068 0 0 0-1.172 1.019 4.797 4.797 0 0 0-.328.574c-.129.274-.26.411-.387.411a.29.29 0 0 1-.238-.113.42.42 0 0 1-.09-.282c0-.189.07-.422.221-.702.144-.275.341-.539.588-.78.408-.408.866-.72 1.371-.927a4.27 4.27 0 0 1 1.629-.313c.919 0 1.668.251 2.25.744.581.492.869 1.128.869 1.903 0 .412-.084.798-.249 1.16a3.4 3.4 0 0 1-.766 1.031c-.451.435-1.367.979-2.75 1.635a39.04 39.04 0 0 0-.807.386c-.649.313-1.126.688-1.429 1.127-.295.434-.48 1.01-.54 1.723zM280.117 245.48l6.324-.146c.145 0 .258.033.339.099a.347.347 0 0 1 .117.281c0 .113-.043.2-.128.258-.083.06-.201.089-.363.089l-6.306.122a.407.407 0 0 1-.148.159.521.521 0 0 1-.227.047c-.141 0-.242-.042-.301-.122-.059-.084-.085-.225-.085-.426 0-.765.142-1.438.433-2.013a3.927 3.927 0 0 1 1.314-1.467c.327-.219.9-.515 1.709-.877.813-.369 1.406-.692 1.77-.963.429-.326.753-.672.979-1.029.225-.362.333-.727.333-1.103 0-.551-.216-.996-.656-1.348-.435-.346-1.008-.521-1.711-.521-.563 0-1.09.122-1.568.364a3.024 3.024 0 0 0-1.167 1.019 5.064 5.064 0 0 0-.33.574c-.135.274-.263.411-.393.411a.282.282 0 0 1-.234-.113.451.451 0 0 1-.094-.282c0-.189.076-.422.223-.702.151-.275.344-.539.588-.78.408-.408.865-.72 1.373-.927a4.292 4.292 0 0 1 1.635-.313c.916 0 1.666.251 2.244.744.583.492.875 1.128.875 1.903 0 .412-.086.798-.257 1.16a3.384 3.384 0 0 1-.762 1.031c-.446.435-1.366.979-2.754 1.635-.352.164-.618.294-.797.386-.656.313-1.132.688-1.429 1.127-.305.434-.482 1.01-.546 1.723zM290.812 235.667c.598 0 1.114.207 1.534.626.419.417.629.929.629 1.528 0 .604-.209 1.119-.629 1.537a2.11 2.11 0 0 1-1.548.627c-.606 0-1.118-.206-1.532-.623-.41-.416-.618-.927-.618-1.541 0-.604.208-1.117.624-1.533.415-.416.93-.621 1.54-.621zm0 .687c-.438 0-.797.13-1.077.396-.274.262-.412.598-.412 1.011 0 .443.142.813.423 1.108a1.39 1.39 0 0 0 1.051.442c.424 0 .777-.141 1.066-.428.285-.282.431-.633.431-1.048a1.43 1.43 0 0 0-.426-1.056 1.438 1.438 0 0 0-1.056-.425z"/></g><path fill="none" stroke="#FFF" stroke-width=".706" stroke-miterlimit="10" stroke-dasharray="4" d="M309.542 338.811l-.112 1.919M309.542 358.004l-.112-1.92"/><path fill="none" stroke="#FFF" stroke-width=".25" stroke-miterlimit="10" stroke-dasharray="4" d="M429.661 117.98l132.551 33.1M506.494 593.559l115.338-73.428"/></svg>